<svg width="180" height="68" viewBox="0 0 180 68" fill="none" xmlns="http://www.w3.org/2000/svg">
<path d="M47.267 35.5331C47.267 35.3142 47.0488 34.8763 47.0488 34.6573L42.465 30.0591C42.0285 29.6212 42.0285 28.9643 42.465 28.5263L45.5209 25.4609C45.9574 25.023 46.6122 25.023 47.0488 25.4609L53.5969 32.0297C53.8152 32.2487 53.8152 32.4677 53.8152 32.9056V50.4226C53.8152 51.0795 53.3787 51.5174 52.7238 51.5174H48.3584C47.7036 51.5174 47.267 51.0795 47.267 50.4226V35.5331ZM131.738 59.1811C134.794 59.1811 137.195 56.7725 137.195 53.707C137.195 50.6416 134.794 48.233 131.738 48.233C128.683 48.233 126.282 50.6416 126.282 53.707C126.282 56.7725 128.683 59.1811 131.738 59.1811ZM32.8611 43.6348C32.2062 43.6348 31.7697 44.0727 31.7697 44.7296V54.3639C31.7697 54.5829 31.5514 55.0208 31.5514 55.2398L23.9119 62.9034C23.4753 63.3414 22.8205 63.3414 22.384 62.9034L19.3282 59.838C18.8916 59.4 18.8916 58.7432 19.3282 58.3052L24.785 52.6122C25.0033 52.3933 25.0033 52.1743 25.0033 51.7364V44.7296C25.0033 44.0727 24.5667 43.6348 23.9119 43.6348H19.5464C18.8916 43.6348 18.4551 43.1968 18.4551 42.5399V38.1607C18.4551 37.5038 18.8916 37.0659 19.5464 37.0659H23.9119C24.5667 37.0659 25.0033 36.628 25.0033 35.9711V28.3074C25.0033 27.6505 25.4398 27.2126 26.0946 27.2126H30.4601C31.1149 27.2126 31.5514 27.6505 31.5514 28.3074V35.9711C31.5514 36.628 31.988 37.0659 32.6428 37.0659H41.3737C42.0285 37.0659 42.465 37.5038 42.465 38.1607V62.4655C42.465 63.1224 42.0285 63.5603 41.3737 63.5603H33.9524C33.2976 63.5603 32.8611 63.1224 32.8611 62.4655V58.0863C32.8611 57.4294 33.2976 56.9915 33.9524 56.9915H35.0438C35.6986 56.9915 36.1351 56.5535 36.1351 55.8966V44.9485C36.1351 44.2916 35.6986 43.8537 35.0438 43.8537H32.8611V43.6348ZM83.5003 47.795C83.7185 47.5761 83.9368 46.9192 83.7185 46.7002C83.5003 46.2623 83.0637 46.0433 82.6272 46.0433H70.1856C69.5308 46.0433 69.0943 45.6054 69.0943 44.9485V40.5693C69.0943 39.9124 69.5308 39.4745 70.1856 39.4745H78.2617C78.48 39.4745 78.9165 39.2555 79.1348 39.2555L81.3175 37.0659C81.5358 36.8469 81.7541 36.19 81.5358 35.9711C81.3175 35.5331 80.881 35.3142 80.4445 35.3142H78.9165C78.2617 35.3142 77.8252 34.8763 77.8252 34.2194V29.8401C77.8252 29.1832 78.2617 28.7453 78.9165 28.7453H96.3783C96.8149 28.7453 97.2514 28.9643 97.4697 29.4022C97.688 29.8401 97.4697 30.278 97.2514 30.497L90.0484 37.7228C89.8302 37.9417 89.6119 38.5986 89.8302 38.8176C90.0484 39.2555 90.485 39.4745 90.9215 39.4745H103.363C104.018 39.4745 104.454 39.9124 104.454 40.5693V44.9485C104.454 45.6054 104.018 46.0433 103.363 46.0433H95.287C95.0687 46.0433 94.6322 46.2623 94.4139 46.2623L87.8657 52.8312C87.4292 53.2691 87.4292 53.926 87.8657 54.3639L92.886 59.4C93.3225 59.838 93.3225 60.4949 92.886 60.9328L89.8302 63.9983C89.3936 64.4362 88.7388 64.4362 88.3023 63.9983L78.6983 54.3639C78.2617 53.926 78.2617 53.2691 78.6983 52.8312L83.5003 47.795ZM139.378 38.1607C139.378 38.8176 139.815 39.2555 140.469 39.2555H142.652C143.307 39.2555 143.743 38.8176 143.743 38.1607V35.9711C143.743 35.3142 143.307 34.8763 142.652 34.8763H140.469C139.815 34.8763 139.378 35.3142 139.378 35.9711V38.1607ZM130.647 38.1607C130.647 38.8176 131.084 39.2555 131.738 39.2555C132.393 39.2555 132.83 38.8176 132.83 38.1607V35.9711C132.83 35.3142 132.393 34.8763 131.738 34.8763C131.084 34.8763 130.647 35.3142 130.647 35.9711V38.1607ZM127.373 28.3074C128.028 28.3074 128.464 27.8695 128.464 27.2126V26.1178C128.464 25.4609 128.901 25.0229 129.556 25.0229H133.921C134.576 25.0229 135.013 25.4609 135.013 26.1178V27.2126C135.013 27.8695 135.449 28.3074 136.104 28.3074H161.205C161.642 28.3074 162.078 28.5263 162.297 28.9643C162.515 29.4022 162.297 29.8401 162.078 30.0591L154.875 37.2848C154.657 37.5038 154.439 38.1607 154.657 38.3797C154.875 38.5986 155.312 39.0365 155.748 39.0365H161.424C161.86 39.0365 162.297 39.2555 162.515 39.6934C162.733 40.1314 162.515 40.5693 162.297 40.7882L150.946 52.1743C150.728 52.3933 150.728 52.6122 150.728 53.0501V63.5603C150.728 64.2172 150.292 64.6551 149.637 64.6551H145.271C144.617 64.6551 144.18 64.2172 144.18 63.5603V46.9192C144.18 46.2623 143.743 45.8244 143.089 45.8244C142.87 45.8244 142.434 46.0433 142.434 46.2623C142.216 46.4813 142.216 46.9192 142.434 47.1382C143.962 49.5467 144.617 52.6122 143.962 55.8966C143.089 60.4949 139.378 64.4362 134.794 65.312C126.936 66.8448 120.17 60.9328 120.17 53.4881C120.17 50.8605 121.043 48.233 122.571 46.2623V46.0433L122.353 45.8244C121.698 45.8244 121.261 45.3865 121.261 44.7296V40.3503C121.261 39.6934 121.698 39.2555 122.353 39.2555H123.444C124.099 39.2555 124.535 38.8176 124.535 38.1607V35.9711C124.535 35.3142 124.099 34.8763 123.444 34.8763H122.353C121.698 34.8763 121.261 34.4383 121.261 33.7814V29.4022C121.261 28.7453 121.698 28.3074 122.353 28.3074H127.373Z" fill="#284399"/>
<path d="M150.292 15.6074C150.292 15.3884 150.292 14.9505 150.292 14.7315C150.292 14.5126 150.073 14.0746 149.637 14.0746C149.2 14.0746 148.764 14.0746 148.109 14.0746C147.672 14.0746 147.018 14.0746 146.581 14.0746C145.926 14.0746 145.926 14.5126 145.926 15.8263C145.926 17.3591 145.926 17.3591 148.109 17.3591C150.292 17.3591 150.292 17.1401 150.292 15.6074ZM146.363 8.60057C145.926 8.60057 145.708 8.38161 145.49 7.94368C145.271 7.50576 144.835 6.84887 144.617 6.62991C144.398 6.41095 144.398 6.19198 144.398 5.97302C144.398 5.5351 145.053 5.09717 145.49 5.09717C146.363 5.09717 147.454 7.06783 147.454 7.72472C147.454 8.16265 147.018 8.60057 146.363 8.60057ZM152.256 4.65925H143.962C143.089 4.65925 142.87 4.22132 142.87 3.7834C142.87 3.34547 143.307 2.68858 143.962 2.68858H147.018V1.59377C147.018 0.936885 147.672 0.49896 148.109 0.49896C148.764 0.49896 149.419 0.936885 149.419 1.59377V2.68858H152.256C152.911 2.68858 153.347 3.12651 153.347 3.7834C153.347 4.44028 152.911 4.65925 152.256 4.65925ZM152.693 10.7902H143.743C142.87 10.7902 142.652 10.3523 142.652 9.91435C142.434 9.25746 142.87 8.81953 143.525 8.81953H148.109C148.545 8.16265 149.2 6.62991 149.419 5.5351C149.637 4.87821 150.073 4.65925 150.51 4.65925C151.165 4.65925 151.82 5.09717 151.82 5.75406C151.82 6.41095 150.728 8.16265 150.51 8.60057H152.693C153.347 8.81953 153.784 9.25746 153.784 9.69538C153.784 10.3523 153.347 10.7902 152.693 10.7902ZM152.693 17.1401C152.693 18.2349 151.82 19.1108 150.51 19.3297C149.855 19.3297 149.2 19.3297 148.327 19.3297C144.398 19.3297 143.743 19.3297 143.743 15.8263C143.743 15.1694 143.743 14.7315 143.743 14.0746C143.743 12.9798 144.617 12.104 145.708 12.104C146.363 12.104 147.018 12.104 147.891 12.104C148.764 12.104 149.855 12.104 150.51 12.104C151.82 12.104 152.693 12.9798 152.693 14.0746C152.693 14.7315 152.693 15.3884 152.693 16.0453C152.693 16.2643 152.693 16.7022 152.693 17.1401ZM158.586 16.7022C156.84 16.7022 156.622 15.6074 156.622 15.1694C156.622 14.5126 157.058 13.8557 157.713 13.8557H157.931C158.149 13.8557 158.368 13.8557 158.368 13.8557C158.804 13.8557 159.459 13.8557 159.459 12.3229C159.459 11.2281 159.022 10.3523 158.368 9.47642C157.931 8.81953 157.713 8.16265 157.713 7.50576C157.713 6.84887 157.931 6.41095 158.149 5.97302C158.368 5.31613 159.023 3.7834 159.023 3.56443C159.023 3.34547 159.022 3.12651 157.713 3.12651C156.621 3.12651 156.185 3.12651 156.185 3.7834C156.185 5.09717 156.185 6.41095 156.185 7.94368C156.185 10.7902 156.185 13.8557 156.185 16.9211V18.6728C156.185 19.3297 155.53 19.7677 155.094 19.7677C154.439 19.7677 153.784 19.3297 153.784 18.6728C153.784 10.7902 153.784 7.50576 153.784 3.56443C153.784 2.0317 154.657 1.15585 155.967 1.15585C156.622 1.15585 157.276 1.15585 157.931 1.15585C158.368 1.15585 158.804 1.15585 159.459 1.15585C160.987 1.15585 161.86 2.0317 161.86 3.12651C161.86 4.00236 161.424 4.87821 160.332 6.84887C160.114 7.06783 160.114 7.50576 160.114 7.72472C160.114 8.16265 160.332 8.38161 160.55 8.81953C161.205 9.91435 162.078 11.2281 162.078 12.9798C162.078 15.6074 160.332 16.7022 158.586 16.7022ZM125.409 10.7902V10.3523C125.409 9.91435 125.19 9.69538 121.48 9.69538C120.388 9.69538 119.297 9.69538 118.206 9.69538C117.551 9.69538 117.332 10.1333 117.332 10.1333V10.5712H125.409V10.7902ZM125.409 14.5126V14.0746H117.332V14.5126C117.332 14.9505 117.551 14.9505 121.261 14.9505C122.353 14.9505 123.444 14.9505 124.317 14.9505C125.19 15.1694 125.409 14.9505 125.409 14.5126ZM125.627 12.9798V12.104H117.551V12.9798H125.627ZM115.368 7.06783L115.586 5.31613C113.622 6.62991 113.185 6.84887 112.749 6.84887C112.094 6.84887 111.657 6.19198 111.657 5.75406C111.657 5.31613 111.876 5.09717 112.312 4.87821C114.277 4.00236 116.241 2.46962 117.769 0.49896C117.987 0.279998 118.424 0.0610352 118.642 0.0610352C119.297 0.0610352 119.952 0.717922 119.952 1.15585C119.952 1.37481 119.952 1.59377 119.733 1.81273C119.079 2.46962 118.642 2.90755 117.987 3.56443L117.769 7.06783C117.769 7.94368 117.114 8.16265 116.459 8.16265C115.805 8.16265 115.368 7.94368 115.368 7.06783ZM123.226 4.65925V4.87821C123.226 5.75406 123.662 5.75406 125.409 5.75406C127.155 5.75406 128.246 5.5351 128.246 4.44028C128.246 3.7834 128.901 3.56443 129.337 3.56443C129.774 3.56443 130.647 3.7834 130.647 4.65925C130.647 7.2868 128.464 7.72472 125.409 7.72472C123.008 7.72472 120.607 7.72472 120.607 5.31613C120.607 4.00236 120.607 2.46962 120.607 1.37481C121.043 0.49896 121.48 0.0610352 122.134 0.0610352C122.789 0.0610352 123.226 0.49896 123.226 1.15585C123.226 1.59377 123.226 2.0317 123.226 2.68858C124.754 2.25066 126.282 1.59377 127.591 1.15585C127.81 1.15585 128.028 0.936885 128.028 0.936885C128.683 0.936885 129.337 1.59377 129.337 2.0317C129.337 2.46962 129.119 2.90755 128.464 3.12651C126.936 3.56443 124.754 4.22132 123.226 4.65925ZM125.409 16.7022H124.972C126.5 17.3591 127.81 17.578 129.556 17.578C130.429 17.578 130.865 18.2349 130.865 18.6728C130.865 19.3297 130.429 19.7677 129.556 19.7677C128.683 19.7677 126.063 19.3297 123.662 18.2349C123.226 18.016 123.008 17.578 123.008 17.3591C123.008 17.1401 123.226 16.7022 123.444 16.4832H119.952C120.17 16.7022 120.17 16.9211 120.17 17.3591C120.17 17.797 119.952 18.016 119.515 18.2349C117.769 19.1108 115.15 19.9866 113.622 19.9866C112.749 19.9866 112.312 19.3297 112.312 18.8918C112.312 18.4539 112.749 17.797 113.622 17.797C115.368 17.578 116.678 17.3591 118.206 16.7022H117.987C116.459 16.7022 115.805 16.0453 115.805 15.1694C115.805 14.2936 115.805 13.4177 115.805 12.5419C115.805 11.666 115.805 10.7902 115.805 9.91435C115.805 9.25746 116.459 8.38161 117.987 8.38161C119.515 8.38161 120.825 8.38161 122.353 8.38161C123.444 8.38161 124.535 8.38161 125.845 8.38161C127.373 8.38161 128.028 9.25746 128.246 9.91435C128.246 10.7902 128.246 11.666 128.246 12.5419C128.246 13.4177 128.246 14.2936 128.246 15.1694C127.591 16.0453 126.718 16.7022 125.409 16.7022ZM92.4494 8.38161V6.84887C90.7032 6.84887 90.2667 6.84887 90.2667 7.50576V8.38161H92.4494ZM94.6321 8.38161H97.0331C97.0331 8.16265 97.0331 7.72472 97.0331 7.50576C97.0331 7.2868 96.8149 6.84887 96.3783 6.84887C95.7235 6.84887 95.287 6.84887 94.8504 6.84887V8.38161H94.6321ZM92.4494 11.2281V9.91435H90.2667V11.2281H92.4494ZM97.0331 11.2281V9.91435H94.6321V11.2281H97.0331ZM85.4647 5.75406C85.0281 5.75406 84.8099 5.5351 84.5916 5.31613C83.9368 4.44028 83.0637 3.7834 82.4089 3.34547C81.9723 3.12651 81.9723 2.90755 81.9723 2.46962C81.9723 1.81273 82.6271 1.37481 83.282 1.37481C83.9368 1.37481 86.7743 2.90755 86.7743 4.22132C86.7743 5.09717 86.1195 5.75406 85.4647 5.75406ZM85.4647 17.1401C83.5002 19.3297 82.8454 19.7677 82.1906 19.7677C81.3175 19.7677 80.6627 19.1108 80.6627 18.4539C80.6627 18.016 80.881 17.797 81.3175 17.578C82.4089 16.9211 83.5002 16.2643 84.1551 15.3884C84.1551 14.5126 84.1551 13.6367 84.1551 12.9798V11.885C84.1551 11.4471 83.9368 11.4471 83.282 11.4471H82.4089C81.9723 11.4471 81.0992 11.4471 81.0992 10.3523C81.0992 9.69538 81.5358 9.25746 82.1906 9.25746C83.0637 9.25746 83.7185 9.25746 84.3733 9.25746C85.9012 9.25746 86.5561 9.91435 86.5561 11.4471C86.5561 12.7609 86.5561 14.2936 86.5561 15.6074C87.8657 17.3591 90.2667 17.797 93.1042 17.797C95.287 17.797 97.6879 17.578 99.4341 17.3591H99.6524C100.525 17.3591 100.962 18.016 100.962 18.6728C100.962 19.3297 100.525 19.7677 99.6524 19.9866C97.9062 19.7677 95.9418 19.7677 93.9773 19.7677C88.5205 19.7677 87.2109 18.8918 85.4647 17.1401ZM97.0331 13.4177V12.9798H94.6321V15.8263C94.6321 16.4832 94.1956 16.7022 93.5408 16.7022C93.1042 16.7022 92.4494 16.2643 92.4494 15.8263V12.9798H90.2667C90.2667 13.8557 90.2667 14.7315 90.2667 15.8263C90.2667 16.4832 89.8301 16.9211 89.1753 16.9211C88.7388 16.9211 88.084 16.4832 88.084 15.8263C88.084 14.5126 88.084 13.1988 88.084 12.104C88.084 10.5712 88.084 8.81953 88.084 7.2868C88.084 5.97302 88.7388 5.31613 90.2667 5.31613H91.7946C90.7032 4.65925 90.7032 4.65925 90.7032 4.44028C90.7032 4.00236 91.1398 3.56443 91.7946 3.56443C92.2311 3.56443 93.1042 4.00236 93.3225 4.22132C93.759 4.00236 95.0687 3.34547 95.0687 3.12651C95.0687 3.12651 95.0687 2.90755 94.8504 2.90755C93.3225 2.90755 90.485 2.90755 88.7388 3.12651C88.084 3.12651 87.8657 2.68858 87.8657 2.25066C87.8657 1.81273 88.084 1.15585 88.7388 1.15585C90.2667 1.15585 92.0129 1.15585 93.5408 1.15585C94.4139 1.15585 95.287 1.15585 96.16 1.15585C97.4697 1.15585 98.1245 1.81273 98.1245 2.46962C98.1245 3.56443 96.3783 4.44028 94.8504 5.31613C95.5052 5.31613 95.9418 5.31613 96.5966 5.31613C98.1245 5.31613 98.7793 5.97302 98.7793 7.50576C98.7793 8.16265 98.7793 8.60057 98.7793 9.25746C98.7793 11.2281 98.7793 13.6367 98.7793 14.2936V14.5126C98.7793 15.8263 98.1245 16.9211 96.3783 16.9211C95.0687 16.9211 94.6321 16.4832 94.6321 15.8263C94.6321 15.3884 94.8504 14.7315 95.5052 14.7315H95.7235H95.9418C96.8149 14.2936 97.0331 14.0746 97.0331 13.4177ZM66.2567 4.44028V3.7834C66.2567 3.12651 66.0384 3.12651 64.074 3.12651C62.3278 3.12651 62.3278 3.12651 62.1095 3.7834C62.1095 4.00236 62.1095 4.22132 62.1095 4.44028H66.2567ZM66.2567 7.50576V6.19198H62.1095V7.50576H66.2567ZM66.2567 9.47642H62.1095V10.1333C62.1095 11.0092 62.7644 11.0092 63.8557 11.0092C65.8202 11.0092 66.0384 11.0092 66.0384 10.1333C66.2567 9.91435 66.2567 9.69538 66.2567 9.47642ZM61.0182 16.0453C60.7999 16.0453 60.3634 15.8263 60.1451 15.6074C59.7085 14.9505 59.0537 14.5126 58.6172 14.0746C58.1806 13.8557 58.1806 13.6367 58.1806 13.4177C58.1806 12.9798 58.8355 12.3229 59.4903 12.3229C60.1451 12.3229 62.3278 13.6367 62.3278 14.7315C62.3278 15.3884 61.673 16.0453 61.0182 16.0453ZM68.2212 18.6728C67.7846 18.6728 67.5664 18.4539 67.3481 18.016C66.9115 17.1401 66.0384 16.2643 65.3836 15.8263C64.9471 15.6074 64.9471 15.1694 64.9471 14.9505C64.9471 14.2936 65.3836 13.8557 66.0384 13.8557C67.3481 13.8557 69.0943 16.2643 69.3125 16.4832C69.5308 16.7022 69.5308 16.9211 69.5308 17.1401C69.5308 18.2349 68.876 18.6728 68.2212 18.6728ZM51.6325 19.3297C50.9776 19.3297 50.3228 18.6728 50.3228 18.016C50.3228 17.578 50.5411 17.1401 50.9776 16.9211C51.4142 16.7022 52.5056 15.6074 52.7238 15.1694C52.9421 14.7315 53.3786 14.5126 53.8152 14.5126C54.47 14.5126 55.1248 14.9505 55.1248 15.6074C55.1248 16.7022 52.9421 19.3297 51.6325 19.3297ZM62.5461 16.7022C62.5461 16.0453 62.9826 15.8263 63.6374 15.8263C64.2923 15.8263 64.9471 16.2643 64.9471 16.7022C64.9471 18.8918 64.2923 19.5487 59.7085 19.5487C56.2162 19.5487 55.3431 18.8918 55.3431 16.9211C55.3431 16.9211 55.3431 14.7315 55.3431 14.5126C55.3431 13.8557 55.9979 13.4177 56.6527 13.4177C57.3075 13.4177 57.9624 13.8557 57.9624 14.5126C57.9624 14.9505 57.9624 16.7022 57.9624 16.7022C57.9624 17.3591 58.6172 17.578 60.1451 17.578C62.1095 17.797 62.5461 17.578 62.5461 16.7022ZM54.47 11.885V7.72472C52.2873 11.0092 51.4142 11.0092 51.1959 11.0092C50.5411 11.0092 50.1046 10.3523 50.1046 9.91435C50.1046 9.69538 50.3228 9.25746 50.5411 9.0385C51.6325 8.16265 53.1604 6.62991 54.47 5.09717H52.069C51.4142 5.09717 50.9776 4.65925 50.9776 4.00236C50.9776 3.56443 51.4142 2.90755 52.069 2.90755H54.47V1.15585C54.47 0.279998 55.1248 0.0610352 55.5614 0.0610352C56.2162 0.0610352 56.6527 0.49896 56.6527 1.15585C56.6527 1.15585 56.6527 1.81273 56.6527 2.90755H58.6172C59.272 2.90755 59.4903 3.34547 59.4903 4.00236C59.4903 4.44028 59.0537 5.09717 58.6172 5.09717H56.6527C56.6527 5.31613 56.6527 5.75406 56.6527 5.97302H56.871C57.3075 5.97302 59.4903 6.84887 59.4903 7.94368C59.4903 8.60057 59.0537 9.0385 58.3989 9.0385C58.1806 9.0385 57.9624 8.81953 57.7441 8.60057C57.3075 8.16265 56.871 7.72472 56.6527 7.50576C56.6527 11.0092 56.871 11.666 56.871 11.666C56.871 12.3229 56.2162 12.5419 55.7796 12.5419C54.9066 12.7609 54.47 12.5419 54.47 11.885ZM68.2212 10.5712C68.2212 11.666 67.3481 12.5419 66.0384 12.7609C65.3836 12.7609 64.9471 12.7609 64.2923 12.7609C63.6375 12.7609 62.7644 12.7609 62.1095 12.7609C60.5816 12.7609 59.9268 11.885 59.9268 10.7902C59.9268 9.69538 59.9268 8.60057 59.9268 7.2868C59.9268 5.97302 59.9268 4.65925 59.9268 3.56443C59.9268 2.68858 60.5816 1.59377 62.1095 1.59377C62.7644 1.59377 63.4192 1.59377 64.074 1.59377C64.7288 1.59377 65.3836 1.59377 66.0384 1.59377C67.3481 1.59377 68.2212 2.46962 68.2212 3.56443C68.2212 4.65925 68.2212 5.97302 68.2212 7.2868C68.2212 8.16265 68.2212 9.47642 68.2212 10.5712ZM34.3889 8.38161H31.9879C32.2062 9.91435 32.6428 11.4471 33.5159 12.7609C34.6072 11.0092 34.8255 9.0385 34.8255 8.81953C34.8255 8.60057 34.8255 8.38161 34.3889 8.38161ZM22.1657 9.25746C21.0743 10.5712 20.4195 10.7902 19.983 10.7902C19.3281 10.7902 18.8916 10.3523 18.8916 9.69538C18.8916 9.47642 19.1099 9.0385 19.3281 8.81953C21.5109 6.84887 23.2571 4.44028 24.5667 1.37481C24.5667 0.717923 25.0032 0.49896 25.4398 0.49896C26.0946 0.49896 26.7494 0.936885 26.7494 1.81273C26.7494 2.46962 25.2215 5.09717 24.5667 5.97302V18.8918C24.5667 19.7677 23.9119 19.9866 23.2571 19.9866C22.6022 19.9866 21.9474 19.7677 21.9474 18.8918L22.1657 9.25746ZM37.0082 4.00236C35.4803 4.00236 33.7341 4.00236 31.9879 4.00236C31.3331 4.00236 30.6783 4.00236 30.0235 4.00236C29.587 4.00236 29.3687 4.22132 29.3687 4.65925V6.62991C31.1149 6.62991 34.1707 6.62991 35.262 6.62991C36.3534 6.62991 37.2265 7.2868 37.2265 8.38161C37.2265 9.47642 36.3534 12.3229 34.6072 14.9505C35.6986 16.0453 36.7899 16.7022 38.0996 17.3591C38.7544 17.578 38.9727 18.016 38.9727 18.4539C39.1909 18.8918 38.5361 19.7677 37.663 19.7677C36.1351 19.7677 33.7341 17.1401 33.2976 16.7022C31.1149 18.8918 28.9321 19.7677 28.4956 19.7677C27.8408 19.7677 27.4042 19.1108 27.4042 18.4539C27.4042 18.016 27.6225 17.578 28.059 17.3591C29.587 16.7022 30.8966 15.8263 31.9879 14.5126C30.6783 12.9798 29.8052 10.7902 29.8052 8.38161H29.3687C29.3687 12.104 28.9321 16.2643 26.7494 18.8918C26.5311 19.3297 26.0946 19.3297 25.8763 19.3297C25.2215 19.3297 24.5667 18.8918 24.5667 18.2349C24.5667 18.016 24.5667 17.797 24.785 17.578C26.7494 14.9505 27.186 11.885 27.186 8.81953C27.186 7.06783 26.9677 5.31613 26.9677 3.7834C26.9677 2.46962 27.8408 1.59377 29.3687 1.59377C30.46 1.59377 31.7697 1.59377 32.861 1.59377C34.3889 1.59377 35.6986 1.59377 37.0082 1.59377C37.8813 1.59377 38.0996 2.25066 38.0996 2.68858C38.3178 3.34547 37.8813 4.00236 37.0082 4.00236Z" fill="#284399"/>
</svg>
