<svg xmlns="http://www.w3.org/2000/svg" xml:space="preserve" viewBox="0 0 180 68">
  <path fill="#F0B90B" d="m34.9175186 34 3.6449318 3.6449318L42.207386 34l-3.6763573-3.6449337L34.9175186 34zm-21.2725849-3.6449337L10 34l3.6480751 3.6135101L17.2584438 34l-3.6135101-3.6449337zm12.4430466-5.1846027 6.2215252 6.2215233 3.6449318-3.6449318-9.866457-9.8350353-9.866457 9.866457 3.6449337 3.6449318 6.2215233-6.252945zm0 17.6590728-6.2215233-6.2529449-3.6449337 3.6449318 9.866457 9.8664589 9.866457-9.8664589-3.6449318-3.6449318-6.2215252 6.2529449zm3.6449337-8.8609581-3.6449337-3.613512L22.4430485 34l3.6449318 3.6135101 3.6449337-3.6449318z"/>
  <path fill="#000" d="M64.4226227 37.9277306c0-2.3566399-1.2568741-3.5506668-3.2992935-4.336216 1.2568741-.6912804 2.3252182-1.8224659 2.3252182-3.8020401v-.0628452c0-2.7651215-2.2309494-4.5561657-5.8130417-4.5561657h-8.2010994v17.6276512h8.3896332c3.9905701.0314217 6.5985832-1.6025124 6.5985832-4.8075409v-.0628433zm-11.2175942-9.3637085h3.8334618c1.6339378 0 2.5451698.6598587 2.5451698 1.8224659v.0628452c0 1.3197155-1.0683403 1.8538857-2.7965431 1.8538857h-3.5820885v-3.7391968zm7.3527108 8.9238014c0 1.3197174-1.0369225 1.9167328-2.7336998 1.9167328h-4.6190109V35.539669h4.4933205c1.9795761 0 2.8593903.722702 2.8593903 1.9167328v.0314217zm8.1068344-12.3173599h3.8963089v17.6276512h-3.8963089V25.1704636zm77.6433639 14.391201c-3.0164948 0-5.1217651-2.5137482-5.1217651-5.5302429v-.094265c0-3.0164967 2.1366882-5.4988213 5.1217651-5.4988213 1.759613 0 3.1421814.7541237 4.5247345 1.9795742l2.4823303-2.8593864c-1.6339417-1.6025143-3.6135101-2.7336998-6.9442291-2.7336998-5.4045563 0-9.2065887 4.1162605-9.2065887 9.1123333V34c0 5.0589142 3.8648834 9.0809097 9.0494843 9.0809097 3.3935547.0314217 5.4045563-1.1626053 7.2270203-3.1107597l-2.4823303-2.4823265c-1.3825532 1.2568741-2.6080018 2.0738411-4.6504213 2.0738411zm14.1083985-.18853v-3.7077789h8.3267975v-3.4564018h-8.3267975v-3.5820885h9.4579773v-3.4564018h-13.2914429v17.6276512H170v-3.4249802h-9.5836639zm-70.8248215-3.3307152-8.2639389-10.8719559h-3.5820923v17.6276512h3.8334656V31.6119404l8.5467377 11.2175961h3.2992935V25.1704636h-3.8334656v10.8719558zm14.1743927-10.9662208-7.5726624 17.7533379h3.9905777l1.6025085-3.9591522h7.4469757l1.6025162 3.9591522h4.0816956l-7.5726624-17.7533379h-3.5789489zm4.0816955 10.3692055h-4.6818542l2.356636-5.7187748 2.3252182 5.7187748zm21.7439194.5970153-8.2639465-10.8719559h-3.5820923v17.6276512h3.8334656V31.6119404l8.5467377 11.2175961h3.2993011V25.1704636h-3.8334656v10.8719558z"/>
</svg>