<svg xmlns="http://www.w3.org/2000/svg" xml:space="preserve" viewBox="0 0 180 68">
  <path fill="#F7A600" d="M124.2561722 42.5426407V1.3175589h8.2864151v41.2250824c0-6e-7-8.2864227-6e-7-8.2864151-6e-7z"/>
  <path fill="#000" d="M27.6818314 54.788353H9.9172935V13.5632915H26.967474c8.2865047 0 13.1148319 4.5161324 13.1148319 11.5804062 0 4.5727596-3.1009331 7.5278378-5.2472687 8.5117588 2.5619545 1.1574364 5.8413849 3.762352 5.8413849 9.2655563 0 7.6982194-5.4224434 11.8673402-12.9945907 11.8673402zm-1.3702412-34.0440827h-8.1078663v9.4956799h8.1078644c3.5166283 0 5.4842854-1.911047 5.4842854-4.7494087-1e-7-2.8352242-1.9676571-4.7462712-5.4842835-4.7462712zm.5357532 16.7334671h-8.6436195v10.1327591h8.6436176c3.7568016 0 5.5426464-2.3146858 5.5426464-5.0962486 0-2.7784309-1.7891635-5.0365067-5.5426445-5.0365105zm39.1036225.403637v16.9069824h-8.2279816V37.8813782L44.9653969 13.5632915h9.0007668l7.9292603 16.6167278 7.8092194-16.6167278h9.0007706c-2e-7 0-12.7544557 24.318079-12.7544481 24.3180829zm36.2470245 16.9069824h-17.764595V13.5632915h17.0502548c8.2864304 0 13.1147537 4.5161324 13.1147537 11.5804062 0 4.5727596-3.1009369 7.5278378-5.247261 8.5117588 2.5619507 1.1574364 5.8415604 3.762352 5.8415604 9.2655563-1e-7 7.6982194-5.4226227 11.8673402-12.9947129 11.867344zm-1.370224-34.0440827h-8.107933v9.4956799h8.107933c3.5165558 0 5.4842148-1.911047 5.4842148-4.7494087 0-2.8352242-1.967659-4.7462712-5.4842148-4.7462712zm.5356598 16.7334671h-8.6435928v10.1327553h8.6435928c3.7568207 0 5.5426712-2.3146858 5.5426712-5.0962486 0-2.7784309-1.7858429-5.0365067-5.5426712-5.0365067zm57.8862686-16.7334671v34.0472145h-8.2864227V20.7442665h-11.0886536v-7.180975h30.4637299v7.1809769s-11.0886536 0-11.0886536.0000057z"/>
</svg>