<svg xmlns="http://www.w3.org/2000/svg" xml:space="preserve" viewBox="0 0 180 68">
  <path fill="#F7A600" d="M111.1741791 39.043354V13.4661655h5.1411285V39.043354h-5.1411285z"/>
  <path fill="#000" d="M51.2567673 46.6409378H40.2351532v-25.577179h10.5784073c5.1411781 0 8.1368065 2.8019352 8.1368065 7.1848068 0 2.8370667-1.9239044 4.6704826-3.2555504 5.2809334 1.5895081.7181053 3.624157 2.3342667 3.624157 5.7486076-1e-7 4.7761918-3.364235 7.3628312-8.0622063 7.3628312zm-.8501358-21.1218986h-5.0303459v5.8913841h5.0303459c2.1818161 0 3.4026031-1.185667 3.4026031-2.9466648 0-1.7590523-1.220787-2.9447193-3.4026031-2.9447193zm.3323974 10.3819084h-5.3627434v6.286644h5.3627434c2.330822 0 3.4388123-1.4360924 3.4388123-3.1618538 0-1.723816-1.1100464-3.1247864-3.4388123-3.1247902zm24.2609787.2504272v10.489563h-5.104866V36.1513786l-7.9151688-15.0876198h5.5843277l4.9195328 10.3094826 4.8450623-10.3094826h5.5843277c0 1e-7-7.9132233 15.087616-7.9132157 15.087616zm22.4886627 10.489563H86.4670181v-25.577179h10.5784531c5.1411362 0 8.1367645 2.8019352 8.1367645 7.1848068 0 2.8370667-1.923912 4.6704826-3.2555542 5.2809334 1.5895081.7181053 3.6242676 2.3342667 3.6242676 5.7486076 0 4.7761918-3.3643417 7.3628312-8.0622788 7.3628312zm-.8501281-21.1218967h-5.0303879v5.8913841h5.0303879c2.1817703 0 3.402565-1.185667 3.402565-2.9466648 0-1.7590523-1.2207947-2.9447193-3.402565-2.9447193zm.332344 10.3819103h-5.3627319v6.2866402h5.3627319c2.3308334 0 3.4388275-1.4360924 3.4388275-3.1618538 0-1.723816-1.1079864-3.1247864-3.4388275-3.1247864zm35.9142456-10.3819103v21.1238384h-5.1411285V25.5190372h-6.8797073v-4.4552784h18.9005508v4.4552784s-6.879715 0-6.879715.0000039z"/>
</svg>