<svg xmlns="http://www.w3.org/2000/svg" xml:space="preserve" viewBox="0 0 180 68">
  <path fill="#00CFBE" fill-rule="evenodd" d="M56.8165016 23.8913231h-1.1061172v-5.0492172h-5.0492172v5.0492172h-5.0594597v-5.0492172h-5.0389748v5.0492172h-5.0492172v5.0492172h5.0492172v10.1189194h-5.0492172v5.0492172h5.0492172v5.0492172h5.0492172v-5.0492172h5.049221v5.0492172h5.0492172v-5.0492172h.891037c5.4998589.061451 10.0165024-4.5473709 10.0779495-10.0369835s-4.3527717-10.1189194-9.862873-10.1803703zm-.0512085 15.1169281H45.6221924V28.9098148h10.9792328c2.7550507-.040966 5.0184937 2.181509 5.0594597 4.9365597.040966 2.7345657-2.1507836 5.1209068-4.8955918 5.1618767z" clip-rule="evenodd"/>
  <path fill="#000" d="M84.5615997 28.2850628c-.6554794-.727169-1.474823-1.2904682-2.4580383-1.7103825s-2.1200638-.624752-3.431015-.624752h-5.8071136v15.9977264l5.8071136-.0102425c1.1982956 0 2.2736893-.1843529 3.2466583-.5735435.9729767-.3891907 1.8025665-.9320068 2.4887619-1.6284485.686203-.6964455 1.2187805-1.536274 1.5874863-2.5194893s.5530548-2.0790901.5530548-3.2978668c0-1.0958748-.1741104-2.1405392-.5018463-3.1032715-.3277436-.9627304-.8295899-1.8128013-1.4850617-2.5297298zm-1.4645843 7.7325764c-.2150803.6554756-.5120926 1.2085342-.9115219 1.679657-.3994293.4813652-.9012756.850071-1.4850616 1.1163597-.5940247.2662849-1.269989.4096718-2.0381241.4096718h-2.7038345V28.6947365h2.7038345c.7476578 0 1.4338608.1229019 2.0176392.3789463.583786.2458038 1.08564.604269 1.4953079 1.0753918.4096756.4711246.7271729 1.0241814.9320068 1.6694164.204834.6349926.3174973 1.3416805.3174973 2.1098156 0 .747654-.1126633 1.4440994-.3277359 2.0893326h-.0000077zm16.3049774-4.2605973c-.5325775-.5428181-1.1778107-.9934578-1.9357071-1.3211956s-1.6284485-.5018501-2.5809402-.5018501c-.9627304 0-1.8230438.1741104-2.6014252.5018501-.7783813.3277378-1.4338531.768137-1.9766693 1.3314362s-.9524841 1.2085361-1.2392578 1.9561901c-.2867661.7374077-.4301529 1.5362701-.4301529 2.3761024 0 .8193436.1536255 1.5874786.4403915 2.3248901.29702.7374115.7066879 1.372406 1.2495041 1.9357033.5428162.5530586 1.1982956.9832153 1.9561844 1.310955.7578964.3277359 1.6182098.4916077 2.5604553.4916077.6657181 0 2.0278778-.0204849 3.4105301-.8705559.2253189-.1331444 1.3211975-.8398285 2.0790863-2.2122345.1638641-.2765274.2662811-.5223312.3482208-.7169266-.9729691-.0102425-1.9459457-.0102425-2.9189148-.0102425-.1945953.4813652-.5633011.8705559-1.0958786 1.1573257-.5325775.2867737-1.1061172.4403992-1.7001419.4403992-.389183 0-.7681351-.0512085-1.1265945-.1945953-.3584671-.1331406-.6759567-.3277359-.962738-.5837822-.2867661-.2662888-.5120926-.5735435-.6964417-.9320068-.1741104-.3584633-.2867661-.7681351-.3379745-1.2392616h9.1254578c.0307236-.1228981.0512085-.2662849.0614471-.4506378s.0102386-.3687057.0102386-.5633011c0-.78862-.1433868-1.5567551-.4199142-2.2941666-.2867661-.7374115-.686203-1.3724022-1.2187729-1.9357033h.0000076zm-7.5994339 3.3081055c.0307236-.4403992.1229095-.8398285.29702-1.1982918.1741104-.3687057.3994293-.6759605.6657181-.9320068.2662811-.2560463.583786-.4506378.9319992-.5940247.3482285-.1331444.7271729-.2048378 1.1368408-.2048378.8193436 0 1.5260315.2662888 2.0995712.7988625.5735397.5223351.8910446 1.2290192.9729767 2.1200562l-6.104126.0102424zm18.1280289-5.0901833c.0819321 0 .1638641.0102425.2355576.020483v2.7550488c-.9217606.0204849-1.7308731.1843529-2.4477997.5325737-.7169266.3379822-1.2392578.850071-1.5567551 1.5157928v7.1385498h-3.0213394V30.138834h2.7755356v2.5194874c.204834-.4096718.4608765-.7681351.7476501-1.0958729.2867661-.3174973.583786-.604269.9319992-.8500729.3277435-.2355614.6657181-.4301548.9934616-.5530567.3379745-.1331444.6657181-.1843548.9729691-.1843548h.368721zm34.5558929 9.094738v2.5194893c-.7373962.3379784-1.9152069.5428162-2.847229.5428162-1.8640137 0-2.7857819-1.0139389-2.7857819-3.0418205v-6.3704147h-1.6489258V30.159317h1.6489258v-4.2401142h2.9291687v4.2503567h2.5604553v2.5604553h-2.5604553v5.9402542c0 .5940285.2662811.9012833.8091125.9012833.6145021 0 1.2494966-.1741104 1.8947297-.5018502zm-32.2002869-8.9308681h3.0213394v11.7985783l-3.0213394.0102425V30.138834zm.0614548-2.7038403c0-.7988625.6452332-1.4543381 1.4543381-1.4543381.7988586 0 1.4543381.6554756 1.4543381 1.4543381s-.6452332 1.4543381-1.4543381 1.4543381-1.4543381-.6554775-1.4543381-1.4543381zm19.592598 2.7038403h3.0213318v11.7985783l-3.0213318.0102425V30.138834zm.0409698-2.7243252c0-.7988605.6452332-1.4543381 1.4543457-1.4543381.7988586 0 1.4543304.66572 1.4543304 1.4645805 0 .7988625-.6452332 1.45434-1.4543304 1.45434-.8091125 1e-7-1.4543457-.6657199-1.4543457-1.4645824zm-3.5948639 4.1889057c-.4711304-.5530586-1.0241852-1.0037003-1.6591797-1.3416786-.6349945-.3277378-1.3416748-.5018501-2.1200638-.5018501-.9217606 0-1.7411041.2048359-2.4273071.6042671-.6964417.3994312-1.2495041.9729729-1.6796646 1.7001438v-6.1553345h-3.052063v16.0182076h3.0725479v-1.7718353c.2662888.5735397.5735397.9729729 1.2904663 1.3826447s1.5157928.6145096 2.4375534.6145096c.78862 0 1.5260315-.1638718 2.2122345-.4711266.686203-.3174934 1.2802277-.7476501 1.782074-1.3109512s.9012756-1.2085342 1.1778107-1.9561882.4199066-1.5567551.4199066-2.4273109c0-.8295898-.1331329-1.6386909-.3789368-2.3965874-.2560577-.7578926-.6042786-1.4236107-1.0753937-1.9869118l.0000153.0000018zm-1.9152298 5.7763882c-.1536255.4301529-.389183.7988586-.6759567 1.1163559-.2867661.3174973-.6349945.5837822-1.0446625.7681351-.4096756.1843529-.8500748.2867737-1.3416824.2867737-.2970123 0-.5940247-.0512085-.891037-.1638718-.307251-.102417-.5940247-.2253189-.8500671-.4096718-.2560501-.1741104-.4916077-.3891907-.6964417-.624752-.2150803-.2458038-.3584671-.5120888-.4711227-.8193436v-2.8369865c.2970123-.6657181.7066879-1.2085342 1.2495041-1.6591721.5325699-.4506416 1.1470795-.6759644 1.8332825-.6759644.4608841 0 .8807983.1024208 1.2597427.2970123.3891907.2048378.7169342.4608841.9934616.7988625.2765274.3379822.4916077.7271729.6452332 1.1675682.1433868.4506416.2253189.9012794.2253189 1.3928871 0 .4711266-.0716934.9320068-.2355576 1.3621635l-.0000153.0000039z"/>
</svg>