<svg xmlns="http://www.w3.org/2000/svg" xml:space="preserve" viewBox="0 0 180 68">
  <path fill="#00CFBE" fill-rule="evenodd" d="M41.1499825 19.1188354h-1.628334V11.685792H32.088604v7.4330435h-7.4481201V11.685792H17.222517v7.4330435H9.7894735v7.4330444h7.4330435v14.8962402H9.7894735v7.4330444h7.4330435v7.4330444h7.4330444v-7.4330444h7.4330425v7.4330444h7.4330444v-7.4330444h1.3117142c8.0964394.0904617 14.745472-6.6942635 14.8359299-14.7756233.0904618-8.0813617-6.4077949-14.8962421-14.5193099-14.9867058zm-.0753861 22.2539025H24.6706371V26.506649h16.1627254c4.0557556-.0603104 7.3878098 3.2114372 7.4481201 7.2671928.0603065 4.0256042-3.1662064 7.5385857-7.2068863 7.5988922v.0000039z" clip-rule="evenodd"/>
  <path d="M81.9940262 25.5869408c-.9649353-1.0704784-2.1711121-1.8997231-3.618515-2.5178871-1.4474106-.6181641-3.1209793-.9197063-5.0508499-.9197063h-8.5487595v23.5505352l8.5487595-.0150795c1.7640305 0 3.3471298-.271389 4.7794571-.8443222 1.4323349-.5729294 2.6535873-1.3720207 3.6637497-2.3972664 1.0101776-1.0252495 1.7941818-2.2615776 2.3369675-3.7089844.542778-1.4474106.8141632-3.0606651.8141632-4.854847 0-1.6132584-.2563171-3.1511288-.7387772-4.5683823-.4824753-1.4172554-1.2212525-2.6686592-2.1861954-3.72406zm-2.1560288 11.3832626c-.3166199.9649353-.7538605 1.7791061-1.3418655 2.4726524-.5880127.7086258-1.3267899 1.2514038-2.1861954 1.6434097-.8744736.3920097-1.8695679.6030884-3.000351.6030884H69.329216V26.1900272h3.9803696c1.1006317 0 2.1108017.1809254 2.9701996.5578537.8594055.3618526 1.5981827.8895531 2.2012711 1.5831032s1.0704803 1.5077171 1.3720245 2.4575787c.3015442.9347839.467392 1.9751091.467392 3.105896-1e-7 1.1006355-.1658479 2.1258812-.4824754 3.0757446zm24.0028458-6.2721024c-.7840118-.7990913-1.7338715-1.4624863-2.8495865-1.9449558s-2.3972778-.738781-3.7994461-.738781c-1.4172592 0-2.6837387.2563114-3.8296051.738781-1.145874.4824696-2.1108093 1.1307869-2.9098969 1.9600315s-1.4021683 1.7791061-1.8243332 2.8797417c-.4221573 1.085556-.6332397 2.2615738-.6332397 3.4979019 0 1.2061729.2261581 2.3369598.6483154 3.4225159.4372406 1.085556 1.040329 2.02034 1.8394165 2.8495827.7990875.814167 1.7640305 1.4474106 2.8797379 1.9298782 1.115715.4824677 2.3821869.7237053 3.7692871.7237053.9800186 0 2.9852829-.0301552 5.0206985-1.281559.3316956-.196003 1.9449539-1.2363281 3.0606613-3.2566681.2412338-.4070854.3920059-.76894.5126266-1.0554047-1.4323273-.0150757-2.8646622-.0150757-4.2969894-.0150757-.2864685.7086258-.8292465 1.281559-1.6132584 1.7037201-.7840195.4221611-1.628334.6483192-2.5028076.6483192-.5729294 0-1.1307907-.075386-1.658493-.2864685-.5276947-.196003-.9950867-.4824677-1.4172516-.8593979-.4221649-.3920059-.7538605-.8443222-1.0252457-1.3720207-.2563171-.5277023-.4221649-1.1307869-.4975433-1.8243408h13.4337463c.0452347-.1809235.075386-.3920059.0904617-.6633911.0150757-.2713928.0150757-.5427818.0150757-.8292465 0-1.1609421-.2110825-2.291729-.6181641-3.377285-.4221573-1.085556-1.01017-2.0203381-1.7941818-2.8495827h.0000154zm-11.1872635 4.8699227c.0452347-.6483192.1809311-1.2363281.4372482-1.7640266.2563095-.542778.5880127-.9950943.980011-1.3720245.3920059-.3769302.8594055-.663393 1.3720169-.8744755.5126343-.196003 1.0704803-.3015442 1.6735687-.3015442 1.2061691 0 2.2464981.3920078 3.0908127 1.1760197.8443222.7689362 1.3117218 1.8092613 1.4323349 3.1209755l-8.9859924.0150756zm26.6865921-7.493351c.1206131 0 .2412262.0150776.3467712.0301533v4.0557575c-1.3569489.0301552-2.5480423.271389-3.603447.7840118-1.0554047.4975471-1.8243332 1.2514076-2.2917328 2.2314224V45.684803h-4.4477615V28.3159084h4.085907v3.7089825c.3015442-.6030846.6784744-1.1307869 1.1006317-1.6132545.4221573-.467392.8593979-.8895531 1.3720169-1.2514057.4824753-.3467751.9800186-.6332397 1.4624863-.814167.4975433-.196003.9800186-.271389 1.4323349-.271389h.5427704l.0000229-.000002zm50.8703537 13.3885269v3.7089806c-1.0855408.4975471-2.8194275.7990913-4.191452.7990913-2.7440491 0-4.1009979-1.4926376-4.1009979-4.4779167v-9.3780022h-2.4274139v-3.7692909h2.4274139v-6.2419472h4.3120728v6.2570248h3.7692871v3.7692928h-3.7692871v8.7447586c0 .8744736.3919983 1.3267899 1.1911011 1.3267899.9046325 0 1.8394011-.2563133 2.789276-.738781zm-47.4026184-13.1472912h4.4477692V45.684803l-4.4477692.0150795V28.3159084zm.0904617-3.9803734c0-1.1760178.9498596-2.1409569 2.1409607-2.1409569 1.1760178 0 2.1409607.9649391 2.1409607 2.1409569 0 1.1760197-.9498596 2.1409588-2.1409607 2.1409588s-2.1409607-.9649391-2.1409607-2.1409588zm28.8426133 3.9803734h4.4477692V45.684803l-4.4477692.0150795V28.3159084zm.0603179-4.0105266c0-1.1760197.9498596-2.1409569 2.1409607-2.1409569 1.1760101 0 2.1409607.9800167 2.1409607 2.1560345 0 1.1760197-.9498596 2.1409588-2.1409607 2.1409588s-2.1409607-.9800168-2.1409607-2.1560364zm-5.2920684 6.1665611c-.6935577-.814167-1.5077209-1.4775639-2.4425049-1.9751091-.9347839-.4824696-1.9751129-.738781-3.1209717-.738781-1.3569489 0-2.5631256.3015423-3.5733032.8895531-1.025238.5880089-1.8394165 1.4323311-2.4726562 2.5028095v-9.0613785h-4.4929962v23.5806904h4.5231628v-2.6083527c.3919983.8443222.8443146 1.4323311 1.8997192 2.0354195 1.0553894.6030846 2.2314148.9046288 3.5883636.9046288 1.1609344 0 2.2464905-.2412338 3.2566528-.6935501 1.0101776-.467392 1.8846436-1.1006317 2.6234283-1.9298782.7387848-.8292427 1.3267975-1.7791061 1.7338867-2.8797379.407074-1.1006355.6181488-2.291729.6181488-3.573288 0-1.2212524-.1959991-2.4123497-.5578461-3.5280571-.3769379-1.1157112-.8895569-2.095726-1.5831146-2.9249706l.0000307.0000019zm-2.8194428 8.503521c-.2261505.6332436-.5729218 1.1760216-.9950867 1.6434135-.4221497.467392-.9347839.8593979-1.5378723 1.1307869s-1.2514038.4221611-1.9750977.4221611c-.4372406 0-.8744812-.075386-1.3117218-.2412376-.4523163-.1507721-.8744659-.3316956-1.2514038-.6030846-.3769226-.2563133-.7236938-.5729332-1.025238-.9197083-.3166199-.3618507-.52771-.7538605-.6935577-1.2061729v-4.1763763c.4372406-.9800148 1.040329-1.7791061 1.8394165-2.4425011.7840271-.6633949 1.6886444-.9950943 2.698822-.9950943.6784668 0 1.2966309.1507721 1.8544922.4372368.5729218.3015442 1.0554047.6784744 1.4624786 1.1760216.4070892.4975471.7237091 1.0704803.9498596 1.7187958.2110901.6633949.3317108 1.3267899.3317108 2.0504951 0 .6935501-.105545 1.3720245-.3467712 2.0052643h-.0000305z"/>
</svg>