<svg xmlns="http://www.w3.org/2000/svg" xml:space="preserve" viewBox="0 0 180 68">
  <path fill="#7CE8FE" d="M54.6553612 39.8202553h-6.9841614v6.9844322h6.9841614v-6.9844322z"/>
  <path fill="#3EC7E3" d="M59.4787292 30.5080395H47.6711998v6.984293H61.639389v-6.984293h-2.1606598z"/>
  <path fill="#00A2C7" d="M68.6235504 21.1953144H47.6711998v6.9844036h20.9523506v-6.9844036z"/>
  <path fill="#3EC7E3" d="M45.3427429 30.5080395h-6.9841614v6.984293h6.9841614v-6.984293z"/>
  <path fill="#000" d="M75.603981 46.8046875h5.4142532V36.225872h10.4159622v-4.4641724H81.0182343V25.65946h11.5412979v-4.4641457H75.603981v25.6093732zM95.22612 25.6594582h7.8400726v21.1452293h5.3516922V25.6594582h7.8400879v-4.4641438H95.22612v4.4641438zm29.572319-4.4641438h-6.1395874l7.8651505 12.8046703-8.0152054 12.8047028h6.2021408l5.2516632-8.7406769h.2000732l5.2516632 8.7406769h6.2270813l-7.9901276-12.8047028 7.8151245-12.8046703h-6.114502l-5.1892395 8.7282429h-.2000732l-5.1641616-8.7282429z"/>
</svg>