<svg xmlns="http://www.w3.org/2000/svg" fill="none" viewBox="0 0 1256 290">
  <path fill="#6CD0D9" d="M170.484 187.527h-51.143v51.144h51.143v-51.144Z"/>
  <path fill="#0AB5CC" d="M205.805 119.336h-86.464v51.144h102.287v-51.144h-15.823Z"/>
  <path fill="#1297B2" d="M272.771 51.1436h-153.43v51.1434h153.43V51.1436Z"/>
  <path fill="#CC1423" d="M102.287 119.336H51.1436v51.144h51.1434v-51.144Z"/>
  <path fill="#000" d="M323.845 238.669h39.65v-77.47h76.28v-32.691h-76.28V83.8209h84.521V51.1297H323.845V238.669ZM467.544 83.8209h57.416V238.669h39.192V83.8209h57.416V51.1297H467.544v32.6912Zm216.568-32.6912H639.15l57.599 93.7693-58.698 93.77h45.42l38.46-64.009h1.465l38.46 64.009h45.603l-58.514-93.77 57.232-93.7693h-44.779l-38.002 63.9173h-1.465l-37.819-63.9173Zm332.128 0V174.111c0 29.852-21.241 51.646-53.933 51.646-32.691 0-53.936-21.794-53.936-51.646V51.1297h-17.124V175.301c-.091 38.277 28.846 66.573 71.06 66.573 42.303 0 71.063-28.296 71.063-66.573V51.1297h-17.13Zm168.72 46.8849h16.58c-1.28-28.4789-25.92-49.5405-60.8-49.5405-34.62 0-61.27 20.7869-61.27 51.0056 0 24.0833 17.04 39.1933 46.43 47.8923l22.44 6.593c23.26 6.776 39.19 15.476 39.19 34.614 0 22.527-20.42 37.636-48.44 37.636-25.28 0-45.06-12.179-46.89-34.431h-17.58c2.01 29.67 26.19 50.09 64.47 50.09 40.65 0 65.01-22.984 65.01-53.02 0-31.135-27.1-43.588-50.91-50.273l-19.78-5.678c-18.22-5.128-37.36-14.376-37.36-34.1559 0-20.1458 18.04-34.8889 44.23-34.8889 24.81 0 42.58 13.2779 44.68 34.1564Z"/>
</svg>