<svg xmlns="http://www.w3.org/2000/svg" xml:space="preserve" viewBox="0 0 180 68">
  <path fill="#7CE8FE" d="M35.2297897 43.0401421H24.3818436v10.848362h10.8479462v-10.848362z"/>
  <path fill="#3EC7E3" d="M42.72155 28.5762119H24.3818436V39.424366h21.6956863V28.5762119H42.72155z"/>
  <path fill="#00A2C7" d="M56.9254761 14.111496H24.3818436v10.84832h32.5436325v-10.84832z"/>
  <path fill="#3EC7E3" d="M20.7652397 28.5762119H9.9172935V39.424366h10.8479462V28.5762119z"/>
  <path fill="#000" d="M67.7676239 53.888504h8.4095306V37.4572678h16.1782837v-6.9338436H76.1771545v-9.4781246h17.9261856V14.111496H67.7676239v39.777008zm30.4775085-32.8432064h12.1773682V53.888504h8.3123627V21.0452976h12.1773834V14.111496H98.2451324v6.9338016zm45.9323426-6.9338016h-9.5361328l12.2163239 19.888485-12.4493867 19.888523h9.6333008l8.1569824-13.5761986h.3107605l8.1569824 13.5761986h9.6720428l-12.4104462-19.8885231 12.1386261-19.888485h-9.4971771l-8.0600433 13.5568895h-.3107605L144.177475 14.111496z"/>
</svg>