<?xml version="1.0" encoding="utf-8"?>
<!-- Generator: Adobe Illustrator 26.3.1, SVG Export Plug-In . SVG Version: 6.00 Build 0)  -->
<svg version="1.1" id="Layer_1" xmlns="http://www.w3.org/2000/svg" xmlns:xlink="http://www.w3.org/1999/xlink" x="0px" y="0px"
	 viewBox="0 0 25.588 9.714" enable-background="new 0 0 25.588 9.714" xml:space="preserve">
<path fill="rgb(244 63 94)"  d="M15.436,4.332c3.007-0.155,10.016-0.694,10.149-2.354c0.031-0.391-0.141-0.583-0.246-0.663
	c-0.313-0.244-0.783-0.108-0.861-0.08c-5.393,1.273-11.214,1.298-11.677,1.298c-0.008,0-0.015,0-0.02,0
	C12.714,2.533,6.755,2.568,1.123,1.239c-0.09-0.03-0.556-0.168-0.874,0.077C0.121,1.414-0.025,1.61,0.004,1.978
	c0.133,1.661,7.143,2.199,10.165,2.354c0.165,0,0.558,0.054,0.722,0.221c0.054,0.056,0.078,0.118,0.076,0.203
	c-0.001,0.065-0.016,0.082-0.036,0.099c-0.535,0.445-4.862-0.198-9.007-0.881c-0.128-0.04-0.57-0.148-0.888,0.083
	C0.909,4.149,0.758,4.329,0.758,4.666c0,0.922,1.348,1.285,8.006,2.156c0.154,0.026,0.726,0.185,0.706,0.48
	C9.462,7.427,9.446,7.44,9.436,7.447C9.014,7.759,5.743,7.072,2.598,6.355C2.52,6.338,2.442,6.352,2.377,6.393
	C2.311,6.435,2.265,6.5,2.247,6.576C2.23,6.653,2.244,6.731,2.286,6.798C2.327,6.864,2.393,6.91,2.468,6.927
	c3.622,0.825,5.566,1.177,6.5,1.177c0.392,0,0.645-0.058,0.818-0.188c0.214-0.16,0.256-0.38,0.269-0.574
	c0.06-0.891-1.15-1.092-1.205-1.101C6.042,5.875,1.343,5.261,1.343,4.665c0-0.033,0.003-0.111,0.037-0.135
	c0.067-0.049,0.268-0.031,0.387,0.008L1.8,4.546c7.392,1.22,8.954,1.216,9.504,0.759c0.16-0.133,0.244-0.314,0.248-0.539
	c0.004-0.244-0.078-0.454-0.244-0.624c-0.36-0.367-1.007-0.395-1.129-0.397C2.437,3.348,0.615,2.275,0.587,1.931
	c-0.008-0.105,0.012-0.146,0.02-0.152C0.65,1.746,0.822,1.754,0.969,1.804c5.459,1.291,11.348,1.316,11.818,1.316
	c0.016,0,0.021-0.001,0.039,0c0.444,0,6.334-0.025,11.821-1.324c0.119-0.041,0.292-0.05,0.335-0.017
	c0.008,0.006,0.028,0.047,0.02,0.152c-0.027,0.345-1.849,1.418-9.586,1.815c-0.077,0-0.76,0.017-1.134,0.397
	c-0.166,0.169-0.248,0.379-0.244,0.624c0.005,0.225,0.088,0.406,0.248,0.539c0.55,0.458,2.115,0.46,9.516-0.761l0.031-0.008
	c0.11-0.035,0.311-0.054,0.378-0.005c0.032,0.024,0.036,0.103,0.036,0.136c0,0.595-4.702,1.21-7.516,1.578
	c-0.052,0.008-1.256,0.211-1.196,1.099c0.014,0.195,0.056,0.416,0.269,0.574c0.473,0.35,1.683,0.294,7.318-0.99
	c0.076-0.017,0.141-0.062,0.183-0.129s0.056-0.145,0.038-0.222c-0.036-0.157-0.193-0.254-0.351-0.221
	c-3.146,0.717-6.416,1.401-6.838,1.092c-0.011-0.008-0.026-0.021-0.034-0.146c-0.02-0.283,0.514-0.446,0.696-0.479
	c6.667-0.872,8.016-1.235,8.016-2.157c0-0.336-0.151-0.517-0.278-0.609c-0.316-0.231-0.759-0.122-0.871-0.086
	c-4.162,0.687-8.488,1.328-9.022,0.885c-0.021-0.017-0.036-0.034-0.036-0.101c-0.002-0.083,0.022-0.146,0.076-0.201
	C14.862,4.386,15.256,4.332,15.436,4.332z"/>
<path fill="rgb(59 130 246)" d="M1.111,0.096C1.126,0.031,1.19-0.013,1.256,0.002l0.983,0.189c0.099,0.021,0.204,0.036,0.314,0.053
	c0.065,0.01,0.133,0.02,0.203,0.031l1.306,0.187L4.838,0.56L5.95,0.666c0.206,0.021,0.416,0.042,0.632,0.055l0.323,0.023
	c0.526,0.039,1.071,0.078,1.633,0.103C8.659,0.853,8.781,0.86,8.903,0.867c0.22,0.012,0.443,0.024,0.667,0.03
	c0.35,0.009,0.704,0.019,1.061,0.032l0.185,0.006c0.116,0.004,0.231,0.008,0.349,0.009l1.631,0.014l1.627-0.014
	c0.115,0,0.229-0.005,0.344-0.009l0.191-0.007c0.356-0.013,0.71-0.022,1.062-0.031c0.225-0.006,0.447-0.018,0.667-0.03
	c0.122-0.007,0.244-0.013,0.365-0.019c0.58-0.025,1.14-0.066,1.681-0.105l0.275-0.02c0.207-0.012,0.408-0.033,0.605-0.053
	c0.1-0.01,0.198-0.021,0.296-0.029l2.311-0.269c0.193-0.032,0.375-0.06,0.546-0.085c0.215-0.033,0.411-0.062,0.586-0.095
	l0.982-0.189c0.064-0.014,0.13,0.029,0.146,0.094c0.015,0.065-0.023,0.131-0.088,0.149l-0.965,0.271
	c-0.244,0.063-0.529,0.125-0.85,0.196l-0.28,0.062c-0.326,0.07-0.685,0.132-1.064,0.198l-0.692,0.112l-0.685,0.097
	c-0.258,0.036-0.524,0.073-0.798,0.1l-1.968,0.184c-0.122,0.008-0.245,0.018-0.368,0.027c-0.223,0.017-0.448,0.033-0.675,0.044
	c-0.352,0.017-0.709,0.033-1.068,0.047l-0.195,0.008c-0.116,0.005-0.232,0.01-0.349,0.011l-1.637,0.025l-1.64-0.025
	c-0.117-0.001-0.235-0.006-0.353-0.011l-0.189-0.007c-0.361-0.014-0.719-0.03-1.071-0.047C9.323,1.526,9.104,1.51,8.887,1.494
	c-0.129-0.01-0.258-0.02-0.386-0.028l-1.369-0.12L6.531,1.283c-0.258-0.025-0.51-0.06-0.755-0.094l-1.42-0.216
	c-0.382-0.066-0.737-0.128-1.06-0.198L2.999,0.71C2.684,0.64,2.405,0.578,2.166,0.517L1.198,0.245
	C1.134,0.227,1.095,0.161,1.111,0.096z"/>
<path fill="rgb(59 130 246)" d="M22.417,8.016c-0.241,0.059-0.482,0.115-0.725,0.169l-0.728,0.164c-0.434,0.095-0.945,0.204-1.459,0.301
	c-0.558,0.108-1.021,0.188-1.462,0.251c-0.544,0.077-1,0.132-1.457,0.15c-0.285,0.012-0.505,0.005-0.701-0.017
	c-0.098-0.012-0.211-0.027-0.312-0.06c-0.099-0.029-0.159-0.069-0.181-0.096l-0.07-0.11c-0.024-0.04-0.049-0.082-0.073-0.124
	l-0.014-0.025c-0.058-0.104-0.113-0.211-0.167-0.318c-0.108-0.218-0.211-0.442-0.325-0.691c-0.201-0.441-0.409-0.897-0.651-1.341
	c-0.114-0.206-0.255-0.447-0.438-0.675c-0.11-0.137-0.209-0.235-0.322-0.321c-0.17-0.129-0.348-0.196-0.53-0.2
	c-0.004,0-0.006,0-0.011,0c0,0,0,0-0.001,0c-0.001,0-0.002,0-0.002,0c-0.001,0-0.003,0-0.004,0
	c-0.101,0.002-0.206,0.025-0.304,0.069c-0.081,0.036-0.157,0.083-0.234,0.144c-0.139,0.114-0.24,0.238-0.312,0.333
	c-0.158,0.212-0.28,0.428-0.415,0.688c-0.118,0.229-0.227,0.459-0.332,0.688l-0.312,0.679c-0.092,0.2-0.202,0.434-0.321,0.653
	C10.5,8.431,10.44,8.532,10.377,8.629c-0.03,0.048-0.062,0.093-0.111,0.157l-0.048,0.059c-0.008,0.009-0.015,0.021-0.021,0.033
	l-0.007-0.004c-0.045,0.045-0.122,0.091-0.211,0.125c-0.086,0.034-0.185,0.06-0.304,0.08c-0.196,0.035-0.422,0.05-0.691,0.05
	c-0.521-0.004-1.05-0.072-1.452-0.131C7.083,8.934,6.606,8.847,6.073,8.734C5.579,8.631,5.083,8.512,4.621,8.399
	C4.378,8.338,4.138,8.277,3.896,8.212C3.655,8.15,3.415,8.085,3.176,8.017C3.11,7.999,3.044,8.035,3.023,8.098
	S3.035,8.23,3.097,8.254C3.546,8.426,4.012,8.589,4.52,8.752c0.44,0.143,0.913,0.282,1.448,0.428
	c0.542,0.142,1.025,0.253,1.476,0.341C7.68,9.566,7.927,9.606,8.199,9.642c0.299,0.037,0.544,0.059,0.771,0.067
	c0.083,0.003,0.161,0.005,0.237,0.005c0.208,0,0.393-0.013,0.566-0.038c0.162-0.024,0.295-0.058,0.423-0.104
	c0.123-0.046,0.281-0.116,0.427-0.254l0.044-0.044c0.001-0.001,0.038-0.044,0.039-0.044c0.019-0.021,0.037-0.043,0.071-0.086
	c0.043-0.056,0.083-0.111,0.122-0.168c0.076-0.111,0.145-0.226,0.21-0.34c0.131-0.229,0.248-0.465,0.354-0.685
	c0.077-0.159,0.151-0.32,0.225-0.479c0.139-0.3,0.271-0.583,0.416-0.861c0.093-0.176,0.219-0.403,0.361-0.591
	c0.069-0.091,0.136-0.163,0.198-0.213c0.122-0.097,0.152-0.089,0.27,0c0.064,0.047,0.133,0.116,0.205,0.205
	c0.12,0.148,0.236,0.326,0.377,0.577c0.18,0.323,0.345,0.671,0.505,1.007l0.149,0.313c0.109,0.226,0.219,0.452,0.336,0.679
	c0.06,0.114,0.122,0.229,0.187,0.341c0.034,0.057,0.068,0.114,0.104,0.171l0.084,0.126c0.019,0.026,0.035,0.049,0.053,0.067
	c0.142,0.153,0.307,0.219,0.467,0.268c0.126,0.035,0.257,0.058,0.426,0.073c0.296,0.021,0.577,0.007,0.791-0.007
	c0.461-0.035,0.94-0.101,1.511-0.208c0.473-0.091,0.968-0.2,1.473-0.324c0.543-0.137,1.018-0.265,1.451-0.391
	c0.514-0.148,0.983-0.295,1.434-0.448c0.063-0.021,0.099-0.089,0.08-0.153S22.485,7.996,22.417,8.016z"/>
</svg>
