<?xml version="1.0" encoding="utf-8"?>
<!-- Generator: Adobe Illustrator 16.0.0, SVG Export Plug-In . SVG Version: 6.00 Build 0)  -->
<!DOCTYPE svg PUBLIC "-//W3C//DTD SVG 1.1//EN" "http://www.w3.org/Graphics/SVG/1.1/DTD/svg11.dtd">
<svg version="1.1" id="Layer_1" xmlns="http://www.w3.org/2000/svg" xmlns:xlink="http://www.w3.org/1999/xlink" x="0px" y="0px"
	 width="74.997px" height="28.015px" viewBox="0 0 74.997 28.015" enable-background="new 0 0 74.997 28.015" xml:space="preserve">
<g>
	<path fill="#FF4587" d="M26.174,23.245c-2.594,0-7.849-0.898-19.157-3.474c-0.268-0.06-0.435-0.327-0.375-0.594
		c0.061-0.268,0.328-0.435,0.595-0.375c13.664,3.112,19.424,3.999,20.543,3.166c0.162-0.12,0.222-0.29,0.25-0.698
		c0.091-1.363-2.375-1.812-2.4-1.815C6.399,16.94,2.244,15.872,2.244,13.44c0-0.841,0.364-1.282,0.67-1.504
		c0.816-0.593,2.036-0.27,2.301-0.189c18.047,2.979,25.618,3.691,27.003,2.539c0.166-0.138,0.236-0.305,0.241-0.573
		c0.007-0.347-0.102-0.63-0.332-0.865c-0.616-0.628-1.942-0.766-2.4-0.766h-0.025C11.368,11.139,0.268,8.663,0.01,5.456
		c-0.074-0.925,0.277-1.404,0.583-1.64c0.788-0.608,2.008-0.247,2.242-0.168C19.467,7.575,37.289,7.502,37.463,7.5h0.068
		C37.712,7.5,55.536,7.574,72.163,3.647c0.234-0.078,1.453-0.44,2.241,0.168c0.307,0.236,0.657,0.715,0.583,1.64
		c-0.258,3.207-11.357,5.683-29.69,6.626h-0.025c-0.46,0.001-1.79,0.142-2.401,0.768c-0.229,0.234-0.338,0.517-0.33,0.863
		c0.004,0.268,0.074,0.435,0.24,0.573c1.385,1.152,8.956,0.44,27.004-2.539c0.264-0.081,1.484-0.403,2.301,0.189
		c0.305,0.223,0.67,0.664,0.67,1.504c0,2.432-4.156,3.5-23.404,6.018c-0.008,0.001-2.475,0.456-2.383,1.813
		c0.027,0.408,0.088,0.578,0.25,0.698c1.119,0.834,6.879-0.054,20.543-3.166c0.268-0.06,0.533,0.107,0.594,0.375
		c0.061,0.267-0.106,0.534-0.374,0.594c-16.429,3.741-20.081,3.944-21.356,2.993c-0.512-0.38-0.613-0.91-0.647-1.428
		c-0.153-2.273,3.091-2.839,3.228-2.861c14.967-1.957,22.558-3.273,22.558-5.035c0-0.511-0.196-0.654-0.261-0.701
		c-0.365-0.265-1.134-0.139-1.449-0.037l-0.072,0.018c-21.606,3.567-26.326,3.583-27.834,2.328c-0.393-0.327-0.588-0.756-0.6-1.317
		c-0.012-0.619,0.195-1.151,0.615-1.58c0.999-1.017,2.898-1.062,3.096-1.063C67.72,9.934,73.88,6.847,73.997,5.375
		c0.031-0.385-0.036-0.646-0.199-0.773c-0.315-0.244-1.036-0.111-1.336-0.008l-0.048,0.014c-16.752,3.96-34.707,3.885-34.886,3.885
		h-0.062c-0.176,0-18.131,0.075-34.882-3.885L2.535,4.594c-0.298-0.103-1.02-0.236-1.334,0.008C1.037,4.729,0.97,4.99,1,5.375
		c0.118,1.472,6.278,4.559,28.74,5.713c0.198,0.002,2.097,0.046,3.096,1.063c0.42,0.429,0.627,0.96,0.615,1.58
		c-0.01,0.56-0.206,0.99-0.599,1.316c-1.508,1.255-6.228,1.239-27.834-2.328l-0.072-0.018c-0.251-0.08-1.06-0.247-1.45,0.038
		c-0.064,0.047-0.26,0.189-0.26,0.7c0,1.762,7.591,3.078,22.54,5.032c0.155,0.025,3.398,0.591,3.246,2.864
		c-0.035,0.518-0.138,1.048-0.648,1.428C27.977,23.062,27.349,23.245,26.174,23.245z"/>
	<path fill="#398AFF" d="M71.72,0c0,0-0.26,0.073-0.746,0.21c-0.486,0.137-1.2,0.336-2.108,0.591
		c-0.913,0.235-2.038,0.473-3.325,0.76c-1.29,0.275-2.755,0.513-4.352,0.797c-0.803,0.115-1.639,0.234-2.504,0.357
		c-0.865,0.12-1.76,0.252-2.684,0.34c-0.924,0.098-1.873,0.197-2.843,0.301c-0.243,0.025-0.485,0.051-0.731,0.077
		c-0.246,0.018-0.492,0.037-0.74,0.056c-0.496,0.036-0.997,0.072-1.503,0.109c-1.011,0.066-2.037,0.16-3.078,0.208
		c-1.041,0.05-2.095,0.099-3.159,0.139c-0.531,0.018-1.064,0.051-1.6,0.056c-0.535,0.009-1.072,0.017-1.611,0.026
		c-1.075,0.016-2.156,0.033-3.236,0.049c-1.08-0.017-2.159-0.033-3.235-0.049c-0.537-0.008-1.072-0.016-1.606-0.025
		c-0.533-0.005-1.069-0.038-1.601-0.056c-1.065-0.041-2.121-0.087-3.163-0.138c-1.043-0.049-2.069-0.143-3.079-0.209
		c-0.506-0.037-1.007-0.073-1.503-0.109c-0.248-0.018-0.495-0.037-0.741-0.055c-0.245-0.026-0.489-0.052-0.731-0.077
		c-0.97-0.103-1.918-0.204-2.842-0.301c-0.924-0.087-1.818-0.221-2.684-0.339c-0.865-0.124-1.701-0.243-2.503-0.357
		c-1.597-0.285-3.063-0.522-4.352-0.797C8.172,1.276,7.051,1.038,6.135,0.803C5.226,0.547,4.511,0.347,4.024,0.21
		C3.537,0.073,3.278,0,3.278,0S3.543,0.05,4.04,0.145c0.496,0.096,1.223,0.236,2.147,0.416c0.46,0.098,0.98,0.157,1.54,0.249
		c0.561,0.087,1.167,0.183,1.813,0.285c0.162,0.026,0.326,0.051,0.493,0.078c0.168,0.02,0.338,0.041,0.511,0.063
		c0.346,0.042,0.702,0.085,1.067,0.128c0.729,0.093,1.494,0.189,2.294,0.29c0.802,0.078,1.639,0.157,2.504,0.238
		c0.865,0.08,1.756,0.189,2.679,0.243c1.842,0.132,3.782,0.286,5.795,0.374c1.005,0.046,2.028,0.118,3.063,0.146
		c1.035,0.025,2.082,0.056,3.137,0.095c0.528,0.014,1.055,0.043,1.589,0.044c0.535,0.005,1.07,0.01,1.606,0.015
		c1.07,0.009,2.145,0.018,3.22,0.028c1.074-0.01,2.148-0.019,3.219-0.028c0.535-0.005,1.068-0.01,1.602-0.014
		c0.531-0.002,1.063-0.032,1.591-0.046c1.057-0.039,2.104-0.067,3.142-0.093c1.035-0.028,2.057-0.1,3.063-0.146
		c2.014-0.088,3.954-0.24,5.797-0.373c0.922-0.053,1.813-0.165,2.678-0.243c0.865-0.083,1.702-0.162,2.504-0.239
		c0.8-0.101,1.565-0.198,2.295-0.29c0.364-0.043,0.721-0.086,1.066-0.128c0.173-0.021,0.343-0.042,0.511-0.063
		c0.167-0.027,0.331-0.052,0.492-0.079c1.289-0.214,2.423-0.363,3.351-0.533c0.927-0.179,1.654-0.321,2.15-0.417
		C71.454,0.05,71.72,0,71.72,0z"/>
	<path fill="#398AFF" d="M66.07,23.715c-1.399,0.472-2.81,0.909-4.229,1.319c-1.418,0.414-2.847,0.794-4.28,1.154
		c-1.437,0.353-2.883,0.674-4.34,0.953c-1.458,0.277-2.93,0.499-4.43,0.611c-0.751,0.053-1.509,0.078-2.286,0.02
		c-0.39-0.033-0.783-0.09-1.188-0.203c-0.398-0.119-0.837-0.282-1.209-0.686c-0.047-0.05-0.086-0.103-0.13-0.163l-0.078-0.114
		l-0.162-0.246c-0.104-0.164-0.202-0.327-0.299-0.492c-0.191-0.328-0.371-0.66-0.544-0.992c-0.346-0.666-0.669-1.334-0.989-2
		c-0.641-1.33-1.244-2.669-1.946-3.926c-0.351-0.625-0.726-1.235-1.151-1.76c-0.212-0.26-0.44-0.496-0.674-0.67
		c-0.234-0.176-0.463-0.266-0.646-0.264v-1.242h0.018v1.242c-0.174-0.001-0.394,0.088-0.622,0.271
		c-0.226,0.181-0.447,0.426-0.651,0.695c-0.409,0.54-0.765,1.166-1.1,1.803c-0.672,1.283-1.259,2.637-1.905,3.98
		c-0.325,0.671-0.66,1.342-1.037,2.004c-0.188,0.33-0.388,0.658-0.606,0.981c-0.111,0.161-0.225,0.32-0.348,0.478
		c-0.063,0.078-0.124,0.156-0.191,0.232l-0.049,0.059l-0.06,0.064l-0.047,0.052l-0.071,0.067c-0.354,0.332-0.748,0.525-1.14,0.672
		c-0.394,0.144-0.788,0.23-1.177,0.291c-0.781,0.113-1.549,0.121-2.307,0.094c-0.759-0.03-1.508-0.104-2.251-0.199
		c-0.743-0.098-1.481-0.213-2.213-0.355c-1.464-0.282-2.911-0.625-4.346-1.002c-1.433-0.389-2.855-0.805-4.265-1.26
		c-1.411-0.455-2.81-0.941-4.193-1.47c0.711,0.204,1.426,0.396,2.142,0.581c0.714,0.191,1.429,0.375,2.147,0.553
		c1.433,0.354,2.869,0.696,4.313,0.994c1.442,0.307,2.888,0.58,4.34,0.791c1.45,0.209,2.908,0.378,4.349,0.389
		c0.719,0.003,1.436-0.033,2.115-0.152c0.34-0.06,0.669-0.141,0.969-0.258c0.296-0.114,0.572-0.272,0.754-0.453l0.029-0.027
		l0.047-0.051l0.022-0.025c-0.002,0.003,0.015-0.017-0.004,0.006l0.004-0.007l0.01-0.013l0.041-0.047
		c0.053-0.064,0.104-0.133,0.156-0.199c0.102-0.136,0.201-0.278,0.296-0.424c0.19-0.294,0.371-0.601,0.541-0.916
		c0.343-0.631,0.657-1.289,0.963-1.954l0.922-2.013c0.31-0.674,0.627-1.351,0.974-2.023c0.35-0.67,0.719-1.34,1.197-1.982
		c0.241-0.32,0.511-0.637,0.861-0.921c0.175-0.141,0.375-0.272,0.608-0.376c0.232-0.102,0.503-0.172,0.784-0.172v1.242H37.49v-1.242
		c0.563,0.005,1.034,0.253,1.384,0.518c0.356,0.27,0.637,0.574,0.889,0.887c0.5,0.625,0.891,1.282,1.258,1.943
		c0.724,1.326,1.338,2.678,1.949,4.018c0.305,0.668,0.611,1.334,0.932,1.984c0.162,0.324,0.327,0.645,0.5,0.956
		c0.088,0.156,0.176,0.31,0.268,0.459l0.138,0.22l0.075,0.115c0.012,0.014,0.025,0.035,0.041,0.053
		c0.125,0.151,0.394,0.293,0.696,0.383c0.304,0.094,0.642,0.148,0.985,0.189c0.691,0.076,1.413,0.078,2.135,0.051
		c1.444-0.057,2.898-0.242,4.349-0.447c1.451-0.209,2.898-0.467,4.343-0.746c1.445-0.273,2.887-0.58,4.327-0.895l2.157-0.484
		C64.635,24.057,65.353,23.89,66.07,23.715z"/>
</g>
</svg>
