<?xml version="1.0" encoding="utf-8"?>
<!-- Generator: Adobe Illustrator 26.3.1, SVG Export Plug-In . SVG Version: 6.00 Build 0)  -->
<svg version="1.1" id="Layer_1" xmlns="http://www.w3.org/2000/svg" xmlns:xlink="http://www.w3.org/1999/xlink" x="0px" y="0px"
	 viewBox="0 0 180 68" style="enable-background:new 0 0 180 68;" xml:space="preserve">
<style type="text/css">
	.st0{fill:#FF0201;}
	.st1{fill:#125BFF;}
	.st2{fill-rule:evenodd;clip-rule:evenodd;fill:#111111;}
	.st3{fill:#F3BB2D;}
	.st4{fill:#101820;}
	.st5{fill:#253137;}
	.st6{fill:#FABF2C;}
	.st7{fill:#1D1D1B;}
	.st8{fill-rule:evenodd;clip-rule:evenodd;}
	.st9{fill-rule:evenodd;clip-rule:evenodd;fill:#FFA500;}
	.st10{fill:#284399;}
	.st11{fill:#111111;}
	.st12{fill:#C01820;}
	.st13{fill:#F7A600;}
	.st14{fill-rule:evenodd;clip-rule:evenodd;fill:#00CFBE;}
	.st15{fill:#7CE8FE;}
	.st16{fill:#3EC7E3;}
	.st17{fill:#00A2C7;}
	.st18{fill:#F0B90B;}
	.st19{fill:#5841D8;}
</style>
<g>
	<path class="st0" d="M22.4,21.4l-6.3,0l-6.2,25l6.2,0L20,30.7l6.2,0l2.3-9.3L22.4,21.4z"/>
	<path class="st1" d="M34.8,21.4l-2.3,9.3L30.9,37l-6.2,0l-2.3,9.4l12.5,0l3.9-15.6l2.3-9.3L34.8,21.4z"/>
	<path d="M74.8,22.9c0,0.5-0.2,0.9-0.6,1.2c-0.3,0.3-0.8,0.5-1.2,0.5s-0.8-0.2-1.2-0.5c-0.3-0.3-0.6-0.7-0.6-1.2
		c0-0.5,0.2-0.9,0.6-1.2c0.3-0.3,0.8-0.5,1.2-0.5c0.4,0,0.8,0.2,1.2,0.5C74.6,22,74.8,22.4,74.8,22.9z M47.3,21.4l10.3,0
		c2.9,0,5.1,0.8,6.5,2.2c1,1.1,1.6,2.4,1.6,4l0,0.1c0,3.2-2,4.9-4,5.8c3,0.9,5.3,2.6,5.3,6l0,0.1c0,4.3-3.6,6.8-9.1,6.8l-10.8,0
		L47.3,21.4z M57.2,32.5c3.4,0,5.7-1.5,5.8-4.5l0-0.1c0-2.5-2-4.1-5.5-4.1l-7.3,0l0,8.6L57.2,32.5L57.2,32.5z M58.2,43.8
		c3.8,0,6.1-1.7,6.1-4.5l0-0.1c0-2.7-2.3-4.3-6.6-4.3l-7.6,0l0,8.8L58.2,43.8z M71.7,27.9l2.8,0l0,18.5l-2.8,0
		C71.7,46.4,71.7,27.9,71.7,27.9z M81.7,40.5l0-10.2l-4.2,0l0-2.4l4.2,0l0-6.5l2.8,0l0,6.5l7.6,0l0,2.4l-7.6,0l0,9.8
		c0,2.5,1.2,4.1,3.4,4c1.5,0,2.8-0.2,3.9-0.7l0,2.3c-1,0.5-2.7,0.8-4.6,0.8C83.9,46.6,81.7,44.3,81.7,40.5L81.7,40.5z M96,21.4
		l5.9,0l6.6,10.6l6.6-10.6l5.9,0l0,25l-5.5,0l0-16.3l-7,10.7l-0.1,0l-7-10.6l0,16.2l-5.4,0L96,21.4L96,21.4z M125.9,21.4l18.8,0
		l0,4.9l-13.4,0l0,5.1l11.2,0l0,4.9l-11.1,0l0,5.2l13.6,0l0,4.9l-19,0L125.9,21.4L125.9,21.4z M155.2,33.7l-8.3-12.3l6.4,0l5.2,8.1
		l5.3-8.1l6.2,0l-8.3,12.2l8.7,12.8l-6.4,0l-5.6-8.6l-5.6,8.6l-6.2,0C146.4,46.4,155.2,33.7,155.2,33.7z"/>
</g>
<g>
	<g>
		<path d="M10,519h11.7c2.2,0,3.9,0.6,5.2,1.5c1.4,1.1,2.1,2.8,2.1,4.8c0,2.3-0.9,3.8-2.8,4.7v0.1c2.5,0.8,3.9,3.1,3.9,5.8
			c0,2.6-1,4.6-2.6,5.9c-1.4,1-3.1,1.4-5.5,1.4H10V519z M20.6,528.5c1.2,0,2.2-0.7,2.2-2.1c0-1.4-0.9-2.1-2.2-2.1h-4v4.2L20.6,528.5
			L20.6,528.5z M21.1,537.9c1.4,0,2.5-0.9,2.5-2.5c0-1.7-1.1-2.5-2.5-2.5h-4.6v5L21.1,537.9L21.1,537.9z"/>
		<path d="M31.2,519h6.1v24.3h-6.1V519z"/>
		<path d="M38.5,534.7c0-5.5,3.5-9.1,8.9-9.1c5.4,0,8.8,3.7,8.8,9.1c0,5.5-3.4,9.1-8.8,9.1C42,543.8,38.5,540.1,38.5,534.7z
			 M50.1,534.7c0-3-0.9-4.9-2.8-4.9s-2.7,1.9-2.7,4.9c0,3,0.9,5,2.7,5C49.2,539.6,50.1,537.7,50.1,534.7z"/>
		<path d="M56.9,534.7c0-5.5,3.5-9.1,8.9-9.1c5.4,0,8.8,3.7,8.8,9.1s-3.4,9.1-8.8,9.1C60.4,543.8,56.9,540.1,56.9,534.7z
			 M68.5,534.7c0-3-0.9-4.9-2.8-4.9s-2.7,1.9-2.7,4.9c0,3,0.9,5,2.7,5C67.5,539.6,68.5,537.7,68.5,534.7z"/>
		<path d="M75.8,526h5.7v2.6h0.1c1.1-2,2.7-3.1,5.2-3.1c2.2,0,3.8,1.1,4.6,3h0.1c1.4-2.3,3.2-3,5.3-3c4,0,5.6,3,5.6,6.9v10.8h-6
			v-9.8c0-1.8-0.6-2.9-2-2.9s-2.2,1.4-2.2,3.3v9.4h-6v-9.8c0-1.8-0.6-2.9-2-2.9s-2.2,1.4-2.2,3.3v9.4h-6.1V526z"/>
		<path d="M109.9,541L109.9,541l-0.1,2.3h-5.7V519h6v8.7h0.1c1.1-1.5,2.7-2.3,4.8-2.3c4.3,0,6.8,3.9,6.8,9.1c0,5.9-2.7,9.3-7.1,9.3
			C112.8,543.8,110.9,542.9,109.9,541z M115.7,534.5c0-2.8-1-4.6-2.8-4.6c-1.9,0-3,1.8-3,4.6c0,2.8,1.2,4.6,3,4.6
			C114.7,539.1,115.7,537.3,115.7,534.5z"/>
		<path d="M122.5,534.6c0-5.4,3.5-9.1,8.6-9.1c2.5,0,4.5,0.8,6,2.3c2,2,2.9,5,2.8,8.5h-11.4c0.2,2.1,1.2,3.3,3,3.3
			c1.1,0,2-0.5,2.4-1.6h5.8c-1,4-4,5.9-8.3,5.9C126.1,543.7,122.5,540.1,122.5,534.6z M128.5,532.8h5.5c-0.1-2.1-1.2-3.2-2.7-3.2
			C129.6,529.6,128.7,530.8,128.5,532.8z"/>
		<path d="M146.7,528.9h0.1c1.2-2.4,2.9-3.3,4.9-3.3c0.5,0,0.8,0.1,1,0.2v5.3h-0.1c-3.5-0.6-5.6,1.1-5.6,5v7.2h-6V526h5.7V528.9z"/>
		<path d="M153.3,543.3h5.8c0.2,0.8,1,1.4,2.4,1.4c1.9,0,2.6-1.2,2.6-3v-1.3H164c-0.9,1.1-2.2,2-4.1,2c-3.7,0-6.9-2.8-6.9-8.2
			c0-5,2.6-8.8,6.6-8.8c2.3,0,3.7,0.9,4.6,2.4h0.1v-1.9h5.7v15c0,2.8-0.9,4.9-2.4,6.2c-1.5,1.3-3.6,1.9-6,1.9
			C157,549,153.9,547.1,153.3,543.3z M164.4,534c0-2.1-1-3.9-2.7-3.9c-1.7,0-2.7,1.5-2.7,3.9c0,2.3,1.1,4,2.7,4
			C163.3,537.9,164.4,536.2,164.4,534z"/>
	</g>
	<path class="st2" d="M-697.6,559h3.7v-20h-3.7V559z M-684,558.7h3.3v-12.6l14,12.9v-19.7h-3.3v12.4l-14-12.7V558.7z M-659,553.9
		c1.8,1.4,4,2.2,6.3,2.2c2.3,0,3.9-0.8,3.9-2.5c0-1.5-1-2.1-2.8-2.8l-2.9-1c-2.7-0.9-4.7-2.3-4.7-5.5c0-3.4,3.1-5.3,6.7-5.3
		c2.2,0,4.3,0.6,5.9,1.6v3.4c-1.7-1.2-3.5-2.1-5.8-2.1c-2,0-3.5,0.8-3.5,2.3c0,1.4,0.9,2,2.6,2.6l3.2,1.1c3.1,1.1,4.5,2.8,4.5,5.6
		c0,3.5-3.1,5.5-7.1,5.5c-2.7,0-4.9-0.8-6.3-1.7V553.9z M-636.8,559h3.7v-20h-3.7V559z M-615.6,556c4.2,0,6.4-2.7,6.4-7
		c0-4.3-2.2-7-6.4-7h-4.1v14H-615.6L-615.6,556z M-623.2,539h7.7c5.9,0,9.7,3.9,9.7,10c0,6.1-3.8,10-9.7,10h-7.7V539z M-587.2,539v3
		h-9v4.8h8.1v3h-8.1v6.2h9v3h-12.4v-20H-587.2z M-574,548.1h3.7c2.2,0,3.4-1.2,3.4-3.1s-1.2-3.1-3.4-3.1h-3.7V548.1L-574,548.1z
		 M-574,550.9v8.1h-3.3v-20h7c4,0,6.6,2.1,6.6,6c0,3.3-1.4,5.3-4.5,5.8l7,8.2h-3.7l-6.8-8.1L-574,550.9L-574,550.9z M-698.9,519.3
		c1.5-0.5,2.6-2.1,2.6-4.4c0-3.7-2.6-5.6-6.7-5.6h-7v20.6h7.6c4.1,0,6.7-2,6.7-5.9C-695.7,521.8-697,519.9-698.9,519.3z M-706.7,518
		v-5.6h3.7c2.3,0,3.5,0.8,3.5,2.8c0,1.9-1.2,2.8-3.5,2.8H-706.7z M-706.7,520.9h4.3c2.3,0,3.5,1.1,3.5,3c0,1.8-1.2,3-3.5,3h-4.3
		L-706.7,520.9L-706.7,520.9z M-680.5,530.2c4.8,0,8-2.9,8-8.5v-12.4h-3.4v12c0,4-1.6,5.8-4.6,5.8c-3,0-4.6-1.8-4.6-5.8v-12h-3.4
		v12.4C-688.4,527.4-685.2,530.2-680.5,530.2L-680.5,530.2z M-664.6,528.4c1.4,1,3.7,1.8,6.3,1.8c4,0,7.1-2.1,7.1-5.8
		c0-3-1.4-4.8-4.5-6l-3.2-1.2c-1.7-0.6-2.6-1.2-2.6-2.7c0-1.7,1.5-2.5,3.5-2.5c2.3,0,4.1,0.9,5.8,2.2v-3.6c-1.6-1.1-3.6-1.7-5.9-1.7
		c-3.7,0-6.7,2-6.7,5.6c0,3.4,2,4.9,4.7,5.9l2.9,1.1c1.8,0.7,2.8,1.3,2.8,2.9c0,1.8-1.6,2.7-3.9,2.7c-2.3,0-4.5-0.9-6.3-2.4V528.4
		L-664.6,528.4z M-639.1,509.3h-3.4v20.6h3.4V509.3z M-629.5,529.9h3.2v-13.4l13.7,13.7v-20.9h-3.2v13.2l-13.7-13.5V529.9
		L-629.5,529.9z M-591.6,509.4v3.1h-8.7v5h7.8v3h-7.8v6.4h8.7v3.1h-12v-20.6H-591.6z M-583.8,528.4c1.4,1,3.7,1.8,6.3,1.8
		c4,0,7.1-2.1,7.1-5.8c0-3-1.4-4.8-4.5-6l-3.2-1.2c-1.7-0.6-2.6-1.2-2.6-2.7c0-1.7,1.5-2.5,3.5-2.5c2.3,0,4.1,0.9,5.8,2.2v-3.6
		c-1.6-1.1-3.6-1.7-5.9-1.7c-3.7,0-6.7,2-6.7,5.6c0,3.4,2,4.9,4.7,5.9l2.9,1.1c1.8,0.7,2.8,1.3,2.8,2.9c0,1.8-1.6,2.7-3.9,2.7
		c-2.3,0-4.5-0.9-6.3-2.4V528.4L-583.8,528.4z M-563.4,528.4c1.4,1,3.7,1.8,6.3,1.8c4,0,7.1-2.1,7.1-5.8c0-3-1.4-4.8-4.5-6l-3.2-1.2
		c-1.7-0.6-2.6-1.2-2.6-2.7c0-1.7,1.5-2.5,3.5-2.5c2.3,0,4.1,0.9,5.8,2.2v-3.6c-1.6-1.1-3.6-1.7-5.9-1.7c-3.7,0-6.7,2-6.7,5.6
		c0,3.4,2,4.9,4.7,5.9l2.9,1.1c1.8,0.7,2.8,1.3,2.8,2.9c0,1.8-1.6,2.7-3.9,2.7c-2.3,0-4.5-0.9-6.3-2.4V528.4L-563.4,528.4z"/>
	<g>
		<path class="st3" d="M614.1,534.5c0,0.8,0.7,1.5,1.5,1.5s1.5-0.7,1.5-1.5c0-0.8-0.7-1.5-1.5-1.5
			C614.7,533,614.1,533.7,614.1,534.5z M626.8,533c-0.9,0-1.5,0.7-1.5,1.5c0,0.8,0.7,1.5,1.5,1.5s1.5-0.7,1.5-1.5
			C628.3,533.7,627.7,533,626.8,533z M626.8,544.3c-0.9,0-1.5,0.7-1.5,1.5c0,0.8,0.7,1.5,1.5,1.5s1.5-0.7,1.5-1.5
			C628.3,545,627.7,544.3,626.8,544.3z"/>
		<path class="st3" d="M630,520.6c-1.5-1.9-4.2-2-5.8-0.5l-0.2,0.2l-0.4,0.3c-1.5,1.2-3.8,1.1-5.2-0.3v-0.1c-0.5-0.5-1.1-0.8-1.8-1
			c-0.1,0-0.3-0.1-0.4-0.1h-1.5c-0.1,0-0.2,0-0.3,0.1h-0.2c-0.1,0-0.2,0.1-0.3,0.1c0,0-0.1,0-0.1,0.1c-0.1,0-0.2,0.1-0.3,0.1
			c0,0-0.1,0-0.1,0.1c-0.1,0.1-0.2,0.1-0.3,0.2c0,0-0.1,0-0.1,0.1c-0.1,0.1-0.2,0.1-0.3,0.2l-0.1,0.1l-0.2,0.2l-0.4,0.3
			c-1.5,1.2-3.8,1.1-5.1-0.3c0,0-0.1,0-0.1-0.1l-0.2-0.2c-0.6-0.5-1.2-0.8-2-0.9h-1.7c0,0.1-0.1,0.1-0.2,0.2h0
			c-0.5,0.2-0.9,0.4-1.3,0.7l-0.1,0.1l-0.3,0.3c-0.4,0.4-0.6,0.8-0.7,1.2c0,0.1-0.1,0.2-0.1,0.3s-0.1,0.2-0.1,0.4
			c-0.1,0.7-0.1,1.3,0.1,2c0,0.1,0.1,0.2,0.1,0.3v0.1c0,0.1,0.1,0.2,0.1,0.3c0.1,0.1,0.1,0.2,0.2,0.4c0.2,0.1,0.4,0.3,0.5,0.4
			l0.2,0.2l0.2,0.2c1.4,1.4,1.4,3.8-0.1,5.3c-0.2,0.2-0.5,0.5-0.6,0.7c-0.1,0.1-0.1,0.2-0.2,0.4v0.1c-0.1,0.1-0.1,0.2-0.2,0.3v0.1
			c0,0.1-0.1,0.2-0.1,0.3v0.1c0,0.1,0,0.2-0.1,0.3v1.4c0,0.1,0,0.2,0.1,0.3v0.1c0.2,0.7,0.6,1.3,1.1,1.9c1.5,1.5,1.5,3.9,0,5.4
			l-0.1,0.1l-0.2,0.2v0.1c-0.1,0.1-0.2,0.2-0.2,0.3c0,0,0,0.1-0.1,0.1c-0.1,0.1-0.1,0.2-0.2,0.3l-0.1,0.1c0,0.1-0.1,0.1-0.1,0.2
			c0,0.1-0.1,0.1-0.1,0.2c0,0.1,0,0.1-0.1,0.2c-0.2,0.4-0.3,0.8-0.3,1.2v0.7c0.1,0.3,0.1,0.6,0.3,0.7c0,0.1,0.1,0.2,0.1,0.2
			s0,0.1,0.1,0.1c0,0.1,0.1,0.2,0.1,0.3c0,0,0,0.1,0.1,0.1c0.1,0.2,0.2,0.3,0.3,0.4c0,0,0,0.1,0.1,0.1c0,0,0,0.1,0.1,0.1
			c0,0.1,0.1,0.1,0.1,0.1l0.1,0.1c0.1,0.1,0.2,0.1,0.2,0.2l0.1,0.1c0,0,0.1,0,0.1,0.1c0.1,0.1,0.2,0.2,0.3,0.2c0,0,0.1,0,0.1,0.1
			c0.1,0.1,0.2,0.1,0.3,0.2h0.1c0.1,0.1,0.2,0.1,0.4,0.1c0.1,0,0.3,0.1,0.4,0.1h0.1c0.1,0,0.2,0,0.3,0.1h0.9c0.3,0,0.5-0.1,0.7-0.1
			h0.1c0.1,0,0.2-0.1,0.3-0.1h0.1c0.1,0,0.2-0.1,0.3-0.1h0.1c0.2-0.1,0.5-0.3,0.7-0.4l0.3-0.3l0.1-0.1c1.5-1.6,4-1.6,5.5,0
			c1.7,1.8,4.5,1.7,6.1-0.3c1.1-1.4,1.1-3.5,0-5c-1.5-1.9-4.2-2-5.8-0.5l-0.2,0.2l-0.4,0.3c-1.5,1.2-3.8,1.1-5.2-0.3l-0.2-0.2
			l-0.3-0.4c-1.2-1.5-1.1-3.8,0.3-5.1c0.9-0.7,1.2-1.8,1.2-2.8v-0.3c0-0.9-0.4-1.9-1.1-2.5c0-0.1-0.1-0.1-0.1-0.2l-0.3-0.4
			c-1.2-1.5-1.1-3.8,0.3-5.1l0.1-0.1l0.1-0.1c1.5-1.6,4-1.6,5.5,0l0.1,0.1l0.1,0.1l0.2,0.2c0.1,0,0.1,0.1,0.2,0.1
			c0.1,0,0.1,0.1,0.2,0.1s0.1,0.1,0.2,0.1c0.1,0,0.1,0.1,0.2,0.1c0.1,0,0.1,0.1,0.2,0.1c0.1,0,0.1,0.1,0.2,0.1c0.1,0,0.1,0,0.2,0.1
			c0.1,0,0.1,0,0.2,0.1h1.6c0.1,0,0.2,0,0.3-0.1h0.2c0.1,0,0.2-0.1,0.3-0.1h0.1c0.1,0,0.2-0.1,0.4-0.2c0.4-0.2,0.7-0.5,1-0.7
			l0.1-0.1c1.5-1.6,4-1.6,5.5,0c1.6,1.9,4.5,1.8,6-0.2C631.1,524,631.1,522,630,520.6z"/>
		<path class="st4" d="M651.5,532.2c-0.6-0.6-1-0.9-1.7-1.2c-0.6-0.3-1.2-0.5-2.1-0.5c-0.7,0-1.5,0.2-2.1,0.5
			c-0.6,0.3-1,0.7-1.4,1.2c-0.4,0.5-0.7,1-0.9,1.7s-0.3,1.3-0.3,2s0.1,1.3,0.4,2c0.2,0.7,0.6,1.1,0.9,1.6c0.4,0.5,0.9,0.8,1.5,1.1
			c0.6,0.3,1.2,0.4,2,0.4c0.9,0,1.5-0.2,2.1-0.5c0.6-0.3,1.1-0.7,1.6-1.2l2,2.1c-0.7,0.8-1.6,1.4-2.6,1.8c-0.9,0.4-2,0.6-3.1,0.6
			c-1.1,0-2.3-0.2-3.2-0.6c-0.9-0.4-1.8-0.9-2.5-1.6c-0.7-0.7-1.2-1.5-1.6-2.4s-0.6-2.1-0.6-3.2c0-1.1,0.2-2.2,0.6-3.2
			s0.9-1.8,1.6-2.5c0.7-0.7,1.5-1.2,2.5-1.6c0.9-0.4,2.1-0.6,3.2-0.6c1.1,0,2.2,0.2,3.1,0.6c1,0.4,1.9,1,2.6,1.8L651.5,532.2z
			 M657.9,535.6c0,0.7,0.1,1.5,0.4,2.1c0.2,0.7,0.6,1.2,0.9,1.7c0.4,0.5,0.9,0.8,1.5,1c0.6,0.3,1.3,0.4,2.1,0.4
			c0.7,0,1.4-0.1,2.1-0.4c0.6-0.3,1.1-0.7,1.5-1c0.4-0.5,0.7-1,0.9-1.7c0.2-0.7,0.4-1.3,0.4-2.1c0-0.7-0.1-1.5-0.4-2.1
			c-0.2-0.7-0.6-1.2-0.9-1.7c-0.4-0.5-0.9-0.8-1.5-1c-0.6-0.3-1.3-0.4-2.1-0.4c-0.7,0-1.4,0.1-2.1,0.4c-0.6,0.3-1.1,0.7-1.5,1
			c-0.4,0.5-0.7,1-0.9,1.7C658.1,534.2,657.9,534.9,657.9,535.6z M654.9,535.6c0-1.1,0.2-2.1,0.6-3.1c0.4-0.9,0.9-1.8,1.7-2.5
			c0.7-0.7,1.5-1.3,2.6-1.7c0.9-0.4,2-0.7,3.1-0.7c1.1,0,2.2,0.2,3.1,0.7c0.9,0.4,1.8,0.9,2.6,1.7c0.7,0.7,1.2,1.6,1.7,2.5
			c0.4,0.9,0.6,2,0.6,3.1c0,1.1-0.2,2.1-0.6,3.1c-0.4,0.9-0.9,1.8-1.7,2.5c-0.7,0.7-1.5,1.2-2.6,1.7c-0.9,0.4-2,0.7-3.1,0.7
			c-1.1,0-2.2-0.2-3.1-0.7c-0.9-0.4-1.8-0.9-2.6-1.7c-0.7-0.7-1.2-1.5-1.7-2.5C655.2,537.8,654.9,536.7,654.9,535.6z M673.7,543.2
			h2.8v-14.9h-2.8V543.2z M673,522.8c0-0.6,0.2-1,0.6-1.5c0.4-0.4,0.9-0.7,1.4-0.7s1,0.2,1.4,0.7c0.4,0.4,0.6,0.9,0.6,1.5
			c0,0.6-0.2,1-0.6,1.5c-0.4,0.4-0.9,0.7-1.4,0.7s-1-0.2-1.4-0.7C673.2,523.9,673,523.4,673,522.8z M680.5,528.2h2.9v2.3h0.1
			c0.4-0.8,0.9-1.5,1.9-2c0.9-0.5,1.9-0.7,3.1-0.7c0.7,0,1.4,0.1,2.1,0.4c0.7,0.2,1.2,0.6,1.7,1c0.5,0.5,0.9,1,1.2,1.8
			c0.3,0.7,0.5,1.6,0.5,2.6v9.6H691v-8.9c0-0.7-0.1-1.3-0.3-1.8c-0.2-0.5-0.5-0.9-0.7-1.2c-0.3-0.3-0.7-0.6-1.1-0.7
			c-0.4-0.1-0.9-0.2-1.3-0.2c-0.6,0-1.1,0.1-1.6,0.3c-0.5,0.2-0.9,0.5-1.3,0.9c-0.4,0.4-0.7,0.9-0.9,1.6c-0.2,0.7-0.3,1.4-0.3,2.2
			v7.8h-2.8v-15.1L680.5,528.2z M704.3,540.9c0.7,0,1.4-0.1,2.1-0.4c0.7-0.3,1.1-0.7,1.6-1.1c0.4-0.5,0.7-1,0.9-1.7
			c0.2-0.7,0.4-1.3,0.4-2.1c0-0.7-0.1-1.5-0.4-2.1c-0.2-0.7-0.6-1.2-0.9-1.7c-0.5-0.5-0.9-0.8-1.6-1.1c-0.7-0.3-1.3-0.4-2.1-0.4
			c-0.7,0-1.4,0.1-2.1,0.4c-0.7,0.3-1.1,0.7-1.6,1.1c-0.4,0.5-0.7,1-0.9,1.7c-0.2,0.7-0.4,1.3-0.4,2.1c0,0.7,0.1,1.5,0.4,2.1
			c0.2,0.7,0.6,1.2,0.9,1.7c0.4,0.5,0.9,0.8,1.6,1.1C702.8,540.7,703.6,540.9,704.3,540.9z M712.2,543.1h-2.8V541h-0.1
			c-0.6,0.8-1.3,1.4-2.3,1.9c-0.9,0.5-2,0.7-3,0.7c-1.1,0-2.3-0.2-3.2-0.6c-0.9-0.4-1.8-0.9-2.5-1.7c-0.7-0.7-1.2-1.6-1.5-2.5
			c-0.4-0.9-0.6-2-0.6-3.1c0-1.1,0.2-2.1,0.6-3.2c0.4-0.9,0.9-1.8,1.5-2.5c0.7-0.7,1.5-1.3,2.5-1.7c0.9-0.4,2-0.6,3.2-0.6
			c1,0,2.1,0.2,3,0.7c0.9,0.5,1.7,1.1,2.2,1.9h0.1V519h2.8v24.1H712.2z M726.6,534.4c0-0.7-0.1-1.2-0.3-1.8c-0.2-0.6-0.5-1-0.9-1.4
			c-0.4-0.4-0.9-0.7-1.3-0.9c-0.6-0.2-1.1-0.4-1.9-0.4c-0.7,0-1.3,0.1-1.9,0.4c-0.6,0.3-1,0.6-1.5,1c-0.4,0.4-0.7,0.8-0.9,1.4
			c-0.2,0.6-0.4,1-0.4,1.5h9.1L726.6,534.4z M717.6,536.7c0,0.7,0.2,1.2,0.5,1.8c0.3,0.6,0.7,1,1.1,1.4c0.5,0.4,1,0.7,1.6,0.8
			c0.7,0.2,1.2,0.3,1.9,0.3c0.9,0,1.7-0.2,2.3-0.7c0.7-0.4,1.2-0.9,1.8-1.6l2.2,1.7c-1.6,2.1-3.9,3.1-6.7,3.1
			c-1.2,0-2.3-0.2-3.2-0.6c-0.9-0.4-1.8-0.9-2.5-1.7c-0.7-0.7-1.2-1.5-1.5-2.5c-0.4-0.9-0.6-2-0.6-3.1c0-1.1,0.2-2.1,0.6-3.1
			c0.4-0.9,0.9-1.8,1.6-2.5c0.7-0.7,1.5-1.2,2.5-1.7c0.9-0.4,2-0.6,3.1-0.6c1.3,0,2.5,0.2,3.4,0.7c0.9,0.5,1.7,1,2.3,1.8
			c0.6,0.7,1,1.6,1.3,2.5c0.3,0.9,0.4,1.9,0.4,2.9v1H717.6L717.6,536.7z M740.7,532c-0.4-0.4-0.7-0.7-1.2-1
			c-0.5-0.3-1.1-0.5-1.8-0.5c-0.7,0-1.2,0.2-1.8,0.5c-0.5,0.3-0.7,0.7-0.7,1.2c0,0.5,0.2,0.8,0.5,1c0.3,0.3,0.7,0.5,1,0.7
			c0.4,0.2,0.9,0.3,1.2,0.4c0.5,0.1,0.9,0.2,1.1,0.2c0.6,0.2,1.2,0.3,1.7,0.6c0.6,0.2,1,0.5,1.4,0.8c0.4,0.4,0.7,0.7,0.9,1.2
			c0.2,0.5,0.4,1,0.4,1.8c0,0.8-0.2,1.6-0.6,2.1c-0.4,0.6-0.9,1.1-1.4,1.5c-0.6,0.4-1.2,0.7-2,0.8c-0.7,0.2-1.5,0.3-2.2,0.3
			c-1.2,0-2.3-0.2-3.3-0.6c-0.9-0.4-1.8-1-2.6-2.1l2.2-1.8c0.5,0.5,0.9,0.8,1.5,1.2c0.6,0.4,1.2,0.6,2.1,0.6c0.4,0,0.7,0,1.1-0.1
			c0.4-0.1,0.7-0.2,0.9-0.4c0.3-0.2,0.5-0.4,0.7-0.6c0.2-0.3,0.3-0.6,0.3-0.8c0-0.4-0.1-0.7-0.4-1c-0.3-0.3-0.6-0.5-0.9-0.7
			c-0.4-0.2-0.7-0.3-1.1-0.4l-1.1-0.3c-0.6-0.2-1.2-0.3-1.7-0.5c-0.6-0.2-1-0.5-1.4-0.7c-0.4-0.3-0.7-0.7-1-1.2
			c-0.3-0.5-0.4-1.1-0.4-1.8c0-0.7,0.2-1.5,0.5-2.1c0.3-0.6,0.7-1,1.3-1.4c0.6-0.4,1.1-0.7,1.8-0.8c0.7-0.2,1.4-0.3,2.1-0.3
			c1,0,2,0.2,2.9,0.6c0.9,0.4,1.7,1,2.3,1.9L740.7,532z M746.2,519.4h2.8v15.1l6.4-6.4h3.9l-6.9,6.7l7.5,8h-4l-6.9-7.7v7.7h-2.8
			L746.2,519.4"/>
	</g>
	<g>
		<path class="st5" d="M433.2,542.4l-6.7,2.9V545c-1.3,0.3-2.7,0.5-4.1,0.6c-6.3-0.1-11.3-3.3-11.3-7.2V537c2.1,2.9,6.3,5,11.3,4.9
			c1.7,0.1,3.5-0.2,4.9-0.6l0.6-1.4c-1.7,0.5-3.7,0.9-5.5,0.9c-6.3,0-11.3-3.2-11.3-7.2v-1.2c2.1,2.7,6.3,4.7,11.3,4.6
			c2.3,0.1,4.5-0.3,6.4-1.2l0.3-1.4c-1.8,0.9-4.2,1.5-6.7,1.4c-6.3,0.1-11.3-3.2-11.3-7.2v-1.2c2.1,2.8,6.3,4.8,11.3,4.9
			c2.9-0.1,5.6-0.8,7.8-2l0.3-1.7c-2,1.5-5,2.4-8.1,2.6c-6.3-0.1-11.3-3.4-11.3-7.5c0.1-3.9,5-7.1,11.3-7.2c3.7,0.1,7.2,1.3,9.3,3.4
			l0.2,0.3h1.5l-0.2-0.3c-2.1-2.8-6.2-4.6-10.7-4.6c-7,0-12.5,3.7-12.5,8.3v0.3v14.6c0.2,4.4,5.7,8,12.5,8
			C427,546.7,431.1,545,433.2,542.4z"/>
		<path class="st6" d="M430.5,552.5l2.3-9.8l-6.7,2.9l4.1-17.1h-7.9l2.1-8.4h25.2l-2.1,8.4h-8.2l-1.8,4.6l9.1-3.8L430.5,552.5z
			 M434.6,540.6l-1.2,5.8l9.7-14.5l-7.9,3.5l3.5-8.1h7.9l1.5-6.1h-22.9l-1.5,6.1h7.9l-3.8,16.2L434.6,540.6z"/>
		<path class="st5" d="M466.3,525.7L466.3,525.7c0,0.9-0.3,1.7-0.9,2.2c-0.6,0.5-1.4,0.8-2.4,0.8s-1.9-0.3-2.5-1
			c-0.6-0.7-1-1.5-1-2.6v-1.7c0-1.1,0.3-1.9,0.9-2.6c0.6-0.7,1.5-1,2.5-1c1.1,0,1.9,0.3,2.5,0.8c0.6,0.5,0.9,1.2,0.9,2.2v0h-1.7
			c0-0.6-0.1-1-0.4-1.2c-0.3-0.3-0.7-0.4-1.3-0.4c-0.5,0-0.9,0.2-1.2,0.6c-0.3,0.4-0.5,0.9-0.5,1.6v1.7c0,0.7,0.2,1.2,0.5,1.6
			c0.3,0.4,0.7,0.6,1.3,0.6c0.5,0,0.9-0.1,1.2-0.4c0.3-0.3,0.4-0.7,0.4-1.2L466.3,525.7L466.3,525.7z M475.9,525
			c0,1.1-0.3,1.9-1,2.6c-0.7,0.7-1.5,1-2.6,1c-1.1,0-1.9-0.3-2.6-1c-0.7-0.7-1-1.6-1-2.6v-1.6c0-1.1,0.3-1.9,1-2.6
			c0.7-0.7,1.5-1.1,2.6-1.1c1.1,0,2,0.3,2.6,1.1c0.7,0.7,1,1.6,1,2.6L475.9,525L475.9,525z M474.2,523.5c0-0.7-0.2-1.2-0.5-1.7
			c-0.3-0.4-0.8-0.7-1.4-0.7c-0.6,0-1.1,0.2-1.4,0.7c-0.3,0.4-0.5,1-0.5,1.7v1.6c0,0.7,0.2,1.2,0.5,1.7c0.3,0.4,0.8,0.7,1.4,0.7
			c0.6,0,1.1-0.2,1.4-0.7c0.3-0.4,0.5-1,0.5-1.7V523.5z M480.5,528.6h-1.8v-8.6h1.8V528.6z M490.6,528.6h-1.8l-3.5-5.8h0v5.8h-1.8
			v-8.6h1.8l3.5,5.8h0v-5.8h1.8V528.6z M499.4,521.3h-2.5v7.3h-1.8v-7.3h-2.5v-1.3h6.7V521.3z M506.7,524.8h-3.3v2.5h3.9v1.3h-5.6
			v-8.6h5.6v1.3h-3.8v2.2h3.3L506.7,524.8L506.7,524.8z M511.5,527.2h3.9v1.3h-5.7v-8.6h1.8V527.2z M522.9,524.8h-3.3v2.5h3.9v1.3
			h-5.6v-8.6h5.6v1.3h-3.8v2.2h3.3L522.9,524.8L522.9,524.8z M532.8,527.4c-0.3,0.3-0.7,0.7-1.2,0.9c-0.5,0.3-1.2,0.4-2.1,0.4
			c-1.1,0-1.9-0.3-2.6-1c-0.7-0.7-1-1.5-1-2.6v-1.8c0-1.1,0.3-1.9,1-2.6c0.6-0.7,1.5-1,2.5-1c1.1,0,1.9,0.3,2.5,0.8
			c0.6,0.5,0.9,1.2,0.8,2v0H531c0-0.4-0.1-0.8-0.4-1.1c-0.3-0.3-0.7-0.4-1.2-0.4c-0.5,0-1,0.2-1.3,0.6c-0.3,0.4-0.5,0.9-0.5,1.6v1.8
			c0,0.7,0.2,1.2,0.5,1.6c0.3,0.4,0.8,0.6,1.4,0.6c0.4,0,0.7-0.1,1-0.1c0.2-0.1,0.4-0.2,0.6-0.3v-1.7h-1.7V524h3.4L532.8,527.4
			L532.8,527.4z M537.3,525.1v3.4h-1.8v-8.6h3c1,0,1.8,0.2,2.3,0.7c0.6,0.4,0.9,1.1,0.9,1.9c0,0.4-0.1,0.8-0.3,1.2
			c-0.2,0.3-0.6,0.6-1,0.8c0.5,0.2,0.9,0.4,1.1,0.8c0.2,0.3,0.3,0.8,0.3,1.3v0.6c0,0.2,0,0.5,0.1,0.8c0.1,0.3,0.2,0.4,0.3,0.6v0.1
			h-1.8c-0.2-0.1-0.3-0.3-0.3-0.6c-0.1-0.3-0.1-0.6-0.1-0.8v-0.6c0-0.4-0.1-0.8-0.3-1s-0.6-0.4-1-0.4L537.3,525.1L537.3,525.1z
			 M537.3,523.8h1.3c0.5,0,0.9-0.1,1.1-0.3c0.2-0.2,0.4-0.5,0.4-0.9c0-0.4-0.1-0.7-0.4-0.9c-0.2-0.2-0.6-0.3-1.1-0.3h-1.3V523.8z
			 M549.2,526.7h-2.8l-0.6,1.9H544l3-8.6h1.8l2.9,8.6h-1.8L549.2,526.7z M546.8,525.3h2l-1-3.1h0L546.8,525.3z M555.5,525.4v3.1
			h-1.8v-8.6h3.4c1,0,1.8,0.3,2.4,0.8c0.6,0.5,0.9,1.2,0.9,2s-0.3,1.5-0.9,2c-0.6,0.5-1.4,0.8-2.4,0.8L555.5,525.4L555.5,525.4z
			 M555.5,524.1h1.6c0.5,0,0.9-0.1,1.1-0.4c0.2-0.3,0.4-0.6,0.4-1c0-0.4-0.1-0.8-0.4-1c-0.2-0.3-0.6-0.4-1.1-0.4h-1.6V524.1z
			 M570,528.6h-1.8V525h-3.6v3.6h-1.8v-8.6h1.8v3.7h3.6v-3.7h1.8V528.6z"/>
		<path class="st5" d="M462.7,542.7h-1.1V537h-2v-0.9h5v0.9h-2V542.7z M470.1,542.7H469v-3.1c0-0.4-0.1-0.7-0.2-0.9
			c-0.2-0.2-0.4-0.3-0.7-0.3c-0.5,0-0.8,0.1-1,0.4c-0.2,0.3-0.3,0.7-0.3,1.3v2.5h-1.1v-7h1.1v1.8c0,0.3,0,0.6-0.1,0.9h0.1
			c0.1-0.2,0.3-0.4,0.6-0.6c0.3-0.1,0.6-0.2,0.9-0.2c1.2,0,1.8,0.6,1.8,1.8V542.7z M473.8,542.8c-0.8,0-1.4-0.2-1.8-0.7
			c-0.5-0.4-0.7-1.1-0.7-1.9c0-0.8,0.2-1.4,0.6-1.9c0.4-0.5,1-0.7,1.7-0.7c0.7,0,1.2,0.2,1.6,0.6c0.4,0.4,0.6,0.9,0.6,1.7v0.6h-3.4
			c0,0.5,0.2,0.9,0.4,1.1c0.2,0.3,0.6,0.4,1.1,0.4c0.3,0,0.6,0,0.8-0.1c0.3-0.1,0.5-0.2,0.8-0.3v0.9c-0.3,0.1-0.5,0.2-0.8,0.3
			C474.4,542.7,474.1,542.8,473.8,542.8z M473.6,538.4c-0.3,0-0.6,0.1-0.8,0.3c-0.2,0.2-0.3,0.5-0.4,0.9h2.3c0-0.4-0.1-0.7-0.3-0.9
			C474.2,538.5,473.9,538.4,473.6,538.4z M481.9,538.5h-1.2v4.2h-1.1v-4.2h-0.8V538l0.8-0.3v-0.3c0-0.6,0.1-1,0.4-1.3
			c0.3-0.3,0.7-0.4,1.3-0.4c0.4,0,0.7,0.1,1.1,0.2l-0.3,0.8c-0.3-0.1-0.5-0.1-0.8-0.1c-0.2,0-0.4,0.1-0.5,0.2
			c-0.1,0.2-0.2,0.4-0.2,0.7v0.3h1.2L481.9,538.5L481.9,538.5z M486.4,542.7l-0.2-0.7h-0.1c-0.2,0.2-0.4,0.4-0.6,0.6
			c-0.3,0.1-0.6,0.2-0.9,0.2c-0.6,0-1.1-0.2-1.4-0.4c-0.3-0.3-0.5-0.8-0.5-1.4v-3.3h1.1v3.1c0,0.4,0.1,0.7,0.2,0.9
			c0.2,0.2,0.4,0.3,0.7,0.3c0.5,0,0.8-0.1,1-0.4c0.2-0.3,0.3-0.7,0.3-1.3v-2.5h1.1v5H486.4z M490.6,541.9c0.3,0,0.5-0.1,0.8-0.1v0.8
			c-0.1,0.1-0.3,0.1-0.5,0.1c-0.2,0-0.4,0.1-0.6,0.1c-1,0-1.5-0.5-1.5-1.6v-2.7h-0.7V538l0.7-0.4l0.4-1.1h0.7v1.1h1.4v0.8H490v2.7
			c0,0.3,0.1,0.4,0.2,0.6C490.2,541.8,490.4,541.9,490.6,541.9z M496,542.7l-0.2-0.7h-0.1c-0.2,0.2-0.4,0.4-0.6,0.6
			c-0.3,0.1-0.6,0.2-0.9,0.2c-0.6,0-1.1-0.2-1.4-0.4c-0.3-0.3-0.5-0.8-0.5-1.4v-3.3h1.1v3.1c0,0.4,0.1,0.7,0.2,0.9
			c0.2,0.2,0.4,0.3,0.7,0.3c0.5,0,0.8-0.1,1-0.4c0.2-0.3,0.3-0.7,0.3-1.3v-2.5h1.1v5H496z M501,537.6c0.2,0,0.4,0,0.5,0.1l-0.1,1
			c-0.2,0-0.3-0.1-0.5-0.1c-0.4,0-0.8,0.1-1,0.4c-0.3,0.3-0.4,0.6-0.4,1.1v2.6h-1.1v-5h0.9l0.1,0.9h0.1c0.2-0.3,0.4-0.5,0.7-0.7
			C500.3,537.7,500.6,537.6,501,537.6z M504.5,542.8c-0.8,0-1.4-0.2-1.8-0.7c-0.5-0.4-0.7-1.1-0.7-1.9c0-0.8,0.2-1.4,0.6-1.9
			c0.4-0.5,1-0.7,1.7-0.7c0.7,0,1.2,0.2,1.6,0.6c0.4,0.4,0.6,0.9,0.6,1.7v0.6H503c0,0.5,0.2,0.9,0.4,1.1c0.2,0.3,0.6,0.4,1.1,0.4
			c0.3,0,0.6,0,0.8-0.1c0.3-0.1,0.5-0.2,0.8-0.3v0.9c-0.3,0.1-0.5,0.2-0.8,0.3C505.1,542.7,504.8,542.8,504.5,542.8z M504.3,538.4
			c-0.3,0-0.6,0.1-0.8,0.3s-0.3,0.5-0.4,0.9h2.3c0-0.4-0.1-0.7-0.3-0.9C504.9,538.5,504.6,538.4,504.3,538.4z M514.6,540.1
			c0,0.8-0.2,1.4-0.6,1.9c-0.4,0.4-1,0.7-1.8,0.7c-0.5,0-0.9-0.1-1.3-0.3c-0.4-0.2-0.6-0.5-0.8-0.9c-0.2-0.4-0.3-0.8-0.3-1.4
			c0-0.8,0.2-1.4,0.6-1.9c0.4-0.4,1-0.7,1.8-0.7c0.7,0,1.3,0.2,1.7,0.7C514.4,538.8,514.6,539.4,514.6,540.1z M510.9,540.1
			c0,1.2,0.4,1.7,1.3,1.7c0.9,0,1.3-0.6,1.3-1.7c0-1.1-0.4-1.7-1.3-1.7c-0.5,0-0.8,0.2-1,0.4C511,539.2,510.9,539.6,510.9,540.1z
			 M518.3,538.5h-1.2v4.2H516v-4.2h-0.8V538l0.8-0.3v-0.3c0-0.6,0.1-1,0.4-1.3c0.3-0.3,0.7-0.4,1.3-0.4c0.4,0,0.7,0.1,1.1,0.2
			l-0.3,0.8c-0.3-0.1-0.5-0.1-0.8-0.1c-0.2,0-0.4,0.1-0.5,0.2c-0.1,0.1-0.2,0.4-0.2,0.7v0.3h1.2L518.3,538.5L518.3,538.5z
			 M525.9,542.7h-1.1v-3.1c0-0.4-0.1-0.7-0.2-0.9c-0.1-0.2-0.4-0.3-0.7-0.3c-0.4,0-0.7,0.1-0.9,0.4c-0.2,0.3-0.3,0.7-0.3,1.3v2.5
			h-1.1v-5h0.9l0.2,0.7h0.1c0.1-0.2,0.3-0.4,0.6-0.6c0.3-0.1,0.6-0.2,0.9-0.2c0.8,0,1.3,0.3,1.5,0.8h0.1c0.2-0.2,0.4-0.4,0.6-0.6
			c0.3-0.1,0.6-0.2,0.9-0.2c0.6,0,1,0.2,1.3,0.4c0.3,0.3,0.4,0.8,0.4,1.4v3.3h-1.1v-3.1c0-0.4-0.1-0.7-0.2-0.9
			c-0.2-0.2-0.4-0.3-0.7-0.3c-0.4,0-0.7,0.1-0.9,0.4c-0.2,0.3-0.3,0.7-0.3,1.2L525.9,542.7L525.9,542.7z M535.1,540.1
			c0,0.8-0.2,1.4-0.6,1.9c-0.4,0.4-1,0.7-1.8,0.7c-0.5,0-0.9-0.1-1.3-0.3s-0.6-0.5-0.8-0.9c-0.2-0.4-0.3-0.8-0.3-1.4
			c0-0.8,0.2-1.4,0.6-1.9c0.4-0.4,1-0.7,1.8-0.7c0.7,0,1.3,0.2,1.7,0.7C534.9,538.8,535.1,539.4,535.1,540.1z M531.4,540.1
			c0,1.2,0.4,1.7,1.3,1.7c0.9,0,1.3-0.6,1.3-1.7c0-1.1-0.4-1.7-1.3-1.7c-0.5,0-0.8,0.2-1,0.4C531.5,539.2,531.4,539.6,531.4,540.1z
			 M540.8,542.7h-1.1v-3.1c0-0.4-0.1-0.7-0.2-0.9c-0.2-0.2-0.4-0.3-0.7-0.3c-0.5,0-0.8,0.1-1,0.4c-0.2,0.3-0.3,0.7-0.3,1.3v2.5h-1.1
			v-5h0.9l0.2,0.7h0.1c0.2-0.2,0.4-0.4,0.6-0.6c0.3-0.1,0.6-0.2,0.9-0.2c1.2,0,1.8,0.6,1.8,1.8V542.7z M544.5,542.8
			c-0.8,0-1.4-0.2-1.8-0.7c-0.5-0.4-0.7-1.1-0.7-1.9c0-0.8,0.2-1.4,0.6-1.9c0.4-0.5,1-0.7,1.7-0.7c0.7,0,1.2,0.2,1.6,0.6
			c0.4,0.4,0.6,0.9,0.6,1.7v0.6h-3.4c0,0.5,0.2,0.9,0.4,1.1c0.2,0.3,0.6,0.4,1.1,0.4c0.3,0,0.6,0,0.8-0.1c0.2-0.1,0.5-0.2,0.8-0.3
			v0.9c-0.3,0.1-0.5,0.2-0.8,0.3C545.1,542.7,544.9,542.8,544.5,542.8z M544.3,538.4c-0.3,0-0.6,0.1-0.8,0.3
			c-0.2,0.2-0.3,0.5-0.4,0.9h2.3c0-0.4-0.1-0.7-0.3-0.9C544.9,538.5,544.6,538.4,544.3,538.4z M546.7,537.7h1.2l1,2.8
			c0.2,0.4,0.3,0.8,0.3,1.1h0c0-0.2,0.1-0.4,0.2-0.6s0.5-1.4,1.2-3.4h1.2l-2.2,5.7c-0.4,1-1,1.6-2,1.6c-0.2,0-0.5,0-0.7-0.1V544
			c0.2,0,0.3,0.1,0.6,0.1c0.5,0,0.9-0.3,1.1-0.9l0.2-0.5L546.7,537.7z"/>
	</g>
	<g>
		<path class="st7" d="M-381.6,561.4v-1.5h-135.2v-51.8h133.6v53.3H-381.6v-1.5V561.4h1.6V505h-140v58h140v-1.6H-381.6z"/>
		<path class="st7" d="M-503.1,536l3.7,9.4h0.1l3.5-9.4h4.2l0.7,1.7l-0.6,0.1c-0.4,0-0.7,0.3-0.6,0.7l0.7,10.7l1.2,0.1l0.7,1.8h-5.7
			v-1.7l0.7-0.1c0.5,0,0.5-0.2,0.5-0.8l-0.7-8.5l-3.7,8.7l-2.1,0.7l-3.5-9.4l-0.5,9.1l1.2,0.1v1.8h-5.7l0.7-1.7l0.7-0.1
			c0.4-0.1,0.6-0.2,0.6-0.8l0.7-10.6l-1.2-0.1l0.7-1.8h3.7V536z"/>
		<path class="st7" d="M-488.6,551l0.7-1.7l0.5-0.1c0.5-0.1,0.6-0.3,0.8-0.7l3.6-10.6l-1.2-0.1l0.7-1.8h4.3l4.7,13.2l0.8,0.1
			l0.7,1.7h-5.7v-1.7l0.7-0.1c0.4,0,0.6-0.3,0.4-0.7l-0.6-1.8h-5.2l-0.8,2.4l1.2,0.1v1.8H-488.6z M-482.9,544.8h4.2l-2.1-6.4h-0.1
			L-482.9,544.8z"/>
		<path class="st7" d="M-463.4,548.6V545l-1.1-0.1l-0.7-1.8h5.9l-0.3,1.7l-0.6,0.1c-0.4,0.1-0.6,0.2-0.6,0.7v4.3
			c-1.3,0.9-3.1,1.4-5.1,1.4c-4.4,0-6.8-2.5-6.8-7.8c0-5.8,3.4-7.8,7.3-7.8c1.8,0,3.5,0.4,4.5,0.9v2l-2.1,0.8v-0.7
			c0-0.4,0-0.6-0.4-0.7c-0.4-0.1-1.2-0.2-1.8-0.2c-3.2,0-4.6,2.1-4.6,5.4c0,3.6,1.2,5.7,4,5.7C-465,549.1-464,548.9-463.4,548.6z"/>
		<path class="st7" d="M-444.4,550.3l-2.6,0.7l-6.6-10.9v9.1l1.2,0.1v1.7h-5.5l0.7-1.7l0.4-0.1c0.4-0.1,0.5-0.2,0.5-0.6v-10.8
			l-1.5-0.1l0.7-1.8h3.7l6.4,10.8v-8.9l-1.2-0.1V536h5.4l-0.7,1.7l-0.4,0.1c-0.4,0.1-0.6,0.2-0.6,0.7v11.8H-444.4z"/>
		<path class="st7" d="M-442.7,551l0.7-1.7l0.2-0.1c0.5-0.1,0.6-0.3,0.8-0.7l3.7-10.6l-1.2-0.1l0.7-1.8h4.3l4.5,13.1l0.8,0.1
			l0.7,1.8h-5.7v-1.7l0.7-0.1c0.4,0,0.6-0.3,0.4-0.7l-0.6-1.8h-5.2l-0.8,2.4l1.2,0.1v1.8H-442.7z M-437.4,544.8h4.2l-2.1-6.4h-0.1
			L-437.4,544.8z"/>
		<path class="st7" d="M-423.5,538h-2.1c-0.5,0-0.6,0.2-0.6,0.6v0.8l-2.2-0.7V536h12.4v2.7l-2.2,0.7v-0.8c0-0.4-0.1-0.6-0.6-0.6h-2
			v11.2l1.3,0.1l0.7,1.8h-6.7l0.7-1.7l0.7-0.1c0.5,0,0.6-0.2,0.6-0.7V538L-423.5,538z"/>
		<path class="st7" d="M-413.6,549.3l0.2-0.1c0.6-0.1,0.7-0.2,0.7-0.8v-10.6l-0.9-0.1l-0.7-1.8h10.6v2.7l-2.2,0.7v-1.1
			c0-0.4-0.1-0.3-0.6-0.3h-3.5v4.3h5.4v2.1h-5.4v4.7h3.8c0.5,0,0.5-0.2,0.5-0.6v-0.2l2.2-0.6v3.4h-10.9L-413.6,549.3z"/>
		<path class="st7" d="M-393.9,546.9c0-1.4-1.2-2-2.8-2.5c-2.1-0.6-4.3-1.5-4.2-4.4c0.1-2.8,2.2-4.4,5.4-4.3c1.4,0,3.1,0.3,4.2,0.9
			v2.2l-2.2,0.7v-0.7c0-0.4,0-0.6-0.4-0.7c-0.3-0.1-1.1-0.2-1.6-0.2c-1.2,0-2.4,0.4-2.5,1.9c0,1.4,1.2,1.9,2.9,2.5
			c2.1,0.7,4.2,1.5,4.1,4.5s-2.1,4.6-5.7,4.5c-1.6,0-3.2-0.3-4.5-0.9v-2.2l2.2-0.7v0.7c0,0.4,0.1,0.6,0.4,0.7
			c0.4,0.1,1.1,0.2,1.8,0.2C-395.2,549.1-393.9,548.6-393.9,546.9z"/>
		<path class="st7" d="M-507.1,517h9.8v1h-8.7v5.5h7.2v1h-7.2v7.2h-1.1V517z"/>
		<path class="st7" d="M-488.9,517h-1.1v14.7h1.1V517z"/>
		<path class="st7" d="M-480.6,517h1l9.9,12.9V517h1v14.7h-0.9l-9.9-12.9v12.9h-1.1V517z"/>
		<path class="st7" d="M-455.2,516.9h1l6.6,14.8h-1.1l-1.9-4.3h-8.2l-1.9,4.3h-1.1L-455.2,516.9z M-451,526.5l-3.7-8.2l-3.7,8.2
			H-451z"/>
		<path class="st7" d="M-440.8,517h0.9l9.9,12.9V517h1.1v14.7h-0.9l-10-12.9v12.9h-1V517z"/>
		<path class="st7" d="M-421.3,524.3c0-4.4,3.2-7.6,7.4-7.6c1.6,0,3,0.4,4.2,1.2v1.1c-1.2-0.8-2.6-1.3-4.2-1.3
			c-3.6,0-6.4,2.8-6.4,6.6c0,3.8,2.8,6.6,6.4,6.6c1.8,0,3.3-0.5,4.5-1.5v1.2c-1.2,0.9-2.7,1.4-4.5,1.4
			C-418,531.9-421.3,528.8-421.3,524.3z"/>
		<path class="st7" d="M-402.2,517h9.9v1h-8.8v5.3h7.3v1h-7.3v6.4h9.1v1h-10.2V517z"/>
	</g>
	<g>
		<path class="st8" d="M314.6,547.5c-2.5,0-4.3-0.5-5.5-1.4c-1-0.8-1.6-2-1.6-3.3h5c0.2,1,0.6,1.5,2.2,1.5c1.8,0,2.5-1,2.5-3.1v-1.9
			h-0.1c-0.6,1.6-2.2,2.5-3.9,2.4c-4.1,0-6.2-2.3-6.2-6.8c-0.1-1.9,0.6-3.8,1.8-5.2c1.1-1.2,2.7-1.8,4.4-1.8
			c1.6-0.2,3.1,0.6,3.9,2.1h0.1v-1.7h4.9v12.6c0,2.3-0.6,4-1.8,5C319.1,546.9,317.3,547.5,314.6,547.5z M314.8,531.2
			c-1.6,0-2.6,1.4-2.6,3.7c0,2.4,0.9,3.7,2.5,3.7c1.4,0,2.5-1.1,2.5-2.5c0-0.1,0-0.2,0-0.2v-1.6
			C317.2,532.3,316.3,531.2,314.8,531.2z M268,542.7c-1.8,0.2-3.5-0.3-5-1.3c-1-0.8-1.5-2-1.6-3.3h4.6c0.1,1,0.7,1.4,1.9,1.4
			c1.1,0,1.8-0.4,1.8-1.2c0-0.6-0.4-1-1.4-1.1L266,537c-2.8-0.3-4.3-1.9-4.3-4.4c0-1.3,0.5-2.5,1.4-3.3c2.8-1.9,6.5-2,9.3-0.2
			c1,0.8,1.5,2,1.5,3.2h-4.5c0-0.8-0.7-1.4-1.5-1.4h-0.1c-1.3,0-1.5,0.6-1.5,1.1s0.2,1,1.4,1.1l2.5,0.3c1.1,0.1,2.2,0.5,3,1.2
			c0.8,0.8,1.2,1.8,1.1,2.9C274.4,540.8,272,542.7,268,542.7z M253.6,542.7c-4.6,0-7.3-2.7-7.3-7.5c-0.1-2,0.6-3.9,1.9-5.3
			c1.4-1.3,3.4-2.1,5.4-2c2.5,0,4.4,0.7,5.6,2.1c1.2,1.5,1.8,3.5,1.8,5.4v1.1h-9.5c0.2,2.1,0.8,3,2.3,3c1,0.2,1.8-0.5,2-1.4h5
			C260.5,541,258,542.7,253.6,542.7z M253.6,530.8c-1.4,0-2,1-2.2,2.9h4.3v-0.2C255.6,531.7,254.9,530.8,253.6,530.8z M345.4,542.6
			c-1.5,0.1-3-0.5-4.2-1.6c-1-1.2-1.6-2.8-1.5-4.4c-0.1-1.6,0.5-3.2,1.5-4.3c1.1-1,2.6-1.7,4.2-1.6c3.5,0,5.7,2.2,5.7,5.9
			S348.9,542.6,345.4,542.6z M345.4,533c-1.8,0-2.2,2-2.2,3.7c0,2.5,0.8,3.7,2.2,3.7c1.4,0,2.2-1.3,2.2-3.7
			C347.7,534.3,346.9,533,345.4,533z M334,542.6c-1.5,0.1-3-0.5-4.2-1.6c-1-1.2-1.5-2.8-1.4-4.3c0-3.7,2.2-5.9,5.7-5.9
			c3.2,0,5.1,1.6,5.2,4.3H336c-0.1-1-0.5-2.1-1.9-2.1c-2,0-2.2,2.3-2.2,3.7c0,2.5,0.7,3.7,2.2,3.7c1.1,0,2-0.9,2-2
			c0-0.1,0-0.2,0-0.2h3.2c0,1.3-0.6,2.5-1.5,3.3C336.6,542.3,335.3,542.6,334,542.6z M280.2,542.5c-1.2,0.1-2.5-0.2-3.4-1
			c-1-1-1.4-2.4-1.4-3.7v-13.5h5v3.9h3v3.5h-2.9v5.2c0,1.5,0.5,2.1,1.8,2.1c0.3,0,0.6,0,1-0.1v3.6
			C282.2,542.4,281.2,542.5,280.2,542.5z M362.9,542.3h-3.4v-6.6c0.1-0.6-0.1-1.3-0.3-1.8c-0.3-0.5-0.9-0.7-1.4-0.6
			c-1.4,0-2.2,1-2.2,2.5v6.5h-3.4v-11.2h3.2v1.8c0.7-1.3,2.1-2.1,3.5-2.1c1.9,0,3,0.8,3.5,2.3h0.1c0.6-1.4,2.1-2.4,3.7-2.3
			c2.6,0,3.8,1.4,3.8,4.1v7.3h-3.4v-6.6c0.1-0.6-0.1-1.3-0.3-1.8c-0.3-0.5-0.9-0.7-1.4-0.6c-1.4,0-2.2,1-2.2,2.5L362.9,542.3z
			 M296.4,542.3h-5.1v-14.1h5v2.3h0.1c0.9-1.7,2.7-2.7,4.6-2.5c1.8,0,3.1,0.5,3.9,1.4c0.8,1.2,1.2,2.7,1,4.1v8.8h-5.1v-8
			c0.1-0.7-0.1-1.4-0.4-2.1c-0.4-0.5-1-0.8-1.6-0.7c-1.5,0-2.3,1-2.3,2.9L296.4,542.3z M222.3,542.3h-5.1v-14.1h5v2.3h0.1
			c0.9-1.7,2.7-2.7,4.6-2.5c1.8,0,3.1,0.5,3.9,1.4c0.8,1.2,1.2,2.7,1,4.1v8.8h-5.1v-8c0.1-0.7-0.1-1.4-0.4-2.1
			c-0.4-0.5-1-0.8-1.6-0.7c-1.5,0-2.3,1-2.3,2.9L222.3,542.3z M327.3,542.3h-3.5v-3.3h3.5V542.3z M289.6,542.3h-5.1v-14.1h5.1V542.3
			z M241.9,542.3h-5.3l-5-14.1h5.1l1.8,6.1c0.5,1.7,0.9,3.6,0.9,3.7h0.1c0.2-1.2,0.5-2.4,0.8-3.6l1.8-6.1h5L241.9,542.3z
			 M215.3,542.3H210v-20h5.3V542.3z"/>
		<path class="st9" d="M284.4,526.6l5.3-1v-5.2l-5.3,1V526.6z"/>
	</g>
	<g>
		<path class="st10" d="M-321.8,536.7c0-0.2-0.2-0.7-0.2-0.9l-4.6-4.6c-0.4-0.4-0.4-1.1,0-1.5l3.1-3.1c0.4-0.4,1.1-0.4,1.5,0
			l6.5,6.6c0.2,0.2,0.2,0.4,0.2,0.9v17.5c0,0.7-0.4,1.1-1.1,1.1h-4.4c-0.7,0-1.1-0.4-1.1-1.1V536.7z M-237.4,560.4
			c3.1,0,5.5-2.4,5.5-5.5c0-3.1-2.4-5.5-5.5-5.5c-3.1,0-5.5,2.4-5.5,5.5C-242.8,558-240.4,560.4-237.4,560.4z M-336.2,544.8
			c-0.7,0-1.1,0.4-1.1,1.1v9.6c0,0.2-0.2,0.7-0.2,0.9l-7.6,7.7c-0.4,0.4-1.1,0.4-1.5,0l-3.1-3.1c-0.4-0.4-0.4-1.1,0-1.5l5.5-5.7
			c0.2-0.2,0.2-0.4,0.2-0.9v-7c0-0.7-0.4-1.1-1.1-1.1h-4.4c-0.7,0-1.1-0.4-1.1-1.1v-4.4c0-0.7,0.4-1.1,1.1-1.1h4.4
			c0.7,0,1.1-0.4,1.1-1.1v-7.7c0-0.7,0.4-1.1,1.1-1.1h4.4c0.7,0,1.1,0.4,1.1,1.1v7.7c0,0.7,0.4,1.1,1.1,1.1h8.7
			c0.7,0,1.1,0.4,1.1,1.1v24.3c0,0.7-0.4,1.1-1.1,1.1h-7.4c-0.7,0-1.1-0.4-1.1-1.1v-4.4c0-0.7,0.4-1.1,1.1-1.1h1.1
			c0.7,0,1.1-0.4,1.1-1.1v-10.9c0-0.7-0.4-1.1-1.1-1.1h-2.2V544.8z M-285.6,549c0.2-0.2,0.4-0.9,0.2-1.1c-0.2-0.4-0.7-0.7-1.1-0.7
			h-12.4c-0.7,0-1.1-0.4-1.1-1.1v-4.4c0-0.7,0.4-1.1,1.1-1.1h8.1c0.2,0,0.7-0.2,0.9-0.2l2.2-2.2c0.2-0.2,0.4-0.9,0.2-1.1
			c-0.2-0.4-0.7-0.7-1.1-0.7h-1.5c-0.7,0-1.1-0.4-1.1-1.1V531c0-0.7,0.4-1.1,1.1-1.1h17.5c0.4,0,0.9,0.2,1.1,0.7
			c0.2,0.4,0,0.9-0.2,1.1l-7.2,7.2c-0.2,0.2-0.4,0.9-0.2,1.1c0.2,0.4,0.7,0.7,1.1,0.7h12.4c0.7,0,1.1,0.4,1.1,1.1v4.4
			c0,0.7-0.4,1.1-1.1,1.1h-8.1c-0.2,0-0.7,0.2-0.9,0.2l-6.5,6.6c-0.4,0.4-0.4,1.1,0,1.5l5,5c0.4,0.4,0.4,1.1,0,1.5l-3.1,3.1
			c-0.4,0.4-1.1,0.4-1.5,0l-9.6-9.6c-0.4-0.4-0.4-1.1,0-1.5L-285.6,549z M-229.7,539.4c0,0.7,0.4,1.1,1.1,1.1h2.2
			c0.7,0,1.1-0.4,1.1-1.1v-2.2c0-0.7-0.4-1.1-1.1-1.1h-2.2c-0.7,0-1.1,0.4-1.1,1.1V539.4z M-238.5,539.4c0,0.7,0.4,1.1,1.1,1.1
			c0.7,0,1.1-0.4,1.1-1.1v-2.2c0-0.7-0.4-1.1-1.1-1.1c-0.7,0-1.1,0.4-1.1,1.1V539.4z M-241.7,529.5c0.7,0,1.1-0.4,1.1-1.1v-1.1
			c0-0.7,0.4-1.1,1.1-1.1h4.4c0.7,0,1.1,0.4,1.1,1.1v1.1c0,0.7,0.4,1.1,1.1,1.1h25.1c0.4,0,0.9,0.2,1.1,0.7c0.2,0.4,0,0.9-0.2,1.1
			l-7.2,7.2c-0.2,0.2-0.4,0.9-0.2,1.1c0.2,0.2,0.7,0.7,1.1,0.7h5.7c0.4,0,0.9,0.2,1.1,0.7c0.2,0.4,0,0.9-0.2,1.1l-11.4,11.4
			c-0.2,0.2-0.2,0.4-0.2,0.9v10.5c0,0.7-0.4,1.1-1.1,1.1h-4.4c-0.7,0-1.1-0.4-1.1-1.1v-16.6c0-0.7-0.4-1.1-1.1-1.1
			c-0.2,0-0.7,0.2-0.7,0.4c-0.2,0.2-0.2,0.7,0,0.9c1.5,2.4,2.2,5.5,1.5,8.8c-0.9,4.6-4.6,8.5-9.2,9.4c-7.9,1.5-14.6-4.4-14.6-11.8
			c0-2.6,0.9-5.3,2.4-7.2v-0.2l-0.2-0.2c-0.7,0-1.1-0.4-1.1-1.1v-4.4c0-0.7,0.4-1.1,1.1-1.1h1.1c0.7,0,1.1-0.4,1.1-1.1v-2.2
			c0-0.7-0.4-1.1-1.1-1.1h-1.1c-0.7,0-1.1-0.4-1.1-1.1v-4.4c0-0.7,0.4-1.1,1.1-1.1H-241.7z"/>
		<path class="st10" d="M-218.8,516.8c0-0.2,0-0.7,0-0.9c0-0.2-0.2-0.7-0.7-0.7c-0.4,0-0.9,0-1.5,0c-0.4,0-1.1,0-1.5,0
			c-0.7,0-0.7,0.4-0.7,1.8c0,1.5,0,1.5,2.2,1.5C-218.8,518.6-218.8,518.3-218.8,516.8z M-222.7,509.8c-0.4,0-0.7-0.2-0.9-0.7
			c-0.2-0.4-0.7-1.1-0.9-1.3c-0.2-0.2-0.2-0.4-0.2-0.7c0-0.4,0.7-0.9,1.1-0.9c0.9,0,2,2,2,2.6C-221.7,509.4-222.1,509.8-222.7,509.8
			z M-216.9,505.9h-8.3c-0.9,0-1.1-0.4-1.1-0.9s0.4-1.1,1.1-1.1h3.1v-1.1c0-0.7,0.7-1.1,1.1-1.1c0.7,0,1.3,0.4,1.3,1.1v1.1h2.8
			c0.7,0,1.1,0.4,1.1,1.1S-216.2,505.9-216.9,505.9z M-216.4,512h-8.9c-0.9,0-1.1-0.4-1.1-0.9c-0.2-0.7,0.2-1.1,0.9-1.1h4.6
			c0.4-0.7,1.1-2.2,1.3-3.3c0.2-0.7,0.7-0.9,1.1-0.9c0.7,0,1.3,0.4,1.3,1.1s-1.1,2.4-1.3,2.8h2.2c0.7,0.2,1.1,0.7,1.1,1.1
			C-215.3,511.5-215.8,512-216.4,512z M-216.4,518.3c0,1.1-0.9,2-2.2,2.2c-0.7,0-1.3,0-2.2,0c-3.9,0-4.6,0-4.6-3.5
			c0-0.7,0-1.1,0-1.8c0-1.1,0.9-2,2-2c0.7,0,1.3,0,2.2,0s2,0,2.6,0c1.3,0,2.2,0.9,2.2,2c0,0.7,0,1.3,0,2
			C-216.4,517.5-216.4,517.9-216.4,518.3z M-210.5,517.9c-1.7,0-2-1.1-2-1.5c0-0.7,0.4-1.3,1.1-1.3h0.2c0.2,0,0.4,0,0.4,0
			c0.4,0,1.1,0,1.1-1.5c0-1.1-0.4-2-1.1-2.8c-0.4-0.7-0.7-1.3-0.7-2s0.2-1.1,0.4-1.5c0.2-0.7,0.9-2.2,0.9-2.4s0-0.4-1.3-0.4
			c-1.1,0-1.5,0-1.5,0.7c0,1.3,0,2.6,0,4.2c0,2.8,0,5.9,0,9v1.8c0,0.7-0.7,1.1-1.1,1.1c-0.7,0-1.3-0.4-1.3-1.1c0-7.9,0-11.2,0-15.1
			c0-1.5,0.9-2.4,2.2-2.4c0.7,0,1.3,0,2,0c0.4,0,0.9,0,1.5,0c1.5,0,2.4,0.9,2.4,2c0,0.9-0.4,1.8-1.5,3.7c-0.2,0.2-0.2,0.7-0.2,0.9
			c0,0.4,0.2,0.7,0.4,1.1c0.7,1.1,1.5,2.4,1.5,4.2C-207,516.8-208.8,517.9-210.5,517.9z M-243.7,512v-0.4c0-0.4-0.2-0.7-3.9-0.7
			c-1.1,0-2.2,0-3.3,0c-0.7,0-0.9,0.4-0.9,0.4v0.4h8.1V512z M-243.7,515.7v-0.4h-8.1v0.4c0,0.4,0.2,0.4,3.9,0.4c1.1,0,2.2,0,3.1,0
			C-243.9,516.4-243.7,516.1-243.7,515.7z M-243.5,514.2v-0.9h-8.1v0.9H-243.5z M-253.7,508.3l0.2-1.8c-2,1.3-2.4,1.5-2.8,1.5
			c-0.7,0-1.1-0.7-1.1-1.1c0-0.4,0.2-0.7,0.7-0.9c2-0.9,3.9-2.4,5.5-4.4c0.2-0.2,0.7-0.4,0.9-0.4c0.7,0,1.3,0.7,1.3,1.1
			c0,0.2,0,0.4-0.2,0.7c-0.7,0.7-1.1,1.1-1.7,1.8l-0.2,3.5c0,0.9-0.7,1.1-1.3,1.1C-253.3,509.4-253.7,509.1-253.7,508.3z
			 M-245.9,505.9v0.2c0,0.9,0.4,0.9,2.2,0.9c1.7,0,2.8-0.2,2.8-1.3c0-0.7,0.7-0.9,1.1-0.9c0.4,0,1.3,0.2,1.3,1.1
			c0,2.6-2.2,3.1-5.2,3.1c-2.4,0-4.8,0-4.8-2.4c0-1.3,0-2.8,0-3.9c0.4-0.9,0.9-1.3,1.5-1.3c0.7,0,1.1,0.4,1.1,1.1c0,0.4,0,0.9,0,1.5
			c1.5-0.4,3.1-1.1,4.4-1.5c0.2,0,0.4-0.2,0.4-0.2c0.7,0,1.3,0.7,1.3,1.1s-0.2,0.9-0.9,1.1C-242.2,504.8-244.4,505.4-245.9,505.9z
			 M-243.7,517.9h-0.4c1.5,0.7,2.8,0.9,4.6,0.9c0.9,0,1.3,0.7,1.3,1.1c0,0.7-0.4,1.1-1.3,1.1s-3.5-0.4-5.9-1.5
			c-0.4-0.2-0.7-0.7-0.7-0.9c0-0.2,0.2-0.7,0.4-0.9h-3.5c0.2,0.2,0.2,0.4,0.2,0.9c0,0.4-0.2,0.7-0.7,0.9c-1.7,0.9-4.4,1.8-5.9,1.8
			c-0.9,0-1.3-0.7-1.3-1.1s0.4-1.1,1.3-1.1c1.7-0.2,3.1-0.4,4.6-1.1h-0.2c-1.5,0-2.2-0.7-2.2-1.5c0-0.9,0-1.8,0-2.6
			c0-0.9,0-1.8,0-2.6c0-0.7,0.7-1.5,2.2-1.5s2.8,0,4.4,0c1.1,0,2.2,0,3.5,0c1.5,0,2.2,0.9,2.4,1.5c0,0.9,0,1.8,0,2.6
			c0,0.9,0,1.8,0,2.6C-241.5,517.2-242.4,517.9-243.7,517.9z M-276.7,509.6V508c-1.7,0-2.2,0-2.2,0.7v0.9H-276.7z M-274.5,509.6h2.4
			c0-0.2,0-0.7,0-0.9s-0.2-0.7-0.7-0.7c-0.7,0-1.1,0-1.5,0v1.5H-274.5z M-276.7,512.4v-1.3h-2.2v1.3H-276.7z M-272.1,512.4v-1.3
			h-2.4v1.3H-272.1z M-283.6,506.9c-0.4,0-0.7-0.2-0.9-0.4c-0.7-0.9-1.5-1.5-2.2-2c-0.4-0.2-0.4-0.4-0.4-0.9c0-0.7,0.7-1.1,1.3-1.1
			c0.7,0,3.5,1.5,3.5,2.8C-282.3,506.3-283,506.9-283.6,506.9z M-283.6,518.3c-2,2.2-2.6,2.6-3.3,2.6c-0.9,0-1.5-0.7-1.5-1.3
			c0-0.4,0.2-0.7,0.7-0.9c1.1-0.7,2.2-1.3,2.8-2.2c0-0.9,0-1.8,0-2.4v-1.1c0-0.4-0.2-0.4-0.9-0.4h-0.9c-0.4,0-1.3,0-1.3-1.1
			c0-0.7,0.4-1.1,1.1-1.1c0.9,0,1.5,0,2.2,0c1.5,0,2.2,0.7,2.2,2.2c0,1.3,0,2.8,0,4.2c1.3,1.8,3.7,2.2,6.5,2.2
			c2.2,0,4.6-0.2,6.3-0.4h0.2c0.9,0,1.3,0.7,1.3,1.3c0,0.7-0.4,1.1-1.3,1.3c-1.7-0.2-3.7-0.2-5.7-0.2
			C-280.6,521-281.9,520.1-283.6,518.3z M-272.1,514.6v-0.4h-2.4v2.8c0,0.7-0.4,0.9-1.1,0.9c-0.4,0-1.1-0.4-1.1-0.9v-2.8h-2.2
			c0,0.9,0,1.8,0,2.8c0,0.7-0.4,1.1-1.1,1.1c-0.4,0-1.1-0.4-1.1-1.1c0-1.3,0-2.6,0-3.7c0-1.5,0-3.3,0-4.8c0-1.3,0.7-2,2.2-2h1.5
			c-1.1-0.7-1.1-0.7-1.1-0.9c0-0.4,0.4-0.9,1.1-0.9c0.4,0,1.3,0.4,1.5,0.7c0.4-0.2,1.7-0.9,1.7-1.1c0,0,0-0.2-0.2-0.2
			c-1.5,0-4.4,0-6.1,0.2c-0.7,0-0.9-0.4-0.9-0.9s0.2-1.1,0.9-1.1c1.5,0,3.3,0,4.8,0c0.9,0,1.7,0,2.6,0c1.3,0,2,0.7,2,1.3
			c0,1.1-1.7,2-3.3,2.8c0.7,0,1.1,0,1.7,0c1.5,0,2.2,0.7,2.2,2.2c0,0.7,0,1.1,0,1.8c0,2,0,4.4,0,5v0.2c0,1.3-0.7,2.4-2.4,2.4
			c-1.3,0-1.7-0.4-1.7-1.1c0-0.4,0.2-1.1,0.9-1.1h0.2h0.2C-272.3,515.5-272.1,515.3-272.1,514.6z M-302.9,505.6V505
			c0-0.7-0.2-0.7-2.2-0.7c-1.7,0-1.7,0-2,0.7c0,0.2,0,0.4,0,0.7H-302.9z M-302.9,508.7v-1.3h-4.1v1.3H-302.9z M-302.9,510.7h-4.1
			v0.7c0,0.9,0.7,0.9,1.7,0.9c2,0,2.2,0,2.2-0.9C-302.9,511.1-302.9,510.9-302.9,510.7z M-308.1,517.2c-0.2,0-0.7-0.2-0.9-0.4
			c-0.4-0.7-1.1-1.1-1.5-1.5c-0.4-0.2-0.4-0.4-0.4-0.7c0-0.4,0.7-1.1,1.3-1.1c0.7,0,2.8,1.3,2.8,2.4
			C-306.8,516.6-307.4,517.2-308.1,517.2z M-300.9,519.9c-0.4,0-0.7-0.2-0.9-0.7c-0.4-0.9-1.3-1.8-2-2.2c-0.4-0.2-0.4-0.7-0.4-0.9
			c0-0.7,0.4-1.1,1.1-1.1c1.3,0,3.1,2.4,3.3,2.6c0.2,0.2,0.2,0.4,0.2,0.7C-299.6,519.4-300.2,519.9-300.9,519.9z M-317.5,520.5
			c-0.7,0-1.3-0.7-1.3-1.3c0-0.4,0.2-0.9,0.7-1.1c0.4-0.2,1.5-1.3,1.7-1.8c0.2-0.4,0.7-0.7,1.1-0.7c0.7,0,1.3,0.4,1.3,1.1
			C-314,517.9-316.2,520.5-317.5,520.5z M-306.6,517.9c0-0.7,0.4-0.9,1.1-0.9c0.7,0,1.3,0.4,1.3,0.9c0,2.2-0.7,2.8-5.2,2.8
			c-3.5,0-4.4-0.7-4.4-2.6c0,0,0-2.2,0-2.4c0-0.7,0.7-1.1,1.3-1.1c0.7,0,1.3,0.4,1.3,1.1c0,0.4,0,2.2,0,2.2c0,0.7,0.7,0.9,2.2,0.9
			C-307,519-306.6,518.8-306.6,517.9z M-314.6,513.1v-4.2c-2.2,3.3-3.1,3.3-3.3,3.3c-0.7,0-1.1-0.7-1.1-1.1c0-0.2,0.2-0.7,0.4-0.9
			c1.1-0.9,2.6-2.4,3.9-3.9h-2.4c-0.7,0-1.1-0.4-1.1-1.1c0-0.4,0.4-1.1,1.1-1.1h2.4v-1.8c0-0.9,0.7-1.1,1.1-1.1
			c0.7,0,1.1,0.4,1.1,1.1c0,0,0,0.7,0,1.8h2c0.7,0,0.9,0.4,0.9,1.1c0,0.4-0.4,1.1-0.9,1.1h-2c0,0.2,0,0.7,0,0.9h0.2
			c0.4,0,2.6,0.9,2.6,2c0,0.7-0.4,1.1-1.1,1.1c-0.2,0-0.4-0.2-0.7-0.4c-0.4-0.4-0.9-0.9-1.1-1.1c0,3.5,0.2,4.2,0.2,4.2
			c0,0.7-0.7,0.9-1.1,0.9C-314.2,514-314.6,513.7-314.6,513.1z M-300.9,511.8c0,1.1-0.9,2-2.2,2.2c-0.7,0-1.1,0-1.7,0
			c-0.7,0-1.5,0-2.2,0c-1.5,0-2.2-0.9-2.2-2s0-2.2,0-3.5s0-2.6,0-3.7c0-0.9,0.7-2,2.2-2c0.7,0,1.3,0,2,0c0.7,0,1.3,0,2,0
			c1.3,0,2.2,0.9,2.2,2s0,2.4,0,3.7C-300.9,509.4-300.9,510.7-300.9,511.8z M-334.7,509.6h-2.4c0.2,1.5,0.7,3.1,1.5,4.4
			c1.1-1.8,1.3-3.7,1.3-3.9S-334.3,509.6-334.7,509.6z M-346.9,510.4c-1.1,1.3-1.7,1.5-2.2,1.5c-0.7,0-1.1-0.4-1.1-1.1
			c0-0.2,0.2-0.7,0.4-0.9c2.2-2,3.9-4.4,5.2-7.4c0-0.7,0.4-0.9,0.9-0.9c0.7,0,1.3,0.4,1.3,1.3c0,0.7-1.5,3.3-2.2,4.2v12.9
			c0,0.9-0.7,1.1-1.3,1.1c-0.7,0-1.3-0.2-1.3-1.1L-346.9,510.4z M-332.1,505.2c-1.5,0-3.3,0-5,0c-0.7,0-1.3,0-2,0
			c-0.4,0-0.7,0.2-0.7,0.7v2c1.7,0,4.8,0,5.9,0c1.1,0,2,0.7,2,1.8s-0.9,3.9-2.6,6.6c1.1,1.1,2.2,1.8,3.5,2.4
			c0.7,0.2,0.9,0.7,0.9,1.1c0.2,0.4-0.4,1.3-1.3,1.3c-1.5,0-3.9-2.6-4.4-3.1c-2.2,2.2-4.4,3.1-4.8,3.1c-0.7,0-1.1-0.7-1.1-1.3
			c0-0.4,0.2-0.9,0.7-1.1c1.5-0.7,2.8-1.5,3.9-2.8c-1.3-1.5-2.2-3.7-2.2-6.1h-0.4c0,3.7-0.4,7.9-2.6,10.5c-0.2,0.4-0.7,0.4-0.9,0.4
			c-0.7,0-1.3-0.4-1.3-1.1c0-0.2,0-0.4,0.2-0.7c2-2.6,2.4-5.7,2.4-8.8c0-1.8-0.2-3.5-0.2-5c0-1.3,0.9-2.2,2.4-2.2c1.1,0,2.4,0,3.5,0
			c1.5,0,2.8,0,4.1,0c0.9,0,1.1,0.7,1.1,1.1C-330.8,504.5-331.2,505.2-332.1,505.2z"/>
	</g>
	<g>
		<path class="st11" d="M-20.9,530.1l1.5,4.8h-3.3l1.9-4.8H-20.9z M-28,540.2h3.8l0.9-2.5h4.7l0.9,2.5h3.8l-5.2-14h-3.7L-28,540.2z
			 M-32.4,540.2h3.8v-14h-3.8V540.2z M-44.6,535.3c0,3.4,2.6,4.8,5.7,4.8c2.9,0,5.7-1.1,5.7-4.5c0-2.5-2-3.4-3.9-3.9
			c-2.1-0.6-4-0.6-4-1.7c0-0.9,1.1-1.1,1.7-1.1c1.1,0,2.2,0.3,2.2,1.6h3.3c0-3-2.6-4.5-5.3-4.5c-2.5,0-5.5,1.1-5.5,4.2
			c0,2.5,2.2,3.4,4,3.8c2,0.6,3.9,0.8,3.9,2c0,1.1-1.1,1.4-2.2,1.4c-1.4,0-2.4-0.6-2.4-2.2h-3.3L-44.6,535.3z M-50.9,530.1l1.5,4.8
			h-3.3l1.9-4.8H-50.9z M-57.8,540.2h3.7l0.9-2.5h4.9l0.9,2.5h3.8l-5.2-14h-3.8L-57.8,540.2z M-70,540.2h1.4v-11.9l8.1,11.9h1.5v-14
			h-1.3v11.8l-8.2-11.6H-70V540.2z M-72.8,540.2h1.3v-14h-1.3V540.2z M-86.5,540.2h3.6v-5.6h4.7v5.6h3.5v-14h-3.5v5h-4.7v-4.9h-3.7
			L-86.5,540.2L-86.5,540.2z M-87.6,531.2c0-3.1-3-5-5.8-5c-4,0-6.6,3.1-6.6,7.1c0,3.8,2.6,7,6.6,7c3.3,0,5.8-2,6.1-5.6h-3.3
			c-0.2,1.7-1.1,2.6-2.8,2.6c-2.2,0-3.1-2-3.1-3.9c0-2,0.9-4,3.1-4c1.4,0,2.5,0.7,2.6,2h3.3L-87.6,531.2L-87.6,531.2z M-111.6,540.2
			h11.3V537h-7.7v-2.7h6.9v-2.8h-6.6V529h7.3v-2.7h-11V540.2z M-112.7,526.1h-11.6v3.1h4.1v10.9h3.7v-10.9h4.1v-3.1H-112.7z"/>
		<path class="st12" d="M-146.1,531.4c0.3,0.2,0.7,0,0.6-0.5l-1.8-3.1h-0.7l-11,19.8c-0.5,0.5-1.1,0.5-1.3,0l-3.8-6.4l-0.2-0.9v-5.6
			c0-0.6-0.2-0.9-0.6-1.1l-8.8-7.8c-0.6-0.3-0.3-1.1,0.5-1.1h15.8l3.9,2.2c0.2,0.2,0.2,0.5,0,0.6l-1.5,2.9c0,0.2-0.2,0.3-0.3,0.2
			l-3.1-1.7l-0.7-0.2h-4.1c-0.3,0-0.5,0.5-0.2,0.7l2.8,2.2c0.3,0.3,0.5,0.8,0.5,1.1v7.4c0,0.5,0.6,0.6,0.8,0.2l11.5-20.2
			c0.2-0.3,1.1-0.3,1.1,0l11.8,20.7c0.6,0.7-0.2,1.4-0.9,1.1l-13.7-8.2c-0.2,0-0.3-0.3-0.2-0.5l1.7-2.8c0-0.2,0.3-0.2,0.6-0.2
			l1.7,1.1L-146.1,531.4L-146.1,531.4z"/>
	</g>
</g>
<g>
	<path class="st13" d="M-58.5,39.3V14.6h5v24.7C-53.6,39.3-58.5,39.3-58.5,39.3z"/>
	<path d="M-116.3,46.6H-127V22h10.2c5,0,7.9,2.7,7.9,6.9c0,2.7-1.9,4.5-3.1,5.1c1.5,0.7,3.5,2.3,3.5,5.5
		C-108.6,44.1-111.8,46.6-116.3,46.6z M-117.2,26.3h-4.9v5.7h4.9c2.1,0,3.3-1.1,3.3-2.8C-113.9,27.4-115.1,26.3-117.2,26.3z
		 M-116.8,36.3h-5.2v6.1h5.2c2.2,0,3.3-1.4,3.3-3.1C-113.5,37.6-114.6,36.3-116.8,36.3z M-93.4,36.5v10.1h-4.9V36.5L-106,22h5.4
		l4.7,9.9l4.7-9.9h5.4C-85.8,22-93.4,36.5-93.4,36.5z M-71.7,46.6h-10.6V22h10.2c5,0,7.9,2.7,7.9,6.9c0,2.7-1.9,4.5-3.1,5.1
		c1.5,0.7,3.5,2.3,3.5,5.5C-63.9,44.1-67.2,46.6-71.7,46.6z M-72.5,26.3h-4.9v5.7h4.9c2.1,0,3.3-1.1,3.3-2.8
		C-69.3,27.4-70.4,26.3-72.5,26.3z M-72.2,36.3h-5.2v6.1h5.2c2.2,0,3.3-1.4,3.3-3.1C-68.9,37.6-70,36.3-72.2,36.3z M-37.6,26.3v20.4
		h-5V26.3h-6.6V22h18.2v4.3C-30.9,26.3-37.6,26.3-37.6,26.3z"/>
</g>
<g>
	<path class="st14" d="M374.2,23.9h-1.1v-5h-5v5H363v-5h-5v5h-5v5h5v10.1h-5v5h5v5h5v-5h5v5h5v-5h0.9c5.5,0.1,10-4.5,10.1-10
		C384.2,28.6,379.7,24,374.2,23.9z M374.2,39H363V28.9h11c2.8,0,5,2.2,5.1,4.9C379.1,36.6,376.9,39,374.2,39L374.2,39z"/>
	<path d="M402,28.3c-0.7-0.7-1.5-1.3-2.5-1.7s-2.1-0.6-3.4-0.6h-5.8v16l5.8,0c1.2,0,2.3-0.2,3.2-0.6c1-0.4,1.8-0.9,2.5-1.6
		c0.7-0.7,1.2-1.5,1.6-2.5c0.4-1,0.6-2.1,0.6-3.3c0-1.1-0.2-2.1-0.5-3.1C403.1,29.9,402.6,29,402,28.3z M400.5,36
		c-0.2,0.7-0.5,1.2-0.9,1.7c-0.4,0.5-0.9,0.9-1.5,1.1c-0.6,0.3-1.3,0.4-2,0.4h-2.7V28.7h2.7c0.7,0,1.4,0.1,2,0.4
		c0.6,0.2,1.1,0.6,1.5,1.1c0.4,0.5,0.7,1,0.9,1.7c0.2,0.6,0.3,1.3,0.3,2.1C400.8,34.7,400.7,35.4,400.5,36L400.5,36z M416.8,31.8
		c-0.5-0.5-1.2-1-1.9-1.3s-1.6-0.5-2.6-0.5c-1,0-1.8,0.2-2.6,0.5c-0.8,0.3-1.4,0.8-2,1.3s-1,1.2-1.2,2c-0.3,0.7-0.4,1.5-0.4,2.4
		c0,0.8,0.2,1.6,0.4,2.3c0.3,0.7,0.7,1.4,1.2,1.9c0.5,0.6,1.2,1,2,1.3c0.8,0.3,1.6,0.5,2.6,0.5c0.7,0,2,0,3.4-0.9
		c0.2-0.1,1.3-0.8,2.1-2.2c0.2-0.3,0.3-0.5,0.3-0.7c-1,0-1.9,0-2.9,0c-0.2,0.5-0.6,0.9-1.1,1.2c-0.5,0.3-1.1,0.4-1.7,0.4
		c-0.4,0-0.8-0.1-1.1-0.2c-0.4-0.1-0.7-0.3-1-0.6c-0.3-0.3-0.5-0.6-0.7-0.9c-0.2-0.4-0.3-0.8-0.3-1.2h9.1c0-0.1,0.1-0.3,0.1-0.5
		c0-0.2,0-0.4,0-0.6c0-0.8-0.1-1.6-0.4-2.3C417.7,33,417.3,32.3,416.8,31.8L416.8,31.8z M409.2,35.1c0-0.4,0.1-0.8,0.3-1.2
		c0.2-0.4,0.4-0.7,0.7-0.9c0.3-0.3,0.6-0.5,0.9-0.6c0.3-0.1,0.7-0.2,1.1-0.2c0.8,0,1.5,0.3,2.1,0.8c0.6,0.5,0.9,1.2,1,2.1
		L409.2,35.1z M427.3,30c0.1,0,0.2,0,0.2,0v2.8c-0.9,0-1.7,0.2-2.4,0.5c-0.7,0.3-1.2,0.9-1.6,1.5v7.1h-3V30.1h2.8v2.5
		c0.2-0.4,0.5-0.8,0.7-1.1c0.3-0.3,0.6-0.6,0.9-0.9c0.3-0.2,0.7-0.4,1-0.6c0.3-0.1,0.7-0.2,1-0.2H427.3L427.3,30z M461.9,39.1v2.5
		c-0.7,0.3-1.9,0.5-2.8,0.5c-1.9,0-2.8-1-2.8-3v-6.4h-1.6v-2.6h1.6v-4.2h2.9v4.3h2.6v2.6h-2.6v5.9c0,0.6,0.3,0.9,0.8,0.9
		C460.6,39.6,461.3,39.4,461.9,39.1L461.9,39.1z M429.7,30.1h3v11.8l-3,0V30.1z M429.8,27.4c0-0.8,0.6-1.5,1.5-1.5
		c0.8,0,1.5,0.7,1.5,1.5s-0.6,1.5-1.5,1.5S429.8,28.2,429.8,27.4z M449.4,30.1h3v11.8l-3,0V30.1z M449.4,27.4c0-0.8,0.6-1.5,1.5-1.5
		c0.8,0,1.5,0.7,1.5,1.5c0,0.8-0.6,1.5-1.5,1.5S449.4,28.2,449.4,27.4z M445.8,31.6c-0.5-0.6-1-1-1.7-1.3c-0.6-0.3-1.3-0.5-2.1-0.5
		c-0.9,0-1.7,0.2-2.4,0.6c-0.7,0.4-1.2,1-1.7,1.7v-6.2h-3.1v16h3.1v-1.8c0.3,0.6,0.6,1,1.3,1.4c0.7,0.4,1.5,0.6,2.4,0.6
		c0.8,0,1.5-0.2,2.2-0.5c0.7-0.3,1.3-0.7,1.8-1.3c0.5-0.6,0.9-1.2,1.2-2s0.4-1.6,0.4-2.4c0-0.8-0.1-1.6-0.4-2.4
		C446.6,32.8,446.3,32.2,445.8,31.6L445.8,31.6z M443.9,37.4c-0.2,0.4-0.4,0.8-0.7,1.1s-0.6,0.6-1,0.8s-0.9,0.3-1.3,0.3
		c-0.3,0-0.6-0.1-0.9-0.2c-0.3-0.1-0.6-0.2-0.9-0.4c-0.3-0.2-0.5-0.4-0.7-0.6c-0.2-0.2-0.4-0.5-0.5-0.8v-2.8
		c0.3-0.7,0.7-1.2,1.2-1.7c0.5-0.5,1.1-0.7,1.8-0.7c0.5,0,0.9,0.1,1.3,0.3c0.4,0.2,0.7,0.5,1,0.8c0.3,0.3,0.5,0.7,0.6,1.2
		c0.1,0.5,0.2,0.9,0.2,1.4C444.1,36.5,444,36.9,443.9,37.4L443.9,37.4z"/>
</g>
<g>
	<path class="st15" d="M206.2,39.8h-7v7h7V39.8z"/>
	<path class="st16" d="M211.1,30.5h-11.8v7h14v-7H211.1z"/>
	<path class="st17" d="M220.2,21.2h-21v7h21V21.2z"/>
	<path class="st16" d="M196.9,30.5h-7v7h7V30.5z"/>
	<path d="M227.2,46.8h5.4V36.2H243v-4.5h-10.4v-6.1h11.5v-4.5h-17V46.8z M246.8,25.7h7.8v21.1h5.4V25.7h7.8v-4.5h-21V25.7z
		 M276.4,21.2h-6.1l7.9,12.8l-8,12.8h6.2l5.3-8.7h0.2l5.3,8.7h6.2l-8-12.8l7.8-12.8h-6.1l-5.2,8.7h-0.2L276.4,21.2z"/>
</g>
<g>
	<g>
		<path class="st18" d="M44,151.3l3.6,3.6l3.6-3.6l-3.6-3.6L44,151.3z M23,147.7l-3.6,3.6l3.6,3.6l3.6-3.6L23,147.7z M35.3,142.6
			l6.2,6.2l3.6-3.6l-9.8-9.7l-9.8,9.8l3.6,3.6L35.3,142.6z M35.3,160.1l-6.2-6.2l-3.6,3.6l9.8,9.8l9.8-9.8l-3.6-3.6L35.3,160.1z
			 M38.9,151.3l-3.6-3.6l-3.6,3.6l3.6,3.6L38.9,151.3z"/>
		<path d="M73.2,155.2c0-2.3-1.2-3.5-3.3-4.3c1.2-0.7,2.3-1.8,2.3-3.8v-0.1c0-2.7-2.2-4.5-5.7-4.5h-8.1V160h8.3
			C70.6,160.1,73.2,158.5,73.2,155.2L73.2,155.2z M62.1,146h3.8c1.6,0,2.5,0.7,2.5,1.8v0.1c0,1.3-1.1,1.8-2.8,1.8h-3.5V146z
			 M69.4,154.8c0,1.3-1,1.9-2.7,1.9h-4.6v-3.8h4.4C68.5,152.9,69.4,153.6,69.4,154.8L69.4,154.8z M77.4,142.6h3.9V160h-3.9V142.6z
			 M154.1,156.8c-3,0-5.1-2.5-5.1-5.5v-0.1c0-3,2.1-5.4,5.1-5.4c1.7,0,3.1,0.7,4.5,2l2.5-2.8c-1.6-1.6-3.6-2.7-6.9-2.7
			c-5.3,0-9.1,4.1-9.1,9v0.1c0,5,3.8,9,8.9,9c3.4,0,5.3-1.1,7.1-3.1l-2.5-2.5C157.4,156,156.2,156.8,154.1,156.8z M168.1,156.7V153
			h8.2v-3.4h-8.2V146h9.3v-3.4h-13.1V160h13.3v-3.4H168.1z M98.1,153.4l-8.2-10.7h-3.5V160h3.8V149l8.4,11.1h3.3v-17.5h-3.8V153.4z
			 M112.1,142.5l-7.5,17.6h3.9l1.6-3.9h7.4l1.6,3.9h4l-7.5-17.6H112.1z M116.1,152.8h-4.6l2.3-5.7L116.1,152.8z M137.6,153.4
			l-8.2-10.7h-3.5V160h3.8V149l8.4,11.1h3.3v-17.5h-3.8V153.4z"/>
	</g>
	<g>
		<path class="st0" d="M-295.5,139.4l-6,0l-5.9,23.8l6,0l3.7-14.9l6,0l2.2-8.9L-295.5,139.4z"/>
		<path class="st1" d="M-283.6,139.4l-2.2,8.9l-1.5,6l-6,0l-2.2,8.9l11.9,0l3.7-14.9l2.2-8.9L-283.6,139.4z"/>
		<path d="M-245.5,140.8c0,0.5-0.2,0.9-0.5,1.2c-0.3,0.3-0.7,0.5-1.1,0.5c-0.4,0-0.8-0.2-1.1-0.5c-0.3-0.3-0.5-0.7-0.5-1.2
			c0-0.5,0.2-0.9,0.5-1.2c0.3-0.3,0.7-0.5,1.1-0.5c0.4,0,0.8,0.2,1.1,0.5C-245.6,139.9-245.5,140.3-245.5,140.8z M-271.7,139.3
			l9.9,0c2.7,0,4.9,0.8,6.2,2.1c1,1,1.5,2.3,1.5,3.8l0,0.1c0,3.1-1.9,4.7-3.8,5.5c2.8,0.9,5.1,2.5,5.1,5.8l0,0.1
			c0,4.1-3.5,6.5-8.7,6.5l-10.3,0L-271.7,139.3z M-262.3,150c3.2,0,5.5-1.5,5.5-4.3l0-0.1c0-2.4-1.9-3.9-5.3-3.9l-6.9,0l0,8.2
			L-262.3,150L-262.3,150z M-261.3,160.8c3.6,0,5.9-1.6,5.9-4.3l0-0.1c0-2.6-2.2-4.1-6.3-4.1l-7.2,0l0,8.4L-261.3,160.8z
			 M-248.4,145.6l2.6,0l0,17.6l-2.6,0C-248.4,163.2-248.4,145.6-248.4,145.6z M-238.8,157.6l0-9.7l-4,0l0-2.3l4,0l0-6.2l2.6,0l0,6.2
			l7.2,0l0,2.3l-7.2,0l0,9.4c0,2.4,1.1,3.9,3.3,3.8c1.5,0,2.7-0.2,3.7-0.6l0,2.2c-0.9,0.5-2.6,0.8-4.4,0.8
			C-236.8,163.5-238.8,161.2-238.8,157.6L-238.8,157.6z M-225.2,139.4l5.7,0l6.3,10.1l6.3-10.1l5.7,0l0,23.8l-5.2,0l0-15.6
			l-6.7,10.2l-0.1,0l-6.7-10.1l0,15.5l-5.1,0L-225.2,139.4L-225.2,139.4z M-196.7,139.4l18,0l0,4.7l-12.8,0l0,4.8l10.7,0l0,4.7
			l-10.6,0l0,5l13,0l0,4.7l-18.2,0L-196.7,139.4L-196.7,139.4z M-168.7,151.1l-8-11.7l6.1,0l5,7.7l5-7.7l6,0l-8,11.6l8.3,12.2
			l-6.1,0l-5.4-8.2l-5.4,8.2l-6,0C-177.1,163.2-168.7,151.1-168.7,151.1z"/>
	</g>
	<g>
		<path class="st13" d="M-50,156.7V132h5v24.7C-45.1,156.7-50,156.7-50,156.7z"/>
		<path d="M-107.9,164h-10.6v-24.7h10.2c5,0,7.9,2.7,7.9,6.9c0,2.7-1.9,4.5-3.1,5.1c1.5,0.7,3.5,2.3,3.5,5.5
			C-100.1,161.5-103.3,164-107.9,164z M-108.7,143.6h-4.9v5.7h4.9c2.1,0,3.3-1.1,3.3-2.8C-105.4,144.7-106.6,143.6-108.7,143.6z
			 M-108.4,153.6h-5.2v6.1h5.2c2.2,0,3.3-1.4,3.3-3.1C-105,155-106.1,153.6-108.4,153.6z M-85,153.9V164h-4.9v-10.1l-7.6-14.6h5.4
			l4.7,9.9l4.7-9.9h5.4C-77.3,139.3-85,153.9-85,153.9z M-63.2,164h-10.6v-24.7h10.2c5,0,7.9,2.7,7.9,6.9c0,2.7-1.9,4.5-3.1,5.1
			c1.5,0.7,3.5,2.3,3.5,5.5C-55.5,161.5-58.7,164-63.2,164z M-64.1,143.6h-4.9v5.7h4.9c2.1,0,3.3-1.1,3.3-2.8
			C-60.8,144.7-62,143.6-64.1,143.6z M-63.7,153.6h-5.2v6.1h5.2c2.2,0,3.3-1.4,3.3-3.1C-60.4,155-61.5,153.6-63.7,153.6z
			 M-29.1,143.6V164h-5v-20.4h-6.6v-4.3h18.2v4.3C-22.4,143.6-29.1,143.6-29.1,143.6z"/>
	</g>
	<g>
		<path class="st14" d="M553.7,141.2h-1.1v-5h-5v5h-5.1v-5h-5v5h-5v5h5v10.1h-5v5h5v5h5v-5h5v5h5v-5h0.9c5.5,0.1,10-4.5,10.1-10
			S559.2,141.3,553.7,141.2z M553.7,156.4h-11.1v-10.1h11c2.8,0,5,2.2,5.1,4.9C558.6,153.9,556.4,156.3,553.7,156.4L553.7,156.4z"/>
		<path d="M581.5,145.6c-0.7-0.7-1.5-1.3-2.5-1.7c-1-0.4-2.1-0.6-3.4-0.6h-5.8v16l5.8,0c1.2,0,2.3-0.2,3.2-0.6s1.8-0.9,2.5-1.6
			s1.2-1.5,1.6-2.5c0.4-1,0.6-2.1,0.6-3.3c0-1.1-0.2-2.1-0.5-3.1C582.6,147.2,582.1,146.3,581.5,145.6z M580,153.4
			c-0.2,0.7-0.5,1.2-0.9,1.7c-0.4,0.5-0.9,0.9-1.5,1.1c-0.6,0.3-1.3,0.4-2,0.4h-2.7V146h2.7c0.7,0,1.4,0.1,2,0.4
			c0.6,0.2,1.1,0.6,1.5,1.1c0.4,0.5,0.7,1,0.9,1.7c0.2,0.6,0.3,1.3,0.3,2.1C580.3,152,580.2,152.7,580,153.4L580,153.4z
			 M596.3,149.1c-0.5-0.5-1.2-1-1.9-1.3c-0.8-0.3-1.6-0.5-2.6-0.5c-1,0-1.8,0.2-2.6,0.5c-0.8,0.3-1.4,0.8-2,1.3
			c-0.5,0.6-1,1.2-1.2,2c-0.3,0.7-0.4,1.5-0.4,2.4c0,0.8,0.2,1.6,0.4,2.3c0.3,0.7,0.7,1.4,1.2,1.9c0.5,0.6,1.2,1,2,1.3
			c0.8,0.3,1.6,0.5,2.6,0.5c0.7,0,2,0,3.4-0.9c0.2-0.1,1.3-0.8,2.1-2.2c0.2-0.3,0.3-0.5,0.3-0.7c-1,0-1.9,0-2.9,0
			c-0.2,0.5-0.6,0.9-1.1,1.2c-0.5,0.3-1.1,0.4-1.7,0.4c-0.4,0-0.8-0.1-1.1-0.2c-0.4-0.1-0.7-0.3-1-0.6c-0.3-0.3-0.5-0.6-0.7-0.9
			c-0.2-0.4-0.3-0.8-0.3-1.2h9.1c0-0.1,0.1-0.3,0.1-0.5c0-0.2,0-0.4,0-0.6c0-0.8-0.1-1.6-0.4-2.3
			C597.2,150.3,596.8,149.7,596.3,149.1L596.3,149.1z M588.7,152.4c0-0.4,0.1-0.8,0.3-1.2c0.2-0.4,0.4-0.7,0.7-0.9
			c0.3-0.3,0.6-0.5,0.9-0.6c0.3-0.1,0.7-0.2,1.1-0.2c0.8,0,1.5,0.3,2.1,0.8c0.6,0.5,0.9,1.2,1,2.1L588.7,152.4z M606.8,147.3
			c0.1,0,0.2,0,0.2,0v2.8c-0.9,0-1.7,0.2-2.4,0.5c-0.7,0.3-1.2,0.9-1.6,1.5v7.1h-3v-11.8h2.8v2.5c0.2-0.4,0.5-0.8,0.7-1.1
			c0.3-0.3,0.6-0.6,0.9-0.9c0.3-0.2,0.7-0.4,1-0.6c0.3-0.1,0.7-0.2,1-0.2H606.8L606.8,147.3z M641.4,156.4v2.5
			c-0.7,0.3-1.9,0.5-2.8,0.5c-1.9,0-2.8-1-2.8-3v-6.4h-1.6v-2.6h1.6v-4.2h2.9v4.3h2.6v2.6h-2.6v5.9c0,0.6,0.3,0.9,0.8,0.9
			C640.1,156.9,640.7,156.7,641.4,156.4L641.4,156.4z M609.2,147.5h3v11.8l-3,0V147.5z M609.2,144.8c0-0.8,0.6-1.5,1.5-1.5
			c0.8,0,1.5,0.7,1.5,1.5c0,0.8-0.6,1.5-1.5,1.5C609.9,146.2,609.2,145.6,609.2,144.8z M628.8,147.5h3v11.8l-3,0V147.5z
			 M628.9,144.8c0-0.8,0.6-1.5,1.5-1.5c0.8,0,1.5,0.7,1.5,1.5s-0.6,1.5-1.5,1.5C629.5,146.2,628.9,145.6,628.9,144.8z M625.3,148.9
			c-0.5-0.6-1-1-1.7-1.3c-0.6-0.3-1.3-0.5-2.1-0.5c-0.9,0-1.7,0.2-2.4,0.6c-0.7,0.4-1.2,1-1.7,1.7v-6.2h-3.1v16h3.1v-1.8
			c0.3,0.6,0.6,1,1.3,1.4c0.7,0.4,1.5,0.6,2.4,0.6c0.8,0,1.5-0.2,2.2-0.5c0.7-0.3,1.3-0.7,1.8-1.3c0.5-0.6,0.9-1.2,1.2-2
			c0.3-0.7,0.4-1.6,0.4-2.4c0-0.8-0.1-1.6-0.4-2.4C626.1,150.2,625.8,149.5,625.3,148.9L625.3,148.9z M623.4,154.7
			c-0.2,0.4-0.4,0.8-0.7,1.1c-0.3,0.3-0.6,0.6-1,0.8c-0.4,0.2-0.9,0.3-1.3,0.3c-0.3,0-0.6-0.1-0.9-0.2c-0.3-0.1-0.6-0.2-0.9-0.4
			c-0.3-0.2-0.5-0.4-0.7-0.6c-0.2-0.2-0.4-0.5-0.5-0.8V152c0.3-0.7,0.7-1.2,1.2-1.7c0.5-0.5,1.1-0.7,1.8-0.7c0.5,0,0.9,0.1,1.3,0.3
			c0.4,0.2,0.7,0.5,1,0.8c0.3,0.3,0.5,0.7,0.6,1.2c0.1,0.5,0.2,0.9,0.2,1.4C623.6,153.8,623.5,154.3,623.4,154.7L623.4,154.7z"/>
	</g>
	<g>
		<path class="st19" d="M356.8,138.7c2.8-0.2,5.7,0.4,8.2,1.6c3.7,1.8,6.7,5.1,8.1,9c0.6,1.7,1,3.5,1,5.4v6.8c0,0.3,0,0.6-0.1,0.8
			c-0.2,0.7-0.6,1.3-1.3,1.6c-0.4,0.2-1,0.2-1.4,0.2c-1-0.2-1.8-1.2-1.8-2.2c0-2.1,0-4.2,0-6.3c0-0.6,0-1.2-0.3-1.8
			c-0.5-1-1.8-1.4-2.8-1c-0.9,0.3-1.5,1.2-1.5,2.1c0,2.1,0,4.3,0,6.4c0,0.4,0,0.8-0.1,1.2c-0.2,0.8-0.8,1.4-1.6,1.6
			c-1,0.3-2.1-0.2-2.6-1.1c-0.3-0.6-0.3-1.2-0.3-1.8c0-2.1,0-4.2,0-6.4c0-1.1-0.9-2-2-2.2c-0.7-0.1-1.4,0.1-1.9,0.6
			c-0.5,0.4-0.7,1-0.7,1.7v6.2c0,0.5,0.1,1.1-0.1,1.5c-0.3,0.9-1.2,1.5-2.1,1.5c-1,0.1-1.9-0.6-2.2-1.5c-0.2-0.4-0.1-0.9-0.1-1.4
			c0-2.1,0-4.3,0-6.4c0-1.1-0.8-2-1.9-2.2c-0.9-0.2-2,0.3-2.4,1.1c-0.2,0.4-0.3,0.8-0.3,1.2v6.9c0,0.7-0.3,1.3-0.8,1.8
			c-0.8,0.7-2,0.7-2.9,0.1c-0.6-0.4-1-1.1-1-1.8v-7c0-2.7,0.7-5.3,1.9-7.6c1-1.9,2.5-3.6,4.2-4.9
			C350.3,140.1,353.5,138.9,356.8,138.7L356.8,138.7z"/>
		<path d="M419.7,146.8h-3.5c0.1-2.5,0.6-4.7,2.9-6.1c2.2-1.4,4.7-1.7,7.2-1.5c1.4,0.1,2.7,0.4,4,1c2.2,1,3.3,2.8,3.3,5.2
			c0,4.3,0,8.7,0,13c0,1.6,0.3,1.9,1.9,1.7c0.2,0,0.3,0,0.5-0.1c0,0.1,0,0.2,0,0.2v2.6c-1.3,0.4-2.5,0.6-3.8,0.2
			c-0.9-0.3-1.5-0.9-1.9-1.8c-0.2-0.5-0.3-0.9-0.4-1.5c-0.1,0.2-0.2,0.3-0.4,0.4c-2.8,2.8-6.1,4-9.9,3c-2.7-0.7-4.6-3.2-4.7-6.1
			c0-0.9,0.1-1.8,0.3-2.7c0.5-2.1,2-3.3,3.8-4.1c1.3-0.6,2.7-0.8,4.1-0.9c1.6-0.2,3.3-0.4,4.9-0.6c1.1-0.2,1.7-0.7,1.8-1.9
			c0.4-2.2-0.6-3.7-2.8-4.3c-1.3-0.3-2.6-0.4-3.9-0.1c-1.9,0.4-3,1.4-3.4,3.4C419.8,146.2,419.8,146.5,419.7,146.8L419.7,146.8z
			 M430.1,151.1c-1.6,0.9-3.2,1.1-4.8,1.3c-1.3,0.2-2.7,0.4-4,0.8c-1.7,0.6-2.5,2-2.3,3.8c0.1,1.6,1.2,2.8,2.9,3.1
			c2.6,0.4,4.9-0.3,6.8-2.2c0.5-0.6,1-1.4,1.1-2.1C430,154.3,429.9,152.8,430.1,151.1z M480,155.6c-0.1,0.4-0.1,0.7-0.2,1
			c-1.5,4.6-4.6,6.6-8.3,7c-6.4,0.7-10.1-3.5-11.1-8c-0.8-3.6-0.6-7.1,0.9-10.4c1.5-3.2,3.8-5.2,7.4-5.9c4.2-0.7,10.2,1.3,11.2,8
			c0.3,1.7,0.3,3.4,0.5,5.2H464c0.1,2.4,0.5,4.7,2.3,6.5c0.7,0.7,1.7,1.1,2.7,1.3c3.3,0.6,6.1-1,7.1-4.2c0.1-0.3,0.3-0.4,0.6-0.4
			C477.8,155.6,478.8,155.6,480,155.6L480,155.6z M464.1,149.4h12.3c-0.1-1.4-0.4-2.7-1-4c-0.6-1.2-1.6-2.1-2.9-2.5
			C468.2,141.5,463.8,144.9,464.1,149.4L464.1,149.4z M488.8,162.8H485v-23.1h3.5v3.2c0.3-0.3,0.4-0.5,0.6-0.7
			c2.5-2.9,5.7-3.6,9.3-2.8c2.5,0.6,3.9,2.4,4.4,4.9c0.2,1,0.3,2.1,0.3,3.1c0,5,0,9.9,0,14.9c0,0.1,0,0.3,0,0.4h-3.8v-0.6
			c0-4.6,0-9.3,0-13.9c0-1-0.2-2.1-0.4-3.1c-0.5-1.6-1.8-2.5-3.5-2.5c-3.1-0.1-5.5,1.5-6.3,4.3c-0.3,1-0.4,2.1-0.4,3.1
			c0,4,0,8,0,12.1L488.8,162.8L488.8,162.8z M439.8,139.7h3.6v9.8c0.2-0.2,0.4-0.3,0.5-0.5c2.9-3,5.9-6,8.8-9
			c0.2-0.3,0.5-0.4,0.9-0.4c1.4,0,2.8,0,4.3,0c-0.2,0.2-0.3,0.4-0.4,0.5c-2.6,2.6-5.2,5.2-7.8,7.8c-0.3,0.3-0.3,0.5-0.1,0.8
			c2.8,4.5,5.6,9,8.4,13.5c0.1,0.2,0.2,0.3,0.3,0.6c-0.2,0-0.3,0-0.5,0c-1.3,0-2.6,0-3.8,0c-0.4,0-0.5-0.1-0.7-0.4
			c-2.1-3.6-4.3-7.2-6.5-10.8c-0.1-0.2-0.2-0.3-0.3-0.5c-1,1-2,1.9-2.9,2.9c-0.1,0.1-0.2,0.4-0.2,0.6c0,2.5,0,5.1,0,7.6v0.7
			c-0.7,0-1.4,0-2.1,0c-0.5,0-1.1,0.1-1.4-0.1c-0.2-0.2-0.1-0.9-0.1-1.4v-20.9C439.8,140.2,439.8,140,439.8,139.7z M398.4,139.7
			c-2.9,2.9-5.7,5.7-8.6,8.5c3.1,4.9,6.1,9.7,9.1,14.6c-0.2,0-0.4,0-0.6,0c-1.2,0-2.5,0-3.7,0c-0.4,0-0.6-0.1-0.7-0.4
			c-2.1-3.6-4.3-7.2-6.5-10.8c-0.1-0.2-0.2-0.3-0.3-0.5c-0.6,0.6-1,1.2-1.6,1.6c-1.2,0.9-1.6,2.1-1.5,3.5c0.1,2,0,4,0,5.9v0.6h-3.6
			v-23.1h3.5v9.6c0.1,0,0.2,0.1,0.2,0.2c0.1-0.2,0.2-0.4,0.3-0.5c2.9-3,5.9-6,8.8-9c0.3-0.3,0.5-0.4,0.9-0.4c1.2,0,2.4,0,3.6,0
			C398,139.7,398.1,139.7,398.4,139.7L398.4,139.7z M405.5,143.5c1.8-2.6,3.7-4.8,7.3-4.2v4c-1,0.1-1.9,0-2.8,0.2
			c-2.2,0.5-3.9,2.5-4.2,4.9c-0.1,0.5-0.1,1-0.1,1.5c0,4.1,0,8.3,0,12.4v0.6H402v-23.1h3.5C405.5,141,405.5,142.2,405.5,143.5
			L405.5,143.5z"/>
	</g>
	<g>
		<path class="st15" d="M232.3,157h-6.7v6.7h6.7V157z"/>
		<path class="st16" d="M237,148h-11.4v6.7h13.5V148H237z"/>
		<path class="st17" d="M245.8,139h-20.2v6.7h20.2V139z"/>
		<path class="st16" d="M223.4,148h-6.7v6.7h6.7V148z"/>
		<path d="M252.5,163.7h5.2v-10.2h10v-4.3h-10v-5.9h11.1V139h-16.3V163.7z M271.4,143.3h7.6v20.4h5.2v-20.4h7.6V139h-20.3V143.3z
			 M299.9,139H294l7.6,12.3l-7.7,12.3h6l5.1-8.4h0.2l5.1,8.4h6l-7.7-12.3L316,139h-5.9l-5,8.4h-0.2L299.9,139z"/>
	</g>
</g>
</svg>
