<svg width="180" height="68" viewBox="0 0 180 68" fill="none" xmlns="http://www.w3.org/2000/svg">
<path d="M163.041 30.0661L164.587 34.8827H161.281L163.147 30.0661H163.041ZM155.975 40.1593H159.734L160.614 37.6969H165.36L166.24 40.1593H170L164.801 26.1424H161.147L155.975 40.1593ZM151.548 40.1593H155.308V26.1424H151.548V40.1593ZM139.389 35.3427C139.389 38.6981 142.029 40.1593 145.122 40.1593C148.002 40.1593 150.855 39.0499 150.855 35.6674C150.855 33.205 148.855 32.312 146.989 31.7438C144.882 31.1755 143.016 31.1755 143.016 30.0661C143.016 29.1731 144.109 28.9566 144.669 28.9566C145.762 28.9566 146.882 29.2813 146.882 30.5261H150.188C150.188 27.4954 147.549 26.0342 144.882 26.0342C142.349 26.0342 139.363 27.1436 139.363 30.2825C139.363 32.745 141.576 33.6379 143.336 34.098C145.335 34.6662 147.202 34.8827 147.202 36.1274C147.202 37.2369 146.109 37.4804 144.989 37.4804C143.549 37.4804 142.562 36.9122 142.562 35.2345H139.256L139.389 35.3427ZM133.096 30.0661L134.643 34.8827H131.337L133.203 30.0661H133.096ZM126.164 40.1593H129.817L130.697 37.6969H135.55L136.43 40.1593H140.189L134.99 26.1424H131.23L126.164 40.1593ZM114.005 40.1593H115.445V28.2801L123.497 40.1593H125.044V26.1424H123.711V37.9134L115.551 26.2777H114.005V40.1593ZM111.125 40.1593H112.458V26.1424H111.125V40.1593ZM97.4461 40.1593H101.072V34.558H105.819V40.1593H109.365V26.1424H105.819V31.1755H101.072V26.2777H97.4194V40.1593H97.4461ZM96.3262 31.2026C96.3262 28.0637 93.3398 26.1695 90.4867 26.1695C86.5137 26.1695 83.8739 29.3084 83.8739 33.2321C83.8739 37.0475 86.5137 40.1864 90.4867 40.1864C93.7931 40.1864 96.3262 38.1569 96.5662 34.585H93.2598C93.0465 36.2627 92.1666 37.1557 90.4867 37.1557C88.2735 37.1557 87.3936 35.1262 87.3936 33.2321C87.3936 31.2026 88.2735 29.2002 90.4867 29.2002C91.9266 29.2002 93.0198 29.8766 93.1265 31.2296H96.4329H96.3262V31.2026ZM72.3815 40.1593H83.6339V37.0204H75.9012V34.3415H82.754V31.5273H76.1412V28.9566H83.4206V26.2777H72.3815V40.1593ZM71.2616 26.1424H59.6626V29.2813H63.7423V40.1593H67.3953V29.2813H71.4749V26.1424H71.2616Z" fill="#111111"/>
<path d="M37.9042 31.4192C38.2242 31.6357 38.5709 31.4192 38.4642 30.9592L36.7043 27.8202H36.0377L24.9987 47.655C24.5454 48.115 23.9054 48.115 23.6654 47.655L19.9057 41.2689L19.6924 40.3759V34.7746C19.6924 34.2063 19.4791 33.8816 19.1325 33.6651L10.3065 25.8178C9.74659 25.4931 9.98657 24.7084 10.7598 24.7084H26.5452L30.4115 26.9543C30.6249 27.1708 30.6249 27.4143 30.4115 27.5226L28.865 30.445C28.865 30.6615 28.6517 30.7698 28.545 30.6615L25.4519 28.9838L24.7853 28.7673H20.679C20.359 28.7673 20.2257 29.2274 20.4657 29.4438L23.2388 31.6898C23.5588 32.0145 23.6921 32.4745 23.6921 32.7992V40.1865C23.6921 40.6465 24.252 40.7548 24.4654 40.403L35.9577 20.2435C36.1711 19.9188 37.051 19.9188 37.051 20.2435L48.8633 40.9712C49.4233 41.6477 48.65 42.3242 47.9834 42.0807L34.2779 33.9087C34.0646 33.9087 33.9579 33.584 34.0646 33.4487L35.7178 30.6345C35.7178 30.418 36.0377 30.418 36.2777 30.418L37.9309 31.5274V31.4192H37.9042Z" fill="#C01820"/>
</svg>
