<svg xmlns="http://www.w3.org/2000/svg" xml:space="preserve" viewBox="0 0 25.59 9.71">
  <path fill="rgb(244 63 94)" d="M15.44 4.33c3-.15 10.01-.7 10.14-2.35.04-.4-.14-.59-.24-.67-.31-.24-.78-.1-.86-.08a57.41 57.41 0 0 1-11.68 1.3h-.02c-.07 0-6.02.04-11.66-1.3-.09-.02-.55-.16-.87.09-.13.1-.28.29-.25.66.14 1.66 7.15 2.2 10.17 2.35.16 0 .56.06.72.22a.3.3 0 0 1 .08.2c0 .07-.02.09-.04.1-.53.45-4.86-.2-9-.88-.13-.04-.58-.14-.9.09-.12.09-.27.27-.27.6 0 .93 1.35 1.3 8 2.16.16.03.73.19.71.48 0 .13-.02.14-.03.15-.43.3-3.7-.38-6.84-1.1a.3.3 0 0 0-.13.58c3.62.82 5.56 1.17 6.5 1.17.39 0 .64-.05.82-.18.21-.16.25-.38.27-.58.05-.89-1.16-1.09-1.21-1.1-2.8-.37-7.5-.98-7.5-1.58 0-.03 0-.1.03-.13.07-.05.27-.03.39 0l.03.02c7.4 1.22 8.95 1.21 9.5.76a.68.68 0 0 0 .25-.54.84.84 0 0 0-.24-.63c-.36-.36-1-.4-1.13-.4-7.74-.4-9.56-1.47-9.6-1.8 0-.11.02-.15.03-.16.04-.03.21-.03.36.02a57.98 57.98 0 0 0 11.82 1.32h.04c.44 0 6.33-.03 11.82-1.32.12-.05.29-.05.33-.02.01 0 .03.05.02.15-.03.35-1.85 1.42-9.58 1.82-.08 0-.76.01-1.14.4a.84.84 0 0 0-.24.62c0 .22.09.4.25.54.55.45 2.11.46 9.51-.77h.03c.11-.04.31-.06.38 0 .03.02.04.1.04.13 0 .6-4.7 1.2-7.52 1.58-.05 0-1.25.2-1.2 1.1.02.19.06.41.27.57.48.35 1.69.3 7.32-1 .08 0 .14-.05.18-.12s.06-.15.04-.22a.3.3 0 0 0-.35-.22c-3.14.71-6.41 1.4-6.84 1.09 0 0-.02-.02-.03-.15-.02-.28.51-.44.7-.48 6.66-.87 8.01-1.23 8.01-2.15 0-.34-.15-.52-.28-.61-.31-.23-.75-.12-.87-.09-4.16.69-8.48 1.33-9.02.89-.02-.02-.03-.04-.03-.1 0-.09.02-.15.07-.2.16-.17.56-.23.74-.23z"/>
  <path fill="rgb(59 130 246)" d="M1.11.1a.13.13 0 0 1 .15-.1l.98.2.31.04.2.04 1.31.18.78.1 1.11.1c.2.03.42.05.63.06l.32.02a54.95 54.95 0 0 0 3.73.19h.19l.35.01 1.63.02 1.62-.02h.35l.19-.01c.35-.02.7-.02 1.06-.03.23 0 .45-.02.67-.03l.36-.02 1.68-.1.28-.03c.2 0 .4-.03.6-.05l.3-.03 2.31-.27.55-.08.58-.1.98-.19c.07-.01.13.03.15.1a.12.12 0 0 1-.09.15l-.96.27-.85.2-.28.05c-.33.07-.69.14-1.07.2l-.69.11-.68.1-.8.1-1.97.19-.37.02a24.41 24.41 0 0 1-1.74.1h-.2l-.34.01-1.64.03-1.64-.03h-.36l-.18-.02a112.94 112.94 0 0 1-1.73-.09l-.39-.02-1.37-.12-.6-.07c-.26-.02-.5-.06-.75-.1L4.36.99 3.3.77 3 .7C2.68.63 2.4.57 2.17.5L1.2.25A.12.12 0 0 1 1.1.1zm21.31 7.92-.73.17-.73.16a52 52 0 0 1-2.92.55c-.54.08-1 .13-1.45.15a4.5 4.5 0 0 1-1.02-.08.39.39 0 0 1-.18-.1l-.07-.1a6.8 6.8 0 0 1-.07-.13l-.02-.02a8.71 8.71 0 0 1-.49-1.01c-.2-.44-.4-.9-.65-1.34a4.7 4.7 0 0 0-.44-.68 1.8 1.8 0 0 0-.32-.32.9.9 0 0 0-.53-.2h-.01c-.1 0-.21.03-.31.07a1.94 1.94 0 0 0-.55.48c-.15.21-.28.43-.41.69l-.33.69-.31.67a11.13 11.13 0 0 1-.5.96l-.11.16-.05.06-.02.03h-.01a.63.63 0 0 1-.21.12 3.97 3.97 0 0 1-1 .13A10 10 0 0 1 7.53 9a43.7 43.7 0 0 1-4.36-.98.13.13 0 0 0-.07.23 27.06 27.06 0 0 0 5.1 1.4 8.77 8.77 0 0 0 1 .06c.22 0 .4 0 .57-.03l.43-.1c.12-.05.28-.12.42-.26l.05-.05.04-.04a1.65 1.65 0 0 0 .19-.25c.08-.11.14-.23.2-.34.14-.23.26-.47.36-.69l.23-.48.41-.86c.1-.17.22-.4.37-.59.06-.1.13-.16.2-.21.12-.1.15-.1.26 0 .07.04.14.11.2.2.13.15.24.33.39.58.18.32.34.67.5 1l.15.32a28.44 28.44 0 0 0 .63 1.19l.08.13.05.06a1 1 0 0 0 .47.27c.13.04.26.06.43.07.3.02.57.01.79 0 .46-.04.94-.1 1.5-.21a29.9 29.9 0 0 0 2.93-.72c.52-.14.98-.3 1.44-.44.06-.03.1-.1.08-.16s-.09-.1-.15-.08z"/>
</svg>