<svg xmlns="http://www.w3.org/2000/svg" xml:space="preserve" viewBox="0 0 25.588 9.714">
  <path fill="rgb(244 63 94)" d="M15.436 4.332c3.007-.155 10.016-.694 10.149-2.354.031-.391-.141-.583-.246-.663-.313-.244-.783-.108-.861-.08-5.393 1.273-11.214 1.298-11.677 1.298h-.02c-.067 0-6.026.035-11.658-1.294-.09-.03-.556-.168-.874.077-.128.098-.274.294-.245.662.133 1.661 7.143 2.199 10.165 2.354.165 0 .558.054.722.221a.262.262 0 0 1 .076.203c-.001.065-.016.082-.036.099-.535.445-4.862-.198-9.007-.881-.128-.04-.57-.148-.888.083-.127.092-.278.272-.278.609 0 .922 1.348 1.285 8.006 2.156.154.026.726.185.706.48-.008.125-.024.138-.034.145-.422.312-3.693-.375-6.838-1.092a.293.293 0 0 0-.13.572c3.622.825 5.566 1.177 6.5 1.177.392 0 .645-.058.818-.188.214-.16.256-.38.269-.574.06-.891-1.15-1.092-1.205-1.101-2.808-.366-7.507-.98-7.507-1.576 0-.033.003-.111.037-.135.067-.049.268-.031.387.008l.033.008c7.392 1.22 8.954 1.216 9.504.759a.685.685 0 0 0 .248-.539.842.842 0 0 0-.244-.624c-.36-.367-1.007-.395-1.129-.397C2.437 3.348.615 2.275.587 1.931c-.008-.105.012-.146.02-.152.043-.033.215-.025.362.025C6.428 3.095 12.317 3.12 12.787 3.12h.039c.444 0 6.334-.025 11.821-1.324.119-.041.292-.05.335-.017.008.006.028.047.02.152-.027.345-1.849 1.418-9.586 1.815-.077 0-.76.017-1.134.397a.84.84 0 0 0-.244.624.688.688 0 0 0 .248.539c.55.458 2.115.46 9.516-.761l.031-.008c.11-.035.311-.054.378-.005.032.024.036.103.036.136 0 .595-4.702 1.21-7.516 1.578-.052.008-1.256.211-1.196 1.099.014.195.056.416.269.574.473.35 1.683.294 7.318-.99.076-.017.141-.062.183-.129s.056-.145.038-.222a.296.296 0 0 0-.351-.221c-3.146.717-6.416 1.401-6.838 1.092-.011-.008-.026-.021-.034-.146-.02-.283.514-.446.696-.479 6.667-.872 8.016-1.235 8.016-2.157 0-.336-.151-.517-.278-.609-.316-.231-.759-.122-.871-.086-4.162.687-8.488 1.328-9.022.885-.021-.017-.036-.034-.036-.101a.259.259 0 0 1 .076-.201c.161-.169.555-.223.735-.223z"/>
  <path fill="rgb(59 130 246)" d="M1.111.096a.123.123 0 0 1 .145-.094l.983.189c.099.021.204.036.314.053l.203.031 1.306.187.776.098L5.95.666c.206.021.416.042.632.055l.323.023c.526.039 1.071.078 1.633.103l.365.02c.22.012.443.024.667.03.35.009.704.019 1.061.032l.185.006c.116.004.231.008.349.009l1.631.014 1.627-.014c.115 0 .229-.005.344-.009l.191-.007c.356-.013.71-.022 1.062-.031.225-.006.447-.018.667-.03l.365-.019c.58-.025 1.14-.066 1.681-.105l.275-.02c.207-.012.408-.033.605-.053.1-.01.198-.021.296-.029L22.22.372c.193-.032.375-.06.546-.085.215-.033.411-.062.586-.095l.982-.189a.125.125 0 0 1 .058.243l-.965.271c-.244.063-.529.125-.85.196l-.28.062c-.326.07-.685.132-1.064.198l-.692.112-.685.097c-.258.036-.524.073-.798.1l-1.968.184-.368.027c-.223.017-.448.033-.675.044-.352.017-.709.033-1.068.047l-.195.008c-.116.005-.232.01-.349.011l-1.637.025-1.64-.025c-.117-.001-.235-.006-.353-.011l-.189-.007c-.361-.014-.719-.03-1.071-.047a33.52 33.52 0 0 1-.658-.044c-.129-.01-.258-.02-.386-.028l-1.369-.12-.601-.063c-.258-.025-.51-.06-.755-.094L4.356.973a26.212 26.212 0 0 1-1.06-.198L2.999.71C2.684.64 2.405.578 2.166.517L1.198.245a.124.124 0 0 1-.087-.149zm21.306 7.92c-.241.059-.482.115-.725.169l-.728.164c-.434.095-.945.204-1.459.301-.558.108-1.021.188-1.462.251-.544.077-1 .132-1.457.15a4.5 4.5 0 0 1-.701-.017 1.681 1.681 0 0 1-.312-.06.39.39 0 0 1-.181-.096l-.07-.11a6.802 6.802 0 0 1-.073-.124l-.014-.025a8.713 8.713 0 0 1-.167-.318 25.012 25.012 0 0 1-.325-.691 20.826 20.826 0 0 0-.651-1.341 4.697 4.697 0 0 0-.438-.675 1.804 1.804 0 0 0-.322-.321.904.904 0 0 0-.53-.2h-.018a.786.786 0 0 0-.304.069 1.08 1.08 0 0 0-.234.144c-.139.114-.24.238-.312.333-.158.212-.28.428-.415.688-.118.229-.227.459-.332.688l-.312.679c-.092.2-.202.434-.321.653a3.615 3.615 0 0 1-.288.459l-.048.059a.155.155 0 0 0-.021.033l-.007-.004a.629.629 0 0 1-.211.125c-.086.034-.185.06-.304.08-.196.035-.422.05-.691.05a10.797 10.797 0 0 1-1.452-.131 21.991 21.991 0 0 1-1.459-.264 43.693 43.693 0 0 1-2.177-.522 29.375 29.375 0 0 1-.72-.195.125.125 0 0 0-.079.237 31.536 31.536 0 0 0 2.871.926c.542.142 1.025.253 1.476.341.236.045.483.085.755.121a8.77 8.77 0 0 0 1.008.072c.208 0 .393-.013.566-.038.162-.024.295-.058.423-.104.123-.046.281-.116.427-.254l.044-.044.039-.044a3.758 3.758 0 0 0 .403-.594c.131-.229.248-.465.354-.685.077-.159.151-.32.225-.479.139-.3.271-.583.416-.861.093-.176.219-.403.361-.591.069-.091.136-.163.198-.213.122-.097.152-.089.27 0 .064.047.133.116.205.205.12.148.236.326.377.577.18.323.345.671.505 1.007l.149.313c.109.226.219.452.336.679.06.114.122.229.187.341.034.057.068.114.104.171l.084.126c.019.026.035.049.053.067a.99.99 0 0 0 .467.268c.126.035.257.058.426.073.296.021.577.007.791-.007.461-.035.94-.101 1.511-.208.473-.091.968-.2 1.473-.324a41.7 41.7 0 0 0 1.451-.391c.514-.148.983-.295 1.434-.448.063-.021.099-.089.08-.153s-.081-.107-.149-.087z"/>
</svg>