<svg xmlns="http://www.w3.org/2000/svg" xml:space="preserve" viewBox="0 0 180 68">
  <path fill="#FF0201" d="m22.256855 21.4720249-6.2653875-.0014191L9.789279 46.427475l6.2309618.0014076 3.8935871-15.6281605 6.2309608.0014114 2.3430271-9.3286972-6.2309608-.0014114z"/>
  <path fill="#125BFF" d="m34.7187767 21.4748478-2.3430252 9.3286991-1.5505543 6.2650375-6.2309608-.0014114-2.3430347 9.363121 12.4963493.0028305L38.64114 30.804964l2.3085976-9.3287067-6.2309609-.0014095z"/>
  <path fill="#000" d="M74.6516724 22.9641743c-.0001144.5163784-.1723251.8950157-.5510864 1.2391815-.3443222.3097496-.7574615.481781-1.1705627.4816875s-.8261642-.1723118-1.1703415-.4822178c-.3441849-.3099041-.5506439-.723053-.5505295-1.2394314.0001221-.5163784.1723328-.8950157.5510864-1.2391815.3443222-.3097496.7574615-.4817829 1.1705627-.4816895.4131012.0000954.8261642.1723137 1.1703491.4822197.3786011.3443376.5506363.7574788.5505219 1.2394315zm-27.4365387-1.5209217 10.3275604.0023384c2.8572922.0006466 5.0947418.8273582 6.5402908 2.2046928 1.0325089 1.0674152 1.6174469 2.3757057 1.6170731 3.9936905l-.0000153.0688515c-.0007324 3.2359676-1.997776 4.9223518-3.9602051 5.7825356 2.9603653.8957253 5.3353119 2.6175232 5.3345413 6.0256195l-.0000153.0688515c-.0009689 4.2687225-3.616188 6.8153687-9.0553703 6.8141365l-10.7750893-.0024376-.0287703-24.9582787zm9.8430824 11.1559944c3.3736725.0007629 5.7493591-1.5478325 5.7500229-4.4739742l.0000153-.0688515c.0005608-2.4786148-1.9613152-4.0626183-5.5415421-4.0634289l-7.2637177-.0016441-.0019455 8.6063004 7.0571632.0015984h.0000039zm.9957733 11.2916946c3.7867699.0008545 6.1280708-1.6854477 6.1286964-4.4738884l.0000153-.0688515c.000618-2.719593-2.2710953-4.2692413-6.6430969-4.2702293l-7.5735435-.0017166-.0019951 8.812851 8.0899238.0018348zM71.552269 27.9895515l2.7540131.0006237-.0041733 18.4519062-2.7540207-.0006218.0041809-18.4519081zm10.0493011 12.6019021.0023041-10.1554356-4.165451-.0009441.0005417-2.4097633 4.165451.0009422.0014801-6.5407887 2.7540207.0006237-.0014801 6.5407887 7.5735397.0017166-.0005417 2.4097633-7.5735474-.0017147-.0022202 9.8111839c-.0005646 2.4786148 1.1695328 4.0624352 3.4071808 4.0285187 1.5491409-.0340729 2.7884827-.1714935 3.9246216-.6531906l-.0005341 2.3409157c-.9640198.5161591-2.7197723.8255882-4.5787277.7907448-3.3392333-.0696068-5.507492-2.4110146-5.5066375-6.1633606zm14.290802-19.1371785 5.9211349.0013409 6.5728226 10.5700264 6.5775986-10.567049 5.9211426.0013409-.0056534 24.958271-5.4736023-.0012398.003685-16.2831192-7.0251541 10.6702232-.1377029-.0000343-6.9859161-10.570118-.0036621 16.1798439-5.3703384-.0012169.0056534-24.9582691h-.0000078zm29.8466416.0067597 18.8305969.0042629-.0011139 4.8883801-13.3914032-.0030327-.0011444 5.0605049 11.1537628.0025253-.0010986 4.8883801-11.119339-.0025177-.0011902 5.2326279 13.5635223.0030746-.0010986 4.8883743-19.0027161-.004303.0056534-24.9582691-.0344314-.0000076zm29.2930603 12.2964306-8.3281097-12.2572594 6.4375153.0014591 5.2308044 8.0911064 5.2688751-8.0887299 6.230957.0014114-8.3336639 12.1846371 8.6722717 12.7737122-6.4375153-.0014572-5.6093597-8.5731468-5.6476746 8.5705948-6.2309723-.0014076 8.746872-12.7009201z"/>
</svg>