<svg xmlns="http://www.w3.org/2000/svg" xml:space="preserve" viewBox="0 0 180 68">
  <path fill="#5841D8" d="M24.943758 21.4318523c2.7791882-.1789989 5.6054802.3768387 8.1020412 1.6204071 3.6836014 1.8088284 6.6135254 5.0779076 7.9984093 8.9310875.6123619 1.7051983.9420967 3.5046024.9420967 5.3134327v6.7171555c0 .2732086.0094223.5558357-.0565262.8196259-.1507378.6783104-.6312065 1.2718315-1.2718315 1.5638809-.4427872.2072601-.951519.2355232-1.4225693.1601562-1.026886-.1884193-1.8182487-1.1493568-1.8276672-2.1856651-.0094223-2.0820389 0-4.1640739 0-6.2555313.0188408-.5935211.0188408-1.2247276-.3014755-1.7428818-.5181541-.9609375-1.7805634-1.4225655-2.7886086-1.0080414-.8573112.3014679-1.4790916 1.1681976-1.4885139 2.0820351-.0094223 2.1197205 0 4.2300186 0 6.3403168 0 .3956833.0188408.8007851-.0942116 1.1776237-.2166824.7442551-.8384647 1.3471985-1.5827236 1.5544624-.9797802.2732086-2.1008778-.1601601-2.6001911-1.0645714-.3391552-.5464172-.3108921-1.2058868-.3014698-1.8088264-.0094223-2.1008797.0094204-4.2017593-.0094223-6.3026352-.0188408-1.0645714-.8949928-2.0255089-1.9595623-2.1668243-.6877327-.1036301-1.413147.1224747-1.9124603.6123619-.4522057.4239464-.7065735 1.0363083-.7065735 1.6580925v6.1236382c-.0094204.5181541.0565281 1.0457268-.1413136 1.5261955-.3014717.876152-1.1870441 1.516777-2.1197205 1.4885178-.951519.0565262-1.8841953-.6029434-2.185667-1.4979362-.1695766-.4427872-.1318932-.9138336-.1318932-1.3848839 0-2.1102982.0094204-4.2205963 0-6.3403168-.0094204-1.0457306-.8196239-1.9972496-1.8465118-2.1856689-.9232559-.1978416-1.9501419.2732086-2.4211912 1.1116753-.1978397.3485794-.3014708.7536812-.3014708 1.1493607v6.8584709c.0094204.6688881-.3014717 1.3283577-.8102045 1.7523003-.7725201.6783104-2.0255098.7159958-2.8451347.0942116-.5935221-.4051018-.9420977-1.0928345-.9420977-1.8088303v-6.9432602c.0094204-2.6284523.668889-5.2474823 1.9218788-7.5556221 1.0268869-1.8841953 2.4306126-3.5705509 4.1169682-4.908329 2.543663-2.0631943 5.727953-3.2973423 8.9876118-3.495182l.0000057-.0000022z"/>
  <path fill="#000" d="M87.385994 29.4867878h-3.4763412c.1224747-2.440033.6312027-4.6351204 2.8639755-6.0200043 2.2139359-1.3754635 4.6539688-1.6863556 7.1882095-1.4790936 1.3754578.1130505 2.7132416.4051018 3.9756546.9892025 2.2139282 1.0174656 3.3067551 2.7603455 3.3067551 5.1815376.0094223 4.2959652 0 8.6013508 0 12.8973179 0 1.5827255.3203201 1.8747749 1.9030457 1.7146149.1695709-.0188408.3391495-.0471039.5181503-.075367.0188446.0847893.0376892.1507378.0376892.2166824v2.6096115c-1.262413.4239464-2.524826.5558395-3.7966537.2166824-.9232559-.254364-1.516777-.9232559-1.8370895-1.8088264-.1601639-.4522095-.2543716-.9232559-.4051056-1.4508324-.131897.1507378-.2449417.2920532-.3768387.4145241-2.7415009 2.7791862-6.010582 3.9473915-9.8543396 2.9770279-2.7226639-.6877327-4.6068573-3.1842918-4.6728058-6.0011635-.018837-.9044113.0565262-1.8276672.2732162-2.7038193.4993057-2.0349312 1.9407196-3.2596588 3.7778091-4.0792847 1.2906723-.5840988 2.6661377-.7536774 4.0510178-.9232559 1.6204071-.2072601 3.2408218-.4051018 4.8612213-.6312046 1.1022568-.1507339 1.6580887-.7348366 1.8276749-1.8465099.3485794-2.2045097-.6312103-3.6930237-2.7886047-4.2205982-1.28125-.3108921-2.5907745-.3674183-3.8908691-.1224728-1.921875.3485756-2.9958649 1.4319878-3.3727036 3.3444462-.0188446.2449455-.0565262.4993134-.1130524.8007832l-.0000153.000002zm10.2406082 4.2677021c-1.6015701.8667297-3.1560287 1.0739937-4.7199097 1.3095169-1.3189392.2072601-2.6567154.3956795-3.9191284.8102036-1.6957703.5558357-2.4494476 1.9501419-2.308136 3.8154945.1224747 1.5544624 1.1870422 2.8074532 2.8545532 3.0806618 2.5907669.4333649 4.8894882-.2826309 6.6983109-2.2045097.5275726-.5558357.9515228-1.3660393 1.0645752-2.1197205.2355194-1.4979325.2261047-3.0335541.3297348-4.6916466zm49.4884033 4.4843864c-.0847931.3768387-.131897.6971512-.2261047.9986229-1.50737 4.5597534-4.5314941 6.5287399-8.2150879 6.9338417-6.3874359.7065735-10.0333557-3.4763412-10.9754486-7.91362-.7442551-3.5234451-.6406326-7.0280495.9044189-10.3442345 1.4602509-3.1277657 3.8154907-5.190958 7.3200836-5.8033218 4.1829224-.7348366 10.1275635 1.3283577 11.1261749 7.8853569.254364 1.6863556.3108978 3.4103966.4710541 5.1909599h-16.2323456c.1413116 2.4023476.5181427 4.6445427 2.2704468 6.396843.7254181.7254143 1.6580963 1.0739899 2.6661377 1.2435684 3.297348.5746803 6.0011597-.9986229 7.0751495-4.1546516.1130524-.3391533.2637939-.4427834.6123657-.4333649 1.0457306.0188408 2.0914612 0 3.2031403 0h.0000153zm-15.6953583-6.1424751h12.1530609c-.131897-1.4037266-.3862457-2.7226639-1.0363007-3.9473915-.6312103-1.1870441-1.5733185-2.0349331-2.8545685-2.468298-4.2017517-1.4414082-8.5448151 1.9124584-8.2621918 6.4156857v.0000038zm24.4380188 13.3118401h-3.6930084V22.4964218h3.5045929v3.212553c.2637939-.3014717.4333649-.4898911.5935211-.6688881 2.5059814-2.8639774 5.6714325-3.6176567 9.2514038-2.7320843 2.4965515.6123638 3.8814392 2.3740864 4.352478 4.8423824.1978455 1.0080452.3108978 2.0443516.3203278 3.0712395.037674 4.9177494.0188293 9.8355007.0188293 14.753252 0 .1318932-.0188293.2732086-.0282593.4333649h-3.7778168v-.6217842c0-4.5880165.0282745-9.1854553-.0188293-13.7734699-.0094299-1.0174656-.1507416-2.0631943-.4427948-3.0335541-.4804688-1.6109867-1.7617188-2.4682961-3.4480743-2.5248222-3.0618134-.1036301-5.5018463 1.516777-6.246109 4.2582817-.2637939.9797821-.3485718 2.0349312-.3580017 3.0618191-.0376892 3.9850731-.0188293 7.9795685-.0282593 11.9646416v.6688881zm-48.5839844-22.9118195h3.5611343v9.7036057c.2261047-.2166805.3580017-.3297329.4898834-.4522057 2.911087-2.9676075 5.8315887-5.9446373 8.7332458-8.9216652.2449417-.2543659.4898834-.3674183.8478851-.3674183 1.3660431.0188408 2.7415009.0094204 4.2488632.0094204-.2072601.2166824-.3203201.3485775-.4427872.4804707-2.5625 2.5719261-5.115593 5.1438541-7.6969299 7.7063599-.2920456.282629-.3014679.4710484-.0942078.8102036 2.7980194 4.4561214 5.5772095 8.9122448 8.3658295 13.3777866.1036301.1601562.1978378.3203163.3297348.5558395-.1884232.0188408-.3297348.0376816-.4710464.0376816-1.2718353 0-2.543663-.0094223-3.8154984.0094223-.3485718.0094223-.5181503-.1224709-.6877365-.4051018-2.1291351-3.5893936-4.2771225-7.1693649-6.4156799-10.7587547-.0942154-.1601562-.1978378-.310894-.3203201-.4993134-.9892044.9797821-1.9501343 1.9313011-2.9016647 2.9110794-.1224747.1224747-.1507339.3674202-.1507339.5652618-.0094147 2.5153999-.0094147 5.0213814-.0094147 7.5367813v.6500473c-.7065735 0-1.3848801.0094223-2.0632019 0-.4898834-.0094223-1.1399307.1224709-1.4225616-.1318932-.2449417-.2261047-.0942078-.9044151-.0942078-1.3848839V23.1841526c.0094147-.2261028.0094147-.4427853.0094147-.6877308zm-41.0283584-.0282631c-2.8922386 2.8639774-5.699688 5.6620083-8.5259819 8.4600391 3.0335541 4.8612232 6.0011635 9.6188183 9.0347176 14.4800434-.2449417.0094185-.3956833.0282631-.5558395.0282631-1.2341461 0-2.4777145-.0094223-3.7118683.0094185-.3579941.0094223-.5558395-.1224709-.7348328-.4239426-2.1291389-3.5893936-4.2771225-7.1693649-6.4156876-10.7587547-.0847893-.1507378-.178997-.2920532-.3203125-.5181541-.5464134.565258-1.0174637 1.1682014-1.6109886 1.6109886-1.1964645.9044113-1.5544586 2.0349312-1.4602509 3.5140228.1224709 1.9501419.0282631 3.9191284.0282631 5.8786888v.6406288h-3.5328674v-22.902399h3.5140228v9.5622921c.075367.0471039.1507378.1036301.2261047.1507339.0942078-.1601562.1507339-.357996.2732086-.4804688 2.8922386-2.9676075 5.8033218-5.9163742 8.6955605-8.8839817.2543678-.2637882.5087357-.3956814.8949928-.386261 1.2058868.0282631 2.4117661.0094223 3.6082382.0094223.169571.0094205.3391495.0094205.5935212.0094205zm7.0563202 3.7966538c1.7899857-2.6190319 3.6930237-4.8046989 7.2258835-4.1734924v3.9191265c-.9420929.0659465-1.8653489.0376834-2.7415009.2166824-2.176239.4522076-3.8531799 2.440033-4.1829147 4.832962-.0659485.4710484-.0942078.9609394-.0942078 1.4414082-.0094223 4.088707 0 8.1868324 0 12.2755356v.6312065h-3.6836014V22.5058422h3.4857635c-.0094222 1.2247276-.0094222 2.4306126-.0094222 3.7589703z"/>
</svg>