<svg width="180" height="68" viewBox="0 0 180 68" fill="none" xmlns="http://www.w3.org/2000/svg">
<path d="M10.1004 30.3437C10.1004 28.3097 10.1274 26.2723 10.0768 24.2383C10.0531 23.3046 10.4143 22.9778 11.3492 23.0012C13.4082 23.0545 15.4738 23.0312 17.5361 23.0378C18.2414 25.4321 18.2519 27.9739 17.5665 30.3737C15.1417 31.1726 12.5185 31.162 10.1004 30.3437Z" fill="#BFF0E2"/>
<path d="M32.3299 37.633C32.3299 39.6737 32.3299 41.7111 32.3771 43.7518C32.4041 44.6788 32.0396 45.0223 31.1114 44.9989C29.0457 44.9522 26.9767 44.9522 24.911 44.9522C24.1237 42.5769 24.1155 40.0166 24.8874 37.6363C27.3031 36.8431 29.9135 36.8419 32.3299 37.633V37.633Z" fill="#BFF0E2"/>
<path d="M24.9785 23.068C27.0543 23.068 29.1301 23.068 31.2059 23.0113C32.0835 22.988 32.421 23.3448 32.4041 24.1751C32.3602 26.2225 32.3535 28.2698 32.3332 30.3139C30.0684 31.2709 27.726 30.7374 25.4139 30.6473C25.2115 30.6349 25.0205 30.5503 24.8765 30.4093C24.7325 30.2682 24.6452 30.0803 24.6309 29.8804C24.5397 27.6129 23.9828 25.2955 24.9785 23.068Z" fill="#00C58A"/>
<path d="M10.1001 37.9964V37.6629C10.2576 37.5278 10.4338 37.4156 10.6233 37.3295C12.8982 37.1394 15.1731 36.876 17.4278 37.5029C17.5938 37.6314 17.7249 37.7987 17.8092 37.9897C18.0736 40.1263 18.0849 42.2861 17.843 44.4253C17.7516 44.6114 17.6269 44.7797 17.4751 44.9221C15.3115 44.9388 13.148 44.9621 10.9878 44.9721C10.6739 44.9721 10.3127 45.0555 10.1575 44.6387C10.306 42.4212 10.4072 40.2071 10.1001 37.9964Z" fill="#00C58A"/>
<path d="M17.5259 37.6495H10.4378C10.0766 35.9823 10.3703 34.2883 10.2623 32.6111C10.2218 31.9475 10.4378 31.2806 10.1003 30.6704C10.0668 30.5617 10.0668 30.4457 10.1003 30.337L17.4482 30.2803L17.6879 30.477C18.1917 32.7603 18.2101 35.1221 17.7419 37.4128L17.5259 37.6495Z" fill="#7FE2C4"/>
<path d="M17.5255 37.9932C17.5255 37.8798 17.5255 37.7631 17.5255 37.6597L17.4985 37.6831C19.787 36.7094 22.1497 37.2329 24.4921 37.3496C24.6875 37.4245 24.8565 37.5544 24.9781 37.7231C24.9556 40.1373 24.9309 42.5503 24.9039 44.9623H24.7351L24.5697 44.939C22.3285 44.5888 20.0536 45.059 17.8192 44.6889C17.5357 43.055 17.7787 41.4077 17.6876 39.7671C17.6538 39.1703 17.8631 38.5534 17.5255 37.9932Z" fill="#7FE2C4"/>
<path d="M32.3299 37.6328L24.9853 37.7061L24.8469 37.5661C24.7698 37.3711 24.7454 37.1597 24.776 36.9525C24.8435 35.352 24.803 33.7514 24.8098 32.1508C24.8098 31.0304 25.1473 30.3902 26.4738 30.4836C28.4145 30.637 30.3756 30.3202 32.3164 30.657C32.3209 32.9889 32.3254 35.3142 32.3299 37.6328Z" fill="#7FE2C4"/>
<path d="M32.316 30.6674C30.4157 30.6674 28.5154 30.7141 26.6185 30.6674C25.6059 30.6374 25.211 31.0009 25.2684 32.0012C25.3359 33.265 25.3022 34.5355 25.2684 35.8026C25.2684 36.3294 25.4608 36.923 24.9309 37.3398C24.239 36.5362 24.4617 35.5592 24.4516 34.6455C24.4111 30.4974 24.7588 30.8975 20.5093 30.8475C19.5271 30.8475 18.4841 31.0809 17.5964 30.4073L17.4614 30.304L17.5256 23.0381L24.9511 23.0681C24.9511 25.0488 24.9984 27.0328 24.9309 29.0135C24.8938 30.0372 25.2684 30.3473 26.281 30.3273C28.2893 30.264 30.3009 30.3273 32.3092 30.3273L32.316 30.6674Z" fill="#7FE2C4"/>
<path d="M101.874 29.7471V42.895C101.796 42.825 101.651 42.7516 101.651 42.6783C101.718 38.3668 101.502 34.0519 101.874 29.7471Z" fill="#121721"/>
<path d="M114.359 42.9515C114.359 42.7447 114.359 42.5346 114.342 42.3279C114.342 40.0804 114.342 37.8363 114.342 35.5922C114.342 35.062 114.16 34.4851 114.622 34.0283C114.638 36.796 114.655 39.5636 114.673 42.3312C114.686 42.5647 114.777 42.8914 114.359 42.9515Z" fill="#121721"/>
<path d="M17.863 44.6487C20.0974 44.8255 22.3656 44.2953 24.5832 44.9322H17.4951C17.4987 44.838 17.5158 44.7448 17.5457 44.6554C17.6403 44.4887 17.7483 44.492 17.863 44.6487Z" fill="#7FE2C4"/>
<path d="M10.1001 30.6704C10.8325 32.2343 10.2824 33.8882 10.4376 35.4954C10.5051 36.2024 10.4376 36.9193 10.4376 37.6329C10.3261 37.6524 10.2133 37.6635 10.1001 37.6662C10.1001 35.332 10.1001 33.0001 10.1001 30.6704Z" fill="#7FE2C4"/>
<path d="M10.1 37.9966C10.5994 40.1803 10.6166 42.4447 10.1507 44.6356C9.9684 42.4268 9.95148 40.2078 10.1 37.9966V37.9966Z" fill="#00C58A"/>
<path d="M66.0991 31.6607V30.0135C66.1362 29.9688 66.1828 29.9328 66.2356 29.9081C66.2884 29.8834 66.3461 29.8706 66.4046 29.8706C66.463 29.8706 66.5207 29.8834 66.5736 29.9081C66.6264 29.9328 66.673 29.9688 66.71 30.0135C66.71 30.6804 66.6797 31.3473 66.6662 32.0142L66.3725 31.9308C66.3062 31.9149 66.2457 31.8813 66.1974 31.8337C66.1492 31.7861 66.1152 31.7262 66.0991 31.6607V31.6607Z" fill="#121721"/>
<path d="M66.4672 42.6815C66.0588 42.0446 66.1026 41.3477 66.1296 40.6274C67.2975 41.141 66.7844 41.9246 66.4672 42.6815Z" fill="#121721"/>
<path d="M148.442 38.0298C148.567 36.806 148.105 35.5422 148.702 34.3618C148.773 35.5889 149.202 36.8494 148.442 38.0298Z" fill="#121721"/>
<path d="M114.511 40.6176C114.595 38.4235 114.369 36.2227 114.635 34.032C114.616 33.3296 114.449 32.6388 114.145 32.0038C113.84 31.3688 113.405 30.8035 112.867 30.344C112.468 29.5137 111.675 29.7105 110.987 29.6438L111.014 29.6704C110.288 28.9702 109.448 29.337 108.651 29.4304C108.044 29.4598 107.459 29.6599 106.963 30.0072C105.681 30.9075 105.688 30.9175 105.259 29.6738C104.132 29.5604 103.008 29.4304 101.884 29.7505C101.519 31.6578 101.728 33.5852 101.735 35.4992C101.735 37.9667 101.509 40.4409 101.884 42.8984C103.002 43.0565 104.136 43.0744 105.259 42.9518C106.052 42.6683 105.596 42.0181 105.634 41.558C105.765 39.0404 105.387 36.5062 105.914 34.002C106.474 33.2084 107.017 32.3981 107.989 32.0246H109.282L110.511 33.0516C110.588 33.2617 110.669 33.4718 110.75 33.6819C110.771 35.069 110.75 36.4562 110.821 37.8366C110.821 37.9345 110.821 38.0312 110.821 38.1267C110.821 38.4002 110.821 38.6736 110.821 38.947C110.761 40.2808 110.578 41.5946 111.004 42.8984C112.121 43.0659 113.257 43.0816 114.379 42.9451C114.419 42.9094 114.452 42.8661 114.475 42.8179C114.498 42.7696 114.511 42.7173 114.514 42.6639C114.516 42.6106 114.508 42.5573 114.489 42.5071C114.471 42.4569 114.443 42.4108 114.406 42.3716C114.632 41.7914 114.49 41.1878 114.511 40.6176Z" fill="#121721"/>
<path d="M77.4096 37.9496C76.684 37.9496 76.8662 38.6765 76.7582 39.2267C76.6821 39.3626 76.6145 39.5029 76.5557 39.6469V39.6469C74.6385 41.4308 73.0015 41.084 71.5468 38.5798C71.5164 37.9429 71.4827 37.306 71.4523 36.6725V35.9789L71.5333 34.0449C72.0565 32.9912 72.6674 32.0242 73.923 31.7107L75.5465 31.9675L76.6198 33.0179C76.8122 33.5781 76.6907 34.4917 77.6898 34.2683C78.5505 34.0782 79.6711 34.9352 80.2719 33.6781C80.3262 33.3157 80.2934 32.9457 80.1761 32.5981C80.0588 32.2506 79.8604 31.9351 79.5968 31.6774C79.4865 31.3698 79.3081 31.0903 79.0745 30.8596C78.8409 30.6288 78.5581 30.4525 78.2467 30.3436C77.602 29.6767 76.7683 29.4633 75.884 29.3999C74.8928 29.1798 73.8645 29.1798 72.8733 29.3999V29.3999C70.3857 29.7034 68.7116 31.0038 67.8981 33.358L67.7361 34.2283C67.616 34.3853 67.5315 34.5661 67.4884 34.7583C67.4453 34.9504 67.4446 35.1495 67.4864 35.342C67.3558 35.9957 67.3638 36.669 67.51 37.3194C67.7496 39.5602 68.6204 41.4175 70.7705 42.4845L71.8438 42.918L72.475 43.008C73.6169 43.414 74.865 43.4222 76.0123 43.0314C78.5876 42.5812 80.0626 41.0574 80.5959 38.3264C79.6474 37.3294 78.4526 37.9496 77.4096 37.9496Z" fill="#121721"/>
<path d="M170 33.6749C169.781 31.074 169.035 30.007 166.962 29.4101C166.198 29.2201 165.398 29.2201 164.633 29.4101V29.4101C164.11 29.4601 163.594 29.5234 163.26 30.0003C162.784 30.1937 162.368 30.4438 162.294 31.0006C162.028 31.4541 161.832 31.5575 161.282 31.1907C160.445 30.6372 160.114 29.4034 158.865 29.4201C158.104 29.2216 157.304 29.2216 156.543 29.4201V29.4201C155.405 29.4201 154.832 30.4471 153.897 30.8039C153.448 30.5571 154.106 29.9036 153.485 29.7202C152.654 29.6802 151.824 29.6768 150.997 29.5935C150.17 29.5101 149.985 29.8802 149.985 30.6338C149.985 34.4785 149.954 38.3265 149.944 42.1712C149.944 42.5047 149.758 43.0182 150.437 42.9648H153.475C154.187 42.7314 153.839 42.1379 153.846 41.7244C153.88 39.5103 153.846 37.2995 153.846 35.0854C154.41 34.1317 154.305 32.7979 155.534 32.2144C156.057 32.0227 156.628 32.0028 157.164 32.1577V32.1577L157.471 32.3778L158.18 33.7416C158.16 36.4692 158.126 39.1968 158.136 41.9278C158.136 42.2813 157.825 42.8481 158.541 42.9648H161.579C162.298 42.8248 161.963 42.2579 161.967 41.8978C161.99 39.627 161.967 37.3562 161.947 35.0821C162.48 34.1051 162.21 32.6712 163.634 32.2011C164.16 32.0274 164.726 32.0111 165.261 32.1544V32.1544L166.044 33.0313C166.463 35.8757 166.135 38.7367 166.247 41.5844C166.264 42.0445 165.815 42.7047 166.638 42.9682H169.676C169.676 42.7814 169.676 42.5914 169.676 42.4013L169.733 42.3813C169.946 41.7344 169.814 41.0708 169.841 40.4173C169.943 38.1565 169.669 35.909 170 33.6749ZM152.33 29.8969C152.111 29.8769 151.892 29.8436 151.676 29.8269C151.896 29.7934 152.122 29.8175 152.33 29.8969V29.8969Z" fill="#121721"/>
<path d="M51.5348 36.0124C51.1973 35.0454 50.7349 34.2384 49.567 34.0117C49.1991 33.9383 48.892 33.4949 48.5545 33.2181C48.892 32.948 49.1586 32.5512 49.5299 32.4278C50.4142 32.0944 50.8091 31.4275 51.0724 30.6205C51.9027 28.133 50.6674 26.0289 47.849 25.0986L46.9478 24.9719C43.6671 24.4017 40.3627 24.7484 37.0684 24.7384C36.309 24.7985 36.6094 25.382 36.6094 25.7388C36.5891 31.1362 36.5891 36.5348 36.6094 41.9345C36.6094 42.3046 36.336 42.8748 37.0752 42.9348C40.3526 42.9082 43.6434 43.3383 46.9039 42.6547C47.9469 42.7348 48.7772 42.2546 49.567 41.6544C49.8747 41.5382 50.1525 41.3563 50.3806 41.1217C50.6088 40.8871 50.7816 40.6056 50.8868 40.2972C51.0508 40.1797 51.189 40.0304 51.2929 39.8584C51.3967 39.6864 51.4641 39.4954 51.4909 39.2969C51.859 38.2346 51.8744 37.0839 51.5348 36.0124V36.0124ZM40.4943 27.4627V27.3694H40.5855C40.5652 27.3927 40.5551 27.4194 40.5348 27.4427C42.2663 26.9626 44.0046 27.0659 45.7429 27.406C46.3395 27.6931 46.8433 28.1388 47.1976 28.6932C47.6094 29.3301 47.5081 29.9903 47.282 30.6539C47.0356 30.9873 46.7858 31.3208 46.5394 31.6542C44.5615 32.6179 42.533 32.5345 40.4639 31.9376L40.4201 29.31C40.2918 28.6698 40.0657 28.0229 40.5213 27.4294L40.4943 27.4627ZM47.8321 38.2399C47.6669 38.7068 47.3999 39.1322 47.05 39.486C46.7 39.8397 46.2757 40.1133 45.807 40.2872C44.0518 40.5407 42.2933 40.7374 40.5517 40.2105C40.5642 40.2379 40.5801 40.2637 40.599 40.2872H40.4977V40.1872H40.5449C40.0454 39.3703 40.3188 38.52 40.4268 37.6463L40.4943 34.7753C42.1381 34.2418 43.7953 34.4052 45.4526 34.6786C46.5529 35.0121 47.4777 35.5456 47.8355 36.7227C48.0067 36.9395 48.0993 37.2068 48.0987 37.4818C48.0981 37.7568 48.0042 38.0237 47.8321 38.2399V38.2399Z" fill="#121721"/>
<path d="M95.0558 33.3513C94.4145 30.767 92.2341 30.0701 90.0536 29.3699C89.0572 29.1773 88.0314 29.1886 87.0395 29.4032V29.4032C83.86 29.78 82.412 31.8774 81.6729 34.6751C81.6729 35.5509 81.6729 36.4301 81.6729 37.3127C82.2163 40.7905 83.9444 42.6679 86.9754 43.0747C87.8647 43.3443 88.8106 43.3753 89.7161 43.1647C90.1799 43.2176 90.6492 43.1353 91.0662 42.928C93.1555 41.981 94.8533 40.6805 95.3731 38.3063C95.5823 36.6358 95.7781 34.9652 95.0558 33.3513ZM91.6805 37.2193C91.2822 38.1063 91.4578 39.22 90.7557 39.9603C89.4056 41.3741 86.7594 40.7972 86.0303 38.9899C85.0177 36.519 85.6725 33.1079 87.3804 31.9474C87.961 31.3139 88.6293 31.4039 89.3246 31.7107C90.3135 32.0942 90.8941 32.8744 91.3734 33.7547C91.8054 34.2449 91.6805 34.9051 91.91 35.4587C91.8223 36.0455 92.1362 36.6758 91.6839 37.2193H91.6805Z" fill="#121721"/>
<path d="M148.702 34.3519C148.169 31.3876 146.147 29.9837 143.363 29.3735C142.367 29.1787 141.341 29.1878 140.348 29.4002C137.422 29.707 135.664 31.7344 135.056 34.5653C134.253 38.3133 136.295 42.7482 139.967 42.9983C141.21 43.4185 142.559 43.4185 143.801 42.9983C146.39 42.5715 148.422 40.3907 148.442 38.0166C148.824 36.8228 148.378 35.5624 148.702 34.3519ZM145.033 37.5597C144.807 38.1366 145.077 38.8735 144.446 39.3204C143.999 39.9347 143.393 40.4185 142.691 40.7208C141.888 41.1477 141.111 40.9909 140.345 40.6175C138.924 38.9502 138.705 36.9495 138.995 34.8988C139.184 33.5417 139.609 32.2712 141.104 31.731C141.32 31.5635 141.585 31.4707 141.859 31.4671C142.133 31.4634 142.4 31.5492 142.62 31.711C143.231 32.2579 144.206 32.4013 144.463 33.3382C145.067 33.7951 144.8 34.522 145.03 35.0955C145.064 35.9158 145.064 36.7394 145.033 37.5597Z" fill="#121721"/>
<path d="M133.692 37.9698C132.649 37.8964 131.569 37.7697 130.567 37.9698C129.851 38.1098 130.286 39.1468 129.865 39.637C128.42 41.2142 125.915 41.3043 124.842 38.5933L124.758 37.3195V35.3188C124.868 34.6519 124.981 33.985 125.095 33.3181C125.576 32.6418 126.218 32.0932 126.965 31.7209C126.965 31.6675 126.918 31.5708 126.915 31.5708C126.695 31.6209 126.796 31.4775 127.012 31.5041C127.063 31.5092 127.114 31.5092 127.164 31.5041C127.094 31.5703 127.027 31.6404 126.965 31.7142L128.504 31.8176L129.939 32.9813C130.094 35.0221 131.68 34.0717 132.703 34.2451C133.854 34.4385 133.885 33.815 133.523 32.9913C133.385 32.5178 133.378 31.991 132.933 31.6575C132.818 31.3532 132.635 31.0786 132.397 30.8544C132.159 30.6303 131.872 30.4625 131.559 30.3637C130.945 29.6302 130.087 29.4668 129.196 29.3867C128.205 29.1667 127.177 29.1667 126.186 29.3867V29.3867C123.148 29.8802 121.234 31.7209 121.099 34.2851C120.8 34.931 120.645 35.6323 120.642 36.3424C120.639 37.0524 120.789 37.755 121.082 38.4032V38.4032C121.437 40.8341 123.236 42.598 125.774 42.9982C126.927 43.405 128.188 43.405 129.341 42.9982C131.954 42.6647 133.196 40.9275 133.871 38.6333C133.908 38.3899 134.036 37.9931 133.692 37.9698ZM128.332 31.6342C128.396 31.6961 128.451 31.7669 128.494 31.8443C128.444 31.7712 128.39 31.7011 128.332 31.6342V31.6342ZM129.865 39.637C130.002 39.4547 130.152 39.282 130.313 39.1202C130.259 39.3836 130.151 39.597 129.865 39.6537V39.637Z" fill="#121721"/>
<path d="M64.5771 32.2112C65.2521 32.2379 66.0183 32.4846 66.6664 31.9911C66.5615 31.8882 66.4223 31.8265 66.2748 31.8177L66.1162 31.6743C66.1869 31.6291 66.2525 31.5766 66.312 31.5176C66.4571 30.9974 66.5246 30.4839 66.1871 30.0137H66.7102C65.7821 29.0667 64.5838 29.877 63.5611 29.5603L63.3485 26.3591C62.7769 26.1189 62.1622 25.9951 61.541 25.9951C60.9199 25.9951 60.3051 26.1189 59.7336 26.3591V26.3591C59.4872 27.3361 59.6391 28.3232 59.6694 29.3068C59.2408 30.0438 57.8299 28.8667 57.6882 30.4306C57.5397 32.0511 58.2822 32.4113 59.6357 32.3612C59.6964 34.9021 59.4636 37.4497 59.7403 39.9873C59.8551 41.6545 60.9588 42.4548 62.4 42.965C63.4936 43.3372 64.6818 43.3372 65.7753 42.965C65.9061 43.0052 66.047 42.9992 66.1738 42.9481C66.3006 42.897 66.4056 42.804 66.4706 42.6849C66.4706 41.9846 66.5921 41.261 66.1331 40.6308C65.3905 40.1606 64.3611 40.7509 63.6995 39.9873C63.2067 37.7898 63.6793 35.549 63.4059 33.3416C63.362 32.5313 63.6894 32.1778 64.5771 32.2112Z" fill="#121721"/>
<path d="M17.8629 44.6485H17.5254C17.5254 42.4255 17.5254 40.2025 17.5254 37.9795C18.2882 40.1769 17.6435 42.4344 17.8629 44.6485Z" fill="#7FE2C4"/>
<path d="M17.5829 30.3938C19.4359 30.3938 21.2957 30.4672 23.1352 30.3571C24.5832 30.2704 24.9849 30.844 24.914 32.1811C24.8262 33.8917 24.914 35.6123 24.914 37.3263C24.8846 37.4048 24.8598 37.485 24.8397 37.5663L17.4985 37.673C17.53 35.2455 17.5582 32.8191 17.5829 30.3938Z" fill="#00C58A"/>
<path d="M100.534 42.1314C100.534 38.0944 100.517 34.0541 100.483 30.0105C99.771 29.0435 98.7652 29.777 97.9112 29.587C96.8075 29.3402 96.497 29.8371 96.5274 30.9208C96.6151 33.8485 96.5814 36.7828 96.5679 39.7172C96.551 43.2118 96.5375 43.2118 100.179 42.9083C100.665 42.8216 100.537 42.4315 100.534 42.1314Z" fill="#121721"/>
<path d="M24.6138 26.6826C24.6138 30.0172 24.6138 30.0172 21.2791 30.0172C17.8633 30.0072 17.8633 30.0072 17.8633 26.5926C17.8633 23.3481 17.8633 23.3481 21.1137 23.3481H21.2824C24.6138 23.3481 24.6138 23.3481 24.6138 26.6826Z" fill="#7FE2C4"/>
<path d="M98.3599 24.6719C97.9684 24.6719 97.5735 24.6719 97.1819 24.6719C96.7904 24.6719 96.5069 24.8553 96.5575 25.2654C96.6655 26.1624 96.2537 27.1027 96.8107 27.9564C97.9254 28.1539 99.065 28.1731 100.186 28.0131C101.232 25.6122 100.726 24.6685 98.3599 24.6719Z" fill="#121721"/>
<path d="M119.53 39.617C119.511 39.5251 119.472 39.4385 119.415 39.3636V39.3636C118.463 39.3436 117.511 39.3236 116.563 39.2969C116.131 39.2969 115.709 39.3569 115.776 39.8871C115.901 40.8874 115.398 41.9445 116.043 42.8881L116.381 42.9348H119.418C119.48 42.8527 119.523 42.7582 119.543 42.6581C119.761 42.1797 119.873 41.6607 119.871 41.1361C119.868 40.6115 119.752 40.0934 119.53 39.617V39.617Z" fill="#121721"/>
<path d="M56.0648 29.5866C55.4492 29.635 54.8307 29.635 54.2151 29.5866C53.1013 29.4432 52.8211 29.8667 52.8414 30.9471C52.9123 34.5383 52.8414 38.1363 52.8853 41.7309C52.8853 42.141 52.5477 42.7312 53.2802 42.958H56.3179C56.4394 42.8813 56.6554 42.8012 56.6554 42.7212C56.6892 38.5764 56.6993 34.4283 56.7229 30.2835C56.7466 29.78 56.5609 29.5733 56.0648 29.5866Z" fill="#121721"/>
<path d="M53.1684 27.8997C53.8704 28.5299 55.7268 28.5299 56.4323 27.8997C57.1377 27.2695 57.1276 25.779 56.3209 24.7319H53.2831C52.4798 25.779 52.5001 27.2995 53.1684 27.8997Z" fill="#121721"/>
</svg>
