<svg width="180" height="68" viewBox="0 0 180 68" fill="none" xmlns="http://www.w3.org/2000/svg">
<path d="M10 19H21.73C23.9643 19 25.64 19.5672 26.8813 20.5126C28.2467 21.6471 28.9915 23.2857 28.9915 25.3025C28.9915 27.6345 28.0605 29.084 26.1986 29.9664V30.0924C28.6812 30.9118 30.1086 33.1807 30.1086 35.8908C30.1086 38.4748 29.1156 40.4916 27.5019 41.7521C26.1365 42.7605 24.3988 43.2017 22.0403 43.2017H10V19ZM20.5508 28.4538C21.7921 28.4538 22.723 27.7605 22.723 26.3109C22.723 24.9244 21.7921 24.2311 20.4887 24.2311H16.4546V28.3908H20.5508V28.4538ZM21.1094 37.8445C22.5368 37.8445 23.5919 36.9622 23.5919 35.3866C23.5919 33.6849 22.4748 32.9286 21.1094 32.9286H16.5167V37.9076H21.1094V37.8445Z" fill="black"/>
<path d="M31.1636 19H37.3079V43.2647H31.1636V19Z" fill="black"/>
<path d="M38.5493 34.6304C38.5493 29.1472 42.0249 25.4917 47.4244 25.4917C52.824 25.4917 56.2375 29.2102 56.2375 34.6304C56.2375 40.1135 52.824 43.769 47.4244 43.769C42.0249 43.769 38.5493 40.1135 38.5493 34.6304ZM50.0932 34.6304C50.0932 31.6051 49.1622 29.7144 47.3003 29.7144C45.4384 29.7144 44.5695 31.6051 44.5695 34.6304C44.5695 37.6556 45.4384 39.6093 47.3003 39.6093C49.1622 39.5463 50.0932 37.6556 50.0932 34.6304Z" fill="black"/>
<path d="M56.9199 34.6304C56.9199 29.1472 60.3955 25.4917 65.795 25.4917C71.1945 25.4917 74.546 29.1472 74.546 34.6304C74.546 40.1135 71.1325 43.769 65.733 43.769C60.3955 43.769 56.9199 40.1135 56.9199 34.6304ZM68.4637 34.6304C68.4637 31.6051 67.5328 29.7144 65.6709 29.7144C63.809 29.7144 62.9401 31.6051 62.9401 34.6304C62.9401 37.6556 63.809 39.6093 65.6709 39.6093C67.5328 39.5463 68.4637 37.6556 68.4637 34.6304Z" fill="black"/>
<path d="M75.7876 25.9329H81.4974V28.5169H81.6216C82.7387 26.5001 84.2903 25.4287 86.7729 25.4287C88.9451 25.4287 90.5587 26.5001 91.3656 28.3909H91.4897C92.8551 26.122 94.6549 25.4287 96.7651 25.4287C100.737 25.4287 102.413 28.3909 102.413 32.3615V43.2018H96.4548V33.4329C96.4548 31.6682 95.8962 30.5338 94.4067 30.5338C92.9172 30.5338 92.1724 31.9203 92.1724 33.8111V43.2018H86.2143V33.4329C86.2143 31.6682 85.6557 30.5338 84.1662 30.5338C82.6767 30.5338 81.9319 31.9203 81.9319 33.8111V43.2018H75.7876C75.7876 43.2018 75.7876 25.9329 75.7876 25.9329Z" fill="black"/>
<path d="M109.922 40.9328H109.86V43.2017H104.15V19H110.108V27.6975H110.233C111.35 26.1849 112.901 25.3655 115.074 25.3655C119.356 25.3655 121.839 29.2731 121.839 34.5042C121.839 40.3655 119.17 43.7689 114.701 43.7689C112.839 43.7689 110.915 42.8866 109.922 40.9328ZM115.694 34.4412C115.694 31.6681 114.701 29.8403 112.901 29.8403C111.039 29.8403 109.922 31.6681 109.922 34.4412C109.922 37.2143 111.102 39.042 112.901 39.042C114.701 39.042 115.694 37.2773 115.694 34.4412Z" fill="black"/>
<path d="M122.521 34.5674C122.521 29.1472 126.059 25.4287 131.148 25.4287C133.693 25.4287 135.617 26.248 137.106 27.6976C139.092 29.6514 139.961 32.6766 139.899 36.206H128.48C128.728 38.3489 129.721 39.4833 131.521 39.4833C132.576 39.4833 133.507 38.9791 133.879 37.8447H139.651C138.658 41.8153 135.617 43.769 131.335 43.769C126.059 43.706 122.521 40.0506 122.521 34.5674ZM128.48 32.7396H133.941C133.817 30.6598 132.7 29.5884 131.272 29.5884C129.597 29.5253 128.666 30.7228 128.48 32.7396Z" fill="black"/>
<path d="M146.664 28.895H146.788C148.029 26.5001 149.643 25.5547 151.691 25.5547C152.188 25.5547 152.498 25.6177 152.684 25.7438V31.0379H152.56C149.022 30.4076 146.974 32.1093 146.974 36.0169V43.2648H140.954V25.9328H146.664V28.895Z" fill="black"/>
<path d="M153.305 43.2649H159.077C159.325 44.0212 160.07 44.7145 161.497 44.7145C163.421 44.7145 164.104 43.517 164.104 41.6893V40.4287H163.98C163.049 41.5632 161.746 42.3825 159.884 42.3825C156.222 42.3825 152.995 39.6094 152.995 34.1893C152.995 29.2103 155.601 25.3657 159.573 25.3657C161.87 25.3657 163.235 26.3111 164.166 27.7607H164.29V25.8699H170V40.8699C170 43.643 169.069 45.7859 167.642 47.0464C166.152 48.3699 164.042 48.9372 161.621 48.9372C157.029 49.0002 153.864 47.1094 153.305 43.2649ZM164.352 33.9372C164.352 31.7943 163.359 30.0296 161.621 30.0296C159.946 30.0296 158.891 31.5422 158.891 33.9372C158.891 36.2691 159.946 37.9077 161.621 37.9077C163.297 37.9077 164.352 36.2061 164.352 33.9372Z" fill="black"/>
</svg>
