<svg width="180" height="68" viewBox="0 0 180 68" fill="none" xmlns="http://www.w3.org/2000/svg">
<path fill-rule="evenodd" clip-rule="evenodd" d="M22.4023 59H26.1243V39H22.4023V59ZM36.0458 58.7H39.3794V46.0813L53.4113 59V39.3H50.087V51.7031L36.0458 39V58.7ZM61.0214 53.8563C62.8357 55.2781 65.0136 56.1 67.3483 56.1C69.6225 56.1 71.2179 55.3125 71.2179 53.5734C71.2179 52.0578 70.2004 51.4641 68.4186 50.8L65.534 49.7922C62.8746 48.8422 60.852 47.4547 60.852 44.2656C60.852 40.8547 63.9138 39 67.5751 39C69.8182 39 71.8625 39.5672 73.4594 40.5719V43.9547C71.7988 42.7203 69.9814 41.8703 67.6466 41.8703C65.6365 41.8703 64.1344 42.625 64.1344 44.1984C64.1344 45.6203 65.0773 46.1891 66.7379 46.7609L69.9518 47.8953C73.0664 48.9969 74.4955 50.7047 74.4955 53.5141C74.4955 57.0484 71.4043 59 67.3483 59C64.6827 59 62.4163 58.25 61.0214 57.3031V53.8563ZM83.179 59H86.8994V39H83.179V59ZM104.353 55.9734C108.548 55.9734 110.789 53.2672 110.789 48.9953C110.789 44.6922 108.546 41.9953 104.353 41.9953H100.206V55.9734H104.353V55.9734ZM96.8194 39H104.478C110.373 39 114.185 42.9063 114.185 48.9953C114.185 55.0891 110.373 59 104.478 59H96.8194V39ZM132.791 39V41.9953H123.786V46.8078H131.863V49.7687H123.785V55.9734H132.791V59H120.388V39H132.791ZM145.998 48.0563H149.691C151.877 48.0563 153.108 46.85 153.108 44.9953C153.108 43.1406 151.877 41.9328 149.691 41.9328H145.998V48.0578V48.0563ZM145.998 50.8844V59H142.713V39H149.753C153.767 39 156.364 41.0797 156.364 44.9953C156.364 48.3438 154.923 50.2672 151.852 50.7609L158.837 59H155.1L148.336 50.8859H146L145.998 50.8844ZM21.1021 19.2969C22.5577 18.7609 23.6917 17.1531 23.6917 14.9422C23.6917 11.2578 21.1021 9.34844 16.9592 9.34844H10V29.9156H17.6054C21.7483 29.9156 24.3379 27.8719 24.3379 24.0203C24.3379 21.8422 22.9786 19.9328 21.1021 19.2969ZM13.2683 17.9906V12.3641H16.9282C19.2272 12.3641 20.4559 13.2016 20.4559 15.1437C20.4559 17.0859 19.2256 17.9906 16.9282 17.9906H13.2683ZM13.2683 20.8719H17.5402C19.8082 20.8719 21.0369 22.0094 21.0369 23.8859C21.0369 25.7281 19.8066 26.9016 17.5417 26.9016H13.2699V20.8703L13.2683 20.8719ZM39.5223 30.25C44.2804 30.25 47.485 27.3687 47.485 21.7422V9.34844H44.1188V21.3391C44.1188 25.2922 42.5002 27.1359 39.5223 27.1359C36.5445 27.1359 34.9274 25.2922 34.9274 21.3391V9.34844H31.5612V21.7078C31.5612 27.3688 34.7969 30.25 39.5223 30.25V30.25ZM55.4105 28.4406C56.8023 29.4469 59.0687 30.25 61.7219 30.25C65.7685 30.25 68.8427 28.1719 68.8427 24.4219C68.8427 21.4406 67.4198 19.6312 64.3115 18.4594L61.1083 17.2531C59.4571 16.6516 58.5188 16.0484 58.5188 14.5406C58.5188 12.8656 60.007 12.0625 62.014 12.0625C64.3441 12.0625 66.1569 12.9656 67.8082 14.2734V10.6875C66.2221 9.61719 64.1825 9.01406 61.9487 9.01406C58.292 9.01406 55.2489 10.9906 55.2489 14.6078C55.2489 17.9906 57.2559 19.4641 59.9091 20.4688L62.7907 21.5406C64.5709 22.2438 65.5744 22.8813 65.5744 24.4891C65.5744 26.3313 63.9884 27.1688 61.7219 27.1688C59.3918 27.1688 57.2233 26.2969 55.4105 24.7906V28.4406V28.4406ZM80.8707 9.34844H77.506V29.9141H80.8707V9.34844ZM90.4738 29.8891H93.7173V16.5094L107.369 30.2078V9.31719H104.134V22.4687L90.4738 9V29.8891V29.8891ZM128.403 9.35312V12.4328H119.664V17.3828H127.501V20.4281H119.664V26.8078H128.403V29.9203H116.364V9.35312H128.403ZM136.24 28.4266C137.632 29.4328 139.897 30.2359 142.551 30.2359C146.597 30.2359 149.672 28.1594 149.672 24.4078C149.672 21.4266 148.248 19.6188 145.141 18.4453L141.936 17.2406C140.285 16.6375 139.347 16.0344 139.347 14.5266C139.347 12.8516 140.835 12.0484 142.842 12.0484C145.172 12.0484 146.985 12.9531 148.636 14.2594V10.675C147.05 9.60313 145.01 9 142.777 9C139.12 9 136.077 10.9766 136.077 14.5937C136.077 17.9766 138.084 19.45 140.737 20.4547L143.619 21.5266C145.399 22.2297 146.402 22.8672 146.402 24.475C146.402 26.3172 144.818 27.1547 142.55 27.1547C140.22 27.1547 138.051 26.2844 136.24 24.7766V28.4266V28.4266ZM156.568 28.4266C157.96 29.4328 160.226 30.2359 162.879 30.2359C166.926 30.2359 170 28.1594 170 24.4078C170 21.4266 168.576 19.6188 165.469 18.4453L162.264 17.2406C160.614 16.6375 159.675 16.0344 159.675 14.5266C159.675 12.8516 161.164 12.0484 163.17 12.0484C165.5 12.0484 167.314 12.9531 168.964 14.2594V10.675C167.379 9.60313 165.34 9 163.106 9C159.448 9 156.406 10.9766 156.406 14.5937C156.406 17.9766 158.413 19.45 161.066 20.4547L163.948 21.5266C165.728 22.2297 166.732 22.8672 166.732 24.475C166.732 26.3172 165.146 27.1547 162.879 27.1547C160.549 27.1547 158.381 26.2844 156.568 24.7766V28.4266V28.4266Z" fill="#111111"/>
</svg>
