<svg width="180" height="68" viewBox="0 0 180 68" fill="none" xmlns="http://www.w3.org/2000/svg">
<path d="M33.2267 42.9139L26.56 45.7844V45.4947C25.28 45.8107 23.84 45.995 22.5067 46.0741C16.2133 46.0214 11.2533 42.7559 11.1733 38.9111V37.489C13.2267 40.4385 17.44 42.4399 22.5067 42.3609C24.2133 42.4399 25.9733 42.1766 27.44 41.7815L28.0267 40.3595C26.2933 40.8862 24.3733 41.2285 22.5067 41.2285C16.2133 41.2285 11.2533 37.9894 11.1733 34.0656V32.9068C13.2267 35.6456 17.44 37.6207 22.5067 37.489C24.8 37.6207 27.0133 37.1467 28.9067 36.3303L29.2 34.9083C27.36 35.8563 24.9867 36.4093 22.5333 36.3303C16.24 36.4093 11.28 33.1702 11.2 29.1673V28.0086C13.2533 30.8001 17.4667 32.8015 22.5333 32.8805C25.4133 32.8015 28.1333 32.0378 30.3733 30.8791L30.6667 29.1673C28.64 30.6421 25.68 31.6165 22.5333 31.7481C16.24 31.6165 11.28 28.351 11.2 24.2955C11.2533 20.4243 16.24 17.1852 22.5333 17.1325C26.2667 17.1852 29.76 18.4756 31.8133 20.5823L32.0267 20.9247H33.4933L33.28 20.5823C31.2267 17.8172 27.0933 16.0001 22.5333 16.0001C15.5467 15.9738 10 19.7396 10 24.2691V24.5588V39.1744C10.24 43.5986 15.6533 47.2064 22.48 47.2064C26.9867 47.2328 31.0667 45.4684 33.2267 42.9139Z" fill="#253137"/>
<path d="M30.5065 52.9997L32.8532 43.1506L26.1065 46.0474L30.2132 28.9827H22.3198L24.3732 20.582H49.5732L47.5198 28.9827H39.3065L37.5465 33.6176L46.6398 29.8517L30.5065 52.9997ZM34.6132 41.1492L33.4398 46.9428L43.1198 32.4852L35.1998 35.9613L38.7198 27.8503H46.6398L48.1065 21.7671H25.2265L23.7598 27.8503H31.6798L27.8665 44.046L34.6132 41.1492Z" fill="#FABF2C"/>
<path d="M66.2934 26.2182V26.2445C66.32 27.1663 66.0267 27.8773 65.44 28.404C64.8534 28.9307 64.0534 29.194 63.0134 29.194C61.9734 29.194 61.12 28.8517 60.48 28.1933C59.84 27.5349 59.52 26.6659 59.52 25.6125V23.9008C59.52 22.8474 59.84 21.9784 60.4534 21.32C61.0934 20.6616 61.92 20.3193 62.9334 20.3193C64 20.3193 64.8267 20.5826 65.44 21.083C66.0534 21.6097 66.3467 22.3207 66.32 23.2424V23.2688H64.6134C64.6134 22.7157 64.48 22.2944 64.2134 22.031C63.9467 21.7677 63.52 21.636 62.96 21.636C62.4267 21.636 62.0267 21.8467 61.7334 22.2681C61.44 22.6894 61.28 23.2161 61.28 23.8745V25.6125C61.28 26.2709 61.44 26.8239 61.7334 27.2453C62.0534 27.6666 62.48 27.8773 63.04 27.8773C63.5734 27.8773 63.9467 27.7456 64.2134 27.4823C64.48 27.2189 64.6134 26.7976 64.6134 26.2445H66.2934V26.2182ZM75.9467 25.5335C75.9467 26.5869 75.6 27.4823 74.9334 28.167C74.2667 28.8517 73.3867 29.194 72.2934 29.194C71.2 29.194 70.3467 28.8517 69.6534 28.167C68.9867 27.4823 68.64 26.5869 68.64 25.5335V23.9798C68.64 22.9264 68.9867 22.0574 69.6534 21.3463C70.32 20.6617 71.2 20.293 72.2667 20.293C73.36 20.293 74.24 20.6353 74.9067 21.3463C75.6 22.031 75.92 22.9264 75.92 23.9798V25.5335H75.9467ZM74.1867 23.9535C74.1867 23.2688 74.0267 22.7421 73.68 22.2944C73.3333 21.873 72.88 21.636 72.2667 21.636C71.68 21.636 71.2 21.8467 70.88 22.2944C70.56 22.7157 70.3734 23.2688 70.3734 23.9535V25.5072C70.3734 26.1919 70.5334 26.7449 70.88 27.1926C71.2 27.6139 71.68 27.8509 72.2667 27.8509C72.88 27.8509 73.3333 27.6403 73.68 27.1926C74.0267 26.7712 74.1867 26.1919 74.1867 25.5072V23.9535ZM80.48 29.0623H78.72V20.4246H80.48V29.0623ZM90.5867 29.0623H88.8267L85.3067 23.2424H85.28V29.0623H83.52V20.4246H85.28L88.8 26.2445H88.8267V20.4246H90.5867V29.0623ZM99.4133 21.7677H96.9067V29.0623H95.1467V21.7677H92.6934V20.4246H99.4133V21.7677ZM106.667 25.2702H103.413V27.7456H107.28V29.0623H101.68V20.4246H107.28V21.7677H103.44V23.9271H106.693V25.2702H106.667ZM111.547 27.7456H115.467V29.0623H109.787V20.4246H111.547V27.7456ZM122.933 25.2702H119.68V27.7456H123.547V29.0623H117.947V20.4246H123.547V21.7677H119.707V23.9271H122.96V25.2702H122.933ZM132.773 27.9036C132.507 28.246 132.107 28.562 131.547 28.8253C131.013 29.0887 130.32 29.2203 129.467 29.2203C128.4 29.2203 127.547 28.9043 126.88 28.246C126.213 27.5876 125.867 26.7449 125.867 25.6915V23.8745C125.867 22.8211 126.187 21.9784 126.853 21.32C127.493 20.6616 128.347 20.3193 129.36 20.3193C130.427 20.3193 131.253 20.5826 131.813 21.083C132.373 21.5834 132.667 22.2417 132.64 23.0844V23.1107H130.987C130.987 22.6631 130.853 22.2944 130.587 22.031C130.32 21.7677 129.92 21.636 129.413 21.636C128.88 21.636 128.453 21.8467 128.107 22.2417C127.787 22.6631 127.627 23.1898 127.627 23.8218V25.6389C127.627 26.2972 127.787 26.8239 128.133 27.2453C128.48 27.6666 128.933 27.8509 129.493 27.8509C129.92 27.8509 130.24 27.7983 130.48 27.7193C130.72 27.6403 130.907 27.5349 131.04 27.4033V25.7179H129.36V24.5065H132.8V27.9036H132.773ZM137.307 25.6125V29.0623H135.547V20.4246H138.587C139.573 20.4246 140.373 20.6617 140.933 21.1093C141.493 21.557 141.787 22.189 141.787 22.9791C141.787 23.4268 141.68 23.7954 141.44 24.1378C141.2 24.4538 140.853 24.7172 140.4 24.9278C140.907 25.0858 141.28 25.3228 141.52 25.6915C141.733 26.0339 141.867 26.4816 141.867 27.0082V27.6403C141.867 27.8773 141.893 28.1406 141.973 28.404C142.027 28.6673 142.16 28.8517 142.32 28.9833V29.115H140.507C140.347 28.9833 140.24 28.7727 140.187 28.483C140.133 28.1933 140.107 27.9036 140.107 27.6403V27.0346C140.107 26.6132 140 26.2709 139.76 26.0339C139.52 25.7969 139.173 25.6652 138.747 25.6652H137.307V25.6125ZM137.307 24.2958H138.56C139.04 24.2958 139.413 24.1905 139.653 23.9798C139.893 23.7691 140.027 23.4794 140.027 23.0581C140.027 22.6631 139.893 22.3471 139.653 22.11C139.413 21.873 139.067 21.7677 138.587 21.7677H137.307V24.2958ZM149.227 27.2189H146.4L145.813 29.0887H143.973L146.933 20.451H148.72L151.653 29.0887H149.813L149.227 27.2189ZM146.827 25.8495H148.8L147.84 22.7947H147.813L146.827 25.8495ZM155.547 25.9285V29.0623H153.787V20.4246H157.147C158.16 20.4246 158.933 20.688 159.52 21.1883C160.107 21.6887 160.373 22.3734 160.373 23.1898C160.373 24.0061 160.08 24.6908 159.52 25.1912C158.933 25.6915 158.16 25.9549 157.147 25.9549H155.547V25.9285ZM155.547 24.6118H157.147C157.627 24.6118 158 24.4801 158.267 24.2168C158.507 23.9535 158.64 23.6111 158.64 23.2161C158.64 22.7947 158.507 22.4524 158.267 22.189C158.027 21.9257 157.653 21.794 157.147 21.794H155.547V24.6118ZM170 29.0623H168.24V25.4808H164.667V29.0623H162.907V20.4246H164.667V24.1378H168.24V20.4246H170V29.0623Z" fill="#253137"/>
<path d="M62.72 43.1777H61.6267V37.4895H59.6533V36.5678H64.6933V37.4895H62.72V43.1777ZM70.0533 43.1777H68.96V40.0966C68.96 39.7016 68.88 39.4119 68.72 39.2275C68.56 39.0432 68.32 38.9379 67.9733 38.9379C67.52 38.9379 67.2 39.0695 66.9867 39.3329C66.7733 39.5962 66.6667 40.0439 66.6667 40.6759V43.1514H65.6V36.1201H66.6667V37.9108C66.6667 38.2005 66.64 38.4902 66.6133 38.8325H66.6933C66.8267 38.5955 67.04 38.4112 67.3067 38.2795C67.5733 38.1478 67.8667 38.0688 68.2133 38.0688C69.44 38.0688 70.0533 38.6745 70.0533 39.9122V43.1777ZM73.76 43.2567C72.96 43.2567 72.3467 43.0197 71.92 42.572C71.4667 42.1243 71.2533 41.4923 71.2533 40.7023C71.2533 39.8859 71.4667 39.2539 71.8667 38.7799C72.2667 38.3058 72.8533 38.0688 73.5733 38.0688C74.24 38.0688 74.7733 38.2795 75.1467 38.6745C75.5467 39.0695 75.7333 39.6226 75.7333 40.3336V40.9129H72.3467C72.3733 41.387 72.5067 41.782 72.7467 42.019C72.9867 42.2823 73.36 42.414 73.8133 42.414C74.1067 42.414 74.4 42.3877 74.64 42.335C74.9067 42.2823 75.1733 42.177 75.4667 42.0453V42.9144C75.2 43.046 74.9333 43.125 74.6667 43.1777C74.4267 43.2304 74.1067 43.2567 73.76 43.2567ZM73.5733 38.8852C73.2267 38.8852 72.96 38.9905 72.7467 39.2012C72.5333 39.4119 72.4267 39.7279 72.3733 40.1492H74.6667C74.6667 39.7279 74.56 39.4119 74.3733 39.2012C74.1867 38.9905 73.92 38.8852 73.5733 38.8852ZM81.92 38.9642H80.6933V43.1777H79.6V38.9642H78.7733V38.4638L79.6 38.1478V37.8318C79.6 37.2525 79.7333 36.8048 80.0267 36.5151C80.32 36.2254 80.7467 36.0938 81.3067 36.0938C81.68 36.0938 82.0533 36.1464 82.4267 36.2781L82.1333 37.0945C81.8667 37.0155 81.6267 36.9628 81.36 36.9628C81.12 36.9628 80.9333 37.0418 80.8267 37.1735C80.72 37.3315 80.6667 37.5421 80.6667 37.8318V38.1478H81.8933V38.9642H81.92ZM86.3733 43.1777L86.2133 42.5193H86.16C86 42.7564 85.7867 42.9407 85.52 43.0724C85.2533 43.204 84.9333 43.283 84.5867 43.283C83.9733 43.283 83.52 43.125 83.2 42.8354C82.88 42.5457 82.7467 42.0717 82.7467 41.466V38.1742H83.84V41.2553C83.84 41.6503 83.92 41.9137 84.08 42.1243C84.24 42.3087 84.48 42.414 84.8267 42.414C85.28 42.414 85.6 42.2823 85.8133 42.019C86.0267 41.7557 86.1333 41.308 86.1333 40.6759V38.1742H87.2267V43.1777H86.3733ZM90.64 42.3877C90.9067 42.3877 91.1733 42.335 91.44 42.256V43.046C91.3333 43.0987 91.1733 43.1514 90.9867 43.1777C90.8 43.204 90.6133 43.2304 90.4 43.2304C89.3867 43.2304 88.88 42.7037 88.88 41.6503V38.9642H88.1867V38.4902L88.9333 38.0952L89.3067 37.0418H89.9733V38.1478H91.4133V38.9642H89.9733V41.6503C89.9733 41.9137 90.0267 42.098 90.16 42.2297C90.24 42.335 90.4267 42.3877 90.64 42.3877ZM96 43.1777L95.84 42.5193H95.7867C95.6267 42.7564 95.4133 42.9407 95.1467 43.0724C94.88 43.204 94.56 43.283 94.2133 43.283C93.6 43.283 93.1467 43.125 92.8267 42.8354C92.5333 42.5457 92.3733 42.0717 92.3733 41.466V38.1742H93.4667V41.2553C93.4667 41.6503 93.5467 41.9137 93.7067 42.1243C93.8667 42.3087 94.1067 42.414 94.4533 42.414C94.9067 42.414 95.2267 42.2823 95.44 42.019C95.6533 41.7557 95.76 41.308 95.76 40.6759V38.1742H96.8533V43.1777H96ZM100.96 38.0688C101.173 38.0688 101.36 38.0952 101.493 38.1215L101.387 39.1222C101.227 39.0959 101.067 39.0695 100.907 39.0695C100.48 39.0695 100.133 39.2012 99.8667 39.4909C99.6 39.7806 99.4667 40.1229 99.4667 40.5706V43.1777H98.4V38.1742H99.2533L99.3867 39.0432H99.44C99.6 38.7535 99.84 38.5165 100.107 38.3322C100.347 38.1742 100.64 38.0688 100.96 38.0688ZM104.453 43.2567C103.653 43.2567 103.04 43.0197 102.613 42.572C102.16 42.1243 101.947 41.4923 101.947 40.7023C101.947 39.8859 102.16 39.2539 102.56 38.7799C102.96 38.3058 103.547 38.0688 104.267 38.0688C104.933 38.0688 105.467 38.2795 105.84 38.6745C106.24 39.0695 106.427 39.6226 106.427 40.3336V40.9129H103.04C103.067 41.387 103.2 41.782 103.44 42.019C103.68 42.2823 104.053 42.414 104.507 42.414C104.8 42.414 105.093 42.3877 105.333 42.335C105.6 42.2823 105.867 42.177 106.16 42.0453V42.9144C105.893 43.046 105.627 43.125 105.36 43.1777C105.093 43.2304 104.8 43.2567 104.453 43.2567ZM104.267 38.8852C103.92 38.8852 103.653 38.9905 103.44 39.2012C103.227 39.4119 103.12 39.7279 103.067 40.1492H105.36C105.36 39.7279 105.253 39.4119 105.067 39.2012C104.853 38.9905 104.587 38.8852 104.267 38.8852ZM114.56 40.6496C114.56 41.466 114.347 42.098 113.92 42.572C113.493 43.0197 112.907 43.2567 112.16 43.2567C111.68 43.2567 111.28 43.1514 110.907 42.9407C110.533 42.73 110.267 42.414 110.08 42.019C109.893 41.624 109.787 41.1763 109.787 40.6496C109.787 39.8332 110 39.2012 110.427 38.7535C110.853 38.3058 111.44 38.0688 112.213 38.0688C112.933 38.0688 113.52 38.3058 113.947 38.7799C114.373 39.2539 114.56 39.8596 114.56 40.6496ZM110.88 40.6496C110.88 41.8083 111.307 42.3877 112.187 42.3877C113.04 42.3877 113.467 41.8083 113.467 40.6496C113.467 39.5172 113.04 38.9379 112.187 38.9379C111.733 38.9379 111.413 39.0959 111.2 39.3856C110.987 39.6752 110.88 40.0966 110.88 40.6496ZM118.347 38.9642H117.12V43.1777H116.027V38.9642H115.2V38.4638L116.027 38.1478V37.8318C116.027 37.2525 116.16 36.8048 116.453 36.5151C116.747 36.2254 117.173 36.0938 117.733 36.0938C118.107 36.0938 118.48 36.1464 118.853 36.2781L118.56 37.0945C118.293 37.0155 118.053 36.9628 117.787 36.9628C117.547 36.9628 117.36 37.0418 117.253 37.1735C117.147 37.3051 117.093 37.5421 117.093 37.8318V38.1478H118.32V38.9642H118.347ZM125.92 43.1777H124.827V40.0966C124.827 39.7016 124.747 39.4382 124.613 39.2275C124.48 39.0432 124.24 38.9379 123.92 38.9379C123.493 38.9379 123.2 39.0695 123.013 39.3329C122.827 39.5962 122.72 40.0439 122.72 40.6759V43.1777H121.653V38.1742H122.507L122.667 38.8325H122.72C122.853 38.5955 123.067 38.4112 123.333 38.2795C123.6 38.1478 123.893 38.0952 124.213 38.0952C124.987 38.0952 125.52 38.3585 125.76 38.8852H125.84C126 38.6482 126.213 38.4375 126.48 38.3058C126.747 38.1742 127.067 38.0952 127.413 38.0952C128.027 38.0952 128.453 38.2532 128.747 38.5428C129.013 38.8325 129.173 39.3065 129.173 39.9122V43.1777H128.107V40.0966C128.107 39.7016 128.027 39.4382 127.893 39.2275C127.733 39.0432 127.52 38.9379 127.2 38.9379C126.773 38.9379 126.48 39.0695 126.293 39.3329C126.107 39.5962 126 39.9912 126 40.5179V43.1777H125.92ZM135.093 40.6496C135.093 41.466 134.88 42.098 134.453 42.572C134.027 43.0197 133.44 43.2567 132.693 43.2567C132.213 43.2567 131.813 43.1514 131.44 42.9407C131.067 42.73 130.8 42.414 130.613 42.019C130.427 41.624 130.32 41.1763 130.32 40.6496C130.32 39.8332 130.533 39.2012 130.96 38.7535C131.387 38.3058 131.973 38.0688 132.747 38.0688C133.467 38.0688 134.053 38.3058 134.48 38.7799C134.88 39.2539 135.093 39.8596 135.093 40.6496ZM131.413 40.6496C131.413 41.8083 131.84 42.3877 132.72 42.3877C133.573 42.3877 134 41.8083 134 40.6496C134 39.5172 133.573 38.9379 132.72 38.9379C132.267 38.9379 131.947 39.0959 131.733 39.3856C131.52 39.6752 131.413 40.0966 131.413 40.6496ZM140.8 43.1777H139.707V40.0966C139.707 39.7016 139.627 39.4119 139.467 39.2275C139.307 39.0432 139.067 38.9379 138.72 38.9379C138.267 38.9379 137.92 39.0695 137.733 39.3329C137.547 39.5962 137.413 40.0439 137.413 40.6759V43.1777H136.347V38.1742H137.2L137.36 38.8325H137.413C137.573 38.5955 137.787 38.4112 138.053 38.2795C138.32 38.1478 138.64 38.0952 138.987 38.0952C140.213 38.0952 140.8 38.7009 140.8 39.9386V43.1777ZM144.507 43.2567C143.707 43.2567 143.093 43.0197 142.667 42.572C142.213 42.1243 142 41.4923 142 40.7023C142 39.8859 142.213 39.2539 142.613 38.7799C143.013 38.3058 143.6 38.0688 144.32 38.0688C144.987 38.0688 145.52 38.2795 145.893 38.6745C146.293 39.0695 146.48 39.6226 146.48 40.3336V40.9129H143.093C143.12 41.387 143.253 41.782 143.493 42.019C143.733 42.2823 144.107 42.414 144.56 42.414C144.853 42.414 145.147 42.3877 145.387 42.335C145.627 42.2823 145.92 42.177 146.213 42.0453V42.9144C145.947 43.046 145.68 43.125 145.413 43.1777C145.147 43.2304 144.853 43.2567 144.507 43.2567ZM144.293 38.8852C143.947 38.8852 143.68 38.9905 143.467 39.2012C143.253 39.4119 143.147 39.7279 143.093 40.1492H145.387C145.387 39.7279 145.28 39.4119 145.093 39.2012C144.907 38.9905 144.64 38.8852 144.293 38.8852ZM146.747 38.1742H147.92L148.96 41.0183C149.12 41.4133 149.227 41.8083 149.28 42.1507H149.307C149.333 41.9927 149.387 41.782 149.467 41.545C149.547 41.308 149.92 40.1756 150.64 38.1742H151.813L149.653 43.8361C149.253 44.8631 148.613 45.3898 147.68 45.3898C147.44 45.3898 147.2 45.3635 146.987 45.3108V44.4681C147.147 44.4944 147.333 44.5208 147.547 44.5208C148.053 44.5208 148.427 44.2311 148.64 43.6254L148.827 43.1514L146.747 38.1742Z" fill="#253137"/>
</svg>
