<svg width="180" height="68" viewBox="0 0 180 68" fill="none" xmlns="http://www.w3.org/2000/svg">
<path d="M158.4 61.4V59.9H23.2V8.1H156.8V61.4H158.4V59.9V61.4H160V5H20V63H160V61.4H158.4Z" fill="#1D1D1B"/>
<path d="M36.9 36.0004L40.6 45.4004H40.7L44.2 36.0004H48.4L49.1 37.7004L48.5 37.8004C48.1 37.8004 47.8 38.1004 47.9 38.5004L48.6 49.2004L49.8 49.3004L50.5 51.1004H44.8V49.4004L45.5 49.3004C46 49.3004 46 49.1004 46 48.5004L45.3 40.0004L41.6 48.7004L39.5 49.4004L36 40.0004L35.5 49.1004L36.7 49.2004V51.0004H31L31.7 49.3004L32.4 49.2004C32.8 49.1004 33 49.0004 33 48.4004L33.7 37.8004L32.5 37.7004L33.2 35.9004H36.9V36.0004Z" fill="#1D1D1B"/>
<path d="M51.3999 51L52.0999 49.3L52.5999 49.2C53.0999 49.1 53.1999 48.9 53.3999 48.5L56.9999 37.9L55.7999 37.8L56.4999 36H60.7999L65.4999 49.2L66.2999 49.3L66.9999 51H61.2999V49.3L61.9999 49.2C62.3999 49.2 62.5999 48.9 62.3999 48.5L61.7999 46.7H56.5999L55.7999 49.1L56.9999 49.2V51H51.3999ZM57.0999 44.8H61.2999L59.1999 38.4H59.0999L57.0999 44.8Z" fill="#1D1D1B"/>
<path d="M76.5998 48.6002V45.0002L75.4998 44.9002L74.7998 43.1002H80.6998L80.3998 44.8002L79.7998 44.9002C79.3998 45.0002 79.1998 45.1002 79.1998 45.6002V49.9002C77.8998 50.8002 76.0998 51.3002 74.0998 51.3002C69.6998 51.3002 67.2998 48.8002 67.2998 43.5002C67.2998 37.7002 70.6998 35.7002 74.5998 35.7002C76.3998 35.7002 78.0998 36.1002 79.0998 36.6002V38.6002L76.9998 39.4002V38.7002C76.9998 38.3002 76.9998 38.1002 76.5998 38.0002C76.1998 37.9002 75.3998 37.8002 74.7998 37.8002C71.5998 37.8002 70.1998 39.9002 70.1998 43.2002C70.1998 46.8002 71.3998 48.9002 74.1998 48.9002C74.9998 49.1002 75.9998 48.9002 76.5998 48.6002Z" fill="#1D1D1B"/>
<path d="M95.6001 50.3004L93.0001 51.0004L86.4001 40.1004V49.2004L87.6001 49.3004V51.0004H82.1001L82.8001 49.3004L83.2001 49.2004C83.6001 49.1004 83.7001 49.0004 83.7001 48.6004V37.8004L82.2001 37.7004L82.9001 35.9004H86.6001L93.0001 46.7004V37.8004L91.8001 37.7004V36.0004H97.2001L96.5001 37.7004L96.1001 37.8004C95.7001 37.9004 95.5001 38.0004 95.5001 38.5004V50.3004H95.6001Z" fill="#1D1D1B"/>
<path d="M97.2998 51L97.9998 49.3L98.1998 49.2C98.6998 49.1 98.7998 48.9 98.9998 48.5L102.7 37.9L101.5 37.8L102.2 36H106.5L111 49.1L111.8 49.2L112.5 51H106.8V49.3L107.5 49.2C107.9 49.2 108.1 48.9 107.9 48.5L107.3 46.7H102.1L101.3 49.1L102.5 49.2V51H97.2998ZM102.6 44.8H106.8L104.7 38.4H104.6L102.6 44.8Z" fill="#1D1D1B"/>
<path d="M116.5 38H114.4C113.9 38 113.8 38.2 113.8 38.6V39.4L111.6 38.7V36H124V38.7L121.8 39.4V38.6C121.8 38.2 121.7 38 121.2 38H119.2V49.2L120.5 49.3L121.2 51.1H114.5L115.2 49.4L115.9 49.3C116.4 49.3 116.5 49.1 116.5 48.6V38V38Z" fill="#1D1D1B"/>
<path d="M126.4 49.3004L126.6 49.2004C127.2 49.1004 127.3 49.0004 127.3 48.4004V37.8004L126.4 37.7004L125.7 35.9004H136.3V38.6004L134.1 39.3004V38.2004C134.1 37.8004 134 37.9004 133.5 37.9004H130V42.2004H135.4V44.3004H130V49.0004H133.8C134.3 49.0004 134.3 48.8004 134.3 48.4004V48.2004L136.5 47.6004V51.0004H125.6L126.4 49.3004Z" fill="#1D1D1B"/>
<path d="M146.1 46.9002C146.1 45.5002 144.9 44.9002 143.3 44.4002C141.2 43.8002 139 42.9002 139.1 40.0002C139.2 37.2002 141.3 35.6002 144.5 35.7002C145.9 35.7002 147.6 36.0002 148.7 36.6002V38.8002L146.5 39.5002V38.8002C146.5 38.4002 146.5 38.2002 146.1 38.1002C145.8 38.0002 145 37.9002 144.5 37.9002C143.3 37.9002 142.1 38.3002 142 39.8002C142 41.2002 143.2 41.7002 144.9 42.3002C147 43.0002 149.1 43.8002 149 46.8002C148.9 49.8002 146.9 51.4002 143.3 51.3002C141.7 51.3002 140.1 51.0002 138.8 50.4002V48.2002L141 47.5002V48.2002C141 48.6002 141.1 48.8002 141.4 48.9002C141.8 49.0002 142.5 49.1002 143.2 49.1002C144.8 49.1002 146.1 48.6002 146.1 46.9002Z" fill="#1D1D1B"/>
<path d="M32.8999 17H42.6999V18H33.9999V23.5H41.1999V24.5H33.9999V31.7H32.8999V17Z" fill="#1D1D1B"/>
<path d="M51.1 17H50V31.7H51.1V17Z" fill="#1D1D1B"/>
<path d="M59.3999 17H60.3999L70.2999 29.9V17H71.2999V31.7H70.3999L60.4999 18.8V31.7H59.3999V17Z" fill="#1D1D1B"/>
<path d="M84.8002 16.9004H85.8002L92.4002 31.7004H91.3002L89.4002 27.4004H81.2002L79.3002 31.7004H78.2002L84.8002 16.9004ZM89.0002 26.5004L85.3002 18.3004L81.6002 26.5004H89.0002Z" fill="#1D1D1B"/>
<path d="M99.2002 17H100.1L110 29.9V17H111.1V31.7H110.2L100.2 18.8V31.7H99.2002V17Z" fill="#1D1D1B"/>
<path d="M118.7 24.3002C118.7 19.9002 121.9 16.7002 126.1 16.7002C127.7 16.7002 129.1 17.1002 130.3 17.9002V19.0002C129.1 18.2002 127.7 17.7002 126.1 17.7002C122.5 17.7002 119.7 20.5002 119.7 24.3002C119.7 28.1002 122.5 30.9002 126.1 30.9002C127.9 30.9002 129.4 30.4002 130.6 29.4002V30.6002C129.4 31.5002 127.9 32.0002 126.1 32.0002C122 31.9002 118.7 28.8002 118.7 24.3002Z" fill="#1D1D1B"/>
<path d="M137.8 17H147.7V18H138.9V23.3H146.2V24.3H138.9V30.7H148V31.7H137.8V17Z" fill="#1D1D1B"/>
</svg>
