<svg xmlns="http://www.w3.org/2000/svg" xml:space="preserve" viewBox="0 0 292.2 292.8">
  <path fill="#34D399" d="M16.5 71.8a4.7 4.7 0 0 0-2.4 6.2l40.6 92-9-111-29.2 12.8zm261.6 143L238 123.7l9 110 28.8-12.7c2.4-1 3.5-3.8 2.4-6.2zM107.6 290c1 2.4 3.8 3.5 6.2 2.4l62.7-27.6-77.3 6.2 8.4 19zM184.7 2.8a4.7 4.7 0 0 0-6.3-2.4l-61.8 27.3 76.3-6.2-8.2-18.7z" opacity=".5"/>
  <path fill="#34D399" d="M229.9 23.3a4.7 4.7 0 0 0-5.1-4.3l-31.9 2.5-76.3 6.2-68.2 5.5a4.7 4.7 0 0 0-4.3 5L45.7 59l9 111.1 8 99.2a4.7 4.7 0 0 0 5 4.3l31.5-2.5 77.3-6.2 67.6-5.5a4.7 4.7 0 0 0 4.4-5l-1.7-20.5-8.9-110.1-8-100.4zm-145 63.4 50.8 49.2 48.9-37 23 106.4-51-49.2-48.8 37-23-106.4z"/>
  <path fill="#B4FAE2" d="M207.5 205.3 184.6 98.9l-48.9 37-50.8-49.2 22.9 106.5 48.8-37.1z"/>
</svg>