<svg width="28" height="28" viewBox="0 0 28 28" xmlns="http://www.w3.org/2000/svg"><path d="M20.96 7.34A15.87 15.87 0 0 0 16.82 6c-.18.33-.38.78-.52 1.13a14.98 14.98 0 0 0-4.58 0A14.18 14.18 0 0 0 11.19 6c-1.45.26-2.84.71-4.13 1.34a18.32 18.32 0 0 0-2.97 11.98A16.48 16.48 0 0 0 9.15 22a13.14 13.14 0 0 0 1.08-1.84 10.36 10.36 0 0 1-1.7-.87 6.51 6.51 0 0 0 .4-.34 11.33 11.33 0 0 0 10.13 0l.41.34c-.55.34-1.11.63-1.7.87.3.65.67 1.26 1.07 1.84a16.43 16.43 0 0 0 5.07-2.68 18.2 18.2 0 0 0-2.95-11.98zM10.69 16.9c-1 0-1.8-.95-1.8-2.11s.79-2.11 1.8-2.11c1 0 1.82.95 1.8 2.1 0 1.17-.8 2.12-1.8 2.12zm6.64 0c-1 0-1.8-.95-1.8-2.11s.79-2.11 1.8-2.11c1 0 1.82.95 1.8 2.1 0 1.17-.8 2.12-1.8 2.12z" fill="currentColor" id="discord"/></svg>