<?xml version="1.0" encoding="utf-8"?>
<!-- Generator: Adobe Illustrator 26.3.1, SVG Export Plug-In . SVG Version: 6.00 Build 0)  -->
<svg version="1.1" id="Layer_1" xmlns="http://www.w3.org/2000/svg" xmlns:xlink="http://www.w3.org/1999/xlink" x="0px" y="0px"
	 viewBox="0 0 180 68" enable-background="new 0 0 180 68" xml:space="preserve">
<g>
	<path fill="#7CE8FE" d="M54.6553612,39.8202553h-6.9841614v6.9844322h6.9841614V39.8202553z"/>
	<path fill="#3EC7E3" d="M59.4787292,30.5080395H47.6711998v6.984293H61.639389v-6.984293H59.4787292z"/>
	<path fill="#00A2C7" d="M68.6235504,21.1953144H47.6711998v6.9844036h20.9523506V21.1953144z"/>
	<path fill="#3EC7E3" d="M45.3427429,30.5080395h-6.9841614v6.984293h6.9841614V30.5080395z"/>
	<path d="M75.603981,46.8046875h5.4142532V36.225872h10.4159622v-4.4641724H81.0182343v-6.1022396h11.5412979v-4.4641457H75.603981
		V46.8046875z M95.22612,25.6594582h7.8400726v21.1452293h5.3516922V25.6594582h7.8400879v-4.4641438H95.22612V25.6594582z
		 M124.798439,21.1953144h-6.1395874l7.8651505,12.8046703l-8.0152054,12.8047028h6.2021408l5.2516632-8.7406769h0.2000732
		l5.2516632,8.7406769h6.2270813l-7.9901276-12.8047028l7.8151245-12.8046703h-6.114502l-5.1892395,8.7282429h-0.2000732
		L124.798439,21.1953144z"/>
</g>
</svg>
