<svg xmlns="http://www.w3.org/2000/svg" width="28" height="28" viewBox="0 0 28 28"><path d="M24 14a10 10 0 1 1-20 0 10 10 0 0 1 20 0zm-13.7-1.83c-1.05.46-2.13.93-3.12 1.48-.51.38.17.65.81.9a15.77 15.77 0 0 1 .54.2c.72.23 1.52.48 2.21.1a42.92 42.92 0 0 0 3.3-2.19l1.06-.74.05-.04c.3-.2.99-.64.73-.03-.59.66-1.23 1.24-1.87 1.82-.43.4-.86.78-1.28 1.2-.37.3-.75.91-.34 1.33.95.67 1.91 1.32 2.87 1.97l.95.64c.53.43 1.35.08 1.47-.58l.16-.92c.29-1.7.57-3.39.83-5.09l.11-.8c.1-.64.19-1.29.22-1.94-.08-.64-.86-.5-1.3-.36a201.04 201.04 0 0 0-7.4 3.05z" fill="currentColor" id="telegram"/></svg>