<svg xmlns="http://www.w3.org/2000/svg" xml:space="preserve" viewBox="0 0 157 25">
  <path fill="#f0b90b" d="m5.6 12.5-2.8 2.8L0 12.5l2.8-2.8 2.8 2.8zm6.9-6.9 4.8 4.8 2.8-2.8L12.5 0 4.8 7.7l2.8 2.8 4.9-4.9zm9.7 4.1-2.8 2.8 2.8 2.8 2.8-2.8-2.8-2.8zm-9.7 9.6-4.8-4.8-2.8 2.8 7.7 7.7 7.7-7.7-2.8-2.8c-.2 0-5 4.8-5 4.8zm0-4 2.8-2.8-2.8-2.8-2.8 2.8 2.8 2.8z"/>
  <path fill="#000" d="M45.6 5.6h3v13.7h-3zm19.2 13.7V5.6h-3v8.5l-6.4-8.5h-2.8v13.7h3v-8.7l6.6 8.7zM75.6 5.5h-2.8l-5.9 13.8H70l1.3-3.1h5.8l1.3 3.1h3.2l-6-13.8zm-3.3 8.1 1.8-4.4 1.8 4.4h-3.6zm23.5 5.7V5.6h-3v8.5l-6.4-8.5h-2.8v13.7h3v-8.7l6.6 8.7zm15.6-2.2-1.9-1.9c-1.1 1-2 1.6-3.6 1.6-2.3 0-4-2-4-4.3s1.7-4.3 4-4.3c1.4 0 2.4.6 3.5 1.5l1.9-2.2c-1.3-1.3-2.8-2.1-5.4-2.1-4.2 0-7.1 3.2-7.1 7.1 0 3.9 3 7 7 7 2.6.1 4.2-.9 5.6-2.4zm12.8 2.2v-2.7h-7.4v-2.8h6.4v-2.7h-6.4V8.3h7.3V5.6h-10.3v13.7zm-82-3.7c0-1.9-1-2.8-2.6-3.4 1-.5 1.8-1.4 1.8-3 0-2.2-1.7-3.5-4.5-3.5h-6.4v13.7H37c3.2-.1 5.2-1.3 5.2-3.8zm-8.7-7.3h3c1.3 0 2 .5 2 1.4 0 1-.8 1.4-2.2 1.4h-2.8V8.3zm5.8 6.9c0 1-.8 1.5-2.1 1.5h-3.6v-3H37c1.6 0 2.3.5 2.3 1.5zm88.5 4.1v-2.1h1.8v2.1h-1.8zm15.9-5.8c0 4-2.3 6.1-5.7 6.1s-5.7-2.1-5.7-5.9v-8h1.5v7.9c0 3 1.6 4.6 4.2 4.6 2.5 0 4.1-1.5 4.1-4.5v-8h1.5l.1 7.8zm8.1-1.8c3.1.7 4.5 1.8 4.5 3.9 0 2.4-2 3.9-4.7 3.9-2.2 0-4-.7-5.6-2.2l1-1.1c1.4 1.3 2.8 1.9 4.7 1.9 1.8 0 3.1-1 3.1-2.4 0-1.3-.7-2-3.6-2.6-3.2-.7-4.6-1.7-4.6-4 0-2.2 1.9-3.8 4.5-3.8 1.8-.1 3.5.5 4.8 1.7l-.9 1.2c-1.3-1-2.5-1.5-4-1.5-1.8 0-2.9 1-2.9 2.2 0 1.5.7 2.2 3.7 2.8z" clip-rule="evenodd"/>
</svg>