<?xml version="1.0" encoding="utf-8"?>
<!-- Generator: Adobe Illustrator 26.2.1, SVG Export Plug-In . SVG Version: 6.00 Build 0)  -->
<svg version="1.1" id="Layer_1" xmlns="http://www.w3.org/2000/svg" xmlns:xlink="http://www.w3.org/1999/xlink" x="0px" y="0px"
	 viewBox="0 0 512 512" enable-background="new 0 0 512 512" xml:space="preserve">
<g transform="translate(0.000000,512.000000) scale(0.100000,-0.100000)">
	<path d="M2370.272,4388.016c-285.455-28.992-580.574-135.294-822.913-296.606c-351.615-233.419-607.335-570.167-737.425-970.101
		c-19.328-60.957-52.779-194.764-59.47-241.596c-2.23-14.124-8.177-51.293-13.381-81.771c-14.867-89.948-11.894-374.66,4.46-498.059
		c46.832-339.721,207.401-688.363,439.333-951.516c123.4-139.754,310.73-294.375,460.891-379.12
		c48.319-27.505,187.33-96.638,194.764-96.638c2.974,0,15.611-5.204,27.505-11.151c69.134-36.425,295.862-98.869,428.182-118.94
		c104.816-15.611,346.412-20.071,464.608-9.664c257.95,24.531,553.069,127.86,787.975,275.791
		c205.171,130.09,406.625,327.084,544.148,532.998c161.312,242.339,267.614,535.971,298.092,821.426
		c10.407,99.612,5.204,365.739-8.177,457.174c-88.461,579.83-420.749,1060.792-930.702,1347.733
		c-182.87,102.585-389.527,172.462-624.433,210.375C2741.958,4391.732,2462.451,4397.679,2370.272,4388.016z M2786.561,3831.973
		c269.844-50.549,504.006-173.206,689.106-362.022c254.233-259.437,382.093-580.573,373.916-939.622
		c-6.69-284.711-96.638-539.688-269.844-761.956c-196.25-252.747-476.502-422.235-793.178-480.218
		c-134.55-24.531-344.925-24.531-469.811,0.743c-512.183,103.329-911.374,492.112-1020.65,996.119
		c-21.558,95.895-26.018,150.161-25.275,286.198c0.743,157.595,20.071,275.048,69.877,415.545
		c98.868,280.251,287.685,515.157,538.945,671.265c157.595,98.125,355.332,167.259,531.511,185.1
		c26.761,2.23,49.806,5.947,51.293,7.434C2472.115,3859.478,2714.454,3845.354,2786.561,3831.973z M1191.284,2513.231
		c0.743-34.195,2.23-70.62,4.46-80.284c1.487-9.664,4.46-34.195,7.434-55.01c34.195-289.172,198.48-611.795,413.315-811.019
		c252.747-233.419,579.83-370.199,897.25-373.916l46.089-0.743v-196.25V799.015l-72.107,2.974
		c-61.7,2.974-125.63,8.177-173.206,15.611c-5.947,0.743-26.761,3.717-45.346,5.947c-57.24,8.177-206.657,46.832-289.172,75.081
		c-162.799,55.753-367.969,168.745-516.644,285.455c-77.311,60.957-232.676,218.551-291.402,294.375
		c-43.859,58.726-121.913,174.693-141.984,211.861c-114.479,211.118-184.356,413.315-209.631,605.105
		c-4.46,33.452-9.664,69.134-11.894,81.028c-5.204,31.965-9.664,185.843-5.947,192.533c2.23,2.974,89.948,5.947,195.507,5.947
		h191.79L1191.284,2513.231z"/>
</g>
</svg>
