<svg width="180" height="68" viewBox="0 0 180 68" fill="none" xmlns="http://www.w3.org/2000/svg">
<path fill-rule="evenodd" clip-rule="evenodd" d="M114.612 48C112.131 48 110.29 47.5235 109.09 46.5706C108.049 45.7765 107.489 44.5853 107.489 43.3147H112.451C112.691 44.2677 113.092 44.8235 114.692 44.8235C116.453 44.8235 117.174 43.8706 117.174 41.7265V39.8206H117.094C116.453 41.4088 114.852 42.3618 113.172 42.2029C109.09 42.2029 107.009 39.9 107.009 35.3735C106.928 33.4677 107.569 31.5618 108.849 30.1324C109.97 28.9412 111.571 28.3059 113.252 28.3059C114.852 28.1471 116.373 28.9412 117.174 30.3706H117.254V28.6235H122.136V41.25C122.136 43.5529 121.576 45.2206 120.375 46.2529C119.095 47.4441 117.254 48 114.612 48ZM114.772 31.7206C113.172 31.7206 112.211 33.0706 112.211 35.3735C112.211 37.7559 113.092 39.0265 114.692 39.0265C116.053 39.0265 117.174 37.9147 117.174 36.5647C117.174 36.4853 117.174 36.4059 117.174 36.3265V34.7382C117.174 32.8324 116.293 31.7206 114.772 31.7206ZM68.029 43.2353C66.2681 43.3941 64.5073 42.9177 63.0665 41.9647C62.1061 41.1706 61.5458 39.9794 61.4657 38.7088H66.028C66.1081 39.6618 66.7484 40.1382 67.949 40.1382C69.0695 40.1382 69.7899 39.7412 69.7899 38.9471C69.7899 38.3118 69.3897 37.9941 68.3492 37.8353L66.028 37.5177C63.2266 37.2 61.7059 35.6118 61.7059 33.15C61.7059 31.8794 62.1861 30.6882 63.1466 29.8147C65.948 27.9088 69.6298 27.8294 72.4312 29.5765C73.3917 30.3706 73.952 31.5618 73.952 32.7529H69.4697C69.4697 31.9588 68.7494 31.3235 67.949 31.3235H67.8689C66.5883 31.3235 66.3482 31.8794 66.3482 32.4353C66.3482 32.9912 66.5883 33.3882 67.7089 33.5471L70.1901 33.8647C71.3107 33.9441 72.3512 34.3412 73.1516 35.0559C73.952 35.85 74.3522 36.8824 74.2721 37.9941C74.4322 41.25 71.951 43.2353 68.029 43.2353ZM53.6218 43.1559C48.9795 43.1559 46.3382 40.4559 46.3382 35.6118C46.2581 33.6265 46.9785 31.7206 48.2591 30.2912C49.6998 28.9412 51.6208 28.1471 53.6218 28.3059C56.1031 28.3059 58.024 29.0206 59.2246 30.3706C60.4252 31.8794 61.0655 33.8647 60.9855 35.7706V36.8824H51.4607C51.6208 38.9471 52.2611 39.9 53.7819 39.9C54.7424 40.0588 55.6228 39.4235 55.7829 38.55H60.8254C60.5053 41.4882 58.024 43.1559 53.6218 43.1559ZM53.6218 31.3235C52.2611 31.3235 51.6208 32.2765 51.4607 34.1824H55.7829V34.0235C55.6228 32.1971 54.9025 31.3235 53.6218 31.3235ZM145.428 43.0765C143.907 43.1559 142.386 42.6 141.266 41.4882C140.225 40.2971 139.665 38.7088 139.745 37.1206C139.665 35.5324 140.225 33.9441 141.266 32.8324C142.386 31.8 143.907 31.1647 145.428 31.2441C148.949 31.2441 151.111 33.4677 151.111 37.1206C151.111 40.7735 148.869 43.0765 145.428 43.0765ZM145.428 33.5471C143.587 33.5471 143.187 35.5324 143.187 37.2C143.187 39.6618 143.987 40.8529 145.428 40.8529C146.868 40.8529 147.669 39.5824 147.669 37.2C147.669 34.8177 146.868 33.5471 145.428 33.5471ZM133.982 43.0765C132.461 43.1559 130.94 42.6 129.82 41.4882C128.779 40.2971 128.299 38.7088 128.379 37.2C128.379 33.5471 130.54 31.3235 134.062 31.3235C137.264 31.3235 139.185 32.9118 139.265 35.6118H135.983C135.903 34.6588 135.503 33.5471 134.062 33.5471C132.061 33.5471 131.821 35.85 131.821 37.2C131.821 39.6618 132.541 40.8529 134.062 40.8529C135.183 40.8529 136.063 39.9794 136.063 38.8677C136.063 38.7882 136.063 38.7088 136.063 38.6294H139.265C139.265 39.9 138.704 41.1706 137.744 41.9647C136.623 42.7588 135.263 43.0765 133.982 43.0765ZM80.1951 42.9971C78.9945 43.0765 77.7139 42.7588 76.7534 41.9647C75.7929 41.0118 75.3127 39.5824 75.3927 38.2324V24.7324H80.3552V28.6235H83.3167V32.1177H80.4352V37.2794C80.4352 38.7882 80.9155 39.3441 82.2761 39.3441C82.5963 39.3441 82.9165 39.3441 83.2366 39.2647V42.8382C82.1961 42.9177 81.2356 42.9971 80.1951 42.9971ZM162.876 42.7588H159.515V36.1677C159.595 35.5324 159.435 34.8971 159.195 34.3412C158.874 33.8647 158.314 33.6265 157.754 33.7059C156.393 33.7059 155.593 34.6588 155.593 36.2471V42.7588H152.231V31.5618H155.433V33.3882C156.153 32.0382 157.514 31.2441 158.954 31.3235C160.875 31.3235 161.996 32.1177 162.476 33.6265H162.556C163.197 32.1971 164.637 31.2441 166.238 31.3235C168.799 31.3235 170 32.6735 170 35.4529V42.7588H166.638V36.1677C166.718 35.5324 166.558 34.8971 166.318 34.3412C165.998 33.8647 165.438 33.6265 164.877 33.7059C163.517 33.7059 162.716 34.6588 162.716 36.2471L162.876 42.7588ZM96.4432 42.7588H91.3207V28.6235H96.2831V30.9265H96.3632C97.2436 29.2588 99.0845 28.2265 101.006 28.3853C102.846 28.3853 104.127 28.8618 104.927 29.8147C105.728 31.0059 106.128 32.5147 105.968 33.9441V42.7588H100.845V34.7382C100.925 34.0235 100.765 33.3088 100.445 32.6735C100.045 32.1971 99.4847 31.8794 98.8444 31.9588C97.3237 31.9588 96.5233 32.9118 96.5233 34.8177L96.4432 42.7588ZM22.3262 42.7588H17.2036V28.6235H22.1661V30.9265H22.2461C23.1266 29.2588 24.9675 28.2265 26.8884 28.3853C28.7294 28.3853 30.01 28.8618 30.8104 29.8147C31.6108 31.0059 32.011 32.5147 31.8509 33.9441V42.7588H26.7284V34.7382C26.8084 34.0235 26.6483 33.3088 26.3282 32.6735C25.928 32.1971 25.3677 31.8794 24.7274 31.9588C23.2066 31.9588 22.4062 32.9118 22.4062 34.8177L22.3262 42.7588ZM127.339 42.7588H123.817V39.4235H127.339V42.7588ZM89.6398 42.7588H84.5173V28.6235H89.6398V42.7588ZM41.936 42.7588H36.6533L31.6108 28.6235H36.7334L38.5743 34.7382C39.0545 36.4853 39.4547 38.3118 39.4547 38.3912H39.5348C39.7749 37.2 40.015 36.0088 40.3352 34.8177L42.1761 28.703H47.1386L41.936 42.7588ZM15.2826 42.7588H10V22.7471H15.2826V42.7588Z" fill="black"/>
<path fill-rule="evenodd" clip-rule="evenodd" d="M84.3569 27.1147L89.6396 26.1618V21L84.3569 21.9529V27.1147Z" fill="#FFA500"/>
</svg>
