<svg xmlns="http://www.w3.org/2000/svg" xml:space="preserve" viewBox="0 0 292.2 292.8">
  <path fill="#FFF" d="M238.4 82.5V37h-30.9l-29.9 45.5zm0 24.3-94 84.3h94z"/>
  <path d="M247.4 19H112.2l-7.7 4.3-68 108.5 7.6 13.7h44.4L35.9 265.3l14.2 10.3 74.3-66.6h123l9-9V28l-9-9zm-137 121.2-8.2-12.6h-42l57-90.6h69l-32.6 49.5 7.5 13.9h57.8L69 234.7l41.5-94.5zM238.4 37v45.5h-60.8L207.5 37h31zm0 69.8v84.3h-94l94-84.3z"/>
  <path fill="#610FE6" d="M218.8 100.4H161l-7.5-13.9L186.1 37h-69l-56.8 90.6h41.9l8.2 12.6-41.5 94.5z"/>
</svg>