<?xml version="1.0" standalone="no"?>
<!DOCTYPE svg PUBLIC "-//W3C//DTD SVG 20010904//EN"
 "http://www.w3.org/TR/2001/REC-SVG-20010904/DTD/svg10.dtd">
<svg version="1.0" xmlns="http://www.w3.org/2000/svg"
 width="500.000000pt" height="500.000000pt" viewBox="0 0 500.000000 500.000000"
 preserveAspectRatio="xMidYMid meet">
<metadata>
Created by potrace 1.11, written by Peter Selinger 2001-2013
</metadata>
<g transform="translate(0.000000,500.000000) scale(0.100000,-0.100000)"
fill="#000000" stroke="none">
<path d="M480 3380 c13 -9 128 -47 169 -55 9 -2 39 -9 66 -15 57 -13 53 -12
157 -34 42 -9 94 -18 115 -22 21 -3 45 -7 53 -9 15 -4 194 -31 275 -41 22 -2
51 -6 65 -9 14 -2 61 -7 105 -10 44 -4 82 -8 85 -10 3 -2 52 -6 110 -10 58 -4
123 -8 145 -10 290 -24 1165 -24 1350 0 17 2 73 7 125 10 52 4 106 8 120 10
69 8 130 15 180 20 30 3 66 8 80 10 14 2 63 9 110 15 108 14 406 69 437 81 13
5 23 7 23 5 0 -7 202 50 240 67 l35 16 -40 -3 c-22 -2 -121 -17 -220 -34 -99
-17 -208 -34 -242 -37 -34 -3 -72 -8 -84 -10 -12 -3 -47 -7 -78 -10 -137 -13
-168 -16 -201 -20 -19 -2 -84 -7 -145 -11 -60 -3 -117 -8 -126 -9 -15 -3 -144
-9 -424 -20 -101 -4 -825 -5 -925 0 -183 7 -398 17 -435 20 -22 2 -85 6 -140
10 -55 3 -111 8 -125 10 -14 2 -56 6 -95 9 -71 6 -150 14 -195 21 -14 2 -50 6
-80 10 -85 10 -168 22 -215 31 -11 2 -40 7 -65 10 -25 3 -63 10 -85 14 -76 17
-141 22 -125 10z"/>
<path d="M303 3235 c-83 -36 -83 -165 0 -228 45 -34 140 -80 217 -105 128 -42
395 -100 541 -117 24 -3 55 -7 69 -10 24 -4 46 -7 155 -20 92 -10 129 -14 200
-20 39 -3 90 -8 115 -10 104 -10 171 -15 270 -21 234 -13 250 -15 283 -49 26
-25 21 -51 -13 -65 -45 -19 -314 -16 -460 5 -14 2 -52 6 -85 10 -33 3 -91 11
-130 16 -38 5 -88 12 -110 15 -22 2 -51 7 -65 9 -14 2 -45 7 -70 10 -25 3 -72
10 -105 15 -33 5 -78 12 -100 15 -87 13 -412 66 -445 72 -116 23 -186 -15
-194 -105 -6 -53 16 -95 66 -130 39 -27 156 -73 220 -86 106 -23 321 -65 353
-70 22 -4 83 -13 135 -22 52 -8 112 -17 135 -19 22 -3 51 -7 65 -10 14 -3 45
-7 70 -10 25 -3 56 -7 70 -10 14 -2 43 -7 65 -10 296 -38 338 -52 350 -114 7
-35 -27 -44 -139 -38 -56 4 -117 9 -136 12 -62 10 -254 45 -280 50 -72 14
-128 25 -150 29 -34 6 -232 50 -350 76 -52 12 -106 24 -120 26 -14 3 -32 7
-41 9 -18 6 -47 -14 -49 -35 -5 -35 2 -48 28 -58 24 -10 137 -36 202 -48 14
-3 41 -9 60 -14 32 -8 249 -53 310 -65 14 -3 36 -7 50 -10 53 -11 199 -37 280
-50 19 -3 60 -10 90 -15 91 -15 252 -8 283 13 36 23 58 60 62 99 9 117 -84
189 -275 212 -25 3 -110 15 -190 26 -80 11 -163 22 -185 25 -22 3 -51 8 -65
10 -14 3 -41 7 -60 9 -188 23 -521 90 -628 126 -50 17 -96 39 -111 55 -25 25
-25 27 -8 40 11 7 29 12 40 9 12 -2 63 -11 112 -19 50 -8 99 -17 110 -19 11
-2 43 -7 70 -11 77 -11 88 -13 120 -19 33 -6 432 -64 480 -70 17 -3 55 -7 85
-11 30 -3 66 -8 80 -10 210 -30 456 -38 550 -19 79 17 111 39 129 90 39 111
-51 203 -214 218 -27 3 -104 8 -170 11 -66 4 -136 8 -155 10 -19 2 -75 7 -125
10 -49 3 -106 8 -125 10 -19 3 -60 7 -90 10 -51 5 -251 30 -330 41 -19 3 -80
14 -135 24 -55 10 -116 22 -135 25 -19 3 -43 8 -52 11 -9 3 -25 7 -35 9 -124
28 -290 95 -330 134 -13 12 -23 31 -23 41 0 23 24 26 80 10 19 -5 46 -11 60
-13 14 -3 43 -10 65 -15 22 -6 60 -14 85 -17 24 -4 47 -8 51 -10 5 -4 199 -39
279 -51 120 -18 160 -24 205 -29 28 -4 61 -8 75 -10 13 -3 70 -9 125 -15 55
-6 116 -13 135 -15 45 -5 124 -13 225 -20 44 -4 100 -8 125 -10 308 -27 941
-27 1280 0 20 1 76 6 125 9 50 4 106 9 125 11 19 2 64 7 100 10 36 3 81 7 100
10 35 5 47 7 165 20 71 8 66 7 271 39 89 14 182 30 208 36 25 5 63 13 84 16
20 3 95 19 165 35 153 35 167 35 167 9 0 -68 -244 -165 -546 -216 -16 -2 -65
-11 -109 -19 -44 -7 -105 -17 -135 -20 -30 -3 -66 -8 -80 -10 -147 -21 -405
-44 -675 -60 -222 -13 -261 -20 -315 -57 -87 -60 -91 -194 -8 -239 61 -33 265
-45 423 -25 22 3 72 8 110 11 39 3 81 8 95 10 14 2 50 7 80 10 30 4 66 8 80
10 14 2 45 7 70 10 25 3 56 8 70 10 14 2 61 9 105 15 44 6 91 13 105 15 59 10
218 34 250 39 39 6 260 43 301 51 17 3 31 -1 40 -11 21 -25 -32 -65 -126 -96
-111 -37 -459 -104 -690 -134 -27 -3 -57 -8 -66 -9 -9 -2 -40 -6 -69 -10 -29
-4 -61 -8 -70 -10 -9 -2 -41 -6 -71 -10 -30 -3 -61 -8 -69 -10 -8 -2 -44 -7
-80 -10 -129 -12 -229 -56 -265 -118 -23 -39 -24 -117 -2 -151 34 -51 62 -61
172 -61 94 0 198 8 255 20 14 3 41 8 60 11 19 3 94 16 165 31 72 14 141 27
155 29 21 4 40 8 90 19 3 1 21 4 40 8 19 4 53 12 75 17 22 5 94 21 160 35 143
31 172 41 178 64 6 23 -8 57 -26 64 -9 3 -125 -19 -259 -48 -134 -30 -254 -57
-268 -59 -54 -10 -86 -17 -100 -21 -8 -2 -31 -7 -50 -10 -19 -3 -69 -12 -111
-20 -42 -8 -98 -17 -125 -21 -27 -3 -52 -8 -55 -10 -3 -2 -57 -6 -121 -10
-124 -7 -160 1 -155 36 7 48 74 82 187 95 30 4 66 8 80 10 14 2 50 7 80 10 30
3 62 8 70 10 8 2 36 7 62 10 197 22 642 100 776 135 124 33 225 80 255 121 23
32 28 93 11 136 -23 53 -95 79 -174 62 -19 -4 -55 -10 -80 -14 -61 -8 -100
-14 -130 -20 -14 -3 -40 -7 -57 -10 -18 -3 -46 -7 -63 -10 -16 -3 -45 -7 -62
-10 -18 -3 -44 -7 -58 -10 -14 -3 -47 -7 -75 -11 -27 -3 -57 -7 -65 -9 -23 -4
-91 -14 -135 -20 -22 -3 -105 -14 -185 -24 -80 -11 -179 -23 -220 -26 -41 -4
-111 -10 -155 -14 -105 -10 -246 -6 -290 9 -52 17 -47 53 12 84 30 15 56 18
263 31 128 8 282 20 388 31 183 18 241 24 307 35 33 4 80 11 105 14 39 5 70
10 182 29 72 12 274 62 343 83 237 75 338 181 280 293 -28 54 -95 72 -176 50
-41 -12 -366 -78 -419 -86 -63 -10 -94 -14 -150 -24 -74 -13 -105 -17 -170
-25 -30 -4 -66 -8 -80 -10 -14 -2 -50 -7 -80 -10 -30 -3 -66 -8 -80 -10 -14
-2 -59 -6 -100 -10 -41 -3 -91 -8 -110 -10 -343 -43 -1142 -53 -1515 -20 -22
2 -69 6 -105 9 -446 39 -793 86 -1105 151 -44 9 -117 25 -163 36 -97 22 -126
23 -169 4z"/>
<path d="M2430 2569 c-19 -12 -42 -29 -50 -38 -16 -17 -90 -128 -90 -135 0 -2
-23 -53 -51 -112 -159 -340 -181 -373 -256 -395 -70 -19 -294 -16 -404 6 -13
3 -38 7 -55 10 -49 6 -193 34 -259 50 -202 47 -287 69 -345 85 -82 24 -120 31
-120 22 0 -25 505 -183 725 -226 153 -31 236 -40 355 -38 113 1 181 20 228 65
35 34 100 140 147 242 116 251 182 366 220 383 48 23 119 -67 220 -275 164
-340 184 -371 257 -392 43 -13 222 -18 275 -7 15 3 48 8 73 11 115 15 390 76
565 126 152 44 325 102 325 109 0 8 -73 -2 -136 -19 -21 -5 -122 -28 -224 -50
-423 -90 -690 -121 -820 -96 -70 14 -77 24 -203 293 -125 267 -170 335 -247
381 -45 27 -86 27 -130 0z"/>
</g>
</svg>
