<svg xmlns="http://www.w3.org/2000/svg" xml:space="preserve" viewBox="0 0 292.2 292.8">
  <path fill="none" d="M63 265h-.4.4zm-10.2-1.6h-.2.2zm4.4 1.5H57h.2zm-3-.8-.3-.1h.2zm4.5 1zm1.6 0H60h.3zm-14-9.5-.1-.2v.1zm-.5-1.7v-.2.2zm4.4 7.8zm-4.7-9.4v-.1zm2 6v-.1zm.8 1.3-.2-.2.2.3v-.1zm-3-9 .1-.3v.3zm109-221.2h.5-.6zm-109 219.4v-.4.4zm-14.7-124zm2.3 0zm-.6 0h.1-.1zm-.6 0h.1-.1zm7.8 0h10l-10 .1zm189.9 140.5h-.2.2zm-2.1-.2h-.2.2zm4.2.3h-.3.3zm14.9-16.4v.3-.3zm-.4 4.1v.3-.3zm-1 3.5v.1zm.5-1.6zm-6.6-74.2 4 36-4-36zm-2.2 83.7h-.2.2zm7.5-6.4v.2-.2zm-11 7.2h-.1.2zm6.5-2.3-.2.1.2-.1zm3.6-3.4-.2.2.2-.2zm-1.1 1.3-.1.2v-.2zm-98 4.2h.3-.4.1zm-4.2-.6h-.2.2zm9.6.5h-.5.5zm-1.3.2h-.5.5zm2.5-.5-.4.2.4-.2zm-15-2h-.3.2zm-2.3-1-.3-.3.3.3zm-2.3-1.4-.4-.3.4.3zm-2.5-1.7-.3-.2.3.2zm34.6.1-.7.4.7-.4zm-11.3 5.7h-.2.2zm12.7-6.8-.6.4.6-.4zm-9.6 5.7-.5.3.5-.3zm1.3-.6-.5.3c.2 0 .4-.2.5-.3zm-2.7 1.3h-.4.4zm8-4.3-.5.3.6-.4zm98-134.2 1.1-.1h-1.2zm1.5-.2h.2-.2zm.4 0h.2-.2zm.4.1.3.1h-.3v-.1zm.4.2c.2 0 .3.2.3.3l-.2-.3zm-30.9-12 .2 1.4-.2-1.4z"/>
  <path fill="#FDFDFD" d="m262.9 126-.2-.1-.2-.3h-.2l-.3-.2-1.1-.1-1.3.2h-3.9c-4.8 0-9.7 0-14.6-.2h-1.5l-3-.3-.8-.2h-.2l-.4-.3h-.1c-.4-.2-.8-.5-1-.8-.3 0-.4-.2-.5-.5l-.4-.5-.3-.6v-.1l-.5-1.8-.2-.9v-.2l-.2-1v-1.5l-.5-3c-1.3-13-2.6-26-8.6-37.7l-1.6-2.9-.5-.8c-1-1.6-1.9-3.1-3-4.6l-.5-1a92 92 0 0 0-1.4-1.9l-.4-.6-1.9-2.5-.4-.6-1.6-1.8-.7-.8a88.6 88.6 0 0 0-3.5-3.9l-.7-.7-1.8-1.8-.3-.3-2.2-2-.8-.7-4-3-.9-.8-1.6-1.2-.8-.6-2.5-1.5-.5-.3-2-1.2-.9-.6-4.4-2.3-1-.5-2-.9-.8-.2-2.6-1.2-1-.3-1.9-.7-1-.3-4.8-1.5-1-.3-3-.6h-.3c-.7-.3-1.6-.5-2.5-.6l-1-.2a87 87 0 0 0-5.3-.7l-4-.4h-3l-.7-.1h-2.5l-.6-.1-3 .2h-.9l-2.4.1-.9.1A81.5 81.5 0 0 0 87 52.6a85.6 85.6 0 0 0-23.2 41.1c-2 8.4-2.3 17.1-3.4 25.8 0 1-.3 2-.5 3-.3.6-.7 1.2-1.2 1.6-.7.7-1.8.9-3.3 1l-.8-.1-5-.2-10 .1-6-.1-2-.2h-.5a3 3 0 0 0-1 .3c-.1.2-.3.1-.4.2l-.5.5-.2.4-.4 1.2c0 1.7 1.8 3 3 4.1 6.8 7.1 13.7 14 20.7 21a11 11 0 0 1 2.8 3.9 9 9 0 0 1 .4 4.8l-8.1 68.3H47c-.5 5.8-.8 11.6-1.6 17.4l-.1 2v1.6l-.1.3.1 1.6.3 1.5v.2l.5 1.4v.2l.5 1.4.6 1.3h.1l.7 1.1.2.3.9 1 1 1a13 13 0 0 0 2.4 1.7h.2l1.1.7h.2c1 .4 2 .6 3 .8l1.6.2.2.1 1.5.1c.8 0 1.6 0 2.3-.2h.4l1.4-.2c5.8-1.2 11.3-4 15.7-8l1.6-1.2.6-.3 1-.7.6-.5 1-.5.6-.4 4-2.2.5-.2 1-.5.6-.2 1-.4.5-.2 1.5-.4h.2l1.3-.5h.5l1-.3.6-.1 1-.1h.6c1.3-.3 2.6-.3 4-.3l4.7.4 2.1.6h.4l2.3.7h.3l2.2 1h.2l2.3 1.2.4.2c1.6.9 3.2 1.9 4.7 3h.4a59 59 0 0 1 4.7 3.5l.2.2 2 1.4.5.3 2 1.1.3.3 2 1h.2l2 1 2 .6h.3c1.3.5 2.7.8 4 1h3.7l.6-.1.8-.1h.5l.8-.2.4-.2 1-.2h.2l1.3-.5.4-.1 1-.3.4-.3.8-.3c.2 0 .4-.2.5-.3a35 35 0 0 0 4.8-2.7l.6-.4.8-.5.7-.4.8-.7.6-.4 2.9-2.2.4-.3 1-.7.6-.3.9-.6.6-.4a42.3 42.3 0 0 1 4.4-2.3l1-.4.6-.2c.4-.2.8-.4 1.3-.4l.1-.1 1.6-.5.4-.2 1-.2.6-.1 1-.2h.5c1.4-.3 2.7-.5 4.1-.5h1.6l4.6.4c1.6.3 3.1.7 4.7 1.3h.4l2.2.9 2.2 1 .4.2 4.6 2.8.3.3 2.2 1.6c4.7 4 10.3 6.9 16.3 8.5l2 .3h.3l1.7.1h.3l1.6-.1h.2l1.6-.3 1.5-.4.3-.1c1-.4 1.9-.8 2.8-1.4l.2-.1 1.3-1 1-1 .2-.1.9-1.1.2-.2.8-1.3v-.2l.8-1.4.6-1.6.5-1.7v-.3c.2-1.2.3-2.5.3-3.8V247l-1.6-12.4-1.9-17.9-3.9-36a2298 2298 0 0 0-2.2-20.4 15.7 15.7 0 0 1 1-5.1 13 13 0 0 1 3-3.7c7.2-7 14.2-14.1 21.1-21.2l.4-.4.7-1c.2 0 .5-.5.5-.9v-.5c0-.3.1-.7-.2-1.1 0-.2-.2-.3-.3-.4zm-85-57.7h.7l.6.2.7.2h.6l.7.4.5.2.7.2.5.4.6.2.5.4.6.4.5.4c.2 0 .3.2.4.4.2 0 .3.2.5.4l.5.5.4.4.4.6.3.4.5.7.2.4.4.6.2.5.3.8.1.5.3.7.1.5.2.7v.5l.1 1v1.7c-.8 7.1-7 12.3-14 12l-1.4-.2-.7-.2-.6-.1-.7-.3-.5-.2-.6-.3-.6-.2-.6-.4-.6-.2-.5-.5-.4-.3-.5-.5-.5-.3-.5-.6-.3-.4-.5-.5-.3-.5-.4-.6-.3-.4-.3-.8-.3-.4-.3-.7-.2-.4-.2-.9v-.5l-.3-.8v-3.1c.5-7 6.8-12.4 14-12zm-74.2 24.8-.2-.3-.1-.3-.2-.2c0-.2-.2-.3-.3-.5-1.3-3.1.7-4.8 3-6l8.6-4.4-8.6-4.4a5.6 5.6 0 0 1-2.8-2.4c-.4-.6-.4-1-.5-1.7l.1-1a6 6 0 0 1 .8-1.8l.2-.2.3-.6h.1l.7-.5h.2l.5-.3h.2c.2-.2.5-.2.7-.3l.8.1 1 .2h.2l.9.4 8.4 4.2c3.3 1.6 6.5 3.4 9.6 5.2l.7 1c1.3 2 .6 4.6-2 6-5.3 3-10.9 5.8-16.4 8.4l-.9.3-.8.3-.8.2-1.8-.2-.2-.1-.3-.1-1-1.1zm86 22.4a81 81 0 0 1-1.3 7.1 43 43 0 0 1-9.3 19 51 51 0 0 1-6.6 17.8 29.6 29.6 0 0 1-9.9 9.1l-.4.4-1.2.7-.4.2-1.6.8h-.3l-3 1.2-.5.2-1.5.3-.4.2-1.4.3h-.5l-1.4.3h-.2l-1.6.1h-.5l-1.2.1h-2.1l-3.5-.3-2-.5-.7-.1c-1.2-.3-2.3-.7-3.5-1.2l-.6-.2-1.9-.8-1.8-1-.6-.3a31.4 31.4 0 0 1-3.5-2.5l-1.6-1.4-.3-.3-1.2-1.1-.5-.7-.9-1-.5-.6-1.1-1.5-.2-.3-1.2-1.8c0-.2-.2-.4-.3-.5a33 33 0 0 1-1.6-3.7l-.4-.7-.8-2.2-1.4-4.7-1.4-4.8a37.6 37.6 0 0 1-6.3-10.6l-.2-.2a50.4 50.4 0 0 1-3.8-15.6c-.3-1.6.3-2.3 1.2-2.4l.5-.1h56.1l26 .1 1.7.2 1 .2.3.4.3.4.2.4v1.7h-.2z"/>
  <path fill="#999" d="M272 121.7c-1.9-3.6-5.4-6-9.5-6.3h-20.7l-.3-2.5v-.4l-.3-1.9a106 106 0 0 0-9.5-39.3 94.9 94.9 0 0 0-98.2-51.5 92.4 92.4 0 0 0-50.9 23.4 93.2 93.2 0 0 0-31.4 67.6l-.4 4h-17c-8-.7-11.7 3.1-13.6 6.4-2 3.8-2 8.4 0 12.2 1.3 2.1 3 3.7 3.9 4.6l.4.3c7 7.3 14 14.4 21.3 21.5l-6 51.3-1 7.6h-.7l-2.4 26.7c-1.2 7.4.7 15 5.2 21a24.3 24.3 0 0 0 17 8.7c2.6.2 5.4 0 8.2-.3 7.5-1.6 14.5-5 20.3-10.1 6.5-5.2 12.7-7.4 18.6-6.9a30 30 0 0 1 15.1 6.9 45.2 45.2 0 0 0 23.3 10.5c9.5.8 18.3-2.5 29-10.8 5-4.4 11.5-6.7 18.1-6.3a27 27 0 0 1 14.4 6.3 52 52 0 0 0 17.6 9.8c1.9.5 4 1 6 1.1a25 25 0 0 0 20.5-7 27 27 0 0 0 7.2-22.1l-.8-7.8-.5-4.8-2.3-19.8c-1.8-17-3.7-34.7-5.8-52-.3-2.1-.2-2.2.7-3a433 433 0 0 0 16.6-16.6l4.9-4.8.1-.1c6.6-6.8 4.3-13.2 3-15.6zm-8.5 5.8v.6l-.6 1a8 8 0 0 1-.7.8l-.4.4c-7 7-14 14.3-21.1 21.2a13.2 13.2 0 0 0-3.5 5l-.6 3c0 1.1 0 2.2.2 3.3l2.1 18 4 36 1.8 17.8 1.5 12.4.2 2v.3a22 22 0 0 1-.4 3.8v.3l-.5 1.6-.5 1.6v.1l-.8 1.5v.1l-.9 1.3-.2.2c-.3.4-.6.8-1 1v.3l-1.1.9-1.3 1-.2.1-2.8 1.4h-.2l-1.6.5-1.6.3h-.2l-1.6.1-4.4-.4-2-.4a41.4 41.4 0 0 1-14.3-8.1l-2-1.6-.4-.3c-1.5-1-3-2-4.6-2.8l-.4-.1-2.2-1-2.2-1h-.4c-1.6-.5-3.1-1-4.7-1.3l-5.6-.5h-.5l-4 .5h-.7l-.9.3-.5.1-1.1.2-.4.2-1.6.5-1.4.5-.5.2-1 .4-.6.3-4 2-.5.4-.9.6-.6.3-1 .7-.4.3-3 2.3-.5.3-.8.7-.7.4-.8.5-.6.5c-1.5 1-3.1 1.8-4.8 2.6l-.5.3-.8.3-.5.3-1 .3-.3.2-1.3.3h-.2l-1 .3-.4.2-.8.1h-.5l-.8.2H144c-1.3-.1-2.6-.3-3.9-.7h-.3a27 27 0 0 1-2-.8l-2-1h-.3l-2-1.1h-.4l-1.9-1.2-.4-.4-2.1-1.4-.3-.2c-1.6-1-3.1-2.2-4.6-3.4l-.3-.1c-1.5-1.1-3.2-2-4.8-3l-.4-.2-2.3-1.1h-.2l-2.2-1h-.3l-2.3-.8h-.4c-.7-.3-1.3-.4-2.1-.5h-.4l-2.2-.3-2.1-.2c-1.4 0-2.7 0-4 .2h-.6l-1 .2-.6.1-1 .2-.5.1-1.3.4h-.2l-1.5.5-.4.2-1.1.4-.6.3-1 .4-.5.2-4 2.2-.7.4-1 .5-.6.5-1 .7-.5.3-1.5 1.2A34.5 34.5 0 0 1 63 265h-.4l-2.3.2H59l-2-.3c-1-.2-2-.5-2.9-1h-.2l-1.1-.5h-.1c-.9-.5-1.7-1-2.4-1.7l-1-1a13 13 0 0 1-.9-1.1l-.2-.2-.7-1v-.2l-.7-1.3-.5-1.3v-.2l-.4-1.5v-.2l-.4-1.4v-3.5l.1-2.1c.8-5.8 1-11.6 1.6-17.4h.5c2.6-22.8 5-45.6 8-68.3a9 9 0 0 0-.5-4.8 11 11 0 0 0-2.7-4 619 619 0 0 1-20.7-20.9c-1.2-1-3-2.3-3-4 0-.4 0-.8.4-1.3l.6-.8.5-.2.4-.2h1.1l2.9.2 5-.2h10l5.7.2c1.5 0 2.6-.2 3.3-.9l.4-.4.8-1.2.1-.6c.3-.8.5-1.7.6-2.5 1-8.6 1.2-17.3 3.3-25.8a82.3 82.3 0 0 1 27.9-45 84.9 84.9 0 0 1 46-19.2h1l2.4-.2h.7l3-.1h4.1l3 .1 4 .4 5 .7 1 .1 2.7.5h.4l3 .8 1 .3 4.7 1.5 1 .3 2 .7 1 .3 2.5 1.2.8.2 2 .9 1 .5a46.3 46.3 0 0 1 5.3 2.9l2 1.2.5.3 2.5 1.5.8.6 1.6 1.2 1 .7 4 3.1.6.7 2.3 2 .3.3 1.9 1.8.6.7a87 87 0 0 1 3.5 3.9l.7.8 1.6 1.8.4.6 1.8 2.5.5.6 1.4 2 .6.9 2.9 4.6.5.8L223 76c6 11.7 7.3 24.7 8.6 37.6l.2 1.4.1 1.7v.2l.2 1v.2l.2 1v.2l.2 1 .5 1.7.2.6.4.6.4.5c.3.3.7.6 1.2.8l.5.2h.2l.7.2 1 .1.9.2 2.8.2H261l1.7.2.2.3h.2l.3.5.4 1.1h-.2zm-99.3-43.3-.3-.8.3.8zm-57 10.2h-.2.1zm.7-.2zm-4.2-1.2-.2-.3.2.3zm-.3-.6-.2-.2.2.2zm62.8-3.5-.4-.6.4.6z"/>
  <path fill="#999" d="m165.5 87.9-.3-.8c0 .3.2.6.3.8zm-1-2.4-.3-.8.2.9v-.1zm.4 1.2-.3-.7.3.7zM109 94h-.2.2zm58-4-.4-.5.5.5zm-59.8-21.7h.1zM164 83l-.1-1v1zm23-10 .3.6-.4-.6zm-1-1 .5.6-.5-.5zm-1-.7c.3 0 .4.2.5.4l-.4-.4zm2.6 2.7.5.7-.5-.7zm.7 1 .4.7-.4-.6zm-4.3-4.5.6.4-.6-.4zm5 5.7.2.8-.3-.8zm-9.7-7.6.6.1-.7-.2h.1zm-1.3-.3h-.2.8-.6zm2.5.6.7.2-.7-.2zm1.2.4.7.2-.7-.2zm1.2.6.6.2-.6-.2zm6.4 7.6.3.7c0-.3-.2-.5-.3-.7zm-16 16.6-.7-.3.7.3zm-1.2-.5-.6-.3.6.3zm-3.3-2-.5-.4.5.5zm1 .9-.6-.5.5.5zm1.1.6-.6-.4.6.4zm19-13.2.1 1v-1zm-.2-1.2.2.7-.2-.7zm-22 12-.4-.4.5.6v-.1zm6.9 3.7-.7-.2.7.1v.1zm1.3.1h-.6.6zM120 159.7l-.2-.3.2.3zm1.5 2-.4-.5.4.5zm-3-4.1c.1-.2 0-.4-.2-.6l.3.6zm4.5 5.8-.5-.6.5.6zm-6.4-10-.3-.7c0 .3.2.5.3.7zM132 170v-.1h.1v.1zm-1.8-1-.6-.3.6.2zm-5.7-4.2-.3-.3.4.3h-.1zm2.1 1.7c-.2 0-.4-.2-.5-.3l.5.3zm61.8-54.1h.1zm1.3 1.3v.1zm0 .7v.1zm-29.4-2.3c-18.4-.2-36.6 0-54.9-.1h-.3 55.3zm27 .1h.1zM134.5 171l-.6-.2.6.2zm-7.3-92.9-1.2-.8 1.1.8h.1zm-21 16v.1zm-1 0-.2-.1h.2v.1zm.5 0zm-1-.2h.1zm38.3 79h-.2.2zm-4.4-.6-.6-.2.6.2zm2.4.4h-.3.3z"/>
  <path fill="#F60B8D" d="M168.5 126.6a95.9 95.9 0 0 0-46.1.1 16 16 0 0 0-6 2.9 10 10 0 0 0-1.6 2.4 18 18 0 0 0-1.7 5.8l-.2 3.2 1.3 4.7 2.2 7c0 .3.2.5.3.7.4 1.2 1 2.5 1.6 3.6l.4.6 1.2 1.8.2.3 1 1.5.5.5 1 1.1.5.6 1.2 1.2.4.3 1.5 1.4.5.3 3 2.2.6.2 1.7 1h.2l2 .9.4.2c1.2.5 2.3.8 3.5 1.1l.6.2 2 .4h.4l3 .3 2.4.2 1.2-.1h.5l1.6-.2h.2l1.4-.3h.5l1.4-.3.4-.2 1.5-.3.4-.2 3.1-1.1.4-.2 1.5-.7.4-.2 1.2-.7.4-.3a29.4 29.4 0 0 0 9.8-9.2 51 51 0 0 0 6.6-17.8c.5-9.5-1.4-12.7-10.5-15v.1z"/>
  <path fill="#8B059D" d="M189.8 114.5v-.6l-.2-.5-.2-.4-.4-.4-.4-.1-.5-.1-1.9-.2h-81l-1.5.1c-1 .1-1.5.8-1.2 2.4a86.9 86.9 0 0 0 3.8 15.7l.2.2a43 43 0 0 0 6.3 10.5l.3-3.2a18 18 0 0 1 2.2-6.8l1-1.4c1.6-1.4 3.5-2.2 6-2.9a95 95 0 0 1 46.2 0c9.1 2 11 5.3 10.6 15l2.2-3a43 43 0 0 0 7.6-18l1-6v-.2z"/>
  <path fill="#361F44" d="M163.9 82.1v1.3l.3.8v.5l.2.9.2.4.3.7c0 .2.2.3.3.4 0 .3.2.6.3.8l.3.4.4.6.3.5.5.5.3.4.5.6c.2 0 .3.2.5.3l.5.5.4.3.5.5.6.2.6.4.6.2.6.3.5.2.7.3h.6l.7.2h.7l.7.2a13.3 13.3 0 0 0 14.2-13.2v-.4c0-.3 0-.6-.2-1v-.5l-.2-.7-.1-.5c0-.3-.2-.5-.3-.7l-.1-.5-.3-.8-.2-.5-.4-.6-.2-.4-.5-.7-.3-.4-.4-.5-.4-.5-.5-.5-.5-.4-.4-.4-.5-.4-.6-.4-.5-.4-.6-.2-.5-.4-.7-.2-.5-.2-.7-.2-.6-.2-.7-.1-1.4-.2a13.3 13.3 0 0 0-14 13.3v.4zm-59.6 11.4.5.4.3.2h.2l.4.1 1.3.2.8-.2h.1l.7-.2h.1l.9-.4a254 254 0 0 0 16.4-8.4c2.6-1.4 3.3-4 2-6l-.8-1-1.1-.8-8.3-4.4-8.5-4.2-1-.4c-.6-.1-1.2-.2-1.8-.1h-1l-.5.3h-.2l-.6.5v.1l-.5.6-.2.2c-.5.9-.8 1.9-.8 3 0 .5.1 1 .4 1.6.5 1 1.4 1.8 2.8 2.4l8.6 4.4-8.5 4.3c-2.3 1.3-4.3 3-3 6.1l.3.5.2.2.1.4.2.2.6.5h-.1z"/>
</svg>