<svg width="180" height="68" viewBox="0 0 180 68" fill="none" xmlns="http://www.w3.org/2000/svg">
<path d="M24.0684 34.5014C24.0684 35.3464 24.7345 36.0066 25.5871 36.0066C26.4397 36.0066 27.1058 35.3464 27.1058 34.5014C27.1058 33.6563 26.4397 32.9961 25.5871 32.9961C24.7345 33.0225 24.0684 33.6827 24.0684 34.5014ZM36.8044 33.0225C35.9518 33.0225 35.2857 33.6827 35.2857 34.5278C35.2857 35.3728 35.9518 36.033 36.8044 36.033C37.657 36.033 38.3231 35.3728 38.3231 34.5278C38.3231 33.6827 37.657 33.0225 36.8044 33.0225ZM36.8044 44.3252C35.9518 44.3252 35.2857 44.9854 35.2857 45.8305C35.2857 46.6755 35.9518 47.3357 36.8044 47.3357C37.657 47.3357 38.3231 46.6755 38.3231 45.8305C38.3231 44.9854 37.657 44.3252 36.8044 44.3252Z" fill="#F3BB2D"/>
<path d="M40.0283 20.5854C38.5096 18.7104 35.7918 18.6312 34.1932 20.11L34.0066 20.2949L33.6336 20.5854C32.1149 21.8002 29.8501 21.6945 28.438 20.2949V20.1893C27.9584 19.7139 27.3189 19.3442 26.6528 19.1593C26.5462 19.1593 26.3597 19.0537 26.2798 19.0537H24.761C24.6544 19.0537 24.5745 19.0537 24.4679 19.1593H24.2814C24.1748 19.1593 24.0949 19.265 23.9883 19.265C23.9883 19.265 23.8818 19.265 23.8818 19.3706C23.7752 19.3706 23.6952 19.4762 23.5887 19.4762C23.5887 19.4762 23.4821 19.4762 23.4821 19.5819C23.3755 19.6875 23.2956 19.6875 23.189 19.7667C23.189 19.7667 23.0824 19.7667 23.0824 19.8724C22.9758 19.978 22.8959 19.978 22.7893 20.0572L22.6828 20.1629L22.4962 20.3477L22.1232 20.6382C20.6045 21.853 18.3397 21.7473 17.0341 20.3477C17.0341 20.3477 16.9276 20.3477 16.9276 20.2421L16.741 20.0572C16.1815 19.5819 15.5154 19.2122 14.7694 19.1329H13.0641C13.0641 19.2386 12.9575 19.2386 12.8776 19.3178H12.851C12.3714 19.5026 11.9184 19.6875 11.5187 20.0572L11.4122 20.1629L11.1191 20.4533C10.746 20.8231 10.5595 21.2984 10.373 21.6681C10.373 21.7738 10.2664 21.853 10.2664 21.9586C10.2664 22.0642 10.1599 22.1435 10.1599 22.3283C10.0533 22.9885 10.0533 23.6487 10.2664 24.2825C10.2664 24.3882 10.373 24.4674 10.373 24.573V24.6786C10.373 24.7843 10.4796 24.8635 10.4796 24.9691C10.5862 25.0748 10.5862 25.154 10.6661 25.3389C10.8526 25.4445 11.0391 25.6294 11.1457 25.7086L11.3322 25.8934L11.5187 26.0783C12.9309 27.4779 12.9309 29.9075 11.4122 31.4127C11.2256 31.5976 10.9326 31.8881 10.8526 32.0729C10.746 32.1786 10.746 32.2578 10.6661 32.4427V32.5483C10.5595 32.6539 10.5595 32.7332 10.4796 32.8388V32.9444C10.4796 33.05 10.373 33.1293 10.373 33.2349V33.3405C10.373 33.4462 10.373 33.5254 10.2664 33.631V35.0307C10.2664 35.1363 10.2664 35.2155 10.373 35.3211V35.4268C10.5595 36.087 10.9326 36.7472 11.4921 37.3018C13.0108 38.807 13.0108 41.2366 11.4921 42.7154L11.3855 42.8211L11.199 43.0059V43.1116C11.0924 43.2172 11.0125 43.2964 11.0125 43.4021C11.0125 43.4021 11.0125 43.5077 10.9059 43.5077C10.7993 43.6133 10.7993 43.6925 10.7194 43.7982L10.6128 43.9038C10.6128 44.0094 10.5062 44.0094 10.5062 44.0887C10.5062 44.1679 10.3997 44.1943 10.3997 44.2735C10.3997 44.3792 10.3997 44.3792 10.2931 44.4584C10.1066 44.8281 10 45.3034 10 45.6732V46.4126C10.1066 46.7031 10.1066 46.9672 10.2931 47.152C10.2931 47.2576 10.3997 47.3369 10.3997 47.3369C10.3997 47.3369 10.3997 47.4425 10.5062 47.4425C10.5062 47.5481 10.6128 47.6274 10.6128 47.733C10.6128 47.733 10.6128 47.8386 10.7194 47.8386C10.826 48.0235 10.9059 48.1291 11.0125 48.2083C11.0125 48.2083 11.0125 48.314 11.1191 48.314C11.1191 48.314 11.1191 48.4196 11.2256 48.4196C11.2256 48.5252 11.3322 48.5252 11.3322 48.5252L11.4388 48.6309C11.5454 48.7365 11.6253 48.7365 11.6253 48.8157L11.7319 48.9214C11.7319 48.9214 11.8385 48.9214 11.8385 49.027C11.945 49.1326 12.025 49.2119 12.1316 49.2119C12.1316 49.2119 12.2381 49.2119 12.2381 49.3175C12.3447 49.4231 12.4246 49.4231 12.5312 49.5023H12.5845C12.6911 49.608 12.771 49.608 12.9575 49.608C13.0641 49.608 13.2506 49.7136 13.3306 49.7136H13.4371C13.5437 49.7136 13.6236 49.7136 13.7302 49.8192H14.5828C14.8759 49.8192 15.0624 49.7136 15.3289 49.7136H15.4355C15.542 49.7136 15.622 49.608 15.7286 49.608H15.7818C15.8884 49.608 15.9684 49.5023 16.0749 49.5023H16.1815C16.368 49.3967 16.6611 49.2118 16.8476 49.1326L17.1407 48.8421L17.2473 48.7365C18.766 47.152 21.2173 47.152 22.7094 48.7365C24.4146 50.5058 27.239 50.4266 28.8376 48.446C29.9567 47.0464 29.9567 44.9865 28.8376 43.4813C27.3189 41.6063 24.6012 41.5271 23.0025 43.0059L22.816 43.1908L22.443 43.4813C20.9242 44.6961 18.6594 44.5904 17.2473 43.1908L17.0608 43.0059L16.7677 42.6362C15.542 41.1309 15.6486 38.8862 17.0608 37.4866C17.9134 36.7472 18.2864 35.7173 18.2864 34.6874V34.3969C18.2864 33.4726 17.9134 32.5219 17.1674 31.8617C17.1674 31.756 17.0608 31.756 17.0608 31.6768L16.7677 31.3071C15.542 29.8018 15.6486 27.5571 17.0608 26.1575L17.1674 26.0519L17.2739 25.9462C18.7927 24.3618 21.244 24.3618 22.736 25.9462L22.8426 26.0519L22.9492 26.1575L23.1357 26.3424C23.2423 26.3424 23.2423 26.448 23.3222 26.448C23.4022 26.448 23.4288 26.5536 23.5087 26.5536C23.5887 26.5536 23.6153 26.6593 23.6952 26.6593C23.7752 26.6593 23.8018 26.7649 23.8818 26.7649C23.9617 26.7649 23.9883 26.8705 24.0683 26.8705C24.1482 26.8705 24.1748 26.9762 24.2548 26.9762C24.3347 26.9762 24.3614 26.9762 24.4413 27.0818C24.5479 27.0818 24.5479 27.0818 24.6278 27.1874H26.2265C26.333 27.1874 26.413 27.1874 26.5196 27.0818H26.7061C26.8126 27.0818 26.8926 26.9762 26.9992 26.9762H27.1057C27.2123 26.9762 27.2922 26.8705 27.4788 26.7913C27.8518 26.6064 28.2248 26.316 28.5179 26.0519L28.6245 25.9462C30.1432 24.3618 32.5945 24.3618 34.0866 25.9462C35.6852 27.8212 38.6161 27.7156 40.1349 25.7614C41.1474 24.0449 41.1474 21.985 40.0283 20.5854Z" fill="#F3BB2D"/>
<path d="M61.5304 32.1777C60.9708 31.6231 60.4912 31.2534 59.8251 30.9629C59.2656 30.6724 58.5995 30.4876 57.7468 30.4876C57.0008 30.4876 56.2281 30.6724 55.6686 30.9629C55.109 31.2534 54.6294 31.6231 54.2564 32.1777C53.8834 32.653 53.5903 33.2076 53.4038 33.8678C53.2173 34.528 53.1107 35.1882 53.1107 35.822C53.1107 36.4558 53.2173 37.1424 53.4837 37.7762C53.6702 38.4364 54.0433 38.8854 54.4163 39.3607C54.7893 39.8361 55.3488 40.2058 55.935 40.4699C56.4946 40.7603 57.1607 40.8396 57.9067 40.8396C58.7593 40.8396 59.4254 40.6547 59.985 40.3642C60.5445 40.0737 61.104 39.704 61.5836 39.1494L63.5553 41.2093C62.8093 42.0543 61.9567 42.6089 60.9975 42.9786C60.0649 43.3483 59.0258 43.5332 57.8801 43.5332C56.761 43.5332 55.6153 43.3483 54.6827 42.9786C53.7502 42.6089 52.8976 42.0543 52.2314 41.3941C51.5653 40.7339 51.0058 39.8889 50.6328 38.9646C50.2598 38.0403 50.0732 36.9047 50.0732 35.7956C50.0732 34.6865 50.2598 33.5509 50.6328 32.6266C51.0058 31.7023 51.5653 30.8573 52.2314 30.0914C52.8976 29.4312 53.7502 28.8767 54.6827 28.5069C55.6153 28.1372 56.761 27.9524 57.8801 27.9524C58.9991 27.9524 60.0383 28.1372 60.9975 28.5069C62.0366 28.8767 62.8892 29.5369 63.6353 30.2763L61.5304 32.1777ZM67.925 35.6372C67.925 36.3766 68.0316 37.1424 68.298 37.697C68.4846 38.3572 68.8576 38.9118 69.2306 39.3871C69.6036 39.8625 70.1632 40.2322 70.7493 40.417C71.3089 40.7075 72.0816 40.7867 72.8276 40.7867C73.5736 40.7867 74.2398 40.6811 74.9059 40.417C75.4654 40.1265 76.0249 39.7568 76.4246 39.3871C76.7976 38.9118 77.1706 38.3572 77.3572 37.697C77.5437 37.0368 77.7302 36.3766 77.7302 35.6372C77.7302 34.8977 77.6236 34.1319 77.3572 33.5773C77.1706 32.9171 76.7976 32.3625 76.4246 31.8872C76.0516 31.4118 75.492 31.0421 74.9059 30.8573C74.3463 30.5668 73.5736 30.4876 72.8276 30.4876C72.0816 30.4876 71.4154 30.5932 70.7493 30.8573C70.1898 31.1478 69.6303 31.5175 69.2306 31.8872C68.8576 32.3625 68.4846 32.9171 68.298 33.5773C68.1115 34.2375 67.925 34.8977 67.925 35.6372ZM64.9142 35.6372C64.9142 34.528 65.1007 33.4981 65.4737 32.5474C65.8468 31.6231 66.4063 30.778 67.179 30.0122C67.925 29.2728 68.6977 28.6918 69.7368 28.3221C70.6694 27.9524 71.7085 27.6619 72.8542 27.6619C74 27.6619 75.0124 27.8467 75.9716 28.3221C76.9042 28.6918 77.7568 29.2464 78.5295 30.0122C79.2756 30.7516 79.7552 31.5967 80.2348 32.5474C80.6078 33.4717 80.7943 34.5016 80.7943 35.6372C80.7943 36.7463 80.6078 37.7762 80.2348 38.7269C79.8617 39.6512 79.3022 40.4963 78.5295 41.2621C77.7835 42.0015 77.0108 42.4769 75.9716 42.9522C75.0391 43.3219 74 43.6124 72.8542 43.6124C71.7352 43.6124 70.696 43.4276 69.7368 42.9522C68.8043 42.5825 67.9517 42.0279 67.179 41.2621C66.4329 40.5227 65.9533 39.7568 65.4737 38.7269C65.2073 37.7762 64.9142 36.7463 64.9142 35.6372ZM83.6985 43.2163H86.5228V28.2693H83.6985V43.2163ZM83.0324 22.8292C83.0324 22.2746 83.2189 21.7993 83.592 21.3239C83.965 20.9542 84.4446 20.6637 85.0041 20.6637C85.5636 20.6637 86.0432 20.8486 86.4163 21.3239C86.7893 21.6936 86.9758 22.2482 86.9758 22.8292C86.9758 23.4102 86.7893 23.8591 86.4163 24.3345C86.0432 24.7042 85.5636 24.9947 85.0041 24.9947C84.4446 24.9947 83.965 24.8098 83.592 24.3345C83.2189 23.9383 83.0324 23.3838 83.0324 22.8292ZM90.4662 28.2429H93.3172V30.5668H93.4238C93.7968 29.7217 94.3563 29.0615 95.3155 28.6126C96.1681 28.1372 97.2073 27.8731 98.4329 27.8731C99.179 27.8731 99.8451 27.9788 100.511 28.2429C101.177 28.4277 101.737 28.7974 102.216 29.2728C102.696 29.7481 103.069 30.3027 103.442 31.0421C103.735 31.7816 103.922 32.6266 103.922 33.6565V43.2955H101.044V34.4224C101.044 33.7622 100.937 33.102 100.751 32.653C100.564 32.1777 100.271 31.7287 100.005 31.4383C99.7119 31.1478 99.3388 30.8837 98.8859 30.778C98.5128 30.6724 98.0332 30.5932 97.5536 30.5932C96.9941 30.5932 96.4346 30.6988 95.955 30.8837C95.4754 31.0685 95.0224 31.359 94.6228 31.808C94.2497 32.1777 93.9567 32.7323 93.7701 33.3925C93.5836 34.0527 93.477 34.7921 93.477 35.6372V43.4012H90.6527V28.2693L90.4662 28.2429ZM114.34 40.866C115.086 40.866 115.752 40.7603 116.418 40.4963C117.084 40.2058 117.537 39.8361 118.017 39.3871C118.39 38.9118 118.763 38.3572 118.949 37.697C119.136 37.0368 119.322 36.3766 119.322 35.5579C119.322 34.8185 119.216 34.0527 118.949 33.4189C118.763 32.7587 118.39 32.2041 118.017 31.7287C117.537 31.2534 117.084 30.8837 116.418 30.6196C115.752 30.3291 115.086 30.2499 114.34 30.2499C113.594 30.2499 112.927 30.3555 112.261 30.6196C111.595 30.9101 111.142 31.2798 110.663 31.7287C110.29 32.2041 109.917 32.7587 109.73 33.4189C109.544 34.0791 109.357 34.7393 109.357 35.5579C109.357 36.2974 109.464 37.0632 109.73 37.697C109.917 38.3572 110.29 38.9118 110.663 39.3871C111.036 39.8625 111.595 40.2322 112.261 40.4963C112.821 40.6811 113.594 40.866 114.34 40.866ZM122.173 43.1107H119.349V40.9716H119.242C118.683 41.8167 117.91 42.3712 116.977 42.8466C116.045 43.3219 115.006 43.5068 113.967 43.5068C112.848 43.5068 111.702 43.3219 110.769 42.9522C109.837 42.5825 108.984 42.0279 108.318 41.2621C107.652 40.5227 107.092 39.6776 106.799 38.7269C106.426 37.8026 106.24 36.7727 106.24 35.6372C106.24 34.5016 106.426 33.4981 106.799 32.4682C107.172 31.5439 107.652 30.6988 108.318 29.933C108.984 29.1936 109.837 28.6126 110.769 28.2429C111.702 27.8731 112.741 27.6883 113.967 27.6883C115.006 27.6883 116.045 27.8732 116.977 28.3485C117.91 28.8238 118.683 29.4576 119.136 30.2235H119.242V19H122.067V43.1107H122.173ZM136.588 34.4224C136.588 33.7622 136.481 33.2076 136.295 32.653C136.108 32.0985 135.815 31.6231 135.442 31.2534C135.069 30.8837 134.589 30.5932 134.11 30.3291C133.55 30.1443 132.991 29.9594 132.218 29.9594C131.552 29.9594 130.886 30.065 130.326 30.3291C129.767 30.6196 129.287 30.8837 128.808 31.359C128.435 31.7287 128.062 32.2041 127.875 32.7587C127.689 33.3132 127.502 33.7886 127.502 34.2639H136.561L136.588 34.4224ZM127.555 36.7463C127.555 37.4065 127.742 37.9611 128.035 38.5156C128.328 39.0702 128.701 39.5456 129.154 39.9153C129.634 40.285 130.193 40.5755 130.753 40.7603C131.419 40.9452 131.978 41.0508 132.644 41.0508C133.497 41.0508 134.35 40.866 134.989 40.3906C135.655 40.0209 136.215 39.4663 136.774 38.8061L138.932 40.4963C137.334 42.5561 135.069 43.586 132.245 43.586C131.019 43.586 129.98 43.4012 129.047 43.0314C128.115 42.6617 127.262 42.1072 126.596 41.3413C125.93 40.6019 125.37 39.836 125.077 38.8061C124.704 37.8818 124.518 36.8519 124.518 35.7164C124.518 34.6072 124.704 33.5773 125.077 32.6266C125.45 31.7023 126.01 30.8573 126.676 30.0914C127.342 29.352 128.195 28.8767 129.127 28.4013C130.06 28.0316 131.099 27.8467 132.245 27.8467C133.577 27.8467 134.696 28.0316 135.629 28.5069C136.561 28.9823 137.334 29.5369 137.893 30.2763C138.453 31.0157 138.932 31.8608 139.226 32.8115C139.519 33.7358 139.599 34.6865 139.599 35.7164V36.7463H127.555V36.7463ZM150.736 31.9928C150.363 31.6231 149.99 31.2534 149.51 30.9629C149.031 30.6724 148.391 30.4876 147.725 30.4876C147.059 30.4876 146.499 30.6724 145.94 30.9629C145.46 31.2534 145.194 31.6231 145.194 32.1777C145.194 32.653 145.38 33.0227 145.674 33.2076C145.967 33.4981 146.34 33.6829 146.713 33.8678C147.086 34.0527 147.565 34.1583 147.938 34.2375C148.418 34.3432 148.791 34.4224 149.057 34.4224C149.617 34.6072 150.283 34.7129 150.763 34.9769C151.322 35.1618 151.802 35.4523 152.175 35.822C152.548 36.1917 152.841 36.5614 153.107 37.0368C153.294 37.5121 153.48 38.0667 153.48 38.8061C153.48 39.6512 153.294 40.3906 152.921 40.9452C152.548 41.4998 152.068 42.0543 151.509 42.4505C150.949 42.8466 150.283 43.1107 149.537 43.2955C148.791 43.4804 148.018 43.586 147.379 43.586C146.153 43.586 145.034 43.4012 144.075 43.0314C143.142 42.6617 142.29 42.0015 141.517 40.9716L143.675 39.2023C144.155 39.6776 144.608 40.0473 145.194 40.417C145.78 40.7867 146.42 40.9716 147.272 40.9716C147.645 40.9716 148.018 40.9716 148.391 40.866C148.764 40.7603 149.057 40.6811 149.324 40.4963C149.617 40.3114 149.803 40.1265 149.99 39.9417C150.176 39.6512 150.283 39.3871 150.283 39.0966C150.283 38.7269 150.176 38.3572 149.91 38.0667C149.617 37.7762 149.35 37.5914 148.977 37.4065C148.604 37.2216 148.231 37.116 147.858 37.0368L146.739 36.7463C146.18 36.5614 145.514 36.4558 145.034 36.271C144.475 36.0861 143.995 35.7956 143.622 35.5315C143.249 35.241 142.876 34.7921 142.583 34.3167C142.29 33.8414 142.21 33.2076 142.21 32.5474C142.21 31.808 142.396 31.0421 142.689 30.4876C142.982 29.933 143.435 29.4576 144.022 29.0879C144.581 28.7182 145.141 28.4277 145.807 28.2429C146.473 28.058 147.219 27.9524 147.885 27.9524C148.924 27.9524 149.857 28.1372 150.816 28.5069C151.748 28.8767 152.521 29.5369 153.081 30.3819L150.736 31.9928ZM156.225 19.3697H159.049V34.5016L165.47 28.1372H169.334L162.46 34.8713L170 42.8994H165.95L159.076 35.241V42.8994H156.251V19.3697" fill="#101820"/>
</svg>
