<?xml version="1.0" encoding="utf-8"?>
<!-- Generator: Adobe Illustrator 26.3.1, SVG Export Plug-In . SVG Version: 6.00 Build 0)  -->
<svg version="1.1" id="Layer_1" xmlns="http://www.w3.org/2000/svg" xmlns:xlink="http://www.w3.org/1999/xlink" x="0px" y="0px"
	 viewBox="0 0 107.1 57.7" style="enable-background:new 0 0 107.1 57.7;" xml:space="preserve">
<g>
	<path d="M21.5,28.7c-0.1,0.2-0.1,0.2-0.1,0.3c0,0.1,0,0.1,0,0.1s0,0.1,0,0.1c0,0-0.1,0.1-0.1,0.3c0,0.1-0.1,0.2-0.1,0.3
		C21,30,21,30,21.1,29.8c0,0-0.1,0.1-0.2,0.4c-0.2,0.4-0.3,0.5-0.3,0.5l0,0c0,0,0,0.1-0.1,0.1c0,0.1-0.1,0.1-0.1,0.2
		c0,0-0.1,0.1-0.2,0.2c-0.1,0.1-0.1,0.1-0.1,0c-0.1,0.1-0.1,0.2-0.1,0.3c0,0-0.1,0.1-0.1,0.1c0,0,0,0-0.1,0.1c0,0.1,0,0.1,0,0.1
		c0,0,0,0-0.1,0.1c0,0,0,0,0,0s0,0,0,0c0,0,0,0.1-0.1,0.2c0.1-0.1,0.1-0.1,0,0c-0.1,0.2-0.2,0.4-0.4,0.5L19,32.8
		c-0.3,0.3-0.4,0.5-0.5,0.5c-0.1,0.1-0.4,0.4-0.9,0.9c0,0,0-0.1,0.2-0.2c0,0,0,0-0.1,0.1c0,0-0.1,0.1-0.1,0.1c0,0,0,0-0.1,0.1
		c-0.3,0.3-0.5,0.5-0.5,0.5c-0.1,0.1-0.3,0.3-0.4,0.4c0.1-0.1-0.1,0.1-0.5,0.5c-0.5,0.5-0.9,0.9-1.1,1.1c0.1-0.1,0,0-0.3,0.3l0,0
		c0,0-0.1,0.1-0.1,0.1c-0.2,0.2-0.3,0.3-0.3,0.3c-0.2,0.2-0.3,0.3-0.3,0.3c0,0-0.2,0.2-0.6,0.6c-0.1,0.1-0.2,0.2-0.4,0.4
		c-0.2,0.2-0.3,0.3-0.3,0.3l0,0c0,0-0.1,0.1-0.1,0.1c0,0.1-0.1,0.1-0.2,0.2c-0.3,0.3-0.6,0.6-1.1,0.9c-0.1,0-0.1,0.1-0.2,0.2
		c-0.1,0.1-0.3,0.3-0.6,0.5c-0.3,0.2-0.5,0.4-0.6,0.5c-0.1,0-0.2,0.1-0.3,0.2C9.5,42,9.4,42,9.3,42.1c-0.2,0.1-0.3,0.3-0.4,0.4
		c-0.1,0.1-0.1,0,0.1-0.1c0,0-0.1,0.1-0.3,0.3C8.5,42.8,8.2,43,8,43.2c-0.3,0.3-0.5,0.4-0.6,0.5c-0.1,0.1-0.1,0.1-0.1,0.1
		c0,0,0,0,0,0l0,0C7,44,6.8,44.2,6.7,44.3c-0.2,0.1-0.4,0.3-0.5,0.4c-0.1,0.1-0.3,0.2-0.5,0.4c0.1,0-0.1,0.1-0.5,0.4
		c0,0-0.1,0.1-0.3,0.3L5,45.6c-0.1,0-0.2,0.2-0.4,0.3c-0.2,0.2-0.2,0.2,0,0l-0.3,0.2c-0.1,0.1-0.3,0.2-0.4,0.3l0,0
		c0,0-0.1,0.1-0.1,0.1c-0.1,0.1-0.1,0.1-0.2,0.1c-0.1,0.1-0.2,0.1-0.3,0.2c0,0-0.1,0.1-0.2,0.1c-0.1,0.1-0.1,0.1-0.2,0.1
		c-0.4,0.3-0.7,0.5-0.8,0.6c0,0-0.1,0.1-0.2,0.2L1.6,48c-0.1,0-0.3,0.2-0.6,0.4l0,0c0,0-0.2,0.1-0.4,0.3c0,0-0.2,0.1-0.5,0.3
		c0,0,0,0,0,0c0,0,0.1,0,0.1-0.1l0.1,0L0.1,49l0,0c0,0,0,0.1,0,0.1l0,0c0,0,0,0,0,0v0v0c0,0,0,0,0,0v0c0,0,0,0,0,0
		c0,0.1,0,0.1,0,0.2c0,0,0-0.1,0-0.1l0,0.1v0.1c0,0,0,0,0,0.1v0c0,0,0-0.1,0-0.2c0,0,0,0,0-0.1c0-0.1,0-0.1,0-0.1c0,0,0,0,0,0l0,0
		c0,0.1,0,0.2,0,0.2v0v0c0,0,0,0,0,0v0c0,0,0,0.1,0,0.1c0,0,0,0,0-0.1c0,0,0,0,0,0l0,0v0v0v0v0c0,0,0,0,0,0v0c0,0,0,0,0,0l0,0
		c0,0,0,0,0,0c0,0,0,0,0,0c0,0,0,0,0,0c0,0,0,0,0,0l0,0h0c0,0,0,0,0,0c0,0,0,0,0,0c0,0,0,0,0,0c0,0,0,0,0,0l0.1,0h0h0c0,0,0,0,0,0
		c0,0,0,0,0,0c0,0,0,0,0.1,0l0,0c0,0,0,0,0,0l0,0c0,0,0,0,0,0c0,0,0,0,0,0c0,0,0,0,0,0c0,0,0,0,0,0v0c0,0,0,0,0,0l0,0h0h0l0,0h0
		c0,0-0.1,0-0.1,0c0,0-0.1,0,0,0h0v0h0l0,0h0c0,0,0,0,0,0c0,0,0,0,0,0c0,0-0.1,0-0.1,0h0l0,0c0,0,0,0,0,0l0,0c0,0,0,0,0,0v0
		c0-0.1,0-0.2,0-0.4v0l0,0c0,0,0,0,0.1,0c0,0,0.1-0.1,0.1-0.1l0,0c0,0,0,0,0,0c0,0,0.1-0.1,0.2-0.2c0.1-0.1,0.2-0.1,0.2-0.2
		c-0.1,0,0.1-0.1,0.4-0.3c0.1,0,0.1-0.1,0.2-0.1c0,0,0,0,0.1,0c0,0,0.1-0.1,0.1-0.1c0,0,0.1,0,0.1,0c0,0,0,0,0.1,0c0,0,0,0,0,0
		c0,0-0.1,0,0,0c0,0,0.1-0.1,0.1-0.1c0.3-0.3,0.5-0.4,0.4-0.3C2.4,47.2,2.6,47,2.6,47l0,0c0,0,0.2-0.2,0.8-0.6
		c0.1-0.1,0.1-0.1,0.1-0.1c0.2-0.1,0.3-0.3,0.4-0.3c0,0,0.1-0.1,0.1-0.1c0,0,0.1-0.1,0.2-0.1c0,0,0,0,0.1-0.1c0,0,0.1-0.1,0.2-0.2
		c-0.1,0.1-0.1,0.1-0.1,0.1c0.1-0.1,0.4-0.3,0.7-0.6c0.5-0.4,0.7-0.6,0.8-0.7c0.1-0.1,0.1-0.1,0.2-0.2c0.1-0.1,0.2-0.1,0.2-0.2
		c0.1-0.1,0.3-0.3,0.6-0.6c0.1,0,0.2-0.1,0.3-0.3c0.2-0.1,0.3-0.3,0.4-0.4l0,0c0,0,0.1-0.1,0.3-0.2c0-0.1,0,0-0.2,0.2l0.1-0.1
		l-0.1,0.1c0.1,0,0.1-0.1,0.2-0.2c0.1-0.1,0.2-0.2,0.2-0.2l0.1-0.1L8.4,42c0,0,0,0-0.1,0c0.3-0.3,0.5-0.5,0.7-0.7
		c0,0,0.1-0.1,0.1-0.1c0,0,0.1-0.1,0.2-0.2c0.1-0.1,0.2-0.2,0.2-0.2c0.1-0.1,0.2-0.2,0.4-0.4c0.2-0.2,0.3-0.3,0.4-0.4c0,0,0,0,0,0
		c-0.1,0.1-0.3,0.2-0.5,0.4c-0.2,0.2-0.4,0.4-0.5,0.4c0,0,0,0,0,0l0.2-0.2h0c0,0,0.1-0.1,0.1-0.1c0.1-0.1,0.2-0.3,0.4-0.4
		c0.1-0.1,0.2-0.2,0.3-0.3c0.1-0.1,0.3-0.3,0.4-0.4c0,0,0.1-0.1,0.2-0.2c0.1-0.1,0.1-0.2,0.2-0.2c0.1-0.1,0.4-0.4,0.8-0.8
		c0.1-0.1,0.2-0.2,0.3-0.3c0.2-0.2,0.3-0.3,0.3-0.3c0,0,0.1-0.1,0.1-0.1c0.3-0.3,0.5-0.5,0.7-0.7l0,0l0.2-0.3c0,0,0,0,0.1-0.1l0,0
		l0.1-0.1l0.1-0.1c0.1-0.1,0.2-0.2,0.3-0.3l0,0c0.1-0.2,0.2-0.3,0.3-0.4C15,35.1,15,35,15,35.1c0.1-0.1,0.2-0.3,0.4-0.5
		c0.1-0.2,0.3-0.4,0.5-0.6c0,0,0.1-0.1,0.1-0.1c0.1-0.1,0.1-0.1,0.1-0.2c0,0,0-0.1,0.1-0.1c0,0,0.1-0.1,0.1-0.1c0,0,0.1-0.1,0.1-0.1
		l0.1-0.1c0.1-0.1,0.2-0.2,0.4-0.5c0.2-0.2,0.3-0.4,0.3-0.4c0,0,0.1-0.1,0.1-0.1c0.2-0.1,0.2-0.2,0.2-0.2c0.1-0.1,0.1-0.1,0.1-0.1
		c0,0,0,0,0-0.1c0,0,0-0.1,0-0.1l0.3-0.3c0-0.1,0.1-0.2,0.2-0.3c0.1-0.1,0.2-0.2,0.2-0.3c0,0,0.1-0.1,0.1-0.1
		c0.1-0.1,0.1-0.1,0.1-0.1l0-0.1c0-0.1,0-0.2,0-0.2c0-0.1,0.1-0.1,0.1-0.1c0.1-0.2,0.2-0.4,0.2-0.5c0-0.1,0.1-0.2,0.1-0.3
		c0,0,0-0.1,0.1-0.2l0,0c0,0,0,0,0.1-0.2c0.1-0.2,0.1-0.3,0.1-0.2c0.1-0.2,0.1-0.3,0.1-0.3c0,0,0,0,0,0c0,0,0,0,0,0v0
		c0-0.1,0.1-0.2,0.1-0.1c0,0,0-0.1,0-0.1c0,0,0-0.1,0-0.1c0,0,0,0,0-0.1l0,0c0-0.1,0-0.2,0-0.2c0-0.1,0-0.1,0-0.1l0,0v0
		c0,0,0,0,0-0.1v-0.1v0v0v0l0-0.1c0-0.1,0-0.1,0-0.1c0,0,0-0.1,0-0.1l0-0.1c0,0.1-0.1-0.1-0.3-0.4c0,0,0,0,0,0l-0.1-0.1l-0.1-0.1
		c0,0-0.1-0.1-0.1-0.1v0c-0.1-0.1-0.1-0.1-0.2-0.1l-0.1,0l0,0h0c0,0,0,0,0,0h0l0,0l-0.1,0c0,0,0,0-0.1,0c0,0-0.1-0.1-0.1-0.1
		c-0.3-0.2-0.6-0.3-0.7-0.3l-0.1,0c0,0-0.1,0-0.2,0c0,0-0.1,0-0.2-0.1c0,0-0.1,0-0.2,0c-0.1,0-0.1,0-0.2,0v0c0,0-0.1,0-0.3-0.1
		l-0.1,0c-0.3,0-0.6-0.1-1.1-0.3l-0.2,0c-0.1,0-0.2,0-0.4-0.1c-0.2,0-0.3-0.1-0.4-0.1c-0.3-0.1-0.6-0.2-0.8-0.2c0,0,0,0-0.1,0
		c0,0,0,0-0.1,0c0,0-0.1,0-0.1,0c-0.1,0-0.1,0-0.3-0.1c0,0,0,0,0,0l-0.1,0c0,0-0.1,0-0.1,0c-0.1,0-0.1-0.1-0.2-0.1l0,0h0l0,0
		c0,0,0,0-0.1,0c0,0-0.1,0-0.1-0.1c-0.2-0.1-0.3-0.1-0.3-0.2l-0.1,0c0,0-0.1-0.1-0.1-0.1c0,0,0,0,0,0c-0.2-0.2-0.4-0.5-0.5-0.9
		c0-0.1-0.1-0.2-0.1-0.3c0,0,0-0.1,0-0.1c0,0,0-0.1,0-0.1v-0.2c0,0,0,0,0-0.1V22v0v0c0,0,0,0,0,0v0l0,0c0-0.1,0-0.1,0-0.2
		c0-0.1,0-0.1,0-0.1c0-0.1,0.1-0.1,0.1-0.2c0,0,0,0,0.1-0.2c0-0.2,0.1-0.3,0.2-0.4c0,0,0,0,0,0l0,0l0-0.1c0,0,0.1-0.1,0.1-0.1
		c0,0,0-0.1,0.1-0.1c0,0,0.1-0.1,0.1-0.1c0.1-0.1,0.1-0.2,0.2-0.3c0.1-0.1,0.1-0.2,0.2-0.3h0c0.2-0.3,0.5-0.6,0.8-0.9
		c0.1-0.1,0.2-0.2,0.2-0.2c0.1-0.1,0.2-0.2,0.2-0.2c0.1-0.1,0.2-0.2,0.2-0.2l0.2-0.2l0,0c0,0,0.1-0.1,0.1-0.1s0,0,0,0v0l0,0h0
		c0,0,0.1-0.1,0.1-0.1c0.1-0.1,0.2-0.2,0.3-0.2c0.2-0.2,0.3-0.2,0.3-0.2c0.5-0.4,0.7-0.5,0.7-0.5c-0.1,0-0.1,0-0.1,0
		c0.2-0.1,0.4-0.3,0.6-0.5c0.4-0.3,0.6-0.5,0.7-0.6v0l0.1-0.1c0.1-0.1,0.3-0.2,0.5-0.4c0.2-0.2,0.4-0.3,0.5-0.4
		c0.5-0.3,0.8-0.5,1-0.7c-0.1,0.1,0.1,0,0.5-0.3c0,0,0.1,0,0.1-0.1c0.1-0.1,0.2-0.2,0.4-0.3c0.1,0,0.2-0.2,0.5-0.3
		c0.2-0.1,0.5-0.3,0.7-0.5c0.3-0.2,0.5-0.4,0.7-0.5c0.2-0.2,0.3-0.2,0.3-0.3c0,0,0.2-0.1,0.6-0.4c0.2-0.1,0.5-0.3,0.9-0.6
		c0.3-0.2,0.6-0.4,0.9-0.5c0.3-0.2,0.6-0.4,0.9-0.5c0.3-0.1,0.5-0.2,0.7-0.3c0,0,0.1-0.1,0.2-0.1c0,0,0.1-0.1,0.1-0.1
		c0,0,0.1,0,0.2,0v0c0.1,0,0.2-0.1,0.3,0c0,0,0,0.1,0.1,0.1l0,0.1c0,0.1-0.1,0.1-0.1,0.2s0,0.1-0.1,0.2l0,0c0,0-0.1,0.1-0.1,0.1
		c0,0,0,0.1-0.1,0.1c-0.1,0.1-0.2,0.1-0.2,0.2c0.3,0,0.4-0.1,0.3,0c0,0.2-0.1,0.2-0.1,0.2v0c0,0,0,0,0,0.1c0,0,0,0-0.1,0.1
		c-0.1,0-0.1,0.1-0.1,0.1c0.1-0.1,0.1-0.1,0.1,0l0,0l0,0c0.1,0,0.1,0,0.1,0h0.2c0.2,0.1,0.3,0.1,0.3,0.1l0,0c0.1,0,0.1,0,0,0.1
		c0,0.1,0,0.2,0,0.2c0,0-0.1,0-0.1,0c0,0.4-0.1,0.6-0.1,0.5c0,0,0,0,0,0c0,0,0,0,0.1,0c0.1,0,0.1,0,0.1,0c0.1,0,0.1,0,0.1,0.1
		c0,0.1,0,0.1-0.1,0.2c-0.1,0.1-0.1,0.3-0.1,0.5c0,0.2-0.1,0.4-0.2,0.5c0,0-0.1,0-0.1,0c0,0,0-0.1-0.1,0c0,0.1,0,0.2-0.1,0.4
		c-0.1,0-0.1,0.1-0.2,0.1c-0.1,0.1-0.1,0.1-0.2,0.1c-0.1,0-0.1,0.1-0.2,0.1c-0.1,0-0.1,0.1-0.2,0.1c0,0-0.1,0,0,0c0.1,0,0.1,0,0.1,0
		c-0.3,0.2-0.4,0.3-0.5,0.3c-0.2,0.1-0.4,0.2-0.6,0.3c-0.2,0.1-0.4,0.3-0.6,0.4l0,0c0,0,0,0,0,0c-0.4,0.2-0.8,0.5-1.2,0.7
		c-0.2,0.1-0.4,0.2-0.5,0.3c0,0-0.1,0.1-0.3,0.1c-0.1,0.1-0.2,0.1-0.2,0.1c-0.1,0.1-0.4,0.3-0.8,0.6c-0.5,0.3-0.8,0.5-0.9,0.6
		c0,0-0.1,0,0,0c-0.1,0.1-0.3,0.2-0.5,0.3l0,0l0,0c-0.2,0.1-0.3,0.2-0.4,0.3c0,0-0.1,0.1-0.4,0.3c-0.4,0.2-0.7,0.4-0.9,0.6
		c0,0,0,0.1,0,0.1c0,0,0,0,0,0c-0.6,0.4-0.9,0.5-0.9,0.5c0,0-0.2,0.1-0.4,0.3l-0.2,0.1l0.1,0c-0.1,0.1-0.1,0.1-0.2,0.2
		c0,0-0.1,0-0.1,0.1l0,0l0,0h0l0,0v0l-0.1,0.1l0,0h0l0,0l-0.1,0l-0.1,0l0,0c-0.1,0.1-0.3,0.2-0.3,0.3c-0.1,0.1-0.2,0.2-0.2,0.2
		c0,0,0,0,0,0v0h0c0,0,0,0,0,0h0l0,0c0,0,0,0,0,0l0,0v0h0c0,0,0.1,0.1,0,0.1h0c0,0,0,0,0,0v0h0c0,0,0,0,0,0c0,0,0.1,0.1,0.2,0.1
		c0.1,0,0.1,0.1,0.1,0.1l0,0c0,0,0,0,0,0l0,0c0,0,0.1,0.1,0.1,0.1c0.1,0,0.1,0,0.1,0c0.1,0,0.1,0.1,0.2,0.1c0,0,0,0,0.1,0
		c0,0,0.1,0,0.1,0c0.1,0.1,0.3,0.1,0.4,0.2c0.1,0,0.2,0,0.2,0c0,0,0,0.1,0.2,0.1c0.2,0,0.5,0.1,0.9,0.3c0.5,0.2,0.8,0.3,1,0.3
		c-0.1,0-0.1,0.1,0,0.1c0,0,0,0,0,0c0.1,0,0.1,0,0.1,0c0,0,0.1,0,0.1,0c0,0,0.1,0,0.2,0c0,0,0.1,0.1,0.3,0.1
		c0.2,0.1,0.3,0.1,0.3,0.1c0,0,0,0,0,0h0l0.1,0c0,0,0.1,0.1,0.2,0.1c0.1,0,0.2,0.1,0.2,0.1c0,0,0.1,0.1,0.3,0.2
		c0.1,0,0.2,0.1,0.3,0.2l0.1,0.1c0,0,0.1,0,0,0h0v0h0v0c0,0,0.1,0,0.1,0c0,0,0,0,0,0c0,0,0.1,0,0.1,0c0,0,0.1,0.1,0.2,0.1
		c0.2,0.2,0.3,0.3,0.3,0.3c0,0.1,0,0.1,0.1,0.2c0,0-0.1,0-0.2-0.1l0,0.1c0.1,0.1,0.1,0.2,0.1,0.2c0.1,0.2,0.1,0.2,0,0
		c0,0,0,0.1,0,0.1c0.1,0.1,0.1,0.1,0.1,0.2c0,0,0,0.1,0.2,0.3c0,0,0-0.1,0-0.1c0.1,0.1,0.1,0.2,0.1,0.4c0,0,0,0.1,0.1,0.3
		c0,0,0,0.1,0,0.2c0,0.1,0,0.1,0,0.2c0,0.1,0,0.2,0,0.3c0,0,0,0.1,0,0.2v0.1c0,0,0,0,0,0.1c0-0.1,0-0.1,0,0.1c0,0,0,0.1,0,0.1
		c0,0.1,0,0.1,0,0.1c0,0,0,0.1,0,0.1v0.1c0,0.1,0,0.1,0,0.2c0,0.2,0,0.2,0,0.2c0,0.1,0,0.2-0.1,0.3l0,0c0,0.1,0,0.2-0.1,0.3
		c0,0,0,0.1-0.1,0.2C21.6,28.6,21.6,28.6,21.5,28.7C21.6,28.6,21.6,28.7,21.5,28.7z M0.1,49.5C0.1,49.4,0.1,49.4,0.1,49.5L0.1,49.5
		C0.1,49.4,0.1,49.4,0.1,49.5z M0.3,48.9c0.1,0,0,0-0.2,0.2C0.4,48.9,0.5,48.8,0.3,48.9L0.3,48.9z M0.1,49L0.1,49L0.1,49z M0.1,49
		L0.1,49L0.1,49z M0.1,49.5L0.1,49.5C0.2,49.5,0.1,49.5,0.1,49.5z M0.3,48.9c0.2-0.1,0.2-0.2,0.3-0.2C0.6,48.7,0.5,48.8,0.3,48.9z
		 M0.5,49.5L0.5,49.5C0.5,49.5,0.5,49.5,0.5,49.5C0.5,49.5,0.5,49.5,0.5,49.5z M0.6,49.5C0.6,49.5,0.6,49.5,0.6,49.5
		C0.6,49.5,0.6,49.5,0.6,49.5z M0.9,48.5c0,0,0,0-0.1,0.1s-0.2,0.1-0.2,0.1c0,0,0.1-0.1,0.1-0.1C0.7,48.6,0.8,48.6,0.9,48.5z
		 M1.4,48c-0.1,0.1-0.1,0.1-0.2,0.2c-0.1,0,0,0,0.1,0c-0.2,0.2-0.3,0.2-0.2,0.2L1,48.3l-0.1,0.1c0.1-0.1,0.4-0.3,0.9-0.6
		C1.6,47.9,1.5,47.9,1.4,48l-0.2,0.2C1.4,48,1.4,48,1.4,48z M2,47.5c-0.1,0.1-0.2,0.2-0.2,0.2c0,0,0.2-0.1,0.4-0.3
		c0.2-0.2,0.3-0.2,0.2-0.2C2.3,47.3,2.2,47.4,2,47.5L2,47.5z M2.9,46.8L2.9,46.8C2.9,46.8,2.9,46.8,2.9,46.8
		c0.1-0.1,0.2-0.1,0.2-0.2C3.2,46.6,3.1,46.6,2.9,46.8C3,46.8,3,46.8,2.9,46.8C3,46.8,2.9,46.8,2.9,46.8z M3.6,46.2L3.6,46.2
		l-0.2,0.1c0,0-0.1,0.1-0.2,0.2l0.1-0.1c0,0,0,0,0,0c0,0,0.1,0,0.1-0.1C3.6,46.3,3.6,46.3,3.6,46.2C3.6,46.3,3.6,46.3,3.6,46.2z
		 M3.7,46.2C3.8,46.1,3.9,46,4,45.9C3.9,45.9,3.9,46,3.8,46C3.8,46.1,3.7,46.1,3.7,46.2C3.7,46.2,3.7,46.2,3.7,46.2z M7.6,42.7
		c-0.2,0.2-0.3,0.3-0.2,0.2C7.3,43,7.3,43,7.3,43c0.1-0.1,0.2-0.1,0.2-0.1L7.6,42.7C7.6,42.8,7.6,42.7,7.6,42.7z M8.3,42
		c-0.1,0.1-0.2,0.2-0.1,0.1C8.3,42.2,8.3,42.1,8.3,42z M8.8,41.6c0.1-0.1,0.1-0.1,0.1-0.1c0,0,0.1-0.1,0,0c0,0,0,0,0-0.1l0,0.1
		L8.8,41.6c-0.1,0.1-0.2,0.2-0.3,0.3C8.4,42,8.4,42,8.3,42c0,0,0,0,0.1-0.1c0,0,0.1-0.1,0.2-0.2C8.7,41.7,8.7,41.6,8.8,41.6
		L8.8,41.6z M10.1,40.4c-0.5,0.5-0.8,0.7-0.7,0.7l0,0l-0.2,0.2c0.1,0,0.1-0.1,0.1-0.1c-0.1,0.1-0.1,0.2-0.2,0.2
		c0.1-0.1,0.3-0.3,0.4-0.4c0,0,0.1-0.1,0.3-0.2C9.9,40.7,9.9,40.6,10.1,40.4C10,40.5,10,40.5,10,40.5S10,40.5,10.1,40.4z M9.3,41.1
		C9.2,41.2,9.2,41.2,9.3,41.1C9.2,41.1,9.3,41.1,9.3,41.1C9.4,41,9.4,41,9.5,40.9C9.3,41.1,9.3,41.1,9.3,41.1z M10.1,40.7
		c-0.1,0-0.2,0.2-0.4,0.4l-0.4,0.3c0.1,0,0.1,0,0,0C9.8,41.1,10.1,40.8,10.1,40.7z M10.5,40.4c0,0,0,0.1-0.2,0.3L10.5,40.4z
		 M10.8,40.1C10.8,40.1,10.8,40.1,10.8,40.1l0.3-0.3C11,39.9,10.9,40,10.8,40.1C10.7,40.1,10.7,40.2,10.8,40.1
		C10.7,40.2,10.8,40.2,10.8,40.1z M11,39.5l0.1-0.1c0,0,0,0,0,0c0,0,0,0,0,0c0,0,0.1-0.1,0.1-0.1c0,0,0.1-0.1,0.1-0.1
		c0.1-0.1,0.1-0.1,0,0c0,0,0,0,0,0c0,0-0.1,0.1-0.2,0.2L11,39.5z M11.8,39.1c0,0-0.1,0-0.1,0.1c0,0-0.1,0.1-0.1,0.1c0,0,0,0,0,0
		c-0.2,0.2-0.2,0.3-0.2,0.3c0.1-0.1,0.1-0.1,0.1-0.1C11.5,39.5,11.6,39.4,11.8,39.1L11.8,39.1z M13.3,37.2
		C13.4,37.1,13.4,37.1,13.3,37.2c-0.1,0-0.2,0.2-0.3,0.3c0,0-0.1,0.1-0.1,0.1c0,0-0.1,0-0.1,0.1c-0.1,0.1-0.1,0.1,0,0.1
		c0.1-0.1,0.1-0.2,0.2-0.2C13.1,37.4,13.2,37.3,13.3,37.2L13.3,37.2z M14.5,36.1C14.5,36.1,14.4,36.1,14.5,36.1l-0.1,0.1
		c0,0-0.1,0.1-0.3,0.3l0.1-0.1l0,0c0,0,0.1-0.1,0.1-0.1C14.4,36.2,14.5,36.1,14.5,36.1z M14.3,21.2C14.3,21.2,14.3,21.2,14.3,21.2
		C14.3,21.2,14.3,21.2,14.3,21.2z M15.3,20c0.3-0.1,0.5-0.2,0.6-0.5c0,0.1-0.2,0.2-0.3,0.3C15.4,19.9,15.3,19.9,15.3,20z M16.2,19.4
		c0,0,0-0.1,0.1-0.1c0.1,0,0.1-0.1,0.1-0.1c0,0,0,0-0.1,0c0,0-0.1,0-0.1,0C16.3,19.3,16.3,19.4,16.2,19.4z M17.7,18.3l-0.3,0.3
		C17.6,18.4,17.7,18.3,17.7,18.3C17.7,18.3,17.7,18.3,17.7,18.3z M18.3,14.6c0-0.1-0.1,0-0.2,0.2c0,0,0,0,0.1,0L18.3,14.6
		C18.4,14.6,18.4,14.6,18.3,14.6z M18.7,30.7C18.8,30.5,18.8,30.5,18.7,30.7c-0.1,0-0.1,0-0.1,0.1c0,0.1-0.1,0.2-0.1,0.2
		C18.6,30.9,18.6,30.8,18.7,30.7z M19.7,27.7C19.7,27.7,19.7,27.7,19.7,27.7L19.7,27.7c0,0.1,0,0.1,0,0.2l0,0c0,0,0,0,0,0
		C19.7,27.9,19.7,27.9,19.7,27.7C19.7,27.8,19.7,27.8,19.7,27.7C19.7,27.8,19.7,27.8,19.7,27.7C19.7,27.8,19.7,27.8,19.7,27.7z"/>
	<path d="M29.9,39.6l0.1,0c-0.1,0-0.3,0.1-0.5,0.2c-0.8,0.3-1.1,0.5-1,0.5c-0.5,0.2-1,0.4-1.4,0.6c-0.2,0.1-0.4,0.1-0.4,0.1
		c-0.1,0-0.2,0.1-0.4,0.1l-0.1,0c0,0-0.1,0-0.2,0.1c-0.1,0-0.2,0.1-0.2,0.1c-0.4,0.1-0.5,0.1-0.5,0.1c-0.1,0-0.1,0-0.2,0l-0.1,0
		c-0.1,0-0.1,0-0.1,0c-0.3,0-0.4,0.1-0.4,0.1c-0.2,0-0.4,0.1-0.4,0.1c0,0-0.1,0-0.2,0c-0.1,0-0.2,0-0.2,0c-0.1,0-0.2,0-0.3,0
		c-0.1,0-0.2,0-0.4,0h-0.1c0,0,0,0-0.1,0h-0.1c0,0-0.1,0-0.2,0c0.1,0,0,0-0.2,0c-0.2,0-0.2,0-0.2,0c0,0,0,0-0.1,0c0,0-0.1,0-0.1,0
		c0,0-0.1,0-0.2,0c-0.1,0-0.2,0-0.2,0l-0.2,0c-0.1,0-0.2-0.1-0.2-0.1c0,0,0,0-0.1,0c-0.2-0.1-0.3-0.1-0.3-0.1
		c-0.1-0.1-0.2-0.1-0.2-0.1c0,0-0.1-0.1-0.3-0.2l-0.1,0l-0.1,0L20,40.9l0,0c0,0,0,0,0,0l0,0l0,0l-0.1-0.1l-0.1-0.1l0,0l0,0
		c0.1,0,0,0-0.2-0.3l-0.2-0.3l0,0c0,0-0.1-0.1-0.1-0.3c0,0,0-0.1-0.1-0.1c0-0.1,0-0.1,0-0.2l0-0.1l0-0.1c0,0,0-0.1,0-0.1
		c0-0.1-0.1-0.2-0.1-0.2c0,0,0-0.1,0-0.1v0c0,0,0,0,0-0.1c0,0,0-0.1,0-0.2v0l0,0c0,0,0-0.1,0-0.1c0-0.1,0-0.1,0-0.2l0-0.1
		c0,0,0-0.1,0-0.1c0-0.1,0-0.1,0-0.2c0,0,0-0.1,0-0.2c0-0.1,0-0.2,0-0.3c0-0.2,0-0.4,0-0.4l0-0.3l0-0.3c0-0.2,0-0.3,0-0.3l0-0.2
		c0-0.1,0-0.1,0-0.2c0-0.1,0-0.2,0.1-0.4c0-0.2,0-0.3,0-0.3c0-0.1,0.1-0.3,0.1-0.4c0.1-0.3,0.1-0.5,0.1-0.4l0.1-0.2
		c0-0.1,0.1-0.2,0.1-0.4c0.1-0.2,0.1-0.3,0.1-0.3l0,0c0,0,0.1-0.1,0.1-0.3c0-0.1,0.1-0.2,0.1-0.3c0,0,0,0,0.1-0.2
		c0-0.1,0.1-0.1,0.1-0.1l0-0.1c0-0.1,0-0.1,0,0v0v0c0,0,0-0.1,0-0.1c0,0,0-0.1,0,0c0,0.1,0,0,0.1-0.2l0.2-0.5c0-0.1,0-0.1,0,0
		c0.2-0.6,0.4-0.9,0.3-0.8c-0.1,0.2,0.1-0.2,0.5-1l0.3-0.6l0.3-0.6c0-0.1,0.1-0.2,0.2-0.3l0.2-0.3c0,0,0-0.1,0-0.1c0,0,0-0.1,0-0.1
		c0,0,0.1-0.1,0.3-0.5c0.2-0.3,0.3-0.4,0.3-0.5c0.2-0.1,0.3-0.3,0.3-0.5c0,0,0.2-0.2,0.5-0.7c0.1-0.1,0.3-0.4,0.5-0.7
		c0.2-0.3,0.4-0.5,0.5-0.6l0.2-0.3l0.2-0.3c0,0,0,0,0,0c0,0,0-0.1,0-0.1c0-0.1,0.1-0.1,0.2-0.2c0,0,0,0,0.2-0.2
		c0.2-0.2,0.3-0.3,0.3-0.4c0,0,0,0,0.1-0.1c0.2-0.2,0.3-0.4,0.5-0.6c0,0,0.1-0.1,0.3-0.3c0.1-0.1,0.2-0.2,0.3-0.3c0,0,0,0,0-0.1
		c0,0,0,0,0,0c0,0,0,0,0,0c0,0,0,0,0.1,0c0,0,0.1-0.1,0.1-0.1c0,0,0.1-0.1,0.3-0.4L28,20l0.2-0.1c0.1-0.1,0.2-0.2,0.3-0.3
		c-0.1,0,0.1-0.1,0.5-0.4c0.1-0.1,0.2-0.1,0.3-0.2c0.1-0.1,0.2-0.1,0.3-0.2c0,0,0.1-0.1,0.3-0.2c0.1-0.1,0.2-0.1,0.2-0.1
		c0,0,0.1,0,0.3-0.2c0.1-0.1,0.2-0.1,0.3-0.1l0.2-0.1l0.2-0.1c0,0,0,0,0.1,0l0,0h0l0,0l0.1,0c0,0,0,0,0.1,0c0,0,0.1,0,0.1,0
		c0,0,0,0,0.1,0c0,0,0,0,0,0v0h0l0.1,0l0,0c0.1,0,0.2-0.1,0.2-0.1c0.1,0,0.1-0.1,0.2-0.1c0.1,0,0.2-0.1,0.3-0.1c0.1,0,0.1,0,0.2,0
		c0.1,0,0.3,0,0.5-0.1c0,0,0.1,0,0.2,0c0,0,0,0.1-0.1,0.1c-0.1,0-0.1,0-0.1,0c-0.2,0-0.3,0.1-0.3,0.2h-0.1c0,0-0.1,0-0.1,0
		c-0.1,0-0.1,0-0.1,0c-0.1,0-0.2,0-0.2,0c-0.1,0-0.1,0.1-0.2,0.1c-0.1,0-0.2,0.1-0.2,0.1c0.1,0,0.2,0,0.3-0.1
		c0.2-0.1,0.4-0.1,0.4-0.1c0.1,0,0.1,0-0.1,0.1c-0.1,0.1-0.1,0.1,0,0.1h0.1c0,0,0.1,0,0.3-0.1c0.1,0,0.2,0,0.3,0c0,0,0.1,0,0.1,0
		c0,0,0.1,0,0,0.1c-0.1,0-0.1,0-0.2,0c-0.1,0-0.1,0-0.2,0c0,0-0.1,0.1-0.2,0.1c0,0,0,0,0,0c0,0,0.1,0,0.2,0c0.1,0,0.2,0,0.2,0
		c0.1,0,0.2,0,0.3,0c0,0-0.1,0.1-0.1,0.1c-0.1,0-0.1,0-0.2,0c0,0-0.1,0-0.2,0c-0.1,0-0.1,0-0.1,0c0,0,0,0,0.1,0c0,0,0,0,0.1,0
		c0.2,0,0.3,0.1,0.3,0.1l0,0c0.1,0,0.1,0,0.2,0c0.1,0,0,0.1-0.1,0.1c0,0,0,0,0,0.1l0,0c0.1,0,0.1,0,0.1,0l0.1,0c0,0,0.1,0,0.1,0
		c0,0,0,0.1,0.1,0.1c0,0,0,0,0.1,0.1c0.2,0.2,0.2,0.2,0.2,0.2c0,0.1,0,0.1,0,0.1c0,0,0,0,0,0c0,0,0,0-0.1,0c0,0-0.1,0-0.3,0
		c0,0,0,0-0.1,0c-0.2,0-0.2,0-0.2,0c-0.1,0-0.1,0-0.1,0.1c0,0-0.1,0-0.2,0.1c-0.1,0-0.1,0.1-0.2,0.1c0,0,0,0,0.1,0.1l0.1,0l0,0
		l0.1,0c0-0.1,0,0,0,0.2l0.1,0c0,0,0.1,0.1,0,0.1c0,0,0,0.1,0,0.2l0,0c0,0-0.1,0-0.1,0.1l0,0c0,0,0,0,0,0c0,0,0,0,0,0.1v0v0
		c0,0.1,0,0.1,0,0.2c0,0-0.1,0-0.1,0c0,0,0,0,0,0h0c0,0-0.1,0-0.1,0c0,0,0,0.1,0,0.1v0h0c0,0,0,0,0,0c0,0-0.1,0-0.1,0
		c0,0-0.1,0-0.1,0.1l0,0c0,0,0,0,0,0c0,0,0,0-0.1,0h0h0c0,0,0,0,0,0c-0.1,0.1-0.1,0.1-0.1,0.1c0,0,0,0,0,0.1c0,0,0,0,0,0
		c0,0,0,0,0,0c0,0-0.1,0-0.2,0.1c0,0-0.1,0.1-0.1,0.1C32,21.3,32,21.4,32,21.4c0,0,0,0,0,0c0,0,0,0.1,0,0.1l0,0h0l0,0l0,0l0,0l0,0v0
		h0v0c0,0-0.1,0-0.1,0c0,0,0,0,0,0c0,0,0,0-0.1,0.1c0,0-0.1,0-0.1,0.1c0,0-0.1,0.1-0.1,0.1c-0.1,0-0.1,0.1-0.1,0.1l0,0l0,0
		c-0.2,0.1-0.3,0.2-0.3,0.3l-0.1,0.1c0,0,0,0-0.1,0.1c-0.1,0-0.1,0.1-0.2,0.1c-0.1,0.1-0.2,0.2-0.1,0.1c0,0,0,0,0,0l0,0l0,0
		l-0.1,0.1L29.9,23l-0.2,0.1c0,0,0,0.1,0,0.1c0,0-0.1,0-0.1,0.1c-0.1,0.1-0.2,0.1-0.2,0.2c-0.1,0.1-0.2,0.2-0.3,0.3
		c-0.2,0.2-0.3,0.3-0.4,0.3c0.1-0.1-0.1,0.1-0.5,0.4L28,24.7c0,0-0.1,0.1-0.4,0.4l-0.1,0.1l-0.1,0.1c-0.4,0.4-0.6,0.6-0.7,0.7l0,0
		c-0.2,0.2-0.3,0.4-0.4,0.4l-0.1,0.1c-0.1,0.1-0.2,0.2-0.3,0.3c-0.2,0.2-0.3,0.3-0.3,0.4h0c-0.1,0.1-0.2,0.2-0.3,0.3
		c0,0.1-0.1,0.2-0.3,0.3c0,0,0,0.1-0.1,0.2l-0.4,0.5c0,0-0.1,0.1-0.3,0.4c-0.2,0.3-0.3,0.4-0.3,0.4l-0.3,0.4L23.5,30l-0.1,0.2
		c0,0.1-0.1,0.2-0.2,0.3c-0.1,0.1-0.1,0.1-0.1,0.2c0,0.1-0.1,0.1-0.1,0.2l-0.3,0.5l-0.2,0.4l0,0L22.3,32l0,0.1l0,0v0v0v0l-0.1,0.3
		c0,0,0,0-0.1,0.1l0,0.1L22,32.7c0,0.1-0.1,0.1-0.1,0.2c0,0.1-0.1,0.2-0.1,0.2h0c0,0.1-0.1,0.2-0.2,0.3c-0.1,0.2-0.1,0.3-0.2,0.3
		c0,0.1-0.1,0.2-0.2,0.3c0,0.1-0.1,0.2-0.1,0.3l0,0.1c0,0-0.1,0.1-0.1,0.3l-0.1,0.3l0,0h0c0,0,0,0.1-0.1,0.4c0,0,0,0.1,0,0.1
		c-0.1,0.4-0.2,0.7-0.2,1.1l0,0.1V37l0,0.1l0,0.1c0,0.1,0,0.2,0,0.3l0,0.2v0c0-0.1,0-0.1,0,0v0v0v0.1l0,0.2V38V38c0,0.1,0,0.2,0,0.2
		c0,0,0,0.1,0,0.1l0,0.1l0,0.1c0,0,0,0,0,0.1l0.1,0.2l0,0h0c0.1,0.2,0.1,0.3,0.1,0.3v0l0.1,0.1l0,0.1l0,0.1c0.2,0.2,0.2,0.3,0.2,0.3
		l0,0l0.1,0.1l0,0l0,0l0.2,0.2l0.2,0.2c0,0,0.1,0,0.2,0.1l0.3,0.1c0,0,0.1,0.1,0.3,0.1c0.3,0.1,0.5,0.2,0.7,0.2h0c0,0,0.1,0,0.3,0h0
		l0.1,0h0.1H24h0.2h0.2c0.2,0,0.4,0,0.4,0c0.1,0,0.2,0,0.3,0c0.1,0,0.2,0,0.2,0h0l0.1,0l0.3,0c0,0,0.1,0,0.3,0c0.1,0,0.2,0,0.2,0
		l0,0c0.6-0.1,1.2-0.3,1.7-0.4c0.2-0.1,0.4-0.1,0.5-0.2c0.2-0.1,0.4-0.1,0.6-0.2h0c0,0,0.1,0,0.1,0l0,0l0,0c0,0,0.1,0,0.2-0.1
		c0,0,0,0,0,0c-0.1,0.1-0.1,0,0.2-0.1c0,0,0,0,0,0S29.7,39.7,29.9,39.6z"/>
	<path d="M34.3,32.5c0,0,0-0.1,0-0.2c0-0.1,0-0.2,0-0.2c0,0,0.1-0.3,0.2-0.8l-0.1,0h-0.1c0,0-0.1,0-0.2,0c0,0-0.1,0-0.3,0l-0.2,0
		h-0.1c0,0-0.1,0-0.2,0h-0.1h-0.3h0h-0.2h-0.1c0,0-0.1,0-0.3,0v0c0,0-0.1,0-0.1,0c0,0-0.1,0-0.2,0c0,0,0,0,0,0h-0.2h-0.5
		c-0.1,0.1-0.1,0.2-0.2,0.4c-0.1,0.1-0.2,0.3-0.3,0.3c-0.3,0.5-0.5,0.7-0.5,0.7c-0.4,0.5-0.5,0.8-0.5,0.7c0,0.1-0.1,0.1-0.1,0.2
		c-0.1,0.1-0.1,0.2-0.2,0.2c0,0,0,0-0.1,0.1c-0.2,0.3-0.2,0.4-0.2,0.4c0,0-0.1,0.2-0.5,0.8c-0.1,0.1-0.2,0.3-0.3,0.5
		c-0.1,0.2-0.3,0.3-0.4,0.5l-0.1,0.2c0,0,0,0,0-0.1l0.1-0.1c0.1-0.2,0.2-0.3,0.1-0.3l0-0.1c0.4-0.6,0.6-1,0.6-0.9
		c0,0-0.2,0.3-0.6,0.8c-0.1,0.1-0.1,0,0-0.1c0-0.1,0-0.1-0.1,0l0,0.1c-0.3,0.4-0.4,0.6-0.4,0.6l-0.1,0.1c0,0-0.1,0.1-0.1,0
		c0-0.1,0.1-0.2,0.2-0.2c0-0.1,0.1-0.1,0.1-0.2c0,0,0-0.1,0.1-0.2c0,0-0.1,0.1-0.1,0.1c0,0-0.1,0.1-0.2,0.3
		c-0.1,0.2-0.2,0.2-0.2,0.3c-0.1,0.1-0.1,0.2-0.2,0.3c0,0,0-0.1,0-0.1c0.1-0.1,0.1-0.1,0.1-0.2c0,0,0.1-0.1,0.1-0.2
		c0-0.1,0-0.1,0-0.1c0,0,0,0.1-0.1,0.1c0,0-0.1,0.1-0.1,0.1c-0.2,0.2-0.3,0.3-0.3,0.3l-0.1,0.1c-0.2,0.3-0.3,0.4-0.2,0.2
		c0,0,0,0-0.1,0C26.4,37,26.3,37,26.3,37c0,0.1-0.1,0.2-0.3,0.4c-0.2,0.1-0.3,0.4-0.6,0.7c-0.2,0.1-0.2,0.1,0-0.1
		c0,0.1,0-0.1,0.2-0.4c0,0,0.1-0.1,0.1-0.1c0,0,0-0.1,0.1-0.1c0.1-0.2,0.2-0.3,0.1-0.3c0.1-0.3,0.1-0.4,0.1-0.4l-0.2,0.2
		c-0.1,0.1-0.1,0.2-0.2,0.3l-0.1,0.2c0,0,0,0-0.2,0.2c0,0-0.1,0.1-0.1,0.2c-0.1,0.1-0.1,0.2-0.2,0.2c0,0-0.1,0-0.2,0.2h0
		c0,0.1-0.1,0.1,0,0c0-0.1,0-0.1,0,0c-0.1,0.1-0.1,0.2-0.1,0.1l-0.1,0.2c-0.4,0.3-0.6,0.5-0.5,0.5c0.2-0.3,0.3-0.6,0.3-0.7
		c0,0-0.1,0.1-0.3,0.4c0,0,0,0.1,0,0.1c0,0,0-0.1,0.1-0.4c0.1-0.2,0.2-0.4,0.2-0.4l0-0.1l0-0.1c0,0,0.1-0.1,0.1-0.1
		c0,0,0-0.1,0.1-0.1c0-0.1,0-0.1-0.1,0c-0.1,0.1-0.1,0.2-0.2,0.2c0,0,0,0,0-0.1s0-0.1,0-0.1c0.2-0.2,0.3-0.6,0.5-0.9
		c0.2-0.4,0.4-0.7,0.5-0.9c0.1-0.1,0.2-0.3,0.4-0.6c0.2-0.3,0.3-0.5,0.4-0.6c0.1-0.2,0.2-0.4,0.4-0.7c0.2-0.4,0.4-0.6,0.4-0.7
		c0.2-0.2,0.3-0.5,0.5-0.8c0.1-0.1,0.1-0.2,0.2-0.4c0.1-0.1,0.2-0.3,0.3-0.4c0,0,0,0,0,0h-0.1h-0.5h0v0h-0.2v0l-0.2,0
		c-0.1,0-0.2,0-0.2,0h0h-0.5l-0.3,0c-0.3,0-0.4,0-0.3,0h-0.2l-0.2,0H25c-0.1,0-0.2,0-0.2,0h0l-0.2,0h0c0,0-0.2,0-0.6,0
		c0,0-0.1,0-0.1,0c0,0-0.1,0-0.1,0c-0.1,0-0.2,0-0.2,0h0c0,0,0,0,0,0h0h0h0c0,0,0,0-0.1,0c0,0,0,0-0.1,0c0,0,0,0-0.1,0h0
		c0.1,0,0.3-0.1,0.6-0.2c0.2,0,0.3-0.1,0.5-0.2c0,0,0.1,0,0.3-0.1l0,0c0.2,0,0.2-0.1,0.2,0c0,0,0.1,0,0.2,0c0.1,0,0.1,0,0.2,0
		l0.3-0.1c0.4-0.1,0.5-0.2,0.5-0.2c0.1,0,0.2,0,0.3-0.1l0.1,0l0.2,0l0,0c0.3-0.1,0.3-0.1,0.3-0.1l0.3-0.1l0,0l0.2,0c0,0,0,0,0.1,0
		l0.2,0h0c0,0,0.1,0,0.3-0.1h0c0,0,0.1,0,0.2,0l0.1,0c0,0,0.1,0,0.2-0.1c0.1,0,0.2,0,0.2,0c0.1,0,0.1,0,0.2,0l0.1,0c0,0,0-0.1,0-0.1
		c0.2-0.2,0.2-0.4,0.3-0.4l0.2-0.2c0-0.1,0.2-0.2,0.3-0.4l0.2-0.4c0,0,0,0,0.1-0.1c0-0.1,0.1-0.2,0.3-0.4c0.1-0.2,0.2-0.3,0.3-0.4
		l0.3-0.4c0,0,0.2-0.3,0.6-0.9c-0.1,0.2,0.3-0.4,1.3-1.8c0.1-0.1,0.2-0.3,0.4-0.6s0.3-0.4,0.4-0.6c0,0,0.1-0.2,0.3-0.4
		c-0.1,0.1,0.2-0.3,0.7-1l0.4-0.5c0.3-0.4,0.7-1,1.2-1.7l0-0.1c0.2-0.2,0.4-0.6,0.7-1c0.1-0.1,0.2-0.2,0.2-0.3
		c0.1-0.1,0.4-0.5,0.9-1.3l1.2-1.8l2.6-3.9l0,0.2l0.3-0.3l-1.8,6.1c0,0.1-0.1,0.2-0.1,0.3l0,0c-0.1,0.2-0.1,0.4-0.3,0.8
		c0,0.2-0.1,0.4-0.2,0.8c0,0,0,0.1-0.1,0.3h0c-0.2,0.5-0.3,0.9-0.4,1.2c-0.6,2-0.9,3.3-1,3.7c0,0.2-0.1,0.4-0.2,0.7
		c-0.1,0.3-0.2,0.5-0.2,0.7c-0.1,0.4-0.2,0.8-0.3,1.1l-0.3,0.9l0,0.1h0L37,29h0c0,0.1,0,0.1,0,0.1c0,0,0,0.1,0,0.2l0,0.2
		c0,0,0,0.1,0,0.1c0,0.1,0,0.1,0,0.1v0c0,0,0,0.1,0,0.1v0c0,0,0,0,0,0.1l0,0h0c0,0.1,0.1,0.2,0.1,0.2c-0.1,0-0.1,0.1-0.2,0.2
		c0,0,0,0,0.1,0h0c0,0,0,0.1-0.1,0.2c0,0-0.1,0.1-0.1,0.1c0,0.1,0,0.1,0,0.2c-0.3,1-0.4,1.5-0.4,1.4c-0.2,0.6-0.3,1.1-0.4,1.5l0,0.2
		l-0.2,0.8c-0.1,0.6-0.2,0.8-0.2,0.8l0,0.1h0L35,36.2c0,0,0,0,0,0.1c0,0,0,0.1,0,0.1c-0.1,0.3-0.2,0.7-0.3,1.2
		c-0.1,0.6-0.2,1-0.3,1.2c0,0.1-0.1,0.4-0.2,0.7c0,0,0,0.1,0,0.2c0,0.1-0.1,0.3-0.2,0.6c-0.2,0.7-0.3,1.2-0.4,1.7
		c-0.1,0.3-0.2,0.7-0.3,1.2c-0.1,0.6-0.2,1-0.3,1.3c0,0.1,0,0.1,0,0.1c0,0.1,0,0.2-0.1,0.4c-0.1,0.2-0.1,0.3-0.1,0.4l0,0.1l-0.2,0.9
		C32.1,47,32,47.3,32,47.2l-2.9,10.5 M33.4,28.7c0.4-0.1,0.6-0.2,0.5-0.1l0.3-0.1h0c0.3-0.1,0.4-0.1,0.4-0.1c0,0,0,0,0,0
		c0,0,0.1,0,0.5-0.1l0.1,0c0,0,0,0,0,0c0,0,0-0.1,0-0.1c0-0.1,0-0.2,0.1-0.4c0-0.2,0.1-0.3,0.1-0.4c0-0.1,0-0.1,0-0.1
		c0-0.1,0.1-0.4,0.2-0.8c0.1-0.3,0.1-0.6,0.1-0.7c0-0.2,0.1-0.6,0.3-1.1c0.1-0.4,0.2-0.7,0.2-0.9v0c-0.6,1-1,1.5-1,1.5
		c0,0-0.1,0.1-0.1,0.1c0,0,0,0.1,0,0.1c0.1-0.2-0.4,0.6-1.5,2.3c0,0-0.1,0.2-0.4,0.6c0,0.1-0.1,0.2-0.3,0.5v0c0,0,0.1,0,0.2,0
		L33.4,28.7z"/>
	<path d="M43,28.4c0-0.1,0-0.2,0-0.4c0.2-0.8,0.3-1.2,0.2-1.1c0,0,0-0.1,0-0.2c0-0.1,0-0.2,0-0.2c0.1-0.4,0.2-0.8,0.2-1.3
		c0.3-1.6,0.5-2.3,0.4-2.1c0.1-0.7,0.1-1.1,0.2-1l0.1-0.4c0-0.1,0-0.3,0.1-0.4c0-0.2,0.1-0.4,0.1-0.4v-0.1c0,0,0-0.1,0.1-0.4
		c0-0.2,0.1-0.4,0.1-0.5l0-0.3c0,0,0-0.2,0-0.4c0-0.1,0-0.4,0.2-1.1v-0.1c0,0,0,0,0-0.2c0,0,0-0.2,0-0.4c0-0.1,0.1-0.3,0.1-0.4
		c0-0.2,0-0.3,0.1-0.4c0-0.3,0-0.6,0.1-0.9c0-0.1,0-0.4,0.1-0.8c0-0.3,0-0.6,0-0.8c0-0.1,0-0.4,0-0.7c0-0.3,0-0.5,0-0.7
		c0-0.2,0-0.5,0-0.9c0-0.4,0-0.7,0-1c0,0,0,0,0-0.1c0-0.1,0-0.1,0,0c0,0-0.1,0.1-0.1,0.3c0,0.2-0.1,0.2-0.1,0c0,0,0-0.1,0-0.1v-0.1
		l0-0.1v-0.1c0,0,0-0.2,0-0.4c-0.1-0.3-0.1-0.4-0.2-0.4v0.1c0,0.3-0.1,0.4-0.1,0.5c-0.1-0.1-0.1-0.4,0-0.7c0-0.1-0.1,0.2-0.3,0.6
		l0,0.2l0,0.2c0,0-0.1,0-0.1,0c0,0,0,0,0,0h0c-0.1,0.2-0.1,0.3-0.1,0.3c0,0-0.1,0.1-0.1,0.3l0,0.2c-0.2,0.2-0.2,0.3-0.2,0.3l0,0.2h0
		c0,0,0,0.1,0,0.3l-0.1,0.3c0,0,0-0.1-0.2-0.4c0,0-0.1-0.1-0.1-0.3v-0.1c0,0,0-0.1,0-0.1c0-0.4,0-0.5,0-0.4c0-0.2,0-0.3-0.1-0.1
		c-0.1,0.4-0.2,0.7-0.3,0.9c0,0.2,0,0.3,0,0.4c0,0,0,0.1-0.1,0.2h0c0,0,0,0-0.1,0.1c0-0.1-0.1,0-0.1,0.3l0,0.1
		c-0.1,0-0.1,0.2-0.2,0.4c0,0.1,0,0.1,0,0.2c0,0,0,0.1,0,0.1c0,0,0,0,0-0.1c0-0.1,0-0.2,0-0.2c0,0,0-0.1,0-0.2c0,0,0,0,0-0.1
		c0,0.2,0,0.3,0,0.3c0,0,0,0.1-0.1,0.3c0,0.2,0,0.3-0.1,0.3c0,0,0,0.1,0,0.1c0-0.1,0-0.2-0.1-0.2c0-0.1,0-0.2,0-0.3
		c0-0.1,0-0.2,0-0.3c0,0-0.1,0-0.1,0.1c0,0,0,0,0,0.1c0,0,0,0.2-0.1,0.7v0.1c0,0.2-0.1,0.2-0.1,0.1c0-0.1-0.1-0.1-0.1-0.1
		c-0.1,0.6-0.1,0.9-0.1,1c0,0,0-0.3,0.1-1l0-0.1c-0.1,0-0.1,0-0.1-0.3c0,0,0,0,0-0.1c0-0.1,0-0.1,0-0.1c0,0.1,0,0.2,0,0.3
		c0,0.2-0.1,0.4-0.1,0.6c-0.1,0.2-0.1,0.4-0.1,0.6c-0.1,0.6-0.2,0.9-0.1,0.9c0,0.2,0,0.4,0,0.4c0,0,0,0.1,0,0.1c0,0.1,0,0.2-0.1,0.5
		c0,0,0,0.2-0.1,0.9c0,0,0,0.2-0.1,0.8c0,0.1,0,0.2-0.1,0.4c0,0.2,0,0.3,0,0.4c-0.1,0.7-0.2,1-0.1,1c0,0.4-0.1,0.9-0.2,1.4
		c0,0.7-0.1,1-0.1,0.9c-0.1,0.4-0.1,0.7-0.1,0.7c-0.2,1.7-0.3,2.6-0.3,2.7c0,0,0,0.1,0,0.1c0,0,0,0.1,0,0.1c0-0.2-0.1,0.5-0.2,2
		c0,0.1,0,0.2,0,0.3c-0.1,0.6-0.1,1-0.2,1.3c0,0.3-0.1,0.7-0.1,1.4c-0.1,0.8-0.1,1.3-0.2,1.5c-0.1,0.6-0.2,1.1-0.2,1.5
		c0,0.3,0,0.7-0.1,1l-0.1,1l-0.8,7l0.9-1.7l0,0.6l1.6-3.5l1.3-2.4l0.6-1.2c0.1-0.2,0.1-0.3,0.2-0.3c0.1-0.2,0.2-0.4,0.4-0.7
		c0.2-0.3,0.3-0.5,0.4-0.7c-0.1,0.1,0.4-0.7,1.3-2.4c-0.1,0.1,0.3-0.6,1.2-2.2c-0.1,0.2,0.2-0.4,0.9-1.6c0,0,0-0.1,0-0.1
		c0.4-0.7,0.6-1,0.5-0.9c0,0,0-0.1,0.1-0.2s0.1-0.1,0.1-0.2c0,0,0,0,0-0.1c0.4-0.8,0.9-1.7,1.4-2.5l0-0.1c-0.1,0.1,0.2-0.4,0.8-1.5
		c0.2-0.3,0.3-0.5,0.3-0.4s0.1-0.2,0.5-0.9c0.2-0.4,0.4-0.7,0.5-0.9c-0.1,0.1,0.2-0.3,0.8-1.4c0.1-0.2,0.2-0.4,0.4-0.7
		c0.2-0.3,0.3-0.5,0.4-0.8c0.1-0.2,0.4-0.6,0.8-1.4c0.3-0.4,0.4-0.7,0.5-0.8c0.2-0.4,0.4-0.7,0.6-1C54.6,12.8,62,0.5,62.3,0"/>
	<path d="M64.1,6"/>
	<path d="M57.6,37.1c-0.2,0.6-0.3,0.9-0.6,1.1c-0.4,0.2-0.6,0.3-0.5,0.3c0,0-0.1,0-0.3,0.1h0c-0.1,0.1-0.2,0.1-0.1,0.1
		c0,0-0.1,0-0.3,0.1c-0.1,0-0.2,0-0.3,0.1c-0.3,0.1-0.4,0.1-0.4,0.1c-0.1,0-0.2,0-0.2,0c0,0,0,0-0.1,0c0,0-0.1,0-0.1,0h0
		c-0.2,0.1-0.3,0.1-0.2,0.1c0,0-0.1,0-0.1,0c-0.1,0-0.1,0-0.1,0l0,0c0,0-0.1,0-0.1,0c0,0-0.1,0-0.1,0c0,0,0,0-0.1,0
		c-0.2,0-0.2,0.1-0.1,0h0c0,0-0.1,0-0.2,0c0,0,0,0,0,0c0-0.1-0.1,0-0.1,0c-0.1,0-0.1,0-0.1,0c0,0-0.1,0-0.2,0c-0.1,0-0.1,0-0.1,0
		c0-0.1-0.1,0-0.2,0c0.1,0,0,0-0.1,0c0,0-0.1,0-0.1,0c0,0-0.1,0-0.1,0c0,0-0.1,0-0.1,0c0,0-0.1,0-0.1,0c-0.2,0.1-0.2,0.1-0.2,0.1
		c0,0-0.1,0-0.1,0c-0.1,0-0.2,0.1-0.1,0c0,0-0.1,0-0.1,0c-0.2,0.1-0.2,0.1-0.2,0.1c-0.1,0-0.3,0-0.4,0.1h0c-0.1,0-0.1,0,0,0
		c0,0,0,0-0.1,0c0,0-0.1,0-0.1,0c0,0,0,0,0,0c-0.2,0.1-0.3,0.1-0.3,0.1c0,0-0.1,0-0.2,0c-0.1,0-0.1,0-0.2,0c0,0-0.1,0-0.2,0
		c-0.1,0-0.2,0-0.2,0l0,0h0l-0.1,0l-0.1,0h0c0,0,0,0,0,0c0,0-0.1,0-0.2,0c-0.1,0-0.1,0-0.2,0c0-0.1-0.1,0-0.2,0c-0.1,0-0.2,0-0.2,0
		c-0.4,0.1-0.5,0.2-0.4,0.1c0,0-0.1,0-0.1,0c0,0-0.1,0-0.1,0c0,0,0,0,0,0c-0.2,0.1-0.3,0.1-0.3,0.1c0,0,0,0,0,0c0,0-0.1,0-0.4,0.1
		c0,0-0.1,0-0.1,0c0,0,0,0-0.1,0c0,0-0.1,0-0.2,0.1c0,0,0,0-0.1,0c0,0,0,0-0.1,0c0,0-0.1,0-0.1,0c-0.1,0-0.1,0-0.1,0
		c-0.1,0-0.1,0-0.1,0l0,0c0,0,0,0,0,0v0c0,0-0.1,0-0.1,0c0,0,0,0-0.1,0c0,0-0.1,0-0.1,0c0,0,0,0-0.1,0c0,0,0,0,0,0c0,0,0,0,0,0h0
		c0,0,0,0,0-0.1c0.1-0.1,0.2-0.1,0.2-0.1c0,0,0,0-0.1,0c0,0,0,0,0-0.1c0,0,0-0.1,0,0h0c-0.1,0-0.1,0.1-0.1,0v0c0,0,0,0,0,0
		c0,0,0,0,0,0c0,0,0,0,0,0c0,0,0-0.1,0-0.1v0h0h0h0h0c0,0.1-0.2,0.4-0.4,0.9h0c0,0.1-0.1,0.2-0.2,0.3c-0.1,0.2-0.2,0.3-0.3,0.4h0
		l0,0c0,0-0.1,0-0.1,0h0c0,0-0.1,0-0.1,0c0,0,0,0,0,0v0c-0.1,0-0.1,0-0.2,0.1h-0.2c0,0-0.2,0-0.6,0.1h-0.1c0,0-0.1,0.1-0.3,0.2
		c-0.4,0.1-0.5,0.1-0.4,0.1c-0.5-0.2-0.7-0.6-0.6-1c0-0.1,0-0.2,0.1-0.5c0-0.2,0.1-0.3,0.1-0.4c0,0,0.1-0.2,0.2-0.5l0-0.1
		c0-0.3,0-0.3,0-0.3c0,0.1,0-0.1,0.2-0.6l0.2-0.5c0.2-0.6,0.3-0.9,0.3-0.9c0.1-0.2,0.2-0.3,0.2-0.5c0,0,0-0.1,0.1-0.2l0.1-0.3l0,0
		c0-0.1,0-0.1,0.1-0.3c0-0.1,0.1-0.2,0.1-0.2l0.2-0.5l0,0l0.1-0.4c0,0.1,0,0,0.1-0.2l0.1-0.3l0-0.1c0,0,0-0.1,0.2-0.4l0-0.1
		c0.1-0.1,0.2-0.2,0.1-0.3c0-0.1,0-0.1,0-0.2c0,0,0-0.1,0.2-0.4c0-0.2,0.1-0.3,0.1-0.3c0.1-0.1,0.1-0.2,0.1-0.3l0.1-0.3l0.2-0.4
		c0-0.1,0.1-0.2,0.1-0.3c0-0.1,0.1-0.2,0.1-0.2c0.1-0.3,0.1-0.5,0.1-0.4c0.1-0.1,0.1-0.2,0.1-0.3c0-0.2,0.1-0.3,0.1-0.3l0-0.1
		c0.1-0.4,0.1-0.5,0.2-0.5v0c0.1-0.3,0.2-0.5,0.3-0.8v0l0-0.1l0.1-0.3v0c0.1-0.4,0.2-0.6,0.2-0.5c0-0.1,0.1-0.2,0.1-0.4
		C47,28.2,47,28.1,47,28l0.3-0.8c0.1-0.3,0.2-0.5,0.2-0.4l0-0.1l0.3-0.7c0.1-0.1,0.2-0.2,0.1-0.3l0.2-0.4c0.2-0.7,0.3-1,0.3-0.9
		l0.2-0.4l0-0.1c0.1-0.5,0.2-0.7,0.2-0.6c0,0,0,0,0,0c0,0.1,0.1-0.2,0.3-0.8c0,0,0-0.1,0.1-0.2c0,0,0-0.1,0.1-0.3l0.2-0.4
		c0,0,0-0.1,0.1-0.3c0,0,0-0.1,0-0.1c0,0,0.1-0.1,0.1-0.1c0.1-0.2,0.1-0.3,0.1-0.3c0.1-0.2,0.2-0.3,0.1-0.3c0,0.1,0,0,0-0.2
		c0,0,0,0,0,0c0,0,0-0.1,0.1-0.1c0,0,0-0.1,0.1-0.3c0,0,0-0.1,0.1-0.2c0.1,0,0.1-0.1,0.1-0.2l0-0.1c0,0,0,0,0,0c0,0,0,0,0,0
		c0,0.1,0,0.1,0,0.1v0c0,0.2-0.1,0.3-0.1,0.3l0.1-0.3c0,0,0.1,0,0.1,0c0,0,0,0,0.1,0l0,0c0-0.2,0-0.2,0-0.2l0,0c0,0,0,0,0.1,0
		c0,0,0,0,0,0.1c0,0,0,0.1,0,0.1c0,0,0,0,0,0l0,0c0,0,0,0,0-0.1c0-0.1,0.1-0.1,0.1-0.1c0,0,0-0.1,0-0.1l0,0c0,0,0,0.1,0,0.1
		c0,0,0,0,0,0.1c0,0,0,0,0,0c0,0,0,0,0,0c0,0,0,0,0,0c0-0.1,0.1-0.1,0.1-0.1v0c0.1-0.1,0.1-0.2,0.1-0.1c0,0,0,0,0,0h0c0,0,0,0,0,0
		l0-0.1c0.1-0.1,0.1-0.2,0.2-0.3c0.1-0.1,0.1-0.1,0.1,0c0,0,0,0,0,0.1c0,0,0,0,0,0c0,0,0,0,0,0c0,0.1,0,0.1,0,0.1
		c0.1,0.1,0.1,0.1,0.1,0.1L52,19l0-0.1h0l0,0c0,0,0,0,0.1-0.1l0,0c0,0,0-0.1,0.1-0.1c0,0,0.1,0,0.1-0.1h0c0,0,0,0,0.1,0l0-0.1l0,0
		c0.2-0.1,0.3-0.2,0.2-0.2c0,0.1,0,0.2,0,0.2c0,0,0.1,0,0.1-0.1c0,0,0,0,0,0c0,0,0.1,0,0.1,0.1c0,0.1,0,0.1,0,0.1v0l0,0c0,0,0,0,0,0
		c0,0,0,0,0,0c0,0,0.1,0,0.1,0s0-0.1,0.1-0.1c0,0,0,0,0,0v0c0-0.1,0,0.1,0,0.6c0,0,0,0.1,0,0.2c0,0.1,0,0.2,0,0.2c0-0.1,0,0.1,0,0.5
		c0,0.1,0,0.2,0,0.3c0,0,0,0.1,0,0.1c0,0,0,0.1,0,0.1l0.1,0h0.1c0,0,0,0,0.1-0.1c0,0,0.1,0,0.3-0.1l0.2-0.1l0.1,0c0,0,0,0,0.2,0
		l0.1,0l0.3-0.1h0l0.2,0l0,0c0,0,0.1,0,0.3,0v0c0,0,0.1,0,0.1,0c0-0.1,0.1-0.1,0.1,0l0,0v0l0.2,0l0.6-0.2c0,0,0.1,0,0.1,0
		c0,0,0.1,0,0.1,0l0.2,0l0.2,0v0l0.2,0h0l0,0h0c0,0,0.1,0,0.1,0c0,0,0.1,0,0.1,0v0c0.2,0,0.2,0,0.2,0c0.1,0,0.2-0.1,0.3-0.1h0l0.1,0
		c0.1,0,0.1-0.1,0.1,0h0v0l0.1,0l0,0l0.4-0.1l0.1,0v0l0,0l0.1,0l0.3-0.1l0.4-0.1h0l0,0l0.1,0v0v0l0.1,0c0.1,0,0.2,0,0.1,0h0l0.4-0.1
		l0.2-0.1c0.2-0.1,0.3-0.1,0.3,0l0,0l0,0l0.1,0l0.1,0l0.3-0.1c0.1,0,0.1,0,0.2,0l0,0h0l0.2,0c0,0,0,0,0,0v0c0.1-0.1,0.2-0.1,0.5-0.1
		c0,0,0.1,0,0.2,0c0.1,0,0.1,0,0.2,0.1v0h0c0,0,0,0.1,0,0.1v0v0v0.1c0,0,0,0,0,0c0,0,0,0.1,0,0.1c0,0,0,0,0,0.1c0,0,0,0.2,0,0.5v0v0
		c0,0,0,0.1,0,0.2c0,0.4,0,0.5,0,0.4c-0.2,0.6-0.4,0.9-0.6,1c-0.3,0.2-0.4,0.3-0.4,0.3c0,0-0.1,0-0.2,0.1h0
		c-0.1,0.1-0.2,0.1-0.1,0.1c0,0-0.1,0-0.3,0.1l-0.2,0C60.4,22,60.2,22,60.3,22c-0.1,0-0.1,0-0.2,0c0,0,0,0-0.1,0l-0.1,0l0,0
		c-0.2,0.1-0.3,0.1-0.2,0l-0.2,0.1h0l-0.2,0c0,0,0,0-0.1,0l-0.1,0l0,0c0,0-0.1,0-0.2,0h0c0-0.1-0.1,0-0.1,0h-0.1c0,0,0,0-0.2,0
		c-0.1,0-0.1,0-0.1,0.1c0-0.1-0.1-0.1-0.1,0l-0.1,0l-0.2,0.1c0,0-0.1,0-0.1,0c0,0-0.1,0-0.1,0c-0.2,0.1-0.2,0.1-0.2,0.1
		c0,0-0.1,0-0.1,0c-0.1,0-0.1,0.1-0.1,0l-0.1,0c-0.2,0.1-0.2,0.1-0.2,0.1c-0.1,0-0.2,0-0.3,0.1h0l0,0l-0.1,0
		c-0.2,0.1-0.2,0.1-0.2,0.1c0,0-0.1,0-0.2,0c-0.1,0-0.1,0-0.1,0l-0.3,0.1l-0.2,0l0,0l-0.3,0.1c0,0-0.1,0-0.1,0l-0.2,0.1
		c-0.3,0.1-0.4,0.2-0.4,0.1l-0.2,0h0c-0.2,0.1-0.3,0.1-0.3,0.1c0,0,0,0,0,0c0,0-0.1,0-0.4,0.1c0,0,0,0-0.1,0c0,0,0,0-0.1,0.1l-0.2,0
		c0,0,0,0-0.1,0c0,0,0,0,0,0c0,0-0.1,0-0.1,0c-0.1,0-0.1,0-0.1,0c-0.1,0-0.1,0-0.1,0l-0.1,0l0,0l-0.1,0c0,0,0,0-0.1,0c0,0,0,0-0.1,0
		c0,0-0.1,0-0.1,0l0,0c0,0,0,0,0,0h0c0,0,0,0,0-0.1h0l0.1-0.1L52,24c0,0,0,0,0-0.1c0,0,0,0,0,0h0c-0.1,0.2-0.1,0.3-0.1,0.2l-0.1,0.2
		l-0.2,0.6l0,0l-0.1,0.4l0,0.1c0-0.1-0.1,0.1-0.3,0.6h0c0,0.1-0.1,0.2-0.1,0.3c0,0.1,0,0.2-0.1,0.3l0,0.1h0l-0.2,0.4l-0.5,1.3
		c0,0.1,0,0.1-0.1,0.3c0,0.1-0.1,0.2-0.1,0.2L50,29.3l-0.1,0.3v0h0L49.8,30l0,0.1l0,0.1l0,0.1c0,0.1,0,0.1,0,0.2
		c0,0.1,0,0.1-0.1,0.1h0c-0.2,0.4-0.2,0.5-0.2,0.5c-0.1,0.3-0.2,0.5-0.2,0.5l0,0l-0.1,0.3c0,0.2-0.1,0.3-0.1,0.3l0,0h0l-0.1,0.3
		l0,0.1l-0.3,0.8l-0.1,0.2h0l0,0.1l-0.1,0.2l-0.2,0.6l-0.3,0.9l0,0h0l-0.1,0.3l0,0l-0.1,0.3c-0.1,0.2-0.1,0.3-0.1,0.3l0,0l-0.3,0.9
		l-0.2,0.5c0,0,0,0,0,0.1c0,0,0,0,0,0c0.1,0,0.2-0.1,0.2-0.1c0,0,0.1,0,0.1,0c0,0,0,0,0,0c0.1,0,0.1,0,0.1,0c0,0,0.1,0,0.1,0h0
		l0.1,0c0,0,0,0,0.1,0c0,0,0,0,0.2-0.1c0,0,0.1,0,0.3-0.1c0,0,0,0,0.1,0c0,0,0.1,0,0.1,0c0,0,0,0,0.1,0l0.2,0h0c0,0,0,0,0,0
		c0,0,0.1,0,0.1,0c0.1,0,0.1,0,0.2,0h0c0,0,0,0,0.1,0c0,0,0.1,0,0.1,0c0,0,0,0,0,0c0,0,0.1,0,0.3,0v0c0,0,0.1,0,0.1,0
		c0-0.1,0.1-0.1,0.1,0l0.1,0v0c0.1,0,0.2,0,0.2,0c0.1,0,0.3-0.1,0.6-0.2c0,0,0.1,0,0.1,0c0.1,0,0.1,0,0.1,0c0,0,0,0,0.1,0
		c0,0,0.1,0,0.1,0c0,0,0,0,0.1,0c0,0,0.1,0,0.1,0v0c0,0,0.1,0,0.1,0c0,0,0.1,0,0.1,0c0,0,0,0,0,0h0h0h0l0,0h0c0,0,0.1,0,0.1,0
		s0.1,0,0.1,0v0l0.3,0c0.1,0,0.2-0.1,0.3-0.1h0l0.1,0c0.1,0,0.1-0.1,0.1,0c0,0,0,0,0,0c-0.1,0,0,0,0.2,0c0,0,0,0,0,0
		c0.1,0,0.2,0,0.4-0.1c0,0,0.1,0,0.1,0c0,0,0,0.1,0,0h0c0,0,0.1,0,0.1,0c0,0,0.1,0,0.1,0c0.1,0,0.1,0,0.1,0c0,0,0.1,0,0.2-0.1
		c0.1,0,0.2,0,0.2,0h0h0c0,0,0,0,0,0l0.1,0v0h0c0,0,0,0,0.1,0c0,0,0.1,0,0.1,0c0.1,0,0.2,0,0.2,0c0,0,0,0,0,0
		c0.2-0.1,0.4-0.1,0.5-0.1c0,0,0.1,0,0.3,0c0.2-0.1,0.3-0.1,0.3-0.1c0,0.1,0,0.1,0,0h0c0,0,0,0,0.1,0c0,0,0.1,0,0.1,0
		c0,0,0.1,0,0.1,0c0.1,0,0.2,0,0.3-0.1c0.1,0,0.2,0,0.2,0c0,0,0,0,0,0s0,0,0.1,0c0,0,0.1,0,0.1,0c0,0,0.1,0,0.1,0h0
		c0.1-0.1,0.3-0.1,0.6-0.1v0c0,0,0.1,0,0.2,0c0.1,0,0.2,0,0.2,0.1v0h0c0,0,0,0.1,0,0.1v0c0,0,0,0,0,0c0,0,0,0,0,0.1c0,0,0,0,0,0h0
		c0,0.1,0,0.1,0,0.1c0,0,0,0,0,0.1c0,0,0,0.2,0,0.5v0v0c0,0,0,0.1,0,0.2c0,0.4,0,0.5,0,0.5S57.6,37.2,57.6,37.1z M45.8,40.6
		C45.8,40.6,45.8,40.6,45.8,40.6C45.8,40.6,45.8,40.6,45.8,40.6C45.8,40.6,45.8,40.6,45.8,40.6C45.8,40.6,45.8,40.6,45.8,40.6
		L45.8,40.6C45.8,40.6,45.8,40.6,45.8,40.6L45.8,40.6z M51.4,31.8C51.4,31.8,51.4,31.8,51.4,31.8c0,0-0.1,0-0.2,0.1h-0.1
		c0,0,0,0-0.1,0l-0.1,0h-0.1h0c0,0,0,0,0,0c0,0,0,0,0,0c-0.1,0-0.1,0-0.1,0l0,0v0h0c0,0,0,0-0.1,0c0,0,0,0,0,0c0,0,0,0-0.1,0h0
		c0,0,0,0,0,0c0,0,0,0,0-0.1l0,0c0.1,0,0.1-0.1,0.1,0c0,0,0,0-0.1,0c0,0,0,0,0-0.1c0,0,0-0.1,0-0.1c0,0-0.1,0.1-0.1,0v0c0,0,0,0,0,0
		h0c0,0,0,0,0,0c0,0,0,0,0,0v0c0,0,0,0,0,0c0,0,0,0,0,0l0,0v0c0,0,0,0,0,0c0,0,0,0,0,0v0c0,0-0.1,0,0,0c0,0,0,0,0-0.1h0
		c0,0,0,0,0-0.1c0,0,0,0,0,0v0c0,0,0,0,0,0l0,0c0,0-0.1-0.1-0.1-0.1c0,0,0-0.1,0-0.1l0-0.1c0,0,0,0,0,0c0,0,0-0.1,0-0.1
		c0-0.1,0-0.2,0-0.2l0-0.1l0,0v0h0c0,0,0,0,0-0.1l0,0l0,0c0,0,0,0,0,0v0c0,0,0,0,0-0.1h0c0-0.1-0.1-0.2,0-0.1c0,0,0.1-0.1,0.1-0.1
		c0,0,0,0,0,0c0,0,0-0.1,0-0.2c0,0,0-0.1,0-0.1h0v0l0,0c0-0.1,0-0.1,0-0.1c0,0,0,0,0,0c0,0,0,0,0,0c0,0,0,0,0,0c0,0,0,0,0.2-0.3
		c0,0,0,0,0.1-0.1c0,0,0.1-0.1,0.1-0.1c0,0,0,0,0.2-0.2c0,0,0.1,0,0.1-0.1l0,0l0,0c0,0,0,0,0,0l0,0c0.1,0,0.1,0,0.1-0.1c0,0,0,0,0,0
		h0l0.1,0c0,0,0,0,0,0v0l0.1,0h0c0,0,0,0,0.1,0c0,0,0,0,0.2,0l0.1,0l0,0c0,0,0,0,0.1,0l0,0c0.1,0,0.1,0,0.2,0l0.1,0h0c0,0,0,0,0.2,0
		c0,0,0,0,0.1,0c0-0.1,0-0.1,0.1,0l0,0v0l0.1,0c0.1,0,0.3-0.1,0.4-0.1c0,0,0,0,0.1,0c0,0,0.1,0,0.1,0l0.1,0l0.1,0h0l0.1,0l0,0h0h0
		c0,0,0,0,0,0c0,0,0,0,0,0v0H54c0.1,0,0.1,0,0.2,0l0,0h0.1c0.1,0,0.1-0.1,0.1,0l0,0h0.1l0.3,0l0.1,0v0h0l0.1,0l0.2,0l0.3,0l0,0
		l0.1,0v0h0l0.1,0c0.1,0,0.1,0,0.1,0h0l0.3,0l0.1,0c0.2,0,0.2,0,0.2,0h0c0,0,0,0,0.1,0h0.1l0.2,0c0.1,0,0.1,0,0.1,0.1h0l0.1,0h0
		c0.1,0,0.2-0.1,0.3,0v0c0,0,0,0,0.1,0c0.1,0,0.1,0.1,0.1,0.1l0,0c0,0,0,0.1,0,0.1v0l0,0v0c0,0,0,0,0,0.1v0c0,0.1,0,0.1,0,0.2
		l-0.1,0.2c0,0,0,0.2-0.1,0.5l0,0v0c0,0,0,0.1,0,0.3C57,29.6,57,29.7,57,29.6c-0.3,0.6-0.5,0.9-0.6,1c-0.2,0.1-0.2,0.2-0.3,0.2
		c0,0-0.1,0-0.1,0l0,0c-0.1,0.1-0.1,0.1-0.1,0l-0.2,0.1h-0.1c-0.2,0-0.2,0-0.2,0c0,0-0.1,0-0.1,0h-0.1h-0.1h0C55,31,55,31,55,31
		l-0.1,0h0h-0.1c0,0,0,0-0.1,0c0,0,0,0-0.1,0h0c0,0,0,0-0.1,0h0c0-0.1,0-0.1-0.1,0h0c0,0,0,0-0.1,0c0,0-0.1,0-0.1,0
		c0-0.1,0-0.1-0.1,0H54l-0.1,0c0,0,0,0-0.1,0c0,0-0.1,0-0.1,0c-0.1,0-0.1,0.1-0.1,0c0,0,0,0-0.1,0c-0.1,0-0.1,0.1-0.1,0h0
		c-0.1,0-0.1,0.1-0.1,0h0c-0.1,0-0.1,0-0.2,0h0l-0.1,0c-0.1,0-0.2,0.1-0.1,0c0,0,0,0-0.1,0c0,0-0.1,0-0.1,0c0,0-0.1,0-0.2,0l-0.1,0
		h0l-0.2,0c0-0.1,0-0.1-0.1,0l-0.1,0c-0.2,0.1-0.3,0.1-0.3,0.1l-0.1,0l0,0C51.4,31.8,51.4,31.8,51.4,31.8
		C51.4,31.8,51.4,31.8,51.4,31.8z"/>
	<path d="M72.5,15.8C72.5,15.8,72.6,15.8,72.5,15.8c0,0-0.2,0.4-0.4,1c-0.2,0.4-0.3,0.7-0.4,1c0,0.1-0.1,0.3-0.2,0.6l0,0
		c-0.1,0.3-0.1,0.4-0.1,0.3c-0.1,0.2-0.2,0.4-0.3,0.6L70.9,20c-0.3,0.7-0.4,1-0.4,0.9c-0.1,0.2-0.1,0.4-0.2,0.5l-0.1,0.3L70.1,22
		l0,0.1c0,0-0.1,0.1-0.1,0.3c0,0.1-0.1,0.2-0.1,0.2L69.7,23l0,0.1l-0.2,0.4c0-0.1,0,0-0.1,0.3l-0.1,0.3l0,0c0,0,0,0.1-0.2,0.5l0,0.1
		C69,24.8,69,24.9,69,25l-0.1,0.2c0,0,0,0.1-0.2,0.4c-0.1,0.2-0.1,0.3-0.1,0.3c-0.1,0.1-0.1,0.2-0.1,0.4l-0.1,0.3L68.3,27
		c0,0.1-0.1,0.2-0.1,0.3c0,0.1-0.1,0.2-0.1,0.3c-0.1,0.4-0.2,0.5-0.2,0.5c0,0.1-0.1,0.2-0.1,0.3c-0.1,0.2-0.1,0.3-0.1,0.3l-0.1,0.1
		c-0.1,0.4-0.2,0.6-0.2,0.5v0c-0.1,0.3-0.2,0.6-0.3,0.9v0l0,0.1l-0.1,0.3l0,0c-0.1,0.4-0.2,0.6-0.2,0.6c0,0.1-0.1,0.2-0.1,0.4
		c-0.1,0.2-0.1,0.3-0.1,0.3c-0.2,0.6-0.3,0.8-0.3,0.8c0,0,0,0.2-0.1,0.5l0,0.1l-0.2,0.7c-0.1,0.1-0.1,0.2-0.1,0.3L65.6,35
		c-0.2,0.7-0.3,1.1-0.3,1l-0.1,0.4l0,0.1C65.1,37,65,37.2,65,37.1c0,0,0,0,0,0c0-0.1-0.1,0.2-0.3,0.9c0,0,0,0.1-0.1,0.3
		c0,0,0,0.1-0.1,0.3c0,0,0,0.1-0.1,0.5c0,0,0,0.1-0.1,0.3c0,0,0,0.1,0,0.1c0,0.1,0,0.1,0,0.1c-0.1,0.2-0.1,0.3-0.1,0.3
		C64,40.2,64,40.3,64,40.3c0,0,0,0.1-0.1,0.2c0,0,0,0,0,0l0,0.1c0,0,0,0.1-0.1,0.3c0,0,0,0.1-0.1,0.2c0,0.1-0.1,0.1-0.1,0.2l0,0.1
		c0,0,0,0,0,0v0c0,0,0,0,0,0c0-0.1,0-0.1,0-0.1v0c0-0.2,0.1-0.4,0.1-0.3c0,0-0.1,0.1-0.1,0.3c0,0,0,0-0.1,0c0,0,0,0,0,0l0,0
		c0,0.2,0,0.3,0,0.3l0,0c0,0,0,0-0.1,0c0,0,0-0.1,0-0.1c0,0,0-0.1,0-0.1c0,0,0,0,0-0.1l0,0c0,0,0,0.1-0.1,0.1c0,0,0,0.1,0,0.1
		c0,0,0,0.1,0,0.1c0,0,0,0,0,0c0,0,0-0.1,0-0.1c0,0,0,0,0-0.1v0c0,0,0,0,0,0c0,0,0,0,0,0c0,0.1-0.1,0.1-0.1,0.2l0,0
		c-0.1,0.1-0.1,0.2-0.1,0.1c0,0,0,0,0,0h0l0,0.1l0,0.1c-0.1,0.1-0.1,0.2-0.2,0.3c-0.1,0.1-0.1,0.1-0.1,0c0,0,0,0,0-0.2c0,0,0,0,0,0
		c0,0,0,0,0,0c0-0.1,0-0.1-0.1-0.1c-0.1-0.1-0.1-0.1-0.1-0.1l-0.1,0.1l0,0.1h0l0,0.1c0,0,0,0-0.1,0.1l0,0c0,0,0,0.1-0.1,0.1
		c0,0,0,0-0.1,0.1h0c0-0.1,0-0.1-0.1,0l0,0l0,0.1c-0.2,0.2-0.2,0.2-0.2,0.2c0-0.1,0-0.2,0-0.3c0,0-0.1,0-0.1,0.1l0,0
		c0,0-0.1,0-0.1-0.1c0-0.1,0-0.1,0-0.1l0,0v0c0,0,0,0,0,0c0,0,0,0,0,0c0,0-0.1,0-0.1,0c0,0,0,0.1-0.1,0.1c0,0,0,0,0,0c0,0,0,0,0,0
		c0-0.1,0-0.2,0-0.4c0,0,0,0,0,0s0,0,0,0c0,0.1,0-0.1-0.2-0.5c0,0,0-0.1-0.1-0.2c0-0.1-0.1-0.1-0.1-0.2c0,0.1,0-0.1-0.1-0.5
		c0-0.1,0-0.2,0-0.3c0,0,0-0.1,0-0.1c0,0,0-0.1,0-0.1c0-0.1,0-0.1,0-0.1v0l0,0c0-0.2,0-0.3,0-0.3c0-0.1,0-0.1,0-0.1v-0.1l0-0.2
		l0-0.1v0c0-0.1,0-0.1,0-0.3v-0.1c0,0,0-0.1,0-0.3c0,0.1,0-0.1,0-0.6l0-0.4V37c0,0,0-0.1,0-0.3l0-0.2l0.1-0.6v0l0-0.4l0-0.1
		c0,0.1,0-0.1,0.1-0.6h0c0-0.1,0-0.2,0-0.3c-0.1,0,0-0.1,0-0.3c0,0,0,0,0-0.1l0,0l0-0.4l0.2-1.2c0-0.1,0-0.1,0-0.2
		c0-0.1,0-0.2,0-0.3c0-0.1,0-0.2,0-0.4l0-0.2L61,31.8l-0.3,0.6c0,0.1-0.1,0.2-0.1,0.3c0,0.1-0.1,0.2-0.1,0.3
		c-0.2,0.4-0.3,0.6-0.3,0.6c-0.1,0.1-0.1,0.3-0.2,0.4c-0.1,0.2-0.2,0.4-0.2,0.3l-0.1,0.2c-0.2,0.4-0.3,0.6-0.3,0.6l0,0
		c-0.2,0.3-0.3,0.7-0.5,1v0L59,36.2l-0.2,0.4c0,0,0,0.1,0,0c-0.2,0.5-0.3,0.7-0.3,0.7c0,0.1-0.1,0.2-0.2,0.5
		c-0.1,0.2-0.1,0.3-0.2,0.4l-0.4,1c-0.1,0.3-0.2,0.5-0.3,0.6c0,0.1,0,0.1,0,0.1L57,40.8c-0.1,0.1-0.1,0.3-0.2,0.4
		c0,0.1-0.1,0.2-0.1,0.3c-0.1,0.1-0.1,0.2-0.1,0.3c-0.4,0.9-0.6,1.3-0.5,1.2c-0.1,0.2-0.2,0.4-0.2,0.5c0,0,0,0.1,0,0.1
		c-0.3,0.6-0.4,0.9-0.3,0.8c0,0,0,0,0,0.1c-0.1,0.2-0.1,0.3-0.2,0.6c-0.1,0.2-0.2,0.4-0.2,0.5c0,0,0,0.1-0.1,0.3
		c0,0-0.1,0.1-0.2,0.4c-0.1,0.2-0.2,0.4-0.2,0.6c0,0-0.1,0.1-0.2,0.4c0,0.1-0.1,0.1-0.1,0.2c0,0.1-0.1,0.1-0.1,0.2
		c-0.1,0.2-0.1,0.3-0.1,0.3c-0.1,0.3-0.2,0.4-0.1,0.4c-0.1,0.2-0.1,0.3-0.1,0.2l0,0c0,0,0,0.1,0,0.1c0,0,0,0.1,0,0.1
		c0,0,0,0.1-0.1,0.3c0,0.1-0.1,0.1-0.1,0.2c0,0.1-0.1,0.1-0.1,0.2l0,0.1c0,0,0,0,0,0c0,0,0,0,0-0.1c0-0.1,0.1-0.1,0-0.1l0,0
		c0,0.1,0,0,0.2-0.4c0,0-0.1,0.2-0.2,0.4c0,0,0,0,0,0c0,0,0,0,0,0l0,0c-0.1,0.2-0.1,0.3-0.1,0.3c0,0,0,0,0,0l0,0
		c0-0.1,0.1-0.1,0.1-0.2l0-0.1c0,0,0,0,0,0c-0.1,0.2-0.1,0.3-0.1,0.3c0,0,0,0.1,0,0.1v0c0,0,0-0.1,0-0.1c0,0,0-0.1,0-0.1l0,0
		c0,0,0,0,0,0c0,0,0,0,0,0.1c0,0.1-0.1,0.2-0.1,0.2l0,0c0,0.1-0.1,0.2,0,0.1l0,0l0,0.1L53,50.2c0,0,0,0.1-0.1,0.3c0,0.1,0,0.1,0,0
		c0.1-0.2,0.1-0.3,0.1-0.2c0-0.1,0-0.1,0-0.1c0-0.1,0-0.2,0-0.1l0-0.2c0,0.1-0.1,0.1,0,0.1c0,0.1-0.1,0.2-0.1,0.1l0,0.1
		c0,0,0,0.1,0,0.1c0,0,0,0.1,0,0.1c0,0,0,0.1,0,0.1c0,0,0,0,0,0c0,0,0,0,0,0.1c0,0,0,0.1,0,0.1l0,0.1c0,0,0,0.1-0.1,0.3
		c0-0.1,0.1-0.2,0.1-0.3l-0.1,0.2v0c0,0,0-0.1,0-0.2c0-0.1,0.1-0.2,0.1-0.2v0l0,0c0-0.1,0-0.1,0-0.1c0-0.1,0-0.1,0,0c0,0,0,0,0,0.1
		c0,0,0,0,0,0c0,0,0,0,0,0c0.1-0.2,0.2-0.5,0.3-0.8c0-0.1,0.1-0.2,0.2-0.6c0.1-0.2,0.1-0.5,0.2-0.7c0-0.1,0.1-0.2,0.1-0.4
		c0,0,0-0.1,0-0.2c0-0.1,0-0.1,0-0.2c0-0.1,0.1-0.2,0.1-0.2l0-0.1v0c0.1-0.3,0.1-0.4,0.1-0.5l0.1-0.2l0-0.1l0.1-0.2l0-0.2
		c0,0,0,0,0,0c0.1-0.2,0.1-0.3,0.1-0.3l0-0.2c0,0,0-0.1,0.1-0.4c0-0.1,0.1-0.2,0.1-0.4c0.1-0.2,0.1-0.4,0.1-0.5l0.2-0.5l0.1-0.2
		c0,0,0-0.1,0.1-0.5l0.1-0.3c0.1-0.4,0.2-0.6,0.3-0.8l0,0l0.2-0.5l0-0.1c0,0.1,0-0.1,0.3-0.8h0c0-0.1,0.1-0.2,0.1-0.4
		c0-0.1,0-0.2,0.1-0.3l0-0.1c0-0.1,0-0.2,0.1-0.3c0-0.1,0.1-0.2,0.1-0.3c0-0.1,0.2-0.6,0.6-1.7c0-0.1,0.1-0.2,0.1-0.3
		c0-0.1,0.1-0.2,0.1-0.3l0.2-0.5l0.2-0.4v0l0.2-0.5c0,0,0-0.1,0-0.1l0-0.1l0-0.1c0-0.1,0.1-0.1,0.1-0.2c0-0.1,0-0.2,0-0.2
		c0.2-0.4,0.2-0.7,0.2-0.6c0.1-0.4,0.2-0.6,0.2-0.7l0-0.1l0.1-0.3c0.1-0.3,0.1-0.4,0.1-0.4v0l0.1-0.4l0-0.1c0-0.1,0.1-0.3,0.2-0.6
		c0.1-0.3,0.2-0.5,0.2-0.6l0.1-0.3h0c0,0,0,0,0-0.1c0.1-0.2,0.1-0.3,0.1-0.3c0.1-0.2,0.2-0.4,0.3-0.7l0.4-1.1l0-0.1h0l0.1-0.3l0,0
		l0.1-0.4c0.1-0.3,0.2-0.4,0.2-0.4v0c0.2-0.5,0.3-0.9,0.5-1.2l0.3-0.7c0-0.1,0.1-0.2,0.2-0.4c0.1-0.2,0.1-0.3,0.1-0.4h0l0,0l0.1-0.3
		c0.1-0.3,0.2-0.4,0.2-0.4l0.3-0.8c0.1-0.3,0.2-0.5,0.3-0.5l0,0l0-0.1l0.2-0.5c0-0.1,0-0.1,0-0.1v0c0.1-0.3,0.2-0.7,0.5-1.3
		c0-0.2,0.1-0.5,0.3-1l0,0c0,0,0.1-0.2,0.1-0.3c0.1-0.2,0.2-0.3,0.2-0.4c0,0,0,0,0,0v0c0,0,0.1,0,0.1,0h0h0c0,0,0,0,0.1,0
		c0,0,0,0,0,0v0c0.1,0,0.1,0,0.2-0.1c0,0,0,0,0.1,0c0,0,0.2,0,0.6-0.2h0h0c0,0,0.1-0.1,0.3-0.2C65.9,18,66.1,18,66,18
		c0.5,0.2,0.7,0.5,0.7,0.9c0,0.5,0,0.8,0,0.9c0,0,0,0.2-0.1,0.5v0c0,0.2,0,0.3,0,0.3c0,0.1-0.1,0.3-0.1,0.6l-0.1,0.5
		c-0.1,0.6-0.2,0.9-0.2,0.8c-0.1,0.2-0.1,0.3-0.1,0.4l-0.1,0.2l0,0.3v0c0,0.4-0.1,0.5-0.1,0.4l-0.1,0.5l0,0l-0.1,0.4
		c0-0.1,0,0-0.1,0.2l-0.1,0.3v0c0,0,0,0.1-0.1,0.4l0,0.1c-0.1,0.1-0.1,0.2,0,0.3c0,0.1,0,0.1,0,0.2c0,0,0,0.1-0.1,0.4
		c0,0.1,0,0.2,0,0.3c-0.1,0.1-0.1,0.2,0,0.3l0,0.2L65,27.9c0,0.1,0,0.1,0,0.2c0,0.1,0,0.2,0,0.2c0,0.3,0,0.4,0,0.4
		c0,0.1,0,0.2,0,0.3c0,0.2,0,0.3,0,0.3l0,0.1c0,0.3,0,0.5,0,0.4v0c-0.1,0.3-0.1,0.5-0.1,0.8v0l0,0.1l0,0.3v0c0,0.4,0,0.5,0,0.5
		c0,0.1,0,0.2,0,0.3c0,0.2,0,0.3,0,0.3c0,0,0,0.1,0,0.2c0,0.1,0,0.2,0,0.2c0.1-0.1,0.1-0.3,0.2-0.5c0.1-0.2,0.2-0.4,0.3-0.5
		c0-0.1,0.1-0.2,0.1-0.3s0.1-0.2,0.1-0.3l0.2-0.4l0.2-0.3v0l0.2-0.4l0-0.1l0-0.1l0.1-0.1c0,0,0-0.1,0.1-0.2c0-0.1,0.1-0.1,0.1-0.2
		c0.2-0.4,0.3-0.5,0.3-0.5c0.1-0.3,0.2-0.5,0.3-0.6l0-0.1l0.1-0.3c0.1-0.2,0.1-0.3,0.1-0.3l0,0h0l0.2-0.3l0-0.1l0.4-0.9l0.1-0.3l0,0
		l0.1-0.2l0.3-0.6l0.5-0.9l0-0.1l0.1-0.3l0,0l0.2-0.3c0.1-0.2,0.2-0.3,0.2-0.3l0,0c0.2-0.4,0.4-0.7,0.5-1l0.3-0.6
		c0.3-0.6,0.4-0.8,0.3-0.6v0l0.2-0.3l0.2-0.3l0.3-0.7c0.1-0.2,0.2-0.4,0.2-0.4v0l0-0.1l0.2-0.4c0-0.1,0.1-0.1,0.1-0.1l0,0
		c0.1-0.2,0.3-0.6,0.6-1.2c0.1-0.2,0.2-0.3,0.2-0.4c0-0.1,0.1-0.2,0.2-0.3c0,0,0,0,0-0.1c0,0,0,0,0-0.1l0,0c0,0,0,0,0,0l0,0l0,0l0,0
		l0.1-0.1c0,0.1,0,0,0.1-0.1c0,0,0,0,0,0S72.5,16,72.5,15.8z"/>
	<path d="M79.7,28.6c0,0.1-0.1,0.3-0.1,0.4c-0.1,0.3-0.2,0.5-0.2,0.6c0-0.1,0,0.2-0.2,0.6C79,30.7,78.9,31,78.9,31l-0.1,0.1
		c-0.1,0.2-0.2,0.4-0.3,0.7c-0.1,0.3-0.2,0.4-0.2,0.5c0,0-0.1,0.2-0.3,0.6c-0.1,0.2-0.2,0.3-0.2,0.3l-0.2,0.3c0,0,0,0.1-0.1,0.1
		L77.5,34l-0.1,0.3c-0.2,0.3-0.3,0.5-0.3,0.5c0,0.1-0.1,0.2-0.2,0.3c-0.1,0.1-0.2,0.2-0.2,0.3c-0.2,0.3-0.3,0.6-0.5,0.8l-0.1,0.1
		c-0.1,0.1-0.2,0.2-0.3,0.5c-0.2,0.3-0.4,0.5-0.4,0.6c0,0-0.1,0.1-0.1,0.2c0,0-0.1,0.2-0.3,0.3c0,0,0,0.1-0.1,0.1l0,0
		c0,0.1-0.1,0.1,0,0l0,0c0,0,0,0,0,0c0,0.1-0.1,0.1-0.1,0.2c-0.2,0.3-0.3,0.4-0.3,0.4c-0.1,0.1-0.2,0.2-0.4,0.5
		c-0.1,0.1-0.1,0.2-0.2,0.3c-0.1,0.1-0.2,0.2-0.2,0.3c0,0-0.1,0.1-0.2,0.2c-0.1,0.1-0.2,0.2-0.2,0.2c-0.1,0.1-0.2,0.3-0.3,0.3
		c0,0-0.2,0.1-0.4,0.4c-0.1,0.1-0.1,0.1-0.3,0.2c-0.1,0.1-0.1,0.1-0.1,0.2c-0.3,0.2-0.5,0.4-0.7,0.6l-0.2,0.1c0,0-0.1,0.1-0.2,0.1
		c-0.1,0-0.1,0.1-0.2,0.1l-0.1,0l-0.1,0l0,0l-0.1,0l0,0l-0.2,0.1c-0.1,0-0.2,0.1-0.4,0.2c0,0-0.1,0-0.2,0.1
		c-0.2,0.1-0.2,0.1-0.2,0.1c-0.2,0.1-0.4,0.1-0.4,0.1c-0.2,0-0.2,0.1-0.2,0c-0.1,0-0.1,0-0.2,0c-0.1,0-0.1,0-0.2,0c0,0-0.1,0-0.2,0
		c-0.2,0-0.5,0-0.8-0.1c-0.1,0-0.1-0.1-0.2-0.1c-0.1,0-0.1-0.1-0.2-0.1c0,0-0.1-0.1-0.3-0.1c-0.1,0-0.1-0.1-0.2-0.2
		c0,0-0.1-0.1-0.2-0.2c0,0-0.1-0.1-0.1-0.1l-0.1-0.1c0,0-0.1-0.1-0.1-0.1l0-0.1c0,0,0,0,0,0c0,0,0,0,0,0c-0.1-0.1-0.1-0.1-0.2-0.2
		c0,0,0-0.1,0-0.1v0v0c0-0.1-0.1-0.1,0-0.1c0,0,0-0.1,0-0.1l0,0l0-0.1v0c0,0,0,0,0,0c0-0.1-0.1-0.1-0.1-0.1c0,0,0-0.1,0-0.2
		c0-0.1-0.1-0.2-0.1-0.2c0-0.2-0.1-0.4-0.1-0.8c0-0.4-0.1-0.6-0.1-0.6v-0.1c0-0.4,0-0.8,0-1.1c0-0.1,0-0.2,0-0.3c0,0,0-0.1,0-0.2
		c0-0.1,0-0.1,0-0.1c0-0.1,0-0.2,0-0.3c0-0.1,0-0.1,0-0.1c0,0,0-0.1,0-0.1c0,0,0,0,0,0l0-0.2l0-0.1c0.1-0.5,0.1-0.7,0.1-0.8
		c0,0,0-0.1,0-0.1c0-0.1,0-0.2,0-0.3c0,0,0-0.1,0.1-0.4c0-0.1,0-0.3,0-0.3c0-0.1,0-0.2,0-0.3c0-0.2,0.1-0.6,0.2-1
		c0.1-0.5,0.2-0.8,0.2-0.8c0.2-0.8,0.4-1.4,0.6-2l0.1-0.3l0.1-0.3c0.1-0.4,0.2-0.6,0.2-0.6c0,0,0-0.1,0-0.2c0-0.1,0-0.1,0-0.1
		c0.2-0.5,0.4-1.1,0.6-1.8c0.2-0.2,0.3-0.5,0.4-0.9c0.2-0.4,0.2-0.6,0.3-0.6l0.3-0.6c0.2-0.4,0.3-0.8,0.6-1.2c0-0.1,0.1-0.3,0.3-0.6
		c0.1-0.2,0.2-0.3,0.3-0.5l0.3-0.5l0.3-0.5c0.1-0.1,0.1-0.2,0.1-0.2c0.2-0.3,0.3-0.6,0.5-0.8c0.1-0.2,0.2-0.3,0.3-0.4
		c0.1-0.1,0.1-0.3,0.2-0.3c0,0.1,0,0,0.1-0.1c0.1-0.1,0.2-0.3,0.3-0.6c0,0,0.1-0.1,0.2-0.3c0.1-0.1,0.2-0.2,0.2-0.2
		c-0.1,0.1,0.2-0.2,0.7-1c0,0,0.1-0.2,0.4-0.5c0-0.1,0.1-0.2,0.2-0.3c0.2-0.2,0.3-0.3,0.3-0.4c0.3-0.3,0.4-0.5,0.4-0.5l0.5-0.5
		c0,0,0.1-0.1,0.3-0.3c0,0,0.1-0.1,0.1-0.2l0,0c0,0,0,0,0,0c0,0,0,0,0,0c0,0,0,0,0,0c0,0,0.1-0.1,0.1-0.1c0.1-0.1,0.2-0.2,0.3-0.3
		c0.1-0.1,0.2-0.2,0.3-0.3l0.6-0.5c0,0,0.1-0.1,0.4-0.3c0.2-0.1,0.3-0.2,0.3-0.2c0.1-0.1,0.2-0.2,0.2-0.2L78,13c0,0,0,0,0.1,0
		l0.2-0.1c0,0,0.1-0.1,0.2-0.1c0,0,0.2-0.1,0.4-0.2c0.1,0,0.2-0.1,0.3-0.1c0,0,0.1,0,0.1-0.1c0,0,0.1,0,0.1-0.1c0,0,0.1,0,0.1,0h0
		c0,0,0,0,0,0c0,0,0.1,0,0.1,0h0l0.1,0c0,0,0,0,0,0c0,0,0.1,0,0.1,0l0.1,0c0,0,0,0,0.2,0c0,0,0.1,0,0.2,0c0.1,0,0.2,0,0.2,0
		c0.1,0,0.2,0,0.3,0c0,0,0,0.1-0.1,0.1c-0.1,0-0.1,0-0.2,0c-0.3,0-0.4,0.1-0.3,0.2l-0.1,0c0,0-0.1,0-0.3,0.1c0,0,0,0-0.1,0l0,0
		l-0.1,0l-0.1,0c-0.1,0-0.1,0.1-0.1,0c0,0,0,0,0,0l-0.1,0c0,0-0.1,0.1-0.2,0.1c0,0,0,0-0.1,0c0,0,0,0-0.1,0c0,0,0.1,0,0.1,0
		c0,0,0.1,0,0.1,0c0,0,0.1,0,0.1,0c0,0,0.1,0,0.1,0c0,0,0.1,0,0.1,0l0,0h0l0.1,0c0.1,0,0.2-0.1,0.3-0.1c0.1,0,0,0-0.1,0.1
		c-0.1,0.1-0.1,0.1,0.1,0.1l0.1,0c0.1,0,0.1,0,0.2,0c0,0,0.1,0,0.2,0c0.2,0,0.3,0,0.3,0c0.1,0,0.1,0,0.1,0c0.1,0,0.1,0,0.1,0.1
		c-0.1,0-0.2,0-0.3,0c-0.1,0-0.2,0-0.3,0c0,0-0.1,0.1-0.2,0.1c0,0,0.1,0,0.1,0c0,0,0.1,0,0.3,0c0.2,0,0.3,0,0.3,0c0.1,0,0.1,0,0.2,0
		s0,0,0.1,0c0,0,0.1,0,0.1,0c0,0-0.1,0-0.1,0c-0.1,0-0.1,0-0.2,0c0,0-0.1,0-0.2,0c-0.1,0-0.1,0-0.1,0c0,0,0.1,0,0.1,0
		c0,0,0.1,0,0.1,0c0.1,0,0.1,0,0.1,0c0,0,0.1,0,0.1,0c0,0,0.1,0.1,0.1,0.1l0.1,0c0.1,0,0.2,0.1,0.2,0.1c0.1,0,0.1,0.1,0,0
		c0,0,0,0,0,0.1v0c0,0,0,0,0,0l0,0c0,0,0,0,0,0l0.1,0.1c0,0,0.1,0,0.1,0.1c0.1,0.2,0.1,0.2,0.1,0.3c0.1,0.3,0.2,0.4,0.2,0.3
		c0,0.2,0,0.2-0.1,0c0,0-0.1-0.1-0.1-0.1c0,0,0,0-0.1,0c0,0,0,0,0,0c0,0-0.1-0.1-0.1-0.1c0,0-0.1,0-0.1,0c-0.2-0.1-0.2-0.1-0.2-0.1
		c-0.1,0-0.1,0-0.1,0c0,0-0.1,0-0.2,0c-0.1,0-0.1,0-0.2,0.1c0,0,0,0.1,0.1,0.2c0.1,0.1,0.1,0.1,0.2,0.1v0l0.1,0c0-0.1,0,0,0,0.2
		l0.1,0.1c0,0,0,0.1,0,0.1c0,0,0,0.1,0,0.1c0,0,0,0.1,0,0.2l0,0c0-0.1-0.1,0-0.1,0.1l0,0.1c0,0,0,0.1,0,0.1c0,0,0,0.1,0,0.1
		c0,0,0,0,0,0c0,0,0,0.1,0,0.1c0,0.1,0,0.2,0,0.2c0,0,0-0.1-0.1-0.1l0,0c0,0,0,0,0,0c0,0,0,0-0.1,0c0,0,0,0-0.1,0c0,0,0,0,0,0.1
		c0,0,0,0.1,0,0.1c0,0,0,0,0,0v0c0,0,0,0,0,0s0,0,0,0l0,0c0,0,0,0-0.1,0c-0.1,0-0.1-0.1-0.1-0.1c0,0-0.1,0-0.1,0l0,0v0c0,0,0,0,0,0
		c0,0,0,0,0,0c-0.1,0-0.1,0.1-0.1,0.1c0,0,0,0.1,0,0.1s0,0,0,0c0,0,0,0,0,0c-0.1,0-0.2-0.1-0.3,0c-0.1,0-0.2,0-0.3,0.1
		c0,0-0.1,0-0.2,0.1c-0.1,0-0.1,0.1-0.2,0.1c0,0-0.1,0-0.1,0l0,0c0,0,0,0,0,0l0,0l0,0l-0.1,0.1c-0.1,0.1-0.2,0.1-0.3,0.3
		c0,0-0.1,0.1-0.1,0.1c0,0,0,0-0.1,0.1c0,0-0.1,0.1-0.1,0.2c-0.1,0-0.1,0.1-0.2,0.2c-0.1,0.1-0.1,0.1-0.2,0.2
		c-0.1,0.1-0.2,0.2-0.2,0.2L78,17.4l0,0c-0.2,0.2-0.3,0.3-0.3,0.3c0,0,0,0,0,0v0l0,0c0,0,0,0,0,0c0,0-0.1,0.1-0.1,0.1
		c0,0.1-0.1,0.1-0.1,0.2c-0.1,0.2-0.2,0.3-0.2,0.3l-0.1,0.1l-0.2,0.3c-0.1,0.2-0.2,0.3-0.2,0.3c-0.1,0.1-0.1,0.1,0,0.1l-0.1,0.1
		l-0.1,0.1l-0.2,0.3c0,0-0.1,0.1-0.2,0.3c0,0.1-0.1,0.2-0.2,0.3c-0.1,0.2-0.2,0.3-0.3,0.3c-0.1,0.1-0.2,0.3-0.4,0.6
		c0.1-0.1,0,0-0.2,0.4c0,0-0.1,0.1-0.1,0.2c0,0.1-0.1,0.1-0.1,0.2l-0.3,0.4l-0.3,0.4c0,0-0.1,0.1-0.2,0.3c0,0-0.1,0.2-0.2,0.3
		c-0.1,0.3-0.2,0.4-0.2,0.4c0,0.1-0.1,0.2-0.2,0.4l-0.2,0.3l-0.2,0.3c0,0.1-0.2,0.3-0.3,0.7l0,0.1c0,0-0.1,0.1-0.2,0.4
		c-0.1,0.2-0.2,0.3-0.2,0.4c0,0.1-0.1,0.2-0.1,0.2c0,0-0.2,0.5-0.6,1.3h0c-0.1,0.1-0.1,0.3-0.3,0.6c0,0.2-0.1,0.4-0.2,0.6
		c0,0,0,0.1,0,0.3l-0.2,0.5l-0.2,0.5c-0.3,0.9-0.5,1.9-0.8,2.9c0,0.1-0.1,0.2-0.1,0.3c0-0.1,0,0-0.1,0.3c-0.1,0.3-0.1,0.4-0.1,0.5
		l-0.1,0.4l-0.1,0.4c0,0,0,0.2-0.1,0.7v0h0c0,0.3-0.1,0.5-0.1,0.7c0,0.1,0,0.2,0,0.2v0.1v0.2c0,0.1,0,0.2,0,0.3c0,0.1,0,0.2,0,0.3h0
		c0,0.1,0,0.2,0,0.4c0-0.1,0,0,0,0.1c0,0,0,0,0,0v0c0,0,0,0.1,0,0.1c0,0,0,0,0,0.1l0,0c0,0,0,0,0,0v0h0v0v0c0,0,0.1,0,0,0l0,0l0.1,0
		h0c0,0,0,0,0,0h0c0,0,0,0,0,0v0c0,0,0.1,0,0.1,0c0,0,0,0,0,0c0,0,0.1,0,0.1,0h0v0l0.1,0l0,0v0h0l0,0l0,0l0,0l0.1-0.1l0.1-0.1
		l0.1-0.1l0.2-0.1l0.2-0.2l0,0l0.1-0.1c0,0,0.1-0.1,0.1-0.2l0.1-0.1l0.1-0.1c0.3-0.3,0.5-0.6,0.8-1l0.1-0.1l0-0.1h0l0.2-0.3l0.2-0.2
		l0-0.1l0,0l0-0.1l0.1-0.2c0.1-0.1,0.1-0.2,0.1-0.2l0.3-0.4l0.1-0.1l0,0c0.3-0.4,0.4-0.6,0.3-0.6l0,0l0-0.1l0.3-0.6
		c0,0,0.1-0.2,0.2-0.4c0.1-0.2,0.1-0.2,0.2-0.3l0-0.1c0.3-0.6,0.6-1.2,0.8-1.8c-0.2,0.1-0.4,0.3-0.7,0.6c-0.3,0.2-0.6,0.4-0.7,0.5
		l0,0c-0.1,0.1-0.3,0.2-0.7,0.5c-0.4,0.3-0.7,0.5-0.8,0.5l0,0l0,0c0-0.1,0-0.1-0.1-0.1v0l0,0c-0.1,0-0.1,0-0.1,0c0,0-0.1,0.1-0.1,0
		l0,0c0-0.1-0.1,0-0.3,0.1c0,0,0-0.1,0-0.1c0,0-0.1,0-0.1,0c0-0.2,0-0.2-0.1-0.2c-0.3,0-0.4,0-0.4,0l0,0c0-0.1-0.1-0.1-0.2,0
		c-0.2,0.1-0.3,0.1-0.3,0.1c0,0-0.1,0-0.2-0.1c-0.1,0-0.1,0-0.2-0.1c0.1-0.5,0.2-0.9,0.4-1.2c0.1-0.2,0.3-0.5,0.5-0.7
		c0.1-0.2,0.2-0.3,0.3-0.4c0.1-0.1,0.3-0.3,0.4-0.4c0.5-0.5,1.1-1.1,1.8-1.7c0.2-0.1,0.4-0.3,0.6-0.5c0.2-0.2,0.4-0.3,0.5-0.4
		l0.1-0.1c0.1,0,0.2-0.1,0.3-0.3c0.1-0.1,0.2-0.2,0.3-0.2c0.2-0.1,0.4-0.3,0.6-0.5c0.4-0.3,0.7-0.5,0.7-0.5c0.3-0.2,0.5-0.3,0.6-0.4
		l0.3-0.2l0.3-0.2c0.1-0.1,0.2-0.1,0.3-0.1l3.1-1.8l-0.9,3.5c0,0.2-0.1,0.3-0.1,0.5c0,0,0,0.1,0,0.1c0,0.1,0,0.1,0,0.1
		c-0.1,0.2-0.1,0.3-0.1,0.3c-0.1,0.2-0.1,0.4-0.1,0.5c-0.1,0.2-0.1,0.3-0.1,0.5c0,0.1,0,0.1,0,0.1S79.7,28.5,79.7,28.6z"/>
	<path d="M89.7,37.1c-0.2,0.6-0.3,0.9-0.6,1.1c-0.4,0.2-0.6,0.3-0.5,0.3c0,0-0.1,0-0.3,0.1h0c-0.1,0.1-0.2,0.1-0.1,0.1
		c0,0-0.1,0-0.3,0.1c-0.1,0-0.2,0-0.3,0.1c-0.3,0.1-0.4,0.1-0.4,0.1c-0.1,0-0.2,0-0.2,0c0,0,0,0-0.1,0c0,0-0.1,0-0.1,0h0
		c-0.2,0.1-0.3,0.1-0.2,0.1c0,0-0.1,0-0.1,0c-0.1,0-0.1,0-0.1,0l0,0c0,0-0.1,0-0.1,0c0,0-0.1,0-0.1,0c0,0,0,0-0.1,0
		c-0.2,0-0.2,0.1-0.1,0h0c0,0-0.1,0-0.2,0c0,0,0,0,0,0c0-0.1-0.1,0-0.1,0c-0.1,0-0.1,0-0.1,0c0,0-0.1,0-0.2,0c-0.1,0-0.1,0-0.1,0
		c0-0.1-0.1,0-0.2,0c0.1,0,0,0-0.1,0c0,0-0.1,0-0.1,0c0,0-0.1,0-0.1,0c0,0-0.1,0-0.1,0c0,0-0.1,0-0.1,0c-0.2,0.1-0.2,0.1-0.2,0.1
		c0,0-0.1,0-0.1,0c-0.1,0-0.2,0.1-0.1,0c0,0-0.1,0-0.1,0c-0.2,0.1-0.2,0.1-0.2,0.1c-0.1,0-0.3,0-0.4,0.1h0c-0.1,0-0.1,0,0,0
		c0,0,0,0-0.1,0c0,0-0.1,0-0.1,0c0,0,0,0,0,0c-0.2,0.1-0.3,0.1-0.3,0.1c0,0-0.1,0-0.2,0c-0.1,0-0.1,0-0.2,0c0,0-0.1,0-0.2,0
		c-0.1,0-0.2,0-0.2,0l0,0h0l-0.1,0l-0.1,0h0c0,0,0,0,0,0c0,0-0.1,0-0.2,0c-0.1,0-0.1,0-0.2,0c0-0.1-0.1,0-0.2,0c-0.1,0-0.2,0-0.2,0
		c-0.4,0.1-0.5,0.2-0.4,0.1c0,0-0.1,0-0.1,0c0,0-0.1,0-0.1,0c0,0,0,0,0,0c-0.2,0.1-0.3,0.1-0.3,0.1c0,0,0,0,0,0c0,0-0.1,0-0.4,0.1
		c0,0-0.1,0-0.1,0c0,0,0,0-0.1,0c0,0-0.1,0-0.2,0.1c0,0,0,0-0.1,0c0,0,0,0-0.1,0c0,0-0.1,0-0.1,0c-0.1,0-0.1,0-0.1,0
		c-0.1,0-0.1,0-0.1,0l0,0c0,0,0,0,0,0v0c0,0-0.1,0-0.1,0c0,0,0,0-0.1,0c0,0-0.1,0-0.1,0c0,0,0,0-0.1,0c0,0,0,0,0,0c0,0,0,0,0,0h0
		c0,0,0,0,0-0.1c0.1-0.1,0.2-0.1,0.2-0.1c0,0,0,0-0.1,0c0,0,0,0,0-0.1c0,0,0-0.1,0,0h0c-0.1,0-0.1,0.1-0.1,0v0c0,0,0,0,0,0
		c0,0,0,0,0,0c0,0,0,0,0,0c0,0,0-0.1,0-0.1v0h0h0h0h0c0,0.1-0.2,0.4-0.4,0.9h0c0,0.1-0.1,0.2-0.2,0.3c-0.1,0.2-0.2,0.3-0.3,0.4h0
		l0,0c0,0-0.1,0-0.1,0h0c0,0-0.1,0-0.1,0c0,0,0,0,0,0v0c-0.1,0-0.1,0-0.2,0.1h-0.2c0,0-0.2,0-0.6,0.1h-0.1c0,0-0.1,0.1-0.3,0.2
		c-0.4,0.1-0.5,0.1-0.4,0.1c-0.5-0.2-0.7-0.6-0.6-1c0-0.1,0-0.2,0.1-0.5c0-0.2,0.1-0.3,0.1-0.4c0,0,0.1-0.2,0.2-0.5l0-0.1
		c0-0.3,0-0.3,0-0.3c0,0.1,0-0.1,0.2-0.6l0.2-0.5c0.2-0.6,0.3-0.9,0.3-0.9c0.1-0.2,0.2-0.3,0.2-0.5c0,0,0-0.1,0.1-0.2l0.1-0.3l0,0
		c0-0.1,0-0.1,0.1-0.3c0-0.1,0.1-0.2,0.1-0.2l0.2-0.5l0,0l0.1-0.4c0,0.1,0,0,0.1-0.2l0.1-0.3l0-0.1c0,0,0-0.1,0.2-0.4l0-0.1
		c0.1-0.1,0.2-0.2,0.1-0.3c0-0.1,0-0.1,0-0.2c0,0,0-0.1,0.2-0.4c0-0.2,0.1-0.3,0.1-0.3c0.1-0.1,0.1-0.2,0.1-0.3l0.1-0.3l0.2-0.4
		c0-0.1,0.1-0.2,0.1-0.3c0-0.1,0.1-0.2,0.1-0.2c0.1-0.3,0.1-0.5,0.1-0.4c0.1-0.1,0.1-0.2,0.1-0.3c0-0.2,0.1-0.3,0.1-0.3l0-0.1
		c0.1-0.4,0.1-0.5,0.2-0.5v0c0.1-0.3,0.2-0.5,0.3-0.8v0l0-0.1l0.1-0.3v0c0.1-0.4,0.2-0.6,0.2-0.5c0-0.1,0.1-0.2,0.1-0.4
		c0.1-0.2,0.1-0.3,0.1-0.3l0.3-0.8c0.1-0.3,0.2-0.5,0.2-0.4l0-0.1l0.3-0.7c0.1-0.1,0.2-0.2,0.1-0.3l0.2-0.4c0.2-0.7,0.3-1,0.3-0.9
		l0.2-0.4l0-0.1c0.1-0.5,0.2-0.7,0.2-0.6c0,0,0,0,0,0c0,0.1,0.1-0.2,0.3-0.8c0,0,0-0.1,0.1-0.2c0,0,0-0.1,0.1-0.3l0.2-0.4
		c0,0,0-0.1,0.1-0.3c0,0,0-0.1,0-0.1s0.1-0.1,0.1-0.1c0.1-0.2,0.1-0.3,0.1-0.3c0.1-0.2,0.2-0.3,0.1-0.3c0,0.1,0,0,0-0.2c0,0,0,0,0,0
		c0,0,0-0.1,0.1-0.1c0,0,0-0.1,0.1-0.3c0,0,0-0.1,0.1-0.2c0.1,0,0.1-0.1,0.1-0.2l0-0.1c0,0,0,0,0,0c0,0,0,0,0,0c0,0.1,0,0.1,0,0.1v0
		c0,0.2-0.1,0.3-0.1,0.3l0.1-0.3c0,0,0.1,0,0.1,0c0,0,0,0,0.1,0l0,0c0-0.2,0-0.2,0-0.2l0,0c0,0,0,0,0.1,0c0,0,0,0,0,0.1
		c0,0,0,0.1,0,0.1c0,0,0,0,0,0l0,0c0,0,0,0,0-0.1c0-0.1,0.1-0.1,0.1-0.1c0,0,0-0.1,0-0.1l0,0c0,0,0,0.1,0,0.1c0,0,0,0,0,0.1
		c0,0,0,0,0,0c0,0,0,0,0,0c0,0,0,0,0,0c0-0.1,0.1-0.1,0.1-0.1v0c0.1-0.1,0.1-0.2,0.1-0.1c0,0,0,0,0,0h0c0,0,0,0,0,0l0-0.1
		c0.1-0.1,0.1-0.2,0.2-0.3c0.1-0.1,0.1-0.1,0.1,0c0,0,0,0,0,0.1c0,0,0,0,0,0c0,0,0,0,0,0c0,0.1,0,0.1,0,0.1C84,19,84,19,84,19
		l0.1-0.1l0-0.1h0l0,0c0,0,0,0,0.1-0.1l0,0c0,0,0-0.1,0.1-0.1c0,0,0.1,0,0.1-0.1h0c0,0,0,0,0.1,0l0-0.1l0,0c0.2-0.1,0.3-0.2,0.2-0.2
		c0,0.1,0,0.2,0,0.2c0,0,0.1,0,0.1-0.1c0,0,0,0,0,0c0,0,0.1,0,0.1,0.1c0,0.1,0,0.1,0,0.1v0l0,0c0,0,0,0,0,0c0,0,0,0,0,0
		c0,0,0.1,0,0.1,0c0,0,0-0.1,0.1-0.1c0,0,0,0,0,0v0c0-0.1,0,0.1,0,0.6c0,0,0,0.1,0,0.2c0,0.1,0,0.2,0,0.2c0-0.1,0,0.1,0,0.5
		c0,0.1,0,0.2,0,0.3c0,0,0,0.1,0,0.1c0,0,0,0.1,0,0.1l0.1,0h0.1c0,0,0,0,0.1-0.1c0,0,0.1,0,0.3-0.1l0.2-0.1l0.1,0c0,0,0,0,0.2,0
		l0.1,0l0.3-0.1h0l0.2,0l0,0c0,0,0.1,0,0.3,0v0c0,0,0.1,0,0.1,0c0-0.1,0.1-0.1,0.1,0l0,0v0l0.2,0l0.6-0.2c0,0,0.1,0,0.1,0
		s0.1,0,0.1,0l0.2,0l0.2,0v0l0.2,0h0l0,0h0c0,0,0.1,0,0.1,0c0,0,0.1,0,0.1,0v0c0.2,0,0.2,0,0.2,0c0.1,0,0.2-0.1,0.3-0.1h0l0.1,0
		c0.1,0,0.1-0.1,0.1,0h0v0l0.1,0l0,0l0.4-0.1l0.1,0v0l0,0l0.1,0l0.3-0.1l0.4-0.1h0l0,0l0.1,0v0v0l0.1,0c0.1,0,0.2,0,0.1,0h0l0.4-0.1
		l0.2-0.1c0.2-0.1,0.3-0.1,0.3,0l0,0l0,0l0.1,0l0.1,0l0.3-0.1c0.1,0,0.1,0,0.2,0l0,0h0l0.2,0c0,0,0,0,0,0v0c0.1-0.1,0.2-0.1,0.5-0.1
		c0,0,0.1,0,0.2,0c0.1,0,0.1,0,0.2,0.1v0h0c0,0,0,0.1,0,0.1v0v0v0.1c0,0,0,0,0,0c0,0,0,0.1,0,0.1c0,0,0,0,0,0.1c0,0,0,0.2,0,0.5v0v0
		c0,0,0,0.1,0,0.2c0,0.4,0,0.5,0,0.4c-0.2,0.6-0.4,0.9-0.6,1c-0.3,0.2-0.4,0.3-0.4,0.3c0,0-0.1,0-0.2,0.1h0
		c-0.1,0.1-0.2,0.1-0.1,0.1c0,0-0.1,0-0.3,0.1l-0.2,0C92.5,22,92.3,22,92.3,22c-0.1,0-0.1,0-0.2,0c0,0,0,0-0.1,0l-0.1,0l0,0
		c-0.2,0.1-0.3,0.1-0.2,0l-0.2,0.1h0l-0.2,0c0,0,0,0-0.1,0l-0.1,0l0,0c0,0-0.1,0-0.2,0h0c0-0.1-0.1,0-0.1,0h-0.1c0,0,0,0-0.2,0
		c-0.1,0-0.1,0-0.1,0.1c0-0.1-0.1-0.1-0.1,0l-0.1,0l-0.2,0.1c0,0-0.1,0-0.1,0c0,0-0.1,0-0.1,0c-0.2,0.1-0.2,0.1-0.2,0.1
		c0,0-0.1,0-0.1,0c-0.1,0-0.1,0.1-0.1,0l-0.1,0c-0.2,0.1-0.2,0.1-0.2,0.1c-0.1,0-0.2,0-0.3,0.1h0l0,0l-0.1,0
		c-0.2,0.1-0.2,0.1-0.2,0.1c0,0-0.1,0-0.2,0c-0.1,0-0.1,0-0.1,0l-0.3,0.1l-0.2,0l0,0L87,23.5c0,0-0.1,0-0.1,0l-0.2,0.1
		c-0.3,0.1-0.4,0.2-0.4,0.1l-0.2,0h0c-0.2,0.1-0.3,0.1-0.3,0.1c0,0,0,0,0,0c0,0-0.1,0-0.4,0.1c0,0,0,0-0.1,0c0,0,0,0-0.1,0.1l-0.2,0
		c0,0,0,0-0.1,0c0,0,0,0,0,0c0,0-0.1,0-0.1,0c-0.1,0-0.1,0-0.1,0c-0.1,0-0.1,0-0.1,0l-0.1,0l0,0l-0.1,0c0,0,0,0-0.1,0c0,0,0,0-0.1,0
		c0,0-0.1,0-0.1,0l0,0c0,0,0,0,0,0h0c0,0,0,0,0-0.1h0l0.1-0.1l-0.1,0c0,0,0,0,0-0.1c0,0,0,0,0,0h0C84,24.1,84,24.2,84,24.1L84,24.3
		l-0.2,0.6l0,0l-0.1,0.4l0,0.1c0-0.1-0.1,0.1-0.3,0.6h0c0,0.1-0.1,0.2-0.1,0.3c0,0.1,0,0.2-0.1,0.3l0,0.1h0l-0.2,0.4l-0.5,1.3
		c0,0.1,0,0.1-0.1,0.3c0,0.1-0.1,0.2-0.1,0.2l-0.1,0.4L82,29.6v0h0L81.8,30l0,0.1l0,0.1l0,0.1c0,0.1,0,0.1,0,0.2
		c0,0.1,0,0.1-0.1,0.1h0c-0.2,0.4-0.2,0.5-0.2,0.5c-0.1,0.3-0.2,0.5-0.2,0.5l0,0l-0.1,0.3c0,0.2-0.1,0.3-0.1,0.3l0,0h0L81,32.5
		l0,0.1l-0.3,0.8l-0.1,0.2h0l0,0.1l-0.1,0.2l-0.2,0.6l-0.3,0.9l0,0h0l-0.1,0.3l0,0l-0.1,0.3c-0.1,0.2-0.1,0.3-0.1,0.3l0,0l-0.3,0.9
		L79,37.7c0,0,0,0,0,0.1c0,0,0,0,0,0c0.1,0,0.2-0.1,0.2-0.1c0,0,0.1,0,0.1,0c0,0,0,0,0,0c0.1,0,0.1,0,0.1,0c0,0,0.1,0,0.1,0h0l0.1,0
		c0,0,0,0,0.1,0c0,0,0,0,0.2-0.1c0,0,0.1,0,0.3-0.1c0,0,0,0,0.1,0c0,0,0.1,0,0.1,0c0,0,0,0,0.1,0l0.2,0h0c0,0,0,0,0,0
		c0,0,0.1,0,0.1,0c0.1,0,0.1,0,0.2,0h0c0,0,0,0,0.1,0c0,0,0.1,0,0.1,0c0,0,0,0,0,0c0,0,0.1,0,0.3,0v0c0,0,0.1,0,0.1,0
		c0-0.1,0.1-0.1,0.1,0l0.1,0v0c0.1,0,0.2,0,0.2,0c0.1,0,0.3-0.1,0.6-0.2c0,0,0.1,0,0.1,0c0.1,0,0.1,0,0.1,0c0,0,0,0,0.1,0
		c0,0,0.1,0,0.1,0c0,0,0,0,0.1,0c0,0,0.1,0,0.1,0v0c0,0,0.1,0,0.1,0c0,0,0.1,0,0.1,0c0,0,0,0,0,0h0h0h0l0,0h0c0,0,0.1,0,0.1,0
		c0,0,0.1,0,0.1,0v0l0.3,0c0.1,0,0.2-0.1,0.3-0.1h0l0.1,0c0.1,0,0.1-0.1,0.1,0c0,0,0,0,0,0c-0.1,0,0,0,0.2,0c0,0,0,0,0,0
		c0.1,0,0.2,0,0.4-0.1c0,0,0.1,0,0.1,0c0,0,0,0.1,0,0h0c0,0,0.1,0,0.1,0c0,0,0.1,0,0.1,0c0.1,0,0.1,0,0.1,0c0,0,0.1,0,0.2-0.1
		c0.1,0,0.2,0,0.2,0h0h0c0,0,0,0,0,0l0.1,0v0h0c0,0,0,0,0.1,0c0,0,0.1,0,0.1,0c0.1,0,0.2,0,0.2,0c0,0,0,0,0,0
		c0.2-0.1,0.4-0.1,0.5-0.1c0,0,0.1,0,0.3,0c0.2-0.1,0.3-0.1,0.3-0.1c0,0.1,0,0.1,0,0h0c0,0,0,0,0.1,0c0,0,0.1,0,0.1,0
		c0,0,0.1,0,0.1,0c0.1,0,0.2,0,0.3-0.1c0.1,0,0.2,0,0.2,0c0,0,0,0,0,0c0,0,0,0,0.1,0c0,0,0.1,0,0.1,0c0,0,0.1,0,0.1,0h0
		c0.1-0.1,0.3-0.1,0.6-0.1v0c0,0,0.1,0,0.2,0c0.1,0,0.2,0,0.2,0.1v0h0c0,0,0,0.1,0,0.1v0c0,0,0,0,0,0c0,0,0,0,0,0.1c0,0,0,0,0,0h0
		c0,0.1,0,0.1,0,0.1c0,0,0,0,0,0.1c0,0,0,0.2,0,0.5v0v0c0,0,0,0.1,0,0.2c0,0.4,0,0.5,0,0.5S89.7,37.2,89.7,37.1z M77.8,40.6
		C77.9,40.6,77.9,40.6,77.8,40.6C77.9,40.6,77.9,40.6,77.8,40.6C77.9,40.6,77.9,40.6,77.8,40.6C77.9,40.6,77.8,40.6,77.8,40.6
		L77.8,40.6C77.9,40.6,77.9,40.6,77.8,40.6L77.8,40.6z M83.5,31.8C83.5,31.8,83.5,31.8,83.5,31.8c0,0-0.1,0-0.2,0.1h-0.1
		c0,0,0,0-0.1,0l-0.1,0h-0.1h0c0,0,0,0,0,0c0,0,0,0,0,0c-0.1,0-0.1,0-0.1,0l0,0v0h0c0,0,0,0-0.1,0c0,0,0,0,0,0c0,0,0,0-0.1,0h0
		c0,0,0,0,0,0c0,0,0,0,0-0.1l0,0c0.1,0,0.1-0.1,0.1,0c0,0,0,0-0.1,0c0,0,0,0,0-0.1c0,0,0-0.1,0-0.1c0,0-0.1,0.1-0.1,0v0c0,0,0,0,0,0
		h0c0,0,0,0,0,0c0,0,0,0,0,0v0c0,0,0,0,0,0c0,0,0,0,0,0l0,0v0c0,0,0,0,0,0c0,0,0,0,0,0v0c0,0-0.1,0,0,0c0,0,0,0,0-0.1h0
		c0,0,0,0,0-0.1c0,0,0,0,0,0v0c0,0,0,0,0,0l0,0c0,0-0.1-0.1-0.1-0.1c0,0,0-0.1,0-0.1l0-0.1c0,0,0,0,0,0c0,0,0-0.1,0-0.1
		c0-0.1,0-0.2,0-0.2l0-0.1l0,0v0h0c0,0,0,0,0-0.1l0,0l0,0c0,0,0,0,0,0v0c0,0,0,0,0-0.1h0c0-0.1-0.1-0.2,0-0.1c0,0,0.1-0.1,0.1-0.1
		c0,0,0,0,0,0c0,0,0-0.1,0-0.2c0,0,0-0.1,0-0.1h0v0l0,0c0-0.1,0-0.1,0-0.1s0,0,0,0c0,0,0,0,0,0c0,0,0,0,0,0c0,0,0,0,0.2-0.3
		c0,0,0,0,0.1-0.1c0,0,0.1-0.1,0.1-0.1c0,0,0,0,0.2-0.2c0,0,0.1,0,0.1-0.1l0,0l0,0c0,0,0,0,0,0l0,0c0.1,0,0.1,0,0.1-0.1c0,0,0,0,0,0
		h0l0.1,0c0,0,0,0,0,0v0l0.1,0h0c0,0,0,0,0.1,0c0,0,0,0,0.2,0l0.1,0l0,0c0,0,0,0,0.1,0l0,0c0.1,0,0.1,0,0.2,0l0.1,0h0c0,0,0,0,0.2,0
		c0,0,0,0,0.1,0c0-0.1,0-0.1,0.1,0l0,0v0l0.1,0c0.1,0,0.3-0.1,0.4-0.1c0,0,0,0,0.1,0s0.1,0,0.1,0l0.1,0l0.1,0h0l0.1,0l0,0h0h0
		c0,0,0,0,0,0s0,0,0,0v0h0.2c0.1,0,0.1,0,0.2,0l0,0h0.1c0.1,0,0.1-0.1,0.1,0l0,0h0.1l0.3,0l0.1,0v0h0l0.1,0l0.2,0l0.3,0l0,0l0.1,0v0
		h0l0.1,0c0.1,0,0.1,0,0.1,0h0l0.3,0l0.1,0c0.2,0,0.2,0,0.2,0h0c0,0,0,0,0.1,0h0.1l0.2,0c0.1,0,0.1,0,0.1,0.1h0l0.1,0h0
		c0.1,0,0.2-0.1,0.3,0v0c0,0,0,0,0.1,0c0.1,0,0.1,0.1,0.1,0.1l0,0c0,0,0,0.1,0,0.1v0l0,0v0c0,0,0,0,0,0.1v0c0,0.1,0,0.1,0,0.2
		l-0.1,0.2c0,0,0,0.2-0.1,0.5l0,0v0c0,0,0,0.1,0,0.3c-0.1,0.4-0.1,0.5-0.1,0.4c-0.3,0.6-0.5,0.9-0.6,1c-0.2,0.1-0.2,0.2-0.3,0.2
		c0,0-0.1,0-0.1,0l0,0c-0.1,0.1-0.1,0.1-0.1,0l-0.2,0.1h-0.1c-0.2,0-0.2,0-0.2,0c0,0-0.1,0-0.1,0h-0.1h-0.1h0
		c-0.1,0.1-0.1,0.1-0.1,0L87,31h0h-0.1c0,0,0,0-0.1,0c0,0,0,0-0.1,0h0c0,0,0,0-0.1,0h0c0-0.1,0-0.1-0.1,0h0c0,0,0,0-0.1,0
		c0,0-0.1,0-0.1,0c0-0.1,0-0.1-0.1,0h-0.1l-0.1,0c0,0,0,0-0.1,0s-0.1,0-0.1,0c-0.1,0-0.1,0.1-0.1,0c0,0,0,0-0.1,0
		c-0.1,0-0.1,0.1-0.1,0h0c-0.1,0-0.1,0.1-0.1,0h0c-0.1,0-0.1,0-0.2,0h0l-0.1,0c-0.1,0-0.2,0.1-0.1,0c0,0,0,0-0.1,0c0,0-0.1,0-0.1,0
		c0,0-0.1,0-0.2,0l-0.1,0h0l-0.2,0c0-0.1,0-0.1-0.1,0l-0.1,0c-0.2,0.1-0.3,0.1-0.3,0.1l-0.1,0l0,0C83.5,31.8,83.5,31.8,83.5,31.8
		C83.5,31.8,83.5,31.8,83.5,31.8z"/>
	<path d="M106.9,23.2C107,23.2,107,23.2,106.9,23.2c0,0.1,0,0.1,0,0.1l0,0c0,0.1-0.1,0.2-0.1,0.3c0,0.1-0.1,0.2-0.1,0.2
		c0,0,0,0.1,0,0.2c0,0.1-0.1,0.2-0.1,0.2c0,0-0.1,0.1-0.1,0.2c0,0.1-0.1,0.1-0.1,0.1v0c0,0,0,0.1-0.1,0.1l-0.2,0.3c0,0,0,0.1,0,0.1
		c0,0,0,0,0,0.1c0,0.1-0.1,0.2-0.2,0.3c-0.1,0.1-0.1,0.1,0,0c0,0,0,0-0.1,0.2c-0.2,0.2-0.2,0.3-0.2,0.3l0,0c0,0,0,0,0,0.1
		c0,0-0.1,0-0.1,0.1c0,0,0,0.1-0.1,0.1c-0.1,0-0.1,0-0.1,0c0,0,0,0.1,0,0.2c0,0,0,0,0,0s0,0,0,0c0,0,0,0,0,0c0,0,0,0,0,0.1
		c0,0,0,0,0,0h0l-0.1,0.1c0.1,0,0.1,0,0.1,0c0,0.1-0.1,0.2-0.2,0.3c0,0,0,0,0,0.1c0,0-0.1,0.1-0.1,0.1l0,0v0c0,0,0,0,0,0
		c0,0,0,0,0,0c0,0,0,0,0,0c-0.1,0.1-0.3,0.2-0.4,0.4c0,0,0,0,0,0l0,0c0,0,0,0.1-0.1,0.1c-0.2,0.2-0.3,0.3-0.3,0.3
		c-0.1,0.1-0.2,0.1-0.3,0.2c0,0-0.1,0.1-0.1,0.1c-0.1,0.1-0.1,0.1-0.1,0.1c-0.1,0.1-0.2,0.2-0.3,0.3c-0.1,0.1-0.2,0.2-0.3,0.3
		c0,0,0,0-0.1,0.2l0,0c0,0-0.1,0.1-0.1,0.1c-0.1,0.1-0.1,0.1-0.1,0.2c-0.1,0.1-0.2,0.1-0.1,0.1c0,0-0.1,0.1-0.3,0.3
		c0,0-0.1,0.1-0.2,0.2c-0.1,0.1-0.2,0.1-0.2,0.2c0,0,0,0,0,0c0,0,0,0-0.1,0.1c0,0,0,0.1-0.1,0.1c0,0.1-0.1,0.1-0.3,0.2
		c-0.1,0.1-0.2,0.2-0.3,0.2l-0.1,0.1c-0.1,0.1-0.2,0.2-0.3,0.3c-0.1,0.1-0.2,0.2-0.3,0.2c-0.2,0.2-0.3,0.3-0.3,0.2
		c0.2-0.1,0.1-0.1-0.2,0.1c0,0,0,0-0.2,0.1c-0.1,0.2-0.3,0.2-0.4,0.3c-0.2,0.1-0.3,0.2-0.3,0.2c-0.1,0-0.1,0,0,0h0l0,0
		c-0.1,0.1-0.2,0.1-0.2,0.2c-0.1,0.1-0.2,0.1-0.3,0.2c-0.1,0.1-0.3,0.2-0.6,0.3c0,0-0.1,0-0.2,0.1l0,0c0,0-0.1,0.1-0.2,0.2
		c-0.1,0-0.1,0,0,0l-0.2,0.1c-0.1,0.1-0.2,0.1-0.2,0.1h0c-0.2,0.1-0.3,0.1-0.3,0.1c-0.1,0-0.1,0-0.1,0c0,0.1,0,0.2,0,0.4
		c0,0.2,0,0.3,0,0.4c0,0,0,0.1,0,0.1c0,0.1,0,0.1,0,0.1c0,0.1,0,0.2,0.1,0.1c0,0.4,0,0.6,0,0.5c0,0,0,0.1,0,0.1c0,0,0,0.1,0,0.1
		c0,0.1,0.1,0.2,0.1,0.4c0,0.2,0,0.4,0,0.5c0,0-0.1,0,0,0.1c0,0,0,0,0,0c0,0,0,0,0,0c0,0,0,0,0,0c0,0,0,0,0,0.1c0,0,0,0.1,0,0.1
		c0,0.1,0,0.1,0,0.1v0c0,0,0,0,0,0c0,0.3,0,0.5,0,0.6c0,0,0,0.1,0,0.2c0,0.1,0,0.1,0,0.1c0,0,0,0.1,0,0.1c0,0,0,0,0-0.1
		c0,0,0,0.1,0,0.2c0,0,0,0,0,0.1c0,0,0,0,0,0c0,0,0,0.1,0,0.1c0,0,0,0,0,0c0,0,0,0.1,0,0.1c0,0,0,0.1,0,0.2c0,0.1,0,0.1,0,0.1
		c0,0,0,0.1,0,0.3c0,0,0,0.1,0,0.1c0,0,0,0.1,0,0.1v0c0,0,0,0.1,0,0.1v0.3c0,0,0,0,0,0c0,0,0,0,0,0c0,0.1,0,0.1,0,0.2
		c0,0.1,0,0.1,0,0l0,0.1c0,0.2,0,0.3,0,0.2c0,0.2,0,0.2,0,0.1c0,0,0,0,0,0.1c0,0,0,0.1,0,0c0,0,0,0.1,0.1,0.1c0,0,0,0,0,0
		c0,0,0,0,0,0c0,0,0,0,0,0c0,0,0,0,0,0l0,0c0,0,0,0,0,0l0,0.1c0,0,0,0,0,0c0,0,0.1,0.1,0,0.2c0,0.1,0,0.1,0,0.1c0,0.2,0,0.2,0,0.2
		c0,0.1,0,0.2,0,0.4c0,0,0,0,0-0.1c0,0,0,0.1,0,0.1l0,0.2c0,0.1,0,0.3,0,0.5c0,0.2,0,0.4,0,0.5c0,0,0,0,0,0.1h0v0.1
		c0,0.1,0,0.1,0,0.2c0,0.1,0,0.1,0,0.1c0,0,0,0.1,0,0.3c0,0,0,0.1,0,0.2c0,0.1,0,0.1,0,0.2s0,0,0,0c0,0,0,0,0,0.1c0,0,0,0.1,0,0.1
		c0,0.1,0,0.3,0,0.5l0,0.1c0,0.2,0,0.3,0,0.5c0,0.2,0,0.3,0,0.2c0-0.2,0-0.1,0,0.2c0,0,0,0,0,0.1c0,0.1,0,0.2,0,0.3
		c0,0.2,0,0.3,0,0.3c0,0,0,0.1,0,0v0v0c0,0.1,0.1,0.3,0.1,0.4c0,0,0,0.2,0,0.4c0,0,0,0.1,0,0.1v0c0-0.1,0,0,0,0.2l0,0.1
		c0,0.1,0,0.1,0,0.2v0c0,0.2,0,0.2,0,0.2v0.2c0,0.2,0,0.3,0,0.3c0,0,0,0,0,0.1v0.1c0,0.2,0,0.3,0,0.3v0c0,0,0,0.1,0,0.2
		c0,0,0,0.1,0,0.3c0,0,0,0,0,0.1c0-0.2,0-0.3,0-0.2c0-0.1,0-0.1,0-0.1v0c0,0.1,0,0.1,0,0.2c0,0.1,0,0.1,0,0.1c0,0,0,0,0-0.1
		c0,0.1,0,0.1,0,0.1c0,0,0,0,0,0c0,0,0,0,0,0c0,0.1,0,0.2,0,0.1c0,0,0,0,0,0c0,0,0,0,0-0.1c0,0,0-0.1,0-0.1v0
		c-0.1-0.2-0.1-0.3-0.1-0.3v0c0,0,0,0,0-0.2c0,0,0,0,0-0.2c0,0,0-0.1,0-0.1c0,0,0,0,0,0l0,0v0c0,0,0,0,0,0l0,0c0-0.2,0-0.2,0-0.2
		c0-0.2-0.1-0.2,0-0.2v0c0-0.1-0.1-0.2-0.1-0.3l0,0c0-0.1,0-0.1,0-0.2c0-0.1,0-0.2,0-0.1c0,0,0,0,0,0l0-0.1v0c0-0.1,0-0.2-0.1-0.3
		c0,0,0-0.1,0-0.2c0-0.1,0-0.1,0-0.2c0,0.1,0,0,0-0.2c0-0.1,0-0.2-0.1-0.3c0-0.1-0.1-0.2-0.1-0.3v0l0-0.1c0,0,0,0,0.1,0.1l0,0l0,0
		c0,0.1,0,0,0-0.2v0l0-0.1v0c0-0.1-0.1-0.2-0.1-0.3c0,0,0,0,0,0c0,0,0-0.1,0-0.1c0,0,0-0.1,0-0.1c0,0,0-0.1-0.1-0.2
		c0-0.1,0-0.1,0-0.2v0c0,0,0,0.1,0,0.2c0,0.1,0,0.2,0,0.2h0l0-0.1l0,0c-0.1-0.3-0.1-0.4-0.1-0.3c0-0.1,0-0.1,0-0.2l0-0.1
		c0,0,0-0.1,0-0.1c0-0.1,0-0.2-0.1-0.3c0-0.1-0.1-0.2-0.1-0.3c0,0,0,0,0,0c0-0.1-0.1-0.2-0.1-0.3l0-0.1v0v0c0,0,0,0,0,0
		c0,0,0-0.1,0,0c0-0.1,0-0.1,0-0.2c0-0.1,0-0.1,0-0.2c0-0.1-0.1-0.1,0-0.1c0-0.1-0.1-0.2-0.2-0.5l0-0.1l0-0.1l0,0
		c-0.1-0.3-0.1-0.4-0.1-0.4v0c0-0.1,0-0.1,0-0.1c0,0,0-0.1,0,0c0,0.1,0,0,0,0h0c0-0.1,0-0.1,0-0.2c0,0,0,0,0-0.1c0-0.1,0-0.1,0-0.2
		c0,0,0,0,0-0.1c0,0,0-0.1,0-0.1l0,0c0,0-0.1,0-0.1,0c0,0,0,0,0,0c-0.1-0.1-0.1-0.2-0.1-0.2c0,0,0-0.1,0-0.1c0,0,0,0,0-0.1v0
		c-0.1-0.3-0.1-0.4-0.1-0.3v0c0,0,0,0,0,0h0v-0.2c0,0,0,0,0,0c0,0,0,0,0,0c0,0,0,0,0,0c0-0.1-0.1-0.1,0-0.2c0,0,0,0,0-0.1v0
		c0-0.1-0.1-0.2-0.1-0.3c-0.1-0.1-0.1-0.2-0.1-0.3v0l0-0.1c0-0.2-0.1-0.2,0-0.2l-0.1-0.2c0-0.1,0-0.1,0-0.1c0,0,0-0.1,0-0.1
		c0-0.2-0.1-0.4-0.1-0.4l0,0c0,0,0-0.1-0.1-0.3l0,0c0,0,0,0,0-0.1l0,0c0-0.1-0.1-0.3-0.1-0.5l0-0.1c-0.1-0.3-0.2-0.4-0.1-0.3
		c0,0.1,0,0.1,0,0.1c0,0,0,0.1-0.1,0.2v0l0,0l0,0l-0.1,0.2c-0.1,0.2-0.1,0.3-0.1,0.3c0,0,0,0,0,0.1c0,0,0,0.1,0,0.1
		c0,0-0.1,0.1-0.1,0.3h0l-0.2,0.6h0c0,0,0,0.1,0,0.1c0,0,0,0.1,0,0.1C93,38.5,93,38.5,93,38.5c-0.1,0.2-0.2,0.3-0.1,0.3
		c0,0,0.1,0,0,0c0-0.1,0,0.1-0.3,0.6l0,0c-0.1,0.4-0.2,0.5-0.2,0.5c-0.1,0.2-0.2,0.3-0.2,0.4c0,0,0,0-0.1,0.2l0,0L92,40.7L92,40.8
		c0,0.1-0.1,0.2-0.1,0.3c0,0.1-0.1,0.2-0.1,0.3l-0.1,0.1c0,0,0,0.1-0.1,0.2c-0.2,0.6-0.4,1.1-0.6,1.3c0,0.1-0.1,0.1-0.1,0.2h0
		c0,0,0,0-0.1,0.1c0,0,0,0-0.1,0h-0.1c0,0,0,0-0.1,0c0,0-0.1,0-0.1,0v0l0,0c0,0,0,0,0,0c0-0.1,0-0.1,0-0.1c-0.1,0.1-0.2,0.1-0.1,0.1
		c-0.1,0-0.1,0-0.1,0h0h0c0,0,0,0,0,0v0c0,0,0,0-0.1,0l0,0c0,0,0,0-0.1,0l-0.1,0.1c-0.2,0.1-0.2,0.1-0.2,0.1h0c0,0-0.1,0-0.1,0
		c0,0-0.1,0-0.1,0h0c-0.3-0.1-0.4-0.1-0.3-0.1c0,0-0.1,0-0.1,0c0,0,0,0,0,0s0,0-0.1,0c-0.1,0.1-0.2,0.1-0.2,0c0,0-0.1-0.1-0.3-0.1
		c-0.2,0-0.2-0.1-0.3-0.2c0,0,0,0,0.1,0s0.1,0,0.1,0c-0.1,0-0.1-0.1-0.2-0.1c0,0,0-0.1,0-0.1c0,0,0-0.1,0-0.1c0,0,0-0.1,0-0.1
		s0-0.1,0-0.1c0,0,0,0,0,0c0,0,0,0,0,0c0-0.1,0-0.2,0-0.2c0-0.1,0.1-0.1,0.1-0.3c0-0.1,0-0.2,0.1-0.3l0,0c0,0,0,0,0,0
		c0.1-0.3,0.2-0.6,0.4-0.9c0-0.1,0-0.2,0.1-0.4c0.1-0.2,0.1-0.4,0.1-0.4l0,0c0,0,0.1-0.1,0.1-0.2l0,0c0.2-0.4,0.3-0.6,0.4-0.7
		c0,0,0,0,0,0c0,0,0,0,0,0c0.1-0.2,0.2-0.4,0.2-0.4c0,0,0-0.1,0.1-0.2l0-0.1l-0.1,0c0,0,0.1-0.2,0.2-0.4h0c0-0.1,0.1-0.2,0.1-0.3
		c0-0.1,0.1-0.2,0.1-0.3v0c0,0,0.1-0.1,0.1-0.2c0-0.1,0-0.1,0.1-0.2c0.1-0.1,0.1-0.2,0.2-0.4s0.1-0.3,0.2-0.4c0,0,0,0,0.1-0.1
		c0-0.1,0.1-0.1,0.1-0.1c0,0,0-0.1,0-0.1c0,0,0-0.1,0-0.1c0-0.1,0.1-0.1,0.1-0.2c0.1-0.1,0.1-0.1,0.1-0.2c0,0,0-0.1,0-0.1
		c0,0,0.1,0,0.1-0.1c0-0.1,0.1-0.3,0.2-0.4c0.1-0.2,0.2-0.4,0.2-0.5c0,0,0.1,0,0.1,0c0,0,0,0,0,0c0,0,0-0.1,0-0.1c0,0,0,0,0,0
		c0,0,0,0,0-0.1c0,0,0.1-0.1,0.1-0.1c0-0.1,0-0.1,0.1-0.1v0v0c0.1-0.3,0.2-0.5,0.3-0.6c0,0,0-0.1,0-0.2c0-0.1,0-0.1,0-0.1
		c0,0,0.1,0,0.1-0.1c0,0,0,0,0,0.1c0.1,0,0.1,0,0.1-0.1c0,0,0,0,0.1-0.1c0,0,0,0,0-0.1c0,0,0-0.1,0-0.1c0,0-0.1,0-0.1,0
		c0-0.1,0-0.1,0.1-0.2c0,0,0-0.1,0.1-0.2c0-0.1,0.1-0.1,0.1-0.1c0,0,0-0.1,0.1-0.3c0,0,0-0.1,0-0.1l0-0.1c0-0.1,0-0.2-0.1-0.3
		c0-0.1-0.1-0.2-0.1-0.3l0-0.1c0,0,0,0-0.1-0.2c-0.2-0.6-0.3-1-0.3-1.2c0,0,0-0.1,0-0.2l0,0c0,0,0-0.1,0.1-0.1c0,0,0,0,0.1-0.1
		l0.1,0c0,0,0.1,0,0.1,0c0,0,0.1,0,0.1,0l0,0c0,0,0,0,0,0c0,0,0,0,0,0c0,0,0.1,0.1,0.1,0c0.1-0.1,0.1-0.2,0.1-0.1
		c0.1,0,0.2-0.1,0.1,0h0c0,0,0,0,0,0c0,0,0,0,0,0l0,0c0,0,0-0.1,0.1-0.1v0l0,0c0,0,0-0.1,0-0.1l0.1-0.1c0.1-0.1,0.2-0.2,0.2-0.2l0,0
		c0,0,0-0.1,0.1-0.1c0.1,0,0.1,0,0.1,0c0,0,0,0,0,0c0.3-0.1,0.5-0.1,0.4-0.1c0.2-0.3,0.3-0.6,0.3-0.6c0,0,0,0,0-0.2l0.1,0
		c0,0,0-0.1,0-0.1c0-0.1,0-0.1,0-0.2c0.1-0.1,0.1-0.1,0-0.1c0,0,0-0.1,0.1-0.3c0,0,0.1-0.1,0.1-0.2c0-0.1,0.1-0.2,0.1-0.2
		c0,0,0,0,0,0c0,0,0-0.1,0-0.1c0,0,0-0.1,0-0.1c0-0.2,0.1-0.3,0.2-0.5l0-0.1c0-0.2,0.1-0.3,0.2-0.5c0,0,0-0.1,0.1-0.1
		c0,0,0-0.1,0-0.1c-0.1,0.2,0,0.1,0.1-0.1c0,0,0,0,0.1-0.1c0-0.1,0.1-0.2,0.2-0.3C95.9,24.1,96,24,96,24c0,0,0.1-0.1,0,0v0l0,0
		c0-0.2,0.1-0.3,0.2-0.4c0-0.1,0.1-0.2,0.2-0.4c0,0,0-0.1,0.1-0.1l0,0c0,0,0-0.1,0.1-0.2c0-0.1,0.1-0.1,0,0l0-0.1c0,0,0,0,0-0.1
		c0,0,0,0,0-0.1c0,0,0-0.1,0-0.1c0,0,0,0,0,0c-0.1-0.2-0.2-0.3-0.1-0.3c0,0,0,0,0,0c0,0,0,0,0,0c0,0-0.1,0-0.1,0c0,0-0.1,0-0.1,0
		c0,0,0-0.1,0-0.1c0-0.1,0-0.2-0.1-0.3c0-0.1-0.1-0.1-0.1-0.1c0-0.1,0-0.1,0-0.2c0,0,0.1,0,0.1,0c0,0,0.1,0,0.1,0c0-0.1,0-0.2,0-0.3
		c0,0,0.1,0,0.1-0.1c0,0,0,0,0,0c0,0,0.1-0.1,0.1-0.1c0,0,0.1-0.1,0.1-0.1c0,0,0.1-0.1,0.1-0.1c0,0,0,0,0,0c0,0-0.1,0-0.1,0
		c0,0,0.1-0.1,0.1-0.1c0,0,0.1-0.1,0.1-0.1c0.1,0,0.2-0.1,0.3-0.3c0.1-0.1,0.3-0.2,0.4-0.3h0c0,0,0,0,0,0c0.2-0.2,0.5-0.3,0.7-0.4
		c0.2-0.1,0.3-0.1,0.3-0.1c0.1,0,0.2-0.1,0.3-0.1c0.1-0.1,0.2-0.2,0.5-0.3c0,0,0.1,0,0.2-0.1c0.1,0,0.1-0.1,0.2-0.1
		c0.1,0,0.2-0.1,0.3-0.1h0c0.1,0,0.2-0.1,0.3-0.1c0,0,0,0,0,0c0.1,0,0.2,0,0.3-0.1c0.1,0,0.2-0.1,0.3-0.1c0,0,0.1,0,0.3,0
		c0.1,0,0.2,0,0.3,0c0,0,0,0,0,0c0,0,0,0,0,0c-0.1,0,0,0,0.3,0c0.1,0,0.2,0,0.3,0h0.3l0.1,0l0,0c0.1,0,0.2,0,0.3,0c0,0,0.1,0,0.1,0
		c0,0,0.1,0,0.1,0h0.1h0l0,0c0,0,0,0,0.1,0h0.3h0c0,0,0.1,0,0.1,0c0.1,0,0.2,0,0.2,0l0,0c0.1,0,0.1,0,0.2,0c0.1,0,0.1,0,0.2,0.1
		c0,0,0.1,0,0.1,0.1c0,0,0.1,0,0.1,0c0.1,0,0.2,0.1,0.3,0.1c0.1,0,0.2,0.1,0.2,0.1c0.1,0,0.1,0.1,0.2,0.1c0,0,0,0.1,0.1,0.1
		c0.1,0,0.1,0.1,0.1,0.1c0,0,0,0.1,0.1,0.1c0,0,0.1,0,0.1,0c0.1,0.1,0.1,0.1,0.2,0.2c0,0,0.1,0.1,0.1,0.1c0,0,0.1,0.1,0.1,0.1
		c0.1,0,0.1,0,0.2,0c0,0,0,0.1,0,0.2c0.1,0.1,0.2,0.2,0.3,0.4c0,0,0.1,0.1,0.1,0.3c0.1,0.1,0.1,0.2,0.1,0.3c-0.1,0-0.1,0.1-0.1,0.1
		c0,0,0,0,0,0c0,0,0,0,0,0c0,0,0,0,0,0c0,0,0.1,0,0.1,0.1c0,0,0,0.1,0,0.2c0,0.1,0,0.1,0,0.2c0,0,0,0,0,0c0,0,0,0.1,0,0.1
		c0.1,0.3,0.1,0.6,0,0.9c0,0.1,0,0.2,0,0.3c0,0.1,0,0.2,0,0.2c0,0-0.1,0.1-0.1,0.1c0,0,0,0,0-0.1c0,0,0,0.1,0,0.2c0,0.1,0,0.1,0,0
		c0,0,0,0.1-0.1,0.2c0,0,0,0,0,0v0c0,0,0,0,0,0v0c0,0,0,0.1,0,0.1C106.9,23.2,106.9,23.2,106.9,23.2
		C106.9,23.2,106.9,23.2,106.9,23.2z M89.5,39.2l0-0.2C89.5,39.1,89.5,39.2,89.5,39.2C89.5,39.2,89.5,39.2,89.5,39.2z M89.7,38.6
		L89.7,38.6C89.8,38.6,89.8,38.6,89.7,38.6C89.7,38.6,89.7,38.5,89.7,38.6C89.7,38.5,89.7,38.5,89.7,38.6
		C89.7,38.6,89.7,38.6,89.7,38.6C89.7,38.6,89.7,38.6,89.7,38.6z M89.9,38.4c0-0.2,0-0.3,0.1-0.3c0,0-0.1,0.1-0.1,0.2
		C89.9,38.3,89.9,38.4,89.9,38.4z M91.9,40.2c0,0,0.1,0,0-0.1C91.9,40.1,91.9,40.1,91.9,40.2C91.9,40.2,91.9,40.2,91.9,40.2z
		 M95.1,39.5C95.2,39.5,95.2,39.5,95.1,39.5C95.2,39.5,95.2,39.5,95.1,39.5c0-0.1,0-0.1,0-0.1L95.1,39.5L95.1,39.5L95.1,39.5z
		 M95.6,40.8c0,0,0-0.1,0-0.1c0-0.1,0-0.1,0,0C95.5,40.8,95.5,40.8,95.6,40.8C95.5,40.8,95.6,40.8,95.6,40.8z M96.1,30.4
		C96.2,30.4,96.2,30.3,96.1,30.4L96.1,30.4C96.2,30.3,96.1,30.4,96.1,30.4z M96.2,30.5C96.2,30.5,96.2,30.4,96.2,30.5
		C96.2,30.4,96.2,30.4,96.2,30.5C96.2,30.4,96.2,30.5,96.2,30.5z M96.3,43C96.3,43,96.3,43,96.3,43L96.3,43c0,0.1,0,0.1,0,0.2l0-0.1
		v0C96.3,43.1,96.3,43.1,96.3,43C96.3,43,96.3,43,96.3,43C96.3,43,96.3,43,96.3,43z M96.3,43.5c-0.1-0.1-0.1-0.1,0,0.2v0
		c0,0,0,0,0,0c0,0,0,0,0,0c0,0,0-0.1,0-0.1C96.4,43.6,96.4,43.6,96.3,43.5L96.3,43.5z M96.3,30.5C96.3,30.5,96.3,30.5,96.3,30.5
		L96.3,30.5L96.3,30.5z M96.6,30.3L96.6,30.3L96.6,30.3c-0.1,0-0.1,0-0.1,0C96.5,30.4,96.5,30.4,96.6,30.3L96.6,30.3
		C96.6,30.3,96.6,30.3,96.6,30.3z M96.6,44.7L96.6,44.7C96.6,44.6,96.6,44.6,96.6,44.7C96.6,44.6,96.6,44.6,96.6,44.7L96.6,44.7
		c0-0.1,0-0.1,0-0.1s0,0,0,0c0-0.1,0-0.1,0,0c0,0,0,0,0,0L96.6,44.7L96.6,44.7z M101,21.6c-0.1,0-0.2,0-0.2,0l0,0l0,0
		c0,0-0.1,0-0.2,0c0,0-0.1,0-0.1,0c0,0-0.1,0-0.1,0c0,0-0.1,0-0.1,0v0c0,0,0,0,0,0c0,0,0,0,0,0c0,0,0,0,0.1,0c0,0,0,0,0,0
		c-0.1,0.2-0.1,0.2-0.1,0.2h0c0,0.2-0.1,0.3-0.1,0.2v0c0,0.1-0.1,0.2-0.2,0.3c0,0,0,0-0.1,0c0,0.1,0,0.1,0,0.2
		c-0.1,0.1-0.1,0.2,0,0.1c0,0,0,0-0.2,0l0,0.1v0c0.1,0,0.2,0,0.2,0c0,0.1-0.1,0.2-0.1,0.3c0,0,0,0.1-0.1,0.2c0,0.1-0.1,0.1-0.1,0.2
		c0-0.1,0,0-0.1,0.2c0,0.1-0.1,0.2-0.1,0.3c0,0.1-0.1,0.3-0.1,0.3v0c0,0,0,0-0.1,0.1c0,0,0,0,0,0c0,0-0.1-0.1-0.1-0.1l0,0
		c0,0,0,0,0,0c0,0-0.1,0,0,0.1c0,0,0,0.1,0,0.1h0l0,0c0,0,0,0,0,0.1c0,0,0,0,0,0c0,0.1-0.1,0.2-0.2,0.3c0,0,0,0.1,0.1,0.1
		c0,0,0,0-0.1,0.1c0,0-0.1,0.1-0.1,0.1c0,0,0,0.1-0.1,0.2c0,0.1-0.1,0.1-0.1,0.2c0,0,0,0,0,0c0,0,0.1-0.1,0.1-0.2
		c0-0.1,0.1-0.2,0.1-0.2c0,0,0,0,0,0c0,0,0,0,0,0.1c0,0,0,0,0,0c0,0.1-0.1,0.1-0.1,0.2c0,0.1-0.1,0.1-0.1,0.2c0,0.1-0.1,0.1-0.1,0.2
		c0,0,0,0,0,0.1c0,0,0,0.1,0,0.1c0,0.1-0.1,0.2-0.2,0.4c0,0.1-0.1,0.2-0.1,0.3c0,0,0,0,0,0c0,0.1-0.1,0.3-0.1,0.3l0,0c0,0,0,0,0,0.1
		c0,0-0.1,0-0.1,0v0c0,0,0,0,0,0c0,0,0,0.1,0,0.1c0,0.1-0.1,0.1-0.1,0.2h0c0,0.1,0,0.1-0.1,0.2c0,0.1,0,0.2-0.1,0.1
		c0,0.1-0.1,0.3-0.2,0.5L97.1,29c0,0,0,0,0,0.1l0,0c-0.2,0.3-0.3,0.5-0.2,0.4l0,0l0,0c0,0,0,0,0,0c0,0.1,0,0.1,0,0c0-0.1,0,0,0,0.1
		h0c0,0.1-0.1,0.1-0.1,0.2c0,0,0,0.1,0,0.1c0,0,0.1,0,0.2-0.1c0,0,0.1-0.1,0.1-0.1c0,0,0,0,0.1,0c0.1,0,0.1-0.1,0.2-0.1
		c-0.1,0,0,0,0.2-0.1c0.1,0,0.2-0.1,0.3-0.2c0.1-0.1,0.2-0.2,0.3-0.2h0c0,0,0,0,0.1-0.1c0,0,0,0.1,0,0.1c0,0,0,0.1,0,0.1l0,0
		c0,0,0,0,0,0c0,0,0.1,0,0.1,0c0,0,0.1-0.1,0.1-0.1l0.1,0c0,0,0,0,0-0.1c0,0,0,0,0,0c0.1,0,0.2-0.1,0.3-0.2c0,0,0,0,0-0.1
		c0,0,0,0,0.1,0c0.1,0,0.1,0,0.1,0c0,0,0.1-0.1,0.2-0.1c0.1-0.1,0.1-0.1,0.2-0.2c0,0,0,0,0,0c0,0-0.1,0.1-0.2,0.1
		c-0.1,0.1-0.2,0.1-0.2,0.1v0c0,0,0-0.1,0.1-0.1c0,0,0,0,0,0c0,0,0,0,0,0c0,0,0.1-0.1,0.2-0.1c0.1,0,0.1-0.1,0.1-0.1
		c0.1,0,0.1-0.1,0.2-0.1c0,0,0,0,0.1-0.1c0,0,0.1-0.1,0.1-0.1c0.1,0,0.2-0.1,0.3-0.3c0.1-0.1,0.2-0.2,0.3-0.2c0,0,0,0,0,0
		c0.1-0.1,0.2-0.2,0.3-0.3l0,0c0,0,0,0,0.1-0.1c0,0,0,0,0,0l0,0c0,0,0,0,0-0.1c0,0,0.1,0,0,0c0,0,0,0,0-0.1c0.1-0.1,0.1-0.1,0.1-0.1
		v0c0-0.1,0.1-0.1,0.2-0.1c0-0.1,0.1-0.2,0.1-0.1c0.1-0.1,0.2-0.3,0.3-0.4l0.1-0.1c0,0,0,0,0-0.1l0.1-0.1l0,0c0,0,0.1-0.1,0.2-0.2
		c0,0,0.1-0.1,0.1-0.1c0,0,0,0,0,0l0,0h0l0,0h0l0,0l0,0c0,0,0,0,0,0c0,0,0.1-0.1,0,0c0,0,0,0,0-0.1c0.1-0.1,0.1-0.1,0.1-0.1
		c0,0,0-0.1,0.1-0.1c0.1,0,0.1-0.1,0.1-0.1c0,0,0.1,0,0.1,0c0,0,0.1,0,0.1,0l0,0c0,0,0-0.1-0.1-0.1c0,0,0,0,0.1,0
		c0-0.1,0.1-0.2,0.1-0.2c0,0,0-0.1,0-0.1c0,0,0,0,0.1,0v0l0.2-0.3c0,0,0,0,0,0c0,0-0.1,0-0.1,0l0.1-0.1c0,0,0,0,0,0c0,0-0.1,0,0,0h0
		c0-0.1,0-0.1,0.1-0.1c0,0,0,0,0,0h0v0c0,0,0-0.1,0-0.1v0l0,0c0,0,0,0,0-0.1c0,0,0,0,0,0l0,0v0v0c0-0.1,0.1-0.1,0.1-0.1h0
		c0,0,0,0,0-0.1c0,0,0,0,0,0c0,0,0,0,0-0.1c0,0,0,0,0,0s0,0,0-0.1c0,0,0-0.1,0-0.1l0,0c0,0,0,0,0-0.1l0-0.1l0,0c0,0,0,0,0-0.1l0,0
		c0,0-0.1-0.1-0.1-0.3c0,0,0,0,0,0l0-0.1l0,0c0,0,0,0-0.1,0l0,0l0,0c0,0-0.1-0.1-0.1-0.1c0,0-0.1,0-0.2-0.1v0c0,0,0,0-0.1-0.1l0,0h0
		c0,0-0.1,0-0.1,0c-0.1,0-0.2,0-0.2,0c0,0,0,0,0,0c0,0,0,0,0,0c0,0,0,0-0.1,0l0,0c-0.1,0-0.2,0-0.3,0l0,0c0,0-0.1,0-0.1,0
		c0,0-0.1,0-0.1,0c-0.1,0-0.1,0-0.1,0c0,0-0.1,0-0.1,0c0,0-0.1,0-0.1,0c0,0,0,0.1,0,0C101.1,21.6,101.1,21.6,101,21.6
		C101.1,21.6,101,21.6,101,21.6z M96.8,45.4L96.8,45.4L96.8,45.4C96.8,45.5,96.8,45.5,96.8,45.4c0,0,0-0.1-0.1-0.3c0,0,0,0,0,0
		C96.8,45.3,96.8,45.4,96.8,45.4L96.8,45.4z M96.7,45.3C96.8,45.4,96.8,45.4,96.7,45.3C96.8,45.4,96.8,45.4,96.7,45.3
		C96.7,45.3,96.7,45.3,96.7,45.3z M96.8,45.6c0,0.1,0,0.2,0,0.2C96.8,45.8,96.8,45.8,96.8,45.6L96.8,45.6
		C96.8,45.6,96.8,45.6,96.8,45.6C96.8,45.5,96.8,45.5,96.8,45.6c0-0.1,0-0.1,0-0.1h0C96.8,45.6,96.8,45.6,96.8,45.6z M96.8,44.2
		c0,0.1,0,0.2,0,0.1L96.8,44.2c0.1,0.2,0.1,0.2,0.1,0.2l0-0.1L96.8,44.2L96.8,44.2z M96.9,44.7c0,0,0,0,0-0.1
		C96.9,44.6,96.9,44.6,96.9,44.7L96.9,44.7C96.9,44.7,96.9,44.7,96.9,44.7L96.9,44.7L96.9,44.7z M97,26.3C97,26.3,97,26.3,97,26.3
		c0-0.1,0-0.1,0-0.1L97,26.3l-0.1,0.1c0,0,0,0,0,0h0C97,26.3,97,26.2,97,26.3C97,26.3,97,26.3,97,26.3C97,26.3,97,26.3,97,26.3z
		 M97,27.8c0,0,0-0.1,0-0.1L97,27.8L97,27.8C96.9,27.8,96.9,27.8,97,27.8C96.9,27.9,96.9,27.9,97,27.8C96.9,27.9,97,27.9,97,27.8
		L97,27.8L97,27.8z M96.9,45.9C96.9,45.9,96.9,45.8,96.9,45.9C96.9,45.9,96.9,45.9,96.9,45.9z M96.9,44.8c0,0,0,0,0,0.1L96.9,44.8z
		 M97.1,45.3C97,45.1,97,45,97,45C97,45.1,97,45.2,97.1,45.3C97,45.3,97,45.3,97.1,45.3z M97,46.2C97,46.2,97,46.2,97,46.2
		C97,46.2,97,46.3,97,46.2c0,0.1,0,0.1,0,0.1C97,46.2,97,46.2,97,46.2L97,46.2z M97.2,25.9C97.1,25.9,97.1,25.9,97.2,25.9l-0.1,0v0
		c0,0,0,0,0,0.1C97.1,26,97.1,26,97.2,25.9L97.2,25.9z M97.2,25.8c0,0,0,0,0-0.1C97.2,25.8,97.2,25.8,97.2,25.8z M97.4,25.2
		c-0.1,0.3-0.1,0.4-0.1,0.4C97.4,25.5,97.4,25.4,97.4,25.2C97.4,25.3,97.4,25.3,97.4,25.2z M97.4,47.8
		C97.4,47.8,97.4,47.8,97.4,47.8c0-0.1,0-0.1,0-0.2c0,0,0,0,0,0S97.4,47.7,97.4,47.8z M97.6,27.2C97.6,27.2,97.6,27.2,97.6,27.2
		L97.6,27.2c0.1-0.1,0.1-0.1,0-0.1C97.6,27.2,97.5,27.2,97.6,27.2c-0.1,0-0.1,0.1-0.1,0.1l0,0c0,0.1,0,0.1,0.1,0
		C97.5,27.3,97.6,27.3,97.6,27.2C97.6,27.3,97.6,27.3,97.6,27.2z M97.4,47.8L97.4,47.8L97.4,47.8c0,0.1,0,0.1,0,0.2c0,0,0-0.1,0,0
		L97.4,47.8L97.4,47.8C97.4,47.9,97.4,47.9,97.4,47.8C97.4,47.9,97.4,47.9,97.4,47.8z M97.5,48.1C97.5,48,97.5,48,97.5,48.1
		C97.5,48,97.5,48,97.5,48.1L97.5,48.1z M97.6,48.5C97.6,48.5,97.6,48.6,97.6,48.5l0-0.1L97.6,48.5L97.6,48.5L97.6,48.5z M97.7,48.7
		C97.7,48.8,97.7,48.8,97.7,48.7C97.7,48.9,97.7,48.8,97.7,48.7l0,0.2v0l0,0c0-0.1-0.1-0.2-0.1-0.3L97.7,48.7L97.7,48.7
		C97.7,48.8,97.7,48.7,97.7,48.7z M97.8,49C97.8,48.9,97.8,49,97.8,49c0,0.1,0,0.1,0,0.1V49C97.8,49,97.8,49,97.8,49z M97.8,49.2
		c0-0.1,0-0.1,0-0.1C97.8,49.1,97.8,49.1,97.8,49.2z M97.9,29.5C97.8,29.5,97.8,29.5,97.9,29.5C97.9,29.5,97.9,29.5,97.9,29.5
		L97.9,29.5C98,29.5,98,29.5,97.9,29.5C97.9,29.5,97.9,29.5,97.9,29.5z M97.9,49.3C97.9,49.3,97.9,49.3,97.9,49.3
		C97.8,49.2,97.8,49.2,97.9,49.3L97.9,49.3L97.9,49.3z M98.1,26.2L98.1,26.2L98.1,26.2c0,0-0.1,0-0.1,0c0,0,0,0,0,0h0c0,0,0,0,0,0v0
		c0,0.1,0,0.1,0,0c0,0,0,0,0,0C98,26.4,98,26.3,98.1,26.2L98.1,26.2z M98.4,25.4C98.4,25.3,98.4,25.3,98.4,25.4L98.4,25.4
		c0-0.1,0-0.1,0-0.1c-0.1,0.1-0.1,0.2-0.2,0.4c0,0,0,0,0.1,0C98.4,25.5,98.4,25.4,98.4,25.4L98.4,25.4z M98.3,29.1
		c0,0,0.1,0,0.2-0.1c0,0,0,0,0,0c0,0,0.1,0,0.1,0c0,0,0,0,0,0c0,0,0,0,0,0l0,0.1c-0.1,0-0.1,0.1-0.1,0.1
		C98.3,29.1,98.2,29.1,98.3,29.1z M98.3,29.3C98.3,29.3,98.3,29.3,98.3,29.3C98.3,29.3,98.3,29.3,98.3,29.3z M98.7,25.4
		C98.7,25.4,98.7,25.4,98.7,25.4c0,0.1,0,0.1,0,0.1C98.6,25.5,98.6,25.5,98.7,25.4C98.6,25.4,98.6,25.4,98.7,25.4
		C98.6,25.4,98.6,25.4,98.7,25.4z M98.9,25l-0.1,0.2v0c0,0-0.1,0-0.1,0c0,0,0,0,0,0c0,0,0,0,0,0l-0.1,0c0.1-0.1,0.1-0.1,0.1-0.1
		C98.7,25.2,98.8,25.1,98.9,25C98.8,25,98.8,25,98.9,25C98.8,25,98.8,25,98.9,25z M98.7,28.9C98.7,28.9,98.7,28.9,98.7,28.9
		c0.1-0.1,0.1-0.1,0-0.1L98.7,28.9C98.7,28.9,98.7,28.9,98.7,28.9C98.7,28.9,98.7,28.9,98.7,28.9z M98.7,25
		C98.7,24.9,98.7,24.9,98.7,25C98.7,24.9,98.7,24.9,98.7,25z M98.8,29.1C98.7,29.1,98.7,29.1,98.8,29.1L98.8,29.1
		c-0.1,0.1-0.1,0.1-0.1,0.2c0.1,0,0.3-0.1,0.4-0.3c0,0,0,0,0-0.1C98.9,29,98.8,29,98.8,29.1L98.8,29.1z M98.9,24.6
		c0-0.1,0-0.1,0.1-0.1c0,0,0,0,0,0C98.9,24.5,98.9,24.5,98.9,24.6L98.9,24.6C98.9,24.6,98.9,24.6,98.9,24.6z M99.2,30
		c0.3-0.2,0.4-0.3,0.3-0.3C99.4,29.7,99.3,29.8,99.2,30C99.2,29.9,99.2,29.9,99.2,30z M99.6,22.7C99.6,22.7,99.6,22.7,99.6,22.7
		L99.6,22.7c0.1-0.1,0.1-0.1,0.1-0.2c0,0-0.1,0.1,0,0C99.6,22.7,99.6,22.7,99.6,22.7C99.5,22.7,99.5,22.7,99.6,22.7
		C99.5,22.7,99.5,22.7,99.6,22.7z M99.5,28.5L99.5,28.5L99.5,28.5C99.6,28.5,99.6,28.5,99.5,28.5C99.6,28.5,99.6,28.6,99.5,28.5
		l0.1,0.1c0,0,0,0,0,0c0,0,0,0,0,0c0,0,0-0.1,0,0c0,0,0-0.1,0-0.1C99.7,28.4,99.6,28.4,99.5,28.5L99.5,28.5z M99.7,29.5
		c0,0,0,0.1-0.1,0.1L99.7,29.5z M99.6,23c0,0,0,0,0.1-0.2c0.1,0,0,0-0.1,0v0C99.6,22.9,99.6,22.9,99.6,23z M99.7,22.5
		C99.7,22.6,99.7,22.5,99.7,22.5L99.7,22.5c0-0.1,0-0.1,0-0.1C99.6,22.6,99.6,22.6,99.7,22.5C99.6,22.5,99.7,22.5,99.7,22.5z
		 M99.9,29.5L99.9,29.5c0,0,0-0.1,0.1-0.2C99.9,29.3,99.9,29.3,99.9,29.5L99.9,29.5C99.8,29.5,99.8,29.5,99.9,29.5L99.9,29.5
		L99.9,29.5z M99.9,22.1C99.9,22,99.9,22,99.9,22.1c-0.1,0.1-0.1,0.2-0.1,0.2L99.9,22.1C99.9,22.1,99.9,22.1,99.9,22.1z M100.2,29.1
		C100.2,29.1,100.2,29.1,100.2,29.1c-0.1,0.1-0.1,0.1-0.1,0.2l0,0c0,0,0.1,0,0.2-0.2l0,0C100.2,29.1,100.1,29.1,100.2,29.1
		C100.2,29.1,100.2,29.1,100.2,29.1C100.2,29.1,100.2,29.1,100.2,29.1z M100.5,27.8C100.4,27.8,100.4,27.8,100.5,27.8
		C100.4,27.8,100.4,27.8,100.5,27.8c-0.1,0-0.1,0.1,0,0.1C100.4,27.9,100.5,27.8,100.5,27.8c0.1,0,0.1,0,0.1,0l0,0
		c0-0.1,0-0.1,0-0.1C100.5,27.7,100.5,27.7,100.5,27.8z M101,18.5l0.2-0.1C101.1,18.5,101,18.5,101,18.5C101,18.5,101,18.5,101,18.5
		z M101.2,27.5c0,0,0,0.1-0.1,0.1h0.1l0,0C101.2,27.6,101.2,27.6,101.2,27.5C101.3,27.5,101.3,27.5,101.2,27.5
		C101.2,27.4,101.2,27.4,101.2,27.5L101.2,27.5z M102,18.3C102,18.3,102,18.3,102,18.3c-0.1,0-0.2,0-0.2,0c0,0,0,0,0,0
		C101.9,18.4,101.9,18.4,102,18.3C101.9,18.3,101.9,18.3,102,18.3z M102.3,18.3c-0.1,0-0.2,0-0.2,0.1
		C102.2,18.4,102.2,18.4,102.3,18.3c0,0.1,0.1,0.1,0.1,0.1s0.1,0,0.1,0c0,0,0,0-0.1,0C102.4,18.3,102.4,18.3,102.3,18.3z
		 M102.9,25.1C102.8,25.1,102.8,25.1,102.9,25.1c-0.1,0.1-0.1,0.1,0,0.2C102.9,25.2,102.9,25.2,102.9,25.1
		C103,25.1,102.9,25.1,102.9,25.1z M103.3,23.6C103.3,23.5,103.3,23.5,103.3,23.6C103.3,23.5,103.3,23.5,103.3,23.6z M103.4,24.1
		C103.4,24.1,103.4,24.1,103.4,24.1c0.1,0,0.1,0,0.1,0C103.5,24,103.5,24,103.4,24.1L103.4,24.1C103.5,24,103.4,24,103.4,24.1
		L103.4,24.1z"/>
</g>
</svg>
